<svg width="35" height="34" viewBox="0 0 35 34" fill="none" xmlns="http://www.w3.org/2000/svg">
<path d="M30.5021 5.22727H28.5984V3.81818C28.5984 3.07075 28.3015 2.35394 27.773 1.82543C27.2445 1.29691 26.5277 1 25.7802 1C25.0328 1 24.316 1.29691 23.7875 1.82543C23.259 2.35394 22.962 3.07075 22.962 3.81818V5.22727H20.1439V3.81818C20.1439 3.07075 19.847 2.35394 19.3184 1.82543C18.7899 1.29691 18.0731 1 17.3257 1C16.5783 1 15.8614 1.29691 15.3329 1.82543C14.8044 2.35394 14.5075 3.07075 14.5075 3.81818V5.22727H11.6893V3.81818C11.6893 3.07075 11.3924 2.35394 10.8639 1.82543C10.3354 1.29691 9.61857 1 8.87114 1C8.12371 1 7.40689 1.29691 6.87838 1.82543C6.34987 2.35394 6.05296 3.07075 6.05296 3.81818V5.22727H4.14927C3.53325 5.22802 2.94267 5.47306 2.50707 5.90866C2.07147 6.34426 1.82643 6.93484 1.82568 7.55086V29.6736C1.82568 30.2901 2.0704 30.8814 2.50608 31.3176C2.94175 31.7538 3.53276 31.9993 4.14927 32H30.4993C31.1158 32 31.7071 31.7553 32.1433 31.3196C32.5795 30.8839 32.8249 30.2929 32.8257 29.6764V7.55086C32.8249 6.93484 32.5799 6.34426 32.1443 5.90866C31.7087 5.47306 31.1181 5.22802 30.5021 5.22727ZM24.3711 3.81818C24.3711 3.44447 24.5196 3.08606 24.7838 2.8218C25.0481 2.55755 25.4065 2.40909 25.7802 2.40909C26.1539 2.40909 26.5124 2.55755 26.7766 2.8218C27.0409 3.08606 27.1893 3.44447 27.1893 3.81818V5.22727H24.3711V3.81818ZM15.9166 3.81818C15.9166 3.44447 16.0651 3.08606 16.3293 2.8218C16.5936 2.55755 16.952 2.40909 17.3257 2.40909C17.6994 2.40909 18.0578 2.55755 18.3221 2.8218C18.5863 3.08606 18.7348 3.44447 18.7348 3.81818V5.22727H15.9166V3.81818ZM7.46205 3.81818C7.46205 3.44447 7.6105 3.08606 7.87476 2.8218C8.13902 2.55755 8.49742 2.40909 8.87114 2.40909C9.24485 2.40909 9.60326 2.55755 9.86752 2.8218C10.1318 3.08606 10.2802 3.44447 10.2802 3.81818V5.22727H7.46205V3.81818ZM31.4166 29.6764C31.4162 29.9188 31.3197 30.1512 31.1483 30.3226C30.9769 30.4941 30.7445 30.5905 30.5021 30.5909H4.14927C3.90685 30.5905 3.67446 30.4941 3.50304 30.3226C3.33162 30.1512 3.23515 29.9188 3.23477 29.6764V7.55086C3.23515 7.30844 3.33162 7.07605 3.50304 6.90463C3.67446 6.7332 3.90685 6.63674 4.14927 6.63636H10.2802C10.2802 7.01008 10.1318 7.36848 9.86752 7.63274C9.60326 7.897 9.24485 8.04545 8.87114 8.04545C8.68428 8.04545 8.50508 8.11968 8.37295 8.25181C8.24082 8.38394 8.16659 8.56314 8.16659 8.75C8.16659 8.93686 8.24082 9.11606 8.37295 9.24819C8.50508 9.38032 8.68428 9.45455 8.87114 9.45455C9.61857 9.45455 10.3354 9.15763 10.8639 8.62912C11.3924 8.10061 11.6893 7.38379 11.6893 6.63636H18.7348C18.7348 7.01008 18.5863 7.36848 18.3221 7.63274C18.0578 7.897 17.6994 8.04545 17.3257 8.04545C17.1388 8.04545 16.9596 8.11968 16.8275 8.25181C16.6954 8.38394 16.6211 8.56314 16.6211 8.75C16.6211 8.93686 16.6954 9.11606 16.8275 9.24819C16.9596 9.38032 17.1388 9.45455 17.3257 9.45455C18.0731 9.45455 18.7899 9.15763 19.3184 8.62912C19.847 8.10061 20.1439 7.38379 20.1439 6.63636H27.1893C27.1893 7.01008 27.0409 7.36848 26.7766 7.63274C26.5124 7.897 26.1539 8.04545 25.7802 8.04545C25.5934 8.04545 25.4142 8.11968 25.282 8.25181C25.1499 8.38394 25.0757 8.56314 25.0757 8.75C25.0757 8.93686 25.1499 9.11606 25.282 9.24819C25.4142 9.38032 25.5934 9.45455 25.7802 9.45455C26.5277 9.45455 27.2445 9.15763 27.773 8.62912C28.3015 8.10061 28.5984 7.38379 28.5984 6.63636H30.5021C30.7445 6.63674 30.9769 6.7332 31.1483 6.90463C31.3197 7.07605 31.4162 7.30844 31.4166 7.55086V29.6764Z" fill="white"/>
<path d="M27.9951 11H6.65624C6.17097 11.0007 5.70579 11.1932 5.36265 11.5353C5.01952 11.8774 4.82642 12.3411 4.82568 12.8249V27.1751C4.82642 27.6589 5.01952 28.1226 5.36265 28.4647C5.70579 28.8068 6.17097 28.9993 6.65624 29H27.9951C28.4804 28.9993 28.9456 28.8068 29.2887 28.4647C29.6319 28.1226 29.8249 27.6589 29.8257 27.1751V12.8249C29.8249 12.3411 29.6319 11.8774 29.2887 11.5353C28.9456 11.1932 28.4804 11.0007 27.9951 11ZM28.4368 27.1751C28.4364 27.2917 28.3898 27.4035 28.307 27.486C28.2243 27.5685 28.1122 27.615 27.9951 27.6154H6.65624C6.53921 27.615 6.42709 27.5685 6.34434 27.486C6.26159 27.4035 6.21494 27.2917 6.21457 27.1751V12.8249C6.21494 12.7083 6.26159 12.5965 6.34434 12.514C6.42709 12.4315 6.53921 12.385 6.65624 12.3846H27.9951C28.1122 12.385 28.2243 12.4315 28.307 12.514C28.3898 12.5965 28.4364 12.7083 28.4368 12.8249V27.1751Z" fill="white"/>
<path d="M23.8257 21C23.296 21.0028 22.7887 21.2407 22.4142 21.6621C22.0396 22.0835 21.8281 22.6543 21.8257 23.2502V23.7498C21.8257 24.3466 22.0364 24.9189 22.4115 25.3409C22.7865 25.7629 23.2953 26 23.8257 26C24.3561 26 24.8648 25.7629 25.2399 25.3409C25.615 24.9189 25.8257 24.3466 25.8257 23.7498V23.2502C25.8232 22.6543 25.6117 22.0835 25.2372 21.6621C24.8626 21.2407 24.3554 21.0028 23.8257 21ZM24.4924 23.7498C24.4924 23.9487 24.4221 24.1395 24.2971 24.2802C24.1721 24.4208 24.0025 24.4999 23.8257 24.4999C23.6489 24.4999 23.4793 24.4208 23.3543 24.2802C23.2293 24.1395 23.159 23.9487 23.159 23.7498V23.2502C23.159 23.0513 23.2293 22.8605 23.3543 22.7198C23.4793 22.5792 23.6489 22.5001 23.8257 22.5001C24.0025 22.5001 24.1721 22.5792 24.2971 22.7198C24.4221 22.8605 24.4924 23.0513 24.4924 23.2502V23.7498Z" fill="white"/>
<path d="M16.8257 21C16.296 21.0028 15.7887 21.2407 15.4142 21.6621C15.0396 22.0835 14.8281 22.6543 14.8257 23.2502V23.7498C14.8257 24.3466 15.0364 24.9189 15.4115 25.3409C15.7865 25.7629 16.2953 26 16.8257 26C17.3561 26 17.8648 25.7629 18.2399 25.3409C18.615 24.9189 18.8257 24.3466 18.8257 23.7498V23.2502C18.8232 22.6543 18.6117 22.0835 18.2372 21.6621C17.8626 21.2407 17.3554 21.0028 16.8257 21ZM17.4924 23.7498C17.4924 23.9487 17.4221 24.1395 17.2971 24.2802C17.1721 24.4208 17.0025 24.4999 16.8257 24.4999C16.6489 24.4999 16.4793 24.4208 16.3543 24.2802C16.2293 24.1395 16.159 23.9487 16.159 23.7498V23.2502C16.159 23.0513 16.2293 22.8605 16.3543 22.7198C16.4793 22.5792 16.6489 22.5001 16.8257 22.5001C17.0025 22.5001 17.1721 22.5792 17.2971 22.7198C17.4221 22.8605 17.4924 23.0513 17.4924 23.2502V23.7498Z" fill="white"/>
<path d="M9.82568 21C9.29601 21.0028 8.78872 21.2407 8.41418 21.6621C8.03964 22.0835 7.82814 22.6543 7.82568 23.2502V23.7498C7.82568 24.3466 8.0364 24.9189 8.41147 25.3409C8.78654 25.7629 9.29525 26 9.82568 26C10.3561 26 10.8648 25.7629 11.2399 25.3409C11.615 24.9189 11.8257 24.3466 11.8257 23.7498V23.2502C11.8232 22.6543 11.6117 22.0835 11.2372 21.6621C10.8626 21.2407 10.3554 21.0028 9.82568 21ZM10.4924 23.7498C10.4924 23.9487 10.4221 24.1395 10.2971 24.2802C10.1721 24.4208 10.0025 24.4999 9.82568 24.4999C9.64887 24.4999 9.4793 24.4208 9.35428 24.2802C9.22925 24.1395 9.15902 23.9487 9.15902 23.7498V23.2502C9.15902 23.0513 9.22925 22.8605 9.35428 22.7198C9.4793 22.5792 9.64887 22.5001 9.82568 22.5001C10.0025 22.5001 10.1721 22.5792 10.2971 22.7198C10.4221 22.8605 10.4924 23.0513 10.4924 23.2502V23.7498Z" fill="white"/>
<path d="M23.8257 14C23.296 14.0028 22.7887 14.2407 22.4142 14.6621C22.0396 15.0835 21.8281 15.6543 21.8257 16.2502V16.7498C21.8257 17.3466 22.0364 17.9189 22.4115 18.3409C22.7865 18.7629 23.2953 19 23.8257 19C24.3561 19 24.8648 18.7629 25.2399 18.3409C25.615 17.9189 25.8257 17.3466 25.8257 16.7498V16.2502C25.8232 15.6543 25.6117 15.0835 25.2372 14.6621C24.8626 14.2407 24.3554 14.0028 23.8257 14ZM24.4924 16.7498C24.4924 16.9487 24.4221 17.1395 24.2971 17.2802C24.1721 17.4208 24.0025 17.4999 23.8257 17.4999C23.6489 17.4999 23.4793 17.4208 23.3543 17.2802C23.2293 17.1395 23.159 16.9487 23.159 16.7498V16.2502C23.159 16.0513 23.2293 15.8605 23.3543 15.7198C23.4793 15.5792 23.6489 15.5001 23.8257 15.5001C24.0025 15.5001 24.1721 15.5792 24.2971 15.7198C24.4221 15.8605 24.4924 16.0513 24.4924 16.2502V16.7498Z" fill="white"/>
<path d="M16.8257 14C16.296 14.0028 15.7887 14.2407 15.4142 14.6621C15.0396 15.0835 14.8281 15.6543 14.8257 16.2502V16.7498C14.8257 17.3466 15.0364 17.9189 15.4115 18.3409C15.7865 18.7629 16.2953 19 16.8257 19C17.3561 19 17.8648 18.7629 18.2399 18.3409C18.615 17.9189 18.8257 17.3466 18.8257 16.7498V16.2502C18.8232 15.6543 18.6117 15.0835 18.2372 14.6621C17.8626 14.2407 17.3554 14.0028 16.8257 14ZM17.4924 16.7498C17.4924 16.9487 17.4221 17.1395 17.2971 17.2802C17.1721 17.4208 17.0025 17.4999 16.8257 17.4999C16.6489 17.4999 16.4793 17.4208 16.3543 17.2802C16.2293 17.1395 16.159 16.9487 16.159 16.7498V16.2502C16.159 16.0513 16.2293 15.8605 16.3543 15.7198C16.4793 15.5792 16.6489 15.5001 16.8257 15.5001C17.0025 15.5001 17.1721 15.5792 17.2971 15.7198C17.4221 15.8605 17.4924 16.0513 17.4924 16.2502V16.7498Z" fill="white"/>
<path d="M9.82568 14C9.29601 14.0028 8.78872 14.2407 8.41418 14.6621C8.03964 15.0835 7.82814 15.6543 7.82568 16.2502V16.7498C7.82568 17.3466 8.0364 17.9189 8.41147 18.3409C8.78654 18.7629 9.29525 19 9.82568 19C10.3561 19 10.8648 18.7629 11.2399 18.3409C11.615 17.9189 11.8257 17.3466 11.8257 16.7498V16.2502C11.8232 15.6543 11.6117 15.0835 11.2372 14.6621C10.8626 14.2407 10.3554 14.0028 9.82568 14ZM10.4924 16.7498C10.4924 16.9487 10.4221 17.1395 10.2971 17.2802C10.1721 17.4208 10.0025 17.4999 9.82568 17.4999C9.64887 17.4999 9.4793 17.4208 9.35428 17.2802C9.22925 17.1395 9.15902 16.9487 9.15902 16.7498V16.2502C9.15902 16.0513 9.22925 15.8605 9.35428 15.7198C9.4793 15.5792 9.64887 15.5001 9.82568 15.5001C10.0025 15.5001 10.1721 15.5792 10.2971 15.7198C10.4221 15.8605 10.4924 16.0513 10.4924 16.2502V16.7498Z" fill="white"/>
</svg>
