<svg width="54" height="32" viewBox="0 0 54 32" fill="none" xmlns="http://www.w3.org/2000/svg">
<path d="M37.4516 0.101526H0.297867C0.293247 2.70742 1.31974 5.20933 3.15325 7.06107C4.98676 8.91281 7.47839 9.964 10.0842 9.98516H49.2353L43.3463 16H8.21851C8.21925 17.2879 8.47403 18.5629 8.96826 19.7522C9.46248 20.9414 10.1864 22.0215 11.0987 22.9305C12.0109 23.8396 13.0935 24.5597 14.2845 25.0498C15.4754 25.5398 16.7513 25.7901 18.0392 25.7864H33.7603L29.7542 29.8955C31.8771 31.0757 34.2422 31.7538 36.668 31.8778C39.0937 32.0018 41.5157 31.5683 43.7478 30.6106C45.98 29.6529 47.9631 28.1965 49.5448 26.3532C51.1265 24.5099 52.2649 22.3286 52.8724 19.9769C53.48 17.6252 53.5407 15.1655 53.0498 12.7867C52.5588 10.4079 51.5294 8.17322 50.0404 6.25417C48.5515 4.33512 46.6426 2.78274 44.4604 1.71619C42.2782 0.649645 39.8806 0.0972901 37.4516 0.101526Z" fill="url(#paint0_linear_118_212)"/>
<defs>
<linearGradient id="paint0_linear_118_212" x1="1.79729" y1="-2.50244" x2="50.3227" y2="25.5117" gradientUnits="userSpaceOnUse">
<stop offset="0.31" stop-color="#E52322"/>
<stop offset="0.32" stop-color="#DA262A"/>
<stop offset="0.39" stop-color="#A03851"/>
<stop offset="0.47" stop-color="#704771"/>
<stop offset="0.53" stop-color="#4A528B"/>
<stop offset="0.6" stop-color="#2F5A9D"/>
<stop offset="0.65" stop-color="#1F5FA8"/>
<stop offset="0.69" stop-color="#1961AC"/>
</linearGradient>
</defs>
</svg>
