<svg width="25" height="25" viewBox="0 0 25 25" fill="none" xmlns="http://www.w3.org/2000/svg">
<path opacity="0.25" d="M10.7351 20.0566C10.2379 20.0566 9.76703 19.8246 9.46529 19.4246L5.38148 14.0287C5.25522 13.862 5.16304 13.6721 5.11022 13.4698C5.05739 13.2675 5.04495 13.0568 5.07361 12.8497C5.10227 12.6426 5.17147 12.4432 5.27725 12.2629C5.38303 12.0825 5.52331 11.9248 5.69008 11.7987C5.85679 11.6721 6.04685 11.5796 6.24937 11.5266C6.45188 11.4736 6.66287 11.4611 6.87024 11.4897C7.0776 11.5184 7.27728 11.5877 7.45781 11.6937C7.63834 11.7997 7.79618 11.9402 7.92229 12.1073L10.6094 15.6551L17.3655 4.80608C17.5895 4.44787 17.9465 4.19316 18.3581 4.09781C18.7697 4.00246 19.2023 4.07426 19.5611 4.29746C20.3074 4.7615 20.5372 5.74445 20.0709 6.49195L12.0884 19.3046C11.9521 19.5243 11.7643 19.7074 11.5412 19.8381C11.3181 19.9687 11.0665 20.043 10.8083 20.0544C10.7831 20.0566 10.7603 20.0566 10.7351 20.0566Z" fill="#121212"/>
<rect x="1.18555" y="0.556641" width="23" height="23" rx="3.5" stroke="#D7D7D7"/>
</svg>
