<svg width="29" height="29" viewBox="0 0 29 29" fill="none" xmlns="http://www.w3.org/2000/svg">
<g clip-path="url(#clip0_116_556)">
<path d="M14.1085 6.30664C11.0324 6.30664 9.1958 8.22945 9.1958 11.4499C9.1958 13.2826 11.6309 17.5167 14.1076 20.8973C16.5694 17.5053 19.0212 13.3237 19.0212 11.4499C19.0212 8.22945 17.1845 6.30664 14.1085 6.30664ZM14.1032 13.6536C12.9115 13.6536 11.9455 12.6876 11.9455 11.4958C11.9455 10.3041 12.9115 9.33808 14.1032 9.33808C15.295 9.33808 16.261 10.3041 16.261 11.4958C16.261 12.6876 15.295 13.6536 14.1032 13.6536Z" fill="#BBBBBB"/>
<path d="M14.1084 0.181641C6.37646 0.181641 0.108398 6.4497 0.108398 14.1816C0.108398 21.9136 6.37646 28.1816 14.1084 28.1816C21.8403 28.1816 28.1084 21.9136 28.1084 14.1816C28.1084 6.4497 21.8403 0.181641 14.1084 0.181641ZM14.9283 22.7304L14.1084 23.8066L13.2933 22.7304C12.6935 21.9464 7.44571 14.9403 7.44571 11.4499C7.44571 7.26258 10.0593 4.55664 14.1084 4.55664C18.1575 4.55664 20.7711 7.26258 20.7711 11.4499C20.7711 14.935 15.5228 21.9411 14.9283 22.7304Z" fill="#BBBBBB"/>
</g>
<defs>
<clipPath id="clip0_116_556">
<rect width="28" height="28" fill="white" transform="translate(0.108398 0.181641)"/>
</clipPath>
</defs>
</svg>
