<svg width="29" height="29" viewBox="0 0 29 29" fill="none" xmlns="http://www.w3.org/2000/svg">
<g opacity="0.5">
<g clip-path="url(#clip0_47_30)">
<path d="M23.962 4.43788C18.4938 -1.02863 9.62949 -1.02731 4.16298 4.44089C-1.30353 9.90909 -1.30222 18.7734 4.16599 24.2399C9.63419 29.7064 18.4985 29.7051 23.965 24.2369C26.5903 21.6107 28.0648 18.0492 28.064 14.3359C28.0632 10.6231 26.5877 7.06277 23.962 4.43788ZM21.2665 19.8407C21.2659 19.8413 21.2653 19.842 21.2646 19.8426V19.8379L20.5553 20.5426C19.6379 21.4716 18.3018 21.8538 17.0319 21.5506C15.7525 21.2081 14.5363 20.663 13.4293 19.9359C12.4008 19.2786 11.4477 18.5103 10.5873 17.6446C9.79557 16.8587 9.08431 15.9957 8.46393 15.0686C7.78537 14.071 7.24828 12.9842 6.86793 11.8392C6.43191 10.4941 6.79323 9.01818 7.80128 8.02658L8.63193 7.19593C8.86288 6.96395 9.23814 6.96313 9.47007 7.19407C9.47067 7.19468 9.47133 7.19528 9.47193 7.19593L12.0946 9.81858C12.3266 10.0495 12.3274 10.4248 12.0964 10.6567C12.0958 10.6573 12.0952 10.6579 12.0946 10.6586L10.5546 12.1986C10.1127 12.6356 10.0571 13.3302 10.4239 13.8319C10.9809 14.5964 11.5973 15.3157 12.2673 15.9833C13.0143 16.7335 13.8263 17.4159 14.6939 18.0226C15.1953 18.3723 15.8749 18.3134 16.3086 17.8826L17.7972 16.3706C18.0282 16.1387 18.4034 16.1378 18.6354 16.3688C18.636 16.3694 18.6366 16.37 18.6372 16.3706L21.2646 19.0026C21.4966 19.2335 21.4974 19.6087 21.2665 19.8407Z" fill="#787878"/>
<ellipse cx="14.0638" cy="14.3392" rx="10.0862" ry="10.0862" fill="#787878"/>
<g clip-path="url(#clip1_47_30)">
<path d="M21.8641 8.33887H6.26416L14.0642 14.7637L21.9523 8.35687C21.9235 8.34843 21.894 8.34242 21.8641 8.33887Z" fill="white"/>
<path d="M14.4426 16.0044C14.2216 16.1855 13.9035 16.1855 13.6825 16.0044L5.66406 9.39844V19.7388C5.66406 20.0702 5.93269 20.3388 6.26407 20.3388H21.864C22.1954 20.3388 22.4641 20.0702 22.4641 19.7388V9.48724L14.4426 16.0044Z" fill="white"/>
</g>
</g>
</g>
<defs>
<clipPath id="clip0_47_30">
<rect x="0.0639648" y="0.338867" width="28" height="28" rx="14" fill="white"/>
</clipPath>
<clipPath id="clip1_47_30">
<rect width="16.8" height="16.8" fill="white" transform="translate(5.66406 5.93848)"/>
</clipPath>
</defs>
</svg>
