<svg width="30" height="29" viewBox="0 0 30 29" fill="none" xmlns="http://www.w3.org/2000/svg">
<g clip-path="url(#clip0_47_13)">
<path d="M15.0884 0.339844C7.07434 0.339844 0.576172 6.60744 0.576172 14.3392C0.576172 22.071 7.0737 28.3386 15.0884 28.3386C23.1037 28.3386 29.6006 22.071 29.6006 14.3392C29.6006 6.60744 23.1037 0.339844 15.0884 0.339844ZM15.0884 4.52582C17.7402 4.52582 19.889 6.59944 19.889 9.15641C19.889 11.714 17.7402 13.787 15.0884 13.787C12.4378 13.787 10.289 11.714 10.289 9.15641C10.289 6.59944 12.4378 4.52582 15.0884 4.52582ZM15.0852 24.6784C12.4404 24.6784 10.0181 23.7492 8.14972 22.2112C7.69458 21.8367 7.43195 21.2876 7.43195 20.7114C7.43195 18.1181 9.60757 16.0426 12.2963 16.0426H17.8817C20.5711 16.0426 22.7384 18.1181 22.7384 20.7114C22.7384 21.2882 22.4771 21.8361 22.0213 22.2106C20.1535 23.7492 17.7306 24.6784 15.0852 24.6784Z" fill="#BBBBBB"/>
</g>
<defs>
<clipPath id="clip0_47_13">
<rect width="29.0244" height="28" fill="white" transform="translate(0.576172 0.338867)"/>
</clipPath>
</defs>
</svg>
