<svg width="29" height="29" viewBox="0 0 29 29" fill="none" xmlns="http://www.w3.org/2000/svg">
<g opacity="0.5">
<g clip-path="url(#clip0_47_22)">
<path d="M23.9864 4.43788C18.5183 -1.02863 9.6539 -1.02732 4.18739 4.44089C-1.27912 9.90909 -1.2778 18.7734 4.1904 24.2399C9.6586 29.7064 18.5229 29.7051 23.9894 24.2369C26.6147 21.6107 28.0892 18.0492 28.0884 14.3359C28.0876 10.6231 26.6121 7.06277 23.9864 4.43788ZM21.2909 19.8407C21.2903 19.8413 21.2897 19.842 21.2891 19.8426V19.8379L20.5797 20.5426C19.6623 21.4716 18.3262 21.8538 17.0563 21.5506C15.7769 21.2081 14.5607 20.663 13.4537 19.9359C12.4252 19.2786 11.4722 18.5103 10.6117 17.6446C9.81999 16.8587 9.10872 15.9957 8.48835 15.0686C7.80978 14.071 7.2727 12.9842 6.89235 11.8392C6.45632 10.4941 6.81764 9.01818 7.8257 8.02658L8.65635 7.19593C8.88729 6.96395 9.26256 6.96313 9.49449 7.19408C9.49509 7.19468 9.49574 7.19528 9.49635 7.19593L12.119 9.81858C12.351 10.0495 12.3518 10.4248 12.1209 10.6567C12.1203 10.6573 12.1197 10.6579 12.119 10.6586L10.579 12.1986C10.1371 12.6356 10.0816 13.3302 10.4483 13.8319C11.0053 14.5964 11.6217 15.3157 12.2917 15.9833C13.0387 16.7335 13.8507 17.4159 14.7183 18.0226C15.2197 18.3723 15.8993 18.3134 16.333 17.8826L17.8216 16.3706C18.0526 16.1387 18.4279 16.1378 18.6598 16.3688C18.6604 16.3694 18.661 16.37 18.6616 16.3706L21.289 19.0026C21.521 19.2335 21.5219 19.6087 21.2909 19.8407Z" fill="#787878"/>
</g>
</g>
<defs>
<clipPath id="clip0_47_22">
<rect x="0.0883789" y="0.338867" width="28" height="28" rx="14" fill="white"/>
</clipPath>
</defs>
</svg>
