<svg width="143" height="142" viewBox="0 0 143 142" fill="none" xmlns="http://www.w3.org/2000/svg">
<g clip-path="url(#clip0_138_10)">
<path d="M53.7302 106.726C39.3775 106.726 25.8792 101.176 15.7298 91.0975C-5.22472 70.2895 -5.22472 36.4366 15.7298 15.6286C25.8792 5.5502 39.3775 0 53.7302 0C68.0829 0 81.5813 5.5502 91.7306 15.6286C101.88 25.707 107.469 39.1109 107.469 53.3632C107.469 67.6156 101.88 81.0195 91.7306 91.0979C81.5813 101.176 68.0829 106.726 53.7302 106.726ZM53.7302 4.58419C40.6109 4.58419 28.2724 9.65683 18.9944 18.8704C-0.155727 37.8866 -0.155727 68.8346 18.9944 87.8509C28.2724 97.064 40.6052 102.137 53.7302 102.137C66.8495 102.137 79.188 97.064 88.466 87.8509C97.744 78.6378 102.852 66.3912 102.852 53.358C102.852 40.3304 97.744 28.0782 88.466 18.8651C79.1823 9.65683 66.8495 4.58419 53.7302 4.58419Z" fill="white"/>
<path d="M53.7304 95.6032C42.3477 95.6032 31.6611 91.2157 23.6391 83.2442C15.6115 75.2728 11.1931 64.6608 11.1931 53.3633C11.1931 42.0659 15.6115 31.4483 23.6391 23.4824C31.6667 15.5166 42.3534 11.123 53.7304 11.123C65.1075 11.123 75.7999 15.5106 83.8218 23.482C100.415 39.9589 100.415 66.7725 83.8218 83.2495C75.7938 91.21 65.1071 95.6032 53.7304 95.6032ZM53.7304 15.7072C43.5868 15.7072 34.06 19.6172 26.9033 26.7238C19.7524 33.8248 15.8092 43.2849 15.8092 53.3633C15.8092 63.4361 19.7467 72.8962 26.9033 80.0028C34.0543 87.1038 43.5811 91.0194 53.7304 91.0194C63.8741 91.0194 73.4009 87.1094 80.5576 80.0028C95.3514 65.3125 95.3514 41.4146 80.5576 26.7238C73.4009 19.6172 63.8737 15.7072 53.7304 15.7072Z" fill="white"/>
<path d="M74.2775 35.2454C73.6834 35.2454 73.0953 35.0205 72.6424 34.5712C71.9634 33.8969 71.2394 33.2509 70.4983 32.6557C69.5028 31.8581 69.3498 30.4142 70.1476 29.4312C70.9451 28.4427 72.4049 28.2907 73.3948 29.083C74.2661 29.7798 75.1148 30.5379 75.9123 31.3246C76.8116 32.2176 76.8116 33.6729 75.9123 34.5659C75.4601 35.0209 74.8717 35.2454 74.2775 35.2454Z" fill="white"/>
<path d="M33.1773 35.2452C32.5832 35.2452 31.9951 35.0204 31.5422 34.571C30.6428 33.6779 30.6428 32.2227 31.5422 31.3296C40.1526 22.7795 53.1193 19.9536 64.5755 24.1275C65.7747 24.5656 66.3859 25.8802 65.9501 27.0711C65.5089 28.2563 64.1851 28.8689 62.9858 28.436C53.2098 24.8743 42.1554 27.2843 34.8125 34.5762C34.3596 35.0208 33.7715 35.2452 33.1773 35.2452Z" fill="white"/>
<path d="M129.759 142C127.773 142 125.787 141.248 124.277 139.748L81.2758 97.0471C80.3765 96.154 80.3765 94.6988 81.2758 93.8057C82.1752 92.9126 83.6407 92.9126 84.54 93.8057L127.541 136.506C128.763 137.72 130.749 137.72 131.971 136.506L137.453 131.057C138.047 130.467 138.37 129.687 138.37 128.861C138.37 128.029 138.042 127.248 137.453 126.659L94.4459 83.9522C93.5465 83.0591 93.5465 81.6039 94.4459 80.7108C95.3452 79.8178 96.8107 79.8178 97.7101 80.7108L140.717 123.417C142.182 124.872 142.986 126.805 142.986 128.861C142.986 130.917 142.177 132.849 140.717 134.305L135.235 139.754C133.73 141.253 131.745 142 129.759 142Z" fill="white"/>
</g>
<defs>
<clipPath id="clip0_138_10">
<rect width="143" height="142" fill="white"/>
</clipPath>
</defs>
</svg>
