<svg width="180" height="351" viewBox="0 0 180 351" fill="none" xmlns="http://www.w3.org/2000/svg">
<path d="M71.4383 165.842L72.1903 167.314C71.8383 167.688 71.3316 167.992 70.6703 168.226C70.0196 168.461 69.3316 168.578 68.6063 168.578C66.8996 168.578 65.5076 168.05 64.4303 166.994C63.3636 165.938 62.8303 164.541 62.8303 162.802C62.8303 161.138 63.3369 159.757 64.3503 158.658C65.3529 157.57 66.7556 157.026 68.5583 157.026C69.9876 157.026 71.1236 157.405 71.9663 158.162L71.0863 159.618C70.3289 159.117 69.4863 158.866 68.5583 158.866C67.4916 158.866 66.6169 159.224 65.9343 159.938C65.2516 160.653 64.9103 161.608 64.9103 162.802C64.9103 163.976 65.2676 164.925 65.9823 165.65C66.7076 166.376 67.6409 166.738 68.7823 166.738C69.7636 166.738 70.6489 166.44 71.4383 165.842ZM80.6438 157.202H82.9478L79.1718 162.69L83.0918 168.402H80.7878L77.8918 164.194L75.0118 168.402H72.7078L76.6278 162.69L72.8838 157.202H75.1878L77.9398 161.25L80.6438 157.202ZM91.4429 168.402H84.8029V157.202H91.2829V159.042H86.7709V161.826H90.8029V163.666H86.7709V166.562H91.4429V168.402ZM95.974 168.402H94.006V157.202H95.99L99.814 162.434L103.462 157.202H105.318V168.402H103.366V160.306L99.83 165.282H99.542L95.974 160.354V168.402ZM108.972 168.402H106.988L111.724 157.17H113.452L118.188 168.402H116.092L114.924 165.538H110.14L108.972 168.402ZM114.172 163.698L112.54 159.714L110.892 163.698H114.172ZM40.6762 188.402H38.7082V179.042H33.7162V188.402H31.7482V177.202H40.6762V188.402ZM45.7474 184.354V188.402H43.7794V177.202C44.2488 177.202 44.7554 177.197 45.2994 177.186C45.8541 177.176 46.4088 177.17 46.9634 177.17C47.7528 177.17 48.4354 177.272 49.0114 177.474C49.5981 177.666 50.0514 177.938 50.3714 178.29C50.6914 178.632 50.9261 179.01 51.0754 179.426C51.2248 179.832 51.2994 180.28 51.2994 180.77C51.2994 181.784 50.9368 182.642 50.2114 183.346C49.4968 184.05 48.4941 184.402 47.2034 184.402C46.5528 184.402 46.0674 184.386 45.7474 184.354ZM47.1554 179.01L45.7474 179.042V182.482C46.3128 182.536 46.7768 182.562 47.1394 182.562C47.7688 182.562 48.2701 182.408 48.6434 182.098C49.0274 181.789 49.2194 181.341 49.2194 180.754C49.2194 179.592 48.5314 179.01 47.1554 179.01ZM61.1763 180.45L55.3043 188.402H53.5763V177.202H55.5443V185.17L61.4163 177.202H63.1443V188.402H61.1763V180.45ZM66.2482 188.386V177.234C67.4002 177.181 68.4775 177.154 69.4802 177.154C70.7175 177.154 71.6402 177.4 72.2482 177.89C72.8562 178.381 73.1602 179.058 73.1602 179.922C73.1602 181.128 72.6269 181.976 71.5602 182.466V182.498C72.1682 182.658 72.6482 182.962 73.0002 183.41C73.3522 183.848 73.5282 184.413 73.5282 185.106C73.5282 186.194 73.1549 187.026 72.4082 187.602C71.6615 188.178 70.6482 188.466 69.3682 188.466C68.0882 188.466 67.0482 188.44 66.2482 188.386ZM69.6082 183.586H68.2162V186.546C68.7175 186.6 69.1495 186.626 69.5122 186.626C70.8775 186.626 71.5602 186.088 71.5602 185.01C71.5602 184.541 71.3895 184.189 71.0482 183.954C70.7069 183.709 70.2269 183.586 69.6082 183.586ZM69.4482 178.994C68.9789 178.994 68.5682 179.01 68.2162 179.042V181.874H69.5442C70.0455 181.874 70.4455 181.746 70.7442 181.49C71.0535 181.234 71.2082 180.866 71.2082 180.386C71.2082 179.938 71.0535 179.597 70.7442 179.362C70.4349 179.117 70.0029 178.994 69.4482 178.994ZM84.6832 188.402H82.7312V179.042H79.4672L79.2432 181.154C79.1152 182.434 78.9499 183.528 78.7472 184.434C78.5445 185.341 78.3205 186.066 78.0752 186.61C77.8299 187.154 77.5365 187.57 77.1952 187.858C76.8645 188.146 76.5179 188.328 76.1552 188.402C75.8032 188.466 75.3925 188.466 74.9232 188.402L74.9712 186.45C75.2059 186.482 75.3979 186.472 75.5472 186.418C75.6965 186.365 75.8725 186.216 76.0752 185.97C76.2992 185.693 76.4805 185.325 76.6192 184.866C77.0032 183.725 77.2859 181.917 77.4672 179.442L77.6272 177.202H84.6832V188.402ZM94.4194 188.402H87.7794V177.202H94.2594V179.042H89.7474V181.826H93.7794V183.666H89.7474V186.562H94.4194V188.402ZM102.583 177.202H104.551V188.402H102.583V183.81C101.879 184.322 100.988 184.578 99.9106 184.578C98.9399 184.578 98.1292 184.29 97.4786 183.714C96.8279 183.138 96.5026 182.232 96.5026 180.994V177.202H98.4706V180.434C98.4706 181.97 99.1266 182.738 100.439 182.738C101.164 182.738 101.879 182.498 102.583 182.018V177.202ZM114.294 188.402H107.654V177.202H114.134V179.042H109.622V181.826H113.654V183.666H109.622V186.562H114.294V188.402ZM125.898 188.402H123.946V183.618H118.826V188.402H116.858V177.202H118.826V181.778H123.946V177.202H125.898V188.402ZM136.598 180.45L130.726 188.402H128.998V177.202H130.966V185.17L136.838 177.202H138.566V188.402H136.598V180.45ZM148.678 188.402H146.726V184.53H145.11L142.598 188.402H140.39L143.254 184.13C142.657 183.832 142.177 183.416 141.814 182.882C141.462 182.349 141.286 181.73 141.286 181.026C141.286 179.906 141.67 178.984 142.438 178.258C143.206 177.522 144.358 177.154 145.894 177.154C145.915 177.154 146.385 177.165 147.302 177.186C147.771 177.197 148.23 177.202 148.678 177.202V188.402ZM144.934 182.69H146.726V179.042C146.182 179.01 145.771 178.994 145.494 178.994C144.854 178.994 144.337 179.17 143.942 179.522C143.558 179.874 143.366 180.333 143.366 180.898C143.366 181.368 143.51 181.762 143.798 182.082C144.097 182.392 144.475 182.594 144.934 182.69ZM40.2603 208.578C39.3963 208.578 38.6283 208.402 37.9563 208.05C37.2949 207.698 36.7829 207.245 36.4203 206.69L37.4923 205.362C37.8443 205.768 38.2656 206.098 38.7563 206.354C39.2469 206.61 39.7163 206.738 40.1643 206.738C40.7723 206.738 41.2683 206.594 41.6523 206.306C42.0363 206.008 42.2283 205.597 42.2283 205.074C42.2283 204.616 42.0523 204.258 41.7003 204.002C41.3589 203.736 40.8736 203.602 40.2443 203.602H39.0923V201.762H40.1803C40.6283 201.762 41.0069 201.629 41.3163 201.362C41.6363 201.085 41.7963 200.728 41.7963 200.29C41.7963 199.842 41.6469 199.496 41.3483 199.25C41.0603 198.994 40.6656 198.866 40.1643 198.866C39.2576 198.866 38.5003 199.272 37.8923 200.082L36.7563 198.77C37.1403 198.248 37.6576 197.826 38.3083 197.506C38.9589 197.186 39.6523 197.026 40.3883 197.026C41.4123 197.026 42.2283 197.298 42.8363 197.842C43.4443 198.386 43.7483 199.138 43.7483 200.098C43.7483 200.568 43.6149 201.026 43.3483 201.474C43.0923 201.922 42.7243 202.285 42.2443 202.562V202.61C42.8843 202.77 43.3643 203.085 43.6843 203.554C44.0149 204.013 44.1803 204.584 44.1803 205.266C44.1803 206.258 43.7909 207.058 43.0123 207.666C42.2443 208.274 41.3269 208.578 40.2603 208.578ZM47.3156 208.402H45.3316L50.0676 197.17H51.7956L56.5316 208.402H54.4356L53.2676 205.538H48.4836L47.3156 208.402ZM52.5156 203.698L50.8836 199.714L49.2356 203.698H52.5156ZM60.1771 208.402H58.2091V197.202H60.1771V202.514L64.5931 197.202H66.9611L62.3531 202.418L67.2491 208.402H64.7531L60.1771 202.626V208.402ZM69.4094 208.402H67.4254L72.1614 197.17H73.8894L78.6254 208.402H76.5294L75.3614 205.538H70.5774L69.4094 208.402ZM74.6094 203.698L72.9774 199.714L71.3294 203.698H74.6094ZM83.1509 208.578C82.2869 208.578 81.5189 208.402 80.8469 208.05C80.1856 207.698 79.6736 207.245 79.3109 206.69L80.3829 205.362C80.7349 205.768 81.1562 206.098 81.6469 206.354C82.1376 206.61 82.6069 206.738 83.0549 206.738C83.6629 206.738 84.1589 206.594 84.5429 206.306C84.9269 206.008 85.1189 205.597 85.1189 205.074C85.1189 204.616 84.9429 204.258 84.5909 204.002C84.2496 203.736 83.7642 203.602 83.1349 203.602H81.9829V201.762H83.0709C83.5189 201.762 83.8976 201.629 84.2069 201.362C84.5269 201.085 84.6869 200.728 84.6869 200.29C84.6869 199.842 84.5376 199.496 84.2389 199.25C83.9509 198.994 83.5562 198.866 83.0549 198.866C82.1482 198.866 81.3909 199.272 80.7829 200.082L79.6469 198.77C80.0309 198.248 80.5482 197.826 81.1989 197.506C81.8496 197.186 82.5429 197.026 83.2789 197.026C84.3029 197.026 85.1189 197.298 85.7269 197.842C86.3349 198.386 86.6389 199.138 86.6389 200.098C86.6389 200.568 86.5056 201.026 86.2389 201.474C85.9829 201.922 85.6149 202.285 85.1349 202.562V202.61C85.7749 202.77 86.2549 203.085 86.5749 203.554C86.9056 204.013 87.0709 204.584 87.0709 205.266C87.0709 206.258 86.6816 207.058 85.9029 207.666C85.1349 208.274 84.2176 208.578 83.1509 208.578ZM95.2623 197.202H97.2303V208.402H95.2623V203.81C94.5583 204.322 93.6676 204.578 92.5903 204.578C91.6196 204.578 90.8089 204.29 90.1583 203.714C89.5076 203.138 89.1823 202.232 89.1823 200.994V197.202H91.1503V200.434C91.1503 201.97 91.8063 202.738 93.1183 202.738C93.8436 202.738 94.5583 202.498 95.2623 202.018V197.202ZM107.934 200.45L102.062 208.402H100.334V197.202H102.302V205.17L108.174 197.202H109.902V208.402H107.934V200.45ZM114.974 208.402H113.006V197.202H114.974V202.514L119.39 197.202H121.758L117.15 202.418L122.046 208.402H119.55L114.974 202.626V208.402ZM122.299 202.802C122.299 201.17 122.843 199.8 123.931 198.69C125.04 197.581 126.438 197.026 128.123 197.026C129.808 197.026 131.2 197.56 132.299 198.626C133.408 199.704 133.963 201.096 133.963 202.802C133.963 204.477 133.408 205.858 132.299 206.946C131.19 208.034 129.798 208.578 128.123 208.578C126.438 208.578 125.046 208.045 123.947 206.978C122.848 205.912 122.299 204.52 122.299 202.802ZM124.379 202.802C124.379 203.933 124.736 204.872 125.451 205.618C126.166 206.365 127.056 206.738 128.123 206.738C129.275 206.738 130.187 206.365 130.859 205.618C131.542 204.872 131.883 203.933 131.883 202.802C131.883 201.661 131.52 200.717 130.795 199.97C130.07 199.234 129.179 198.866 128.123 198.866C127.046 198.866 126.15 199.234 125.435 199.97C124.731 200.706 124.379 201.65 124.379 202.802ZM136.24 208.386V197.234C137.392 197.181 138.47 197.154 139.472 197.154C140.71 197.154 141.632 197.4 142.24 197.89C142.848 198.381 143.152 199.058 143.152 199.922C143.152 201.128 142.619 201.976 141.552 202.466V202.498C142.16 202.658 142.64 202.962 142.992 203.41C143.344 203.848 143.52 204.413 143.52 205.106C143.52 206.194 143.147 207.026 142.4 207.602C141.654 208.178 140.64 208.466 139.36 208.466C138.08 208.466 137.04 208.44 136.24 208.386ZM139.6 203.586H138.208V206.546C138.71 206.6 139.142 206.626 139.504 206.626C140.87 206.626 141.552 206.088 141.552 205.01C141.552 204.541 141.382 204.189 141.04 203.954C140.699 203.709 140.219 203.586 139.6 203.586ZM139.44 198.994C138.971 198.994 138.56 199.01 138.208 199.042V201.874H139.536C140.038 201.874 140.438 201.746 140.736 201.49C141.046 201.234 141.2 200.866 141.2 200.386C141.2 199.938 141.046 199.597 140.736 199.362C140.427 199.117 139.995 198.994 139.44 198.994Z" fill="black"/>
<path d="M177.637 185.346C177.637 196.515 175.475 207.576 171.273 217.895C167.072 228.215 160.914 237.591 153.15 245.49C145.387 253.388 136.171 259.653 126.028 263.928C115.884 268.202 105.013 270.402 94.0339 270.402" stroke="#1964AA" stroke-width="4"/>
<path d="M2.78654 181.459C2.78654 170.289 4.949 159.229 9.15047 148.909C13.3519 138.59 19.5101 129.213 27.2734 121.315C35.0367 113.417 44.2531 107.152 54.3963 102.877C64.5395 98.6027 75.411 96.4026 86.3899 96.4026" stroke="#1964AA" stroke-width="4"/>
<path d="M86.3899 270.402C75.4109 270.402 64.5395 268.202 54.3963 263.928C44.253 259.653 35.0367 253.388 27.2734 245.49C19.5101 237.591 13.3519 228.215 9.15046 217.895C4.949 207.576 2.78654 196.515 2.78654 185.346" stroke="#E6231E" stroke-width="4"/>
<path d="M94.0339 96.4027C105.013 96.4027 115.884 98.6027 126.028 102.877C136.171 107.152 145.387 113.417 153.15 121.315C160.914 129.213 167.072 138.59 171.273 148.909C175.475 159.229 177.637 170.289 177.637 181.459" stroke="#E6231E" stroke-width="4"/>
<path d="M57.8859 42.0305L58.6624 43.8736L57.8859 42.0305ZM90.2128 35.3332L90.23 37.3332L90.2128 35.3332ZM149.63 61.5192C150.735 61.5192 151.63 60.6237 151.63 59.5192L151.63 41.5192C151.63 40.4146 150.735 39.5192 149.63 39.5192C148.526 39.5192 147.63 40.4146 147.63 41.5192L147.63 57.5192L131.63 57.5192C130.526 57.5192 129.63 58.4146 129.63 59.5192C129.63 60.6237 130.526 61.5192 131.63 61.5192L149.63 61.5192ZM31.784 61.9608C39.4999 54.245 48.6334 48.099 58.6624 43.8736L57.1093 40.1874C46.6026 44.6142 37.0362 51.0518 28.9556 59.1324L31.784 61.9608ZM58.6624 43.8736C68.6914 39.6481 79.4182 37.4263 90.23 37.3332L90.1956 33.3333C78.8587 33.431 67.6162 35.7606 57.1093 40.1874L58.6624 43.8736ZM90.23 37.3332C101.042 37.24 111.727 39.2773 121.675 43.3269L123.183 39.622C112.742 35.3719 101.533 33.2357 90.1956 33.3333L90.23 37.3332ZM121.675 43.3269C131.624 47.3764 140.642 53.3592 148.216 60.9334L151.044 58.105C143.092 50.1525 133.624 43.8722 123.183 39.622L121.675 43.3269Z" fill="#1964AA"/>
<path d="M122.114 309.274L121.338 307.431L122.114 309.274ZM89.7872 315.971L89.77 313.972L89.7872 315.971ZM30.3698 289.786C29.2652 289.786 28.3698 290.681 28.3698 291.786L28.3698 309.786C28.3698 310.89 29.2652 311.786 30.3698 311.786C31.4743 311.786 32.3698 310.89 32.3698 309.786L32.3698 293.786L48.3698 293.786C49.4743 293.786 50.3698 292.89 50.3698 291.786C50.3698 290.681 49.4743 289.786 48.3698 289.786L30.3698 289.786ZM148.216 289.344C140.5 297.06 131.367 303.206 121.338 307.431L122.891 311.117C133.397 306.691 142.964 300.253 151.044 292.172L148.216 289.344ZM121.338 307.431C111.309 311.657 100.582 313.878 89.77 313.972L89.8044 317.971C101.141 317.874 112.384 315.544 122.891 311.117L121.338 307.431ZM89.77 313.972C78.9582 314.065 68.2734 312.027 58.3249 307.978L56.8168 311.683C67.258 315.933 78.4674 318.069 89.8044 317.971L89.77 313.972ZM58.3249 307.978C48.3764 303.928 39.3581 297.945 31.784 290.371L28.9555 293.2C36.908 301.152 46.3755 307.433 56.8168 311.683L58.3249 307.978Z" fill="#E6231E"/>
</svg>
