<svg width="65" height="66" viewBox="0 0 65 66" fill="none" xmlns="http://www.w3.org/2000/svg">
<g clip-path="url(#clip0_139_163)">
<path d="M62.9688 42.8311C62.8354 42.8311 62.7033 42.8049 62.58 42.7539C62.4567 42.7029 62.3447 42.6281 62.2504 42.5338C62.1561 42.4394 62.0813 42.3274 62.0303 42.2042C61.9793 42.0809 61.953 41.9488 61.9531 41.8154V36.7373C61.9531 36.4679 62.0601 36.2096 62.2506 36.0191C62.4411 35.8287 62.6994 35.7217 62.9688 35.7217C63.2381 35.7217 63.4964 35.8287 63.6869 36.0191C63.8774 36.2096 63.9844 36.4679 63.9844 36.7373V41.8154C63.9845 41.9488 63.9582 42.0809 63.9072 42.2042C63.8562 42.3274 63.7814 42.4394 63.6871 42.5338C63.5928 42.6281 63.4808 42.7029 63.3575 42.7539C63.2342 42.8049 63.1021 42.8311 62.9688 42.8311Z" fill="#E6231E"/>
<path d="M62.9697 37.7533C62.7809 37.7535 62.5958 37.701 62.4352 37.6019C62.2745 37.5027 62.1447 37.3607 62.0602 37.1919L61.0446 35.1606C60.9846 35.0413 60.9487 34.9113 60.939 34.778C60.9293 34.6448 60.9459 34.511 60.988 34.3842C61.0301 34.2574 61.0968 34.1401 61.1843 34.0392C61.2717 33.9382 61.3783 33.8555 61.4978 33.7957C61.6173 33.736 61.7474 33.7004 61.8806 33.691C62.0139 33.6816 62.1477 33.6986 62.2744 33.741C62.4011 33.7834 62.5181 33.8503 62.6189 33.9381C62.7197 34.0258 62.8021 34.1325 62.8616 34.2521L63.8772 36.2834C63.9547 36.4381 63.9913 36.6101 63.9835 36.783C63.9758 36.9559 63.924 37.124 63.8331 37.2712C63.7422 37.4185 63.6152 37.5401 63.4641 37.6244C63.3129 37.7088 63.1428 37.7531 62.9697 37.7533Z" fill="#E6231E"/>
<path d="M61.9521 35.722C61.779 35.7219 61.6089 35.6775 61.4577 35.5932C61.3066 35.5088 61.1796 35.3872 61.0887 35.24C60.9978 35.0927 60.946 34.9247 60.9383 34.7518C60.9305 34.5789 60.9671 34.4069 61.0446 34.2521L62.0602 32.2209C62.1196 32.1012 62.2021 31.9945 62.3029 31.9068C62.4037 31.8191 62.5207 31.7521 62.6474 31.7097C62.7741 31.6673 62.9079 31.6503 63.0412 31.6597C63.1744 31.6691 63.3045 31.7047 63.424 31.7645C63.5435 31.8242 63.6501 31.9069 63.7375 32.0079C63.825 32.1089 63.8917 32.2261 63.9338 32.3529C63.9759 32.4797 63.9925 32.6135 63.9828 32.7468C63.9731 32.88 63.9372 33.01 63.8772 33.1294L62.8616 35.1606C62.7771 35.3295 62.6473 35.4715 62.4866 35.5706C62.326 35.6698 62.1409 35.7222 61.9521 35.722Z" fill="#E6231E"/>
<path d="M62.9698 33.6901C62.8156 33.6899 62.6634 33.6546 62.5248 33.5869C62.3861 33.5192 62.2647 33.4209 62.1697 33.2993C62.0748 33.1778 62.0087 33.0362 61.9765 32.8853C61.9443 32.7345 61.9469 32.5782 61.984 32.4285L62.9996 28.366C63.0654 28.1055 63.2319 27.8817 63.4625 27.7437C63.6931 27.6057 63.969 27.5647 64.2298 27.6299C64.4905 27.695 64.7148 27.8608 64.8534 28.091C64.992 28.3212 65.0337 28.597 64.9694 28.8579L63.9537 32.9204C63.8992 33.1401 63.7726 33.3352 63.5943 33.4747C63.416 33.6142 63.1962 33.69 62.9698 33.6901Z" fill="#E6231E"/>
<path d="M63.9853 29.6283C63.7966 29.6285 63.6114 29.576 63.4508 29.4769C63.2901 29.3777 63.1603 29.2357 63.0758 29.0669L62.0602 27.0356C62.0002 26.9163 61.9643 26.7863 61.9546 26.653C61.9449 26.5198 61.9616 26.386 62.0036 26.2592C62.0457 26.1324 62.1124 26.0151 62.1999 25.9142C62.2874 25.8132 62.3939 25.7305 62.5134 25.6707C62.6329 25.611 62.763 25.5754 62.8962 25.566C63.0295 25.5566 63.1633 25.5736 63.29 25.616C63.4167 25.6584 63.5338 25.7253 63.6345 25.8131C63.7353 25.9008 63.8178 26.0075 63.8772 26.1271L64.8929 28.1584C64.9703 28.3131 65.0069 28.4851 64.9992 28.658C64.9914 28.8309 64.9397 28.999 64.8487 29.1462C64.7578 29.2935 64.6308 29.4151 64.4797 29.4994C64.3286 29.5838 64.1584 29.6281 63.9853 29.6283Z" fill="#E6231E"/>
<path d="M62.9688 27.5962C62.7679 27.5962 62.5716 27.5366 62.4046 27.425C62.2377 27.3134 62.1075 27.1548 62.0307 26.9692C61.9538 26.7837 61.9337 26.5795 61.9729 26.3825C62.012 26.1855 62.1087 26.0046 62.2507 25.8626L63.2664 24.8469C63.3603 24.7512 63.4724 24.6751 63.5959 24.6229C63.7195 24.5708 63.8522 24.5436 63.9863 24.543C64.1204 24.5424 64.2534 24.5683 64.3774 24.6194C64.5014 24.6704 64.6141 24.7456 64.709 24.8404C64.8038 24.9353 64.8789 25.0479 64.93 25.172C64.981 25.296 65.007 25.4289 65.0064 25.5631C65.0058 25.6972 64.9786 25.8299 64.9265 25.9535C64.8743 26.077 64.7982 26.189 64.7025 26.283L63.6868 27.2987C63.5926 27.3931 63.4807 27.468 63.3575 27.5191C63.2343 27.5702 63.1022 27.5964 62.9688 27.5962Z" fill="#E6231E"/>
<path d="M63.9853 26.5814C63.7966 26.5816 63.6114 26.5292 63.4508 26.43C63.2901 26.3308 63.1603 26.1889 63.0758 26.02L62.0602 23.9888C62.0002 23.8694 61.9643 23.7394 61.9546 23.6062C61.9449 23.4729 61.9616 23.3391 62.0036 23.2123C62.0457 23.0855 62.1124 22.9683 62.1999 22.8673C62.2874 22.7663 62.3939 22.6836 62.5134 22.6238C62.6329 22.5641 62.763 22.5285 62.8962 22.5191C63.0295 22.5097 63.1633 22.5267 63.29 22.5691C63.4167 22.6115 63.5338 22.6785 63.6345 22.7662C63.7353 22.8539 63.8178 22.9606 63.8772 23.0802L64.8929 25.1115C64.9703 25.2663 65.0069 25.4383 64.9992 25.6112C64.9914 25.784 64.9397 25.9521 64.8487 26.0994C64.7578 26.2466 64.6308 26.3682 64.4797 26.4526C64.3286 26.5369 64.1584 26.5813 63.9853 26.5814Z" fill="#E6231E"/>
<path d="M58.9052 25.5656C58.6575 25.5653 58.4184 25.4744 58.2331 25.3102C58.0477 25.1459 57.9288 24.9195 57.8986 24.6736C57.8685 24.4278 57.9293 24.1794 58.0696 23.9752C58.2098 23.7711 58.4199 23.6252 58.6602 23.5651L62.7227 22.5495C62.8522 22.5168 62.9868 22.5099 63.119 22.5293C63.2511 22.5487 63.3781 22.594 63.4927 22.6626C63.6073 22.7312 63.7072 22.8217 63.7868 22.929C63.8664 23.0362 63.924 23.1581 63.9563 23.2877C63.9887 23.4173 63.9952 23.552 63.9754 23.684C63.9556 23.8161 63.91 23.943 63.8411 24.0574C63.7722 24.1718 63.6814 24.2715 63.5739 24.3508C63.4664 24.43 63.3443 24.4873 63.2146 24.5193L59.1521 25.5349C59.0714 25.5553 58.9884 25.5656 58.9052 25.5656Z" fill="#E6231E"/>
<path d="M55.8594 28.6119C55.6586 28.6118 55.4622 28.5522 55.2953 28.4406C55.1283 28.329 54.9981 28.1704 54.9213 27.9849C54.8444 27.7993 54.8243 27.5951 54.8635 27.3982C54.9027 27.2012 54.9994 27.0202 55.1414 26.8782L58.1882 23.8313C58.2822 23.7356 58.3942 23.6595 58.5178 23.6073C58.6414 23.5551 58.7741 23.528 58.9082 23.5274C59.0423 23.5267 59.1752 23.5527 59.2993 23.6038C59.4233 23.6548 59.536 23.7299 59.6309 23.8248C59.7257 23.9196 59.8008 24.0323 59.8519 24.1564C59.9029 24.2804 59.9289 24.4133 59.9283 24.5475C59.9277 24.6816 59.9005 24.8143 59.8483 24.9378C59.7962 25.0614 59.72 25.1734 59.6243 25.2674L56.5775 28.3143C56.4833 28.4087 56.3714 28.4837 56.2481 28.5347C56.1249 28.5858 55.9928 28.612 55.8594 28.6119Z" fill="#E6231E"/>
<path d="M55.8594 28.6126C55.7484 28.6127 55.6382 28.5946 55.5331 28.559L52.5358 27.5434C52.2806 27.4569 52.0703 27.2725 51.9511 27.0309C51.8318 26.7893 51.8135 26.5102 51.9 26.255C51.9866 25.9999 52.1709 25.7895 52.4125 25.6703C52.6542 25.5511 52.9333 25.5327 53.1884 25.6193L56.1857 26.6349C56.4137 26.7122 56.6068 26.868 56.7307 27.0744C56.8545 27.2809 56.9009 27.5247 56.8618 27.7622C56.8226 27.9997 56.7003 28.2156 56.5167 28.3714C56.3331 28.5272 56.1001 28.6126 55.8594 28.6126Z" fill="#E6231E"/>
<path d="M44.6885 31.6593C44.4594 31.6596 44.2369 31.5824 44.0572 31.4403C43.8775 31.2982 43.7512 31.0995 43.6987 30.8764C43.6462 30.6534 43.6706 30.4192 43.768 30.2118C43.8654 30.0045 44.0301 29.8361 44.2353 29.7342L52.4099 25.6717C52.6509 25.5531 52.9291 25.5349 53.1836 25.6209C53.4381 25.707 53.6481 25.8903 53.7677 26.1309C53.8873 26.3714 53.9068 26.6495 53.8218 26.9044C53.7368 27.1592 53.5544 27.37 53.3144 27.4907L45.1398 31.5532C44.9996 31.623 44.8451 31.6594 44.6885 31.6593Z" fill="#E6231E"/>
<path d="M24.3761 31.6591C24.3199 31.6593 24.2639 31.6547 24.2085 31.6452L18.1148 30.6296C17.8491 30.5854 17.6118 30.4374 17.4552 30.2183C17.2986 29.9992 17.2354 29.7269 17.2796 29.4612C17.3238 29.1955 17.4717 28.9583 17.6909 28.8017C17.91 28.645 18.1823 28.5819 18.448 28.6261L24.5418 29.6417C24.7931 29.6835 25.0195 29.8183 25.1761 30.0192C25.3327 30.2202 25.408 30.4727 25.3872 30.7266C25.3663 30.9805 25.2508 31.2173 25.0635 31.3901C24.8762 31.5628 24.6309 31.6588 24.3761 31.6591Z" fill="#E6231E"/>
<path d="M18.2803 30.6438C18.123 30.6436 17.9678 30.607 17.8271 30.5367L15.7958 29.521C15.6762 29.4616 15.5695 29.3791 15.4818 29.2783C15.394 29.1776 15.3271 29.0605 15.2847 28.9338C15.2423 28.8071 15.2253 28.6733 15.2347 28.54C15.2441 28.4068 15.2797 28.2767 15.3394 28.1572C15.3992 28.0377 15.4819 27.9312 15.5829 27.8437C15.6838 27.7562 15.8011 27.6895 15.9279 27.6474C16.0547 27.6054 16.1885 27.5887 16.3217 27.5984C16.455 27.6081 16.585 27.644 16.7043 27.704L18.7356 28.7196C18.9404 28.822 19.1046 28.9905 19.2016 29.1978C19.2985 29.4052 19.3226 29.6392 19.2699 29.862C19.2172 30.0848 19.0908 30.2832 18.9112 30.4251C18.7316 30.567 18.5093 30.6441 18.2803 30.6438Z" fill="#E6231E"/>
<path d="M16.2501 29.6279C16.0892 29.6277 15.9307 29.5893 15.7876 29.5159C15.6444 29.4425 15.5208 29.3362 15.4268 29.2056C15.3327 29.0751 15.271 28.9241 15.2468 28.7651C15.2225 28.6061 15.2363 28.4436 15.287 28.2909L16.3027 25.2441C16.3446 25.1173 16.4112 25.0001 16.4985 24.8991C16.5859 24.798 16.6923 24.7153 16.8117 24.6554C16.931 24.5956 17.061 24.5599 17.1942 24.5504C17.3274 24.5409 17.4612 24.5578 17.5879 24.6001C17.7145 24.6423 17.8316 24.7092 17.9324 24.7967C18.0332 24.8843 18.1157 24.9909 18.1753 25.1104C18.2348 25.23 18.2702 25.3601 18.2794 25.4933C18.2885 25.6265 18.2714 25.7602 18.2288 25.8868L17.2132 28.9336C17.1458 29.1358 17.0166 29.3117 16.8437 29.4363C16.6709 29.5609 16.4632 29.6279 16.2501 29.6279Z" fill="#E6231E"/>
<path d="M17.2656 26.581C17.0063 26.5815 16.7568 26.4825 16.5684 26.3043L14.5371 24.3881C14.4394 24.2967 14.3606 24.1869 14.3054 24.065C14.2501 23.9431 14.2196 23.8115 14.2153 23.6778C14.2111 23.544 14.2334 23.4107 14.2809 23.2856C14.3283 23.1604 14.4 23.0459 14.4919 22.9486C14.5837 22.8513 14.6939 22.773 14.8161 22.7184C14.9382 22.6638 15.07 22.6338 15.2038 22.6302C15.3375 22.6267 15.4707 22.6496 15.5956 22.6976C15.7205 22.7457 15.8347 22.818 15.9316 22.9103L17.9628 24.8265C18.1108 24.9661 18.2135 25.1469 18.2576 25.3455C18.3016 25.5441 18.285 25.7514 18.2099 25.9404C18.1348 26.1295 18.0046 26.2917 17.8362 26.4059C17.6679 26.5201 17.4691 26.5811 17.2656 26.581Z" fill="#E6231E"/>
<path d="M10.1562 29.6283C9.95436 29.6283 9.75713 29.5681 9.58964 29.4555C9.42215 29.3429 9.292 29.183 9.2158 28.9961C9.1396 28.8092 9.1208 28.6039 9.16181 28.4063C9.20282 28.2087 9.30177 28.0278 9.44604 27.8866L14.5242 22.9236C14.7173 22.7382 14.9758 22.6365 15.2435 22.6408C15.5112 22.645 15.7663 22.7547 15.9535 22.9461C16.1407 23.1375 16.2448 23.395 16.2431 23.6627C16.2414 23.9304 16.1341 24.1866 15.9445 24.3756L10.8663 29.3387C10.6768 29.5246 10.4217 29.6287 10.1562 29.6283Z" fill="#E6231E"/>
<path d="M6.09477 31.6592C5.86585 31.6595 5.64355 31.5824 5.46392 31.4405C5.2843 31.2986 5.15788 31.1002 5.10517 30.8774C5.05246 30.6547 5.07656 30.4206 5.17355 30.2133C5.27054 30.0059 5.43474 29.8374 5.63952 29.7351L9.70202 27.7038C9.94288 27.5841 10.2214 27.5648 10.4765 27.6502C10.7315 27.7355 10.9423 27.9186 11.0626 28.1591C11.1829 28.3997 11.2029 28.6782 11.1181 28.9335C11.0334 29.1887 10.8508 29.4 10.6105 29.5208L6.54803 31.5521C6.40727 31.6224 6.25211 31.659 6.09477 31.6592Z" fill="#E6231E"/>
<path d="M5.07922 35.722C4.92496 35.7218 4.77275 35.6866 4.63413 35.6189C4.49551 35.5512 4.37411 35.4528 4.27912 35.3313C4.18413 35.2097 4.11804 35.0681 4.08586 34.9172C4.05367 34.7664 4.05623 34.6102 4.09335 34.4604L5.10897 30.3979C5.14097 30.2683 5.19823 30.1462 5.27749 30.0387C5.35674 29.9312 5.45643 29.8404 5.57083 29.7715C5.68524 29.7026 5.81211 29.657 5.94419 29.6372C6.07627 29.6174 6.21095 29.6239 6.34052 29.6562C6.47009 29.6886 6.59201 29.7462 6.69928 29.8258C6.80654 29.9053 6.89706 30.0053 6.96564 30.1199C7.03421 30.2345 7.0795 30.3615 7.09891 30.4936C7.11832 30.6257 7.11146 30.7604 7.07874 30.8899L6.06311 34.9524C6.00853 35.1721 5.88202 35.3672 5.70372 35.5066C5.52542 35.6461 5.30559 35.7219 5.07922 35.722Z" fill="#E6231E"/>
<path d="M6.09272 39.7845C5.86635 39.7844 5.64652 39.7086 5.46822 39.5691C5.28992 39.4297 5.16341 39.2346 5.10883 39.0149L4.09321 34.9524C4.06048 34.8229 4.05362 34.6882 4.07303 34.5561C4.09244 34.424 4.13773 34.297 4.20631 34.1824C4.27488 34.0678 4.3654 33.9678 4.47267 33.8883C4.57994 33.8087 4.70185 33.7511 4.83142 33.7187C4.96099 33.6864 5.09567 33.6799 5.22775 33.6997C5.35983 33.7195 5.4867 33.7651 5.60111 33.834C5.71552 33.9029 5.8152 33.9937 5.89446 34.1012C5.97371 34.2087 6.03098 34.3308 6.06297 34.4604L7.07859 38.5229C7.11571 38.6727 7.11827 38.8289 7.08609 38.9798C7.0539 39.1306 6.98781 39.2722 6.89282 39.3938C6.79783 39.5153 6.67643 39.6137 6.53781 39.6814C6.39919 39.7491 6.24699 39.7843 6.09272 39.7845Z" fill="#E6231E"/>
<path d="M3.04693 40.8002C2.80588 40.8001 2.57271 40.7143 2.38913 40.5581C2.20554 40.4019 2.08352 40.1855 2.04487 39.9475C2.00623 39.7096 2.05349 39.4657 2.1782 39.2594C2.30291 39.0531 2.49694 38.8979 2.72558 38.8215L5.77246 37.8059C5.89902 37.7633 6.03274 37.7461 6.16595 37.7553C6.29917 37.7645 6.42926 37.7999 6.54878 37.8594C6.66831 37.919 6.77491 38.0015 6.86249 38.1023C6.95007 38.2031 7.01691 38.3202 7.05918 38.4468C7.10144 38.5735 7.11831 38.7073 7.1088 38.8404C7.0993 38.9736 7.06361 39.1037 7.00379 39.223C6.94397 39.3424 6.86118 39.4488 6.76018 39.5362C6.65917 39.6235 6.54193 39.6901 6.41516 39.732L3.36829 40.7476C3.2647 40.7824 3.15619 40.8001 3.04693 40.8002Z" fill="#E6231E"/>
<path d="M3.0458 40.7998C2.88846 40.7997 2.7333 40.763 2.59253 40.6927L0.561285 39.6771C0.320993 39.5562 0.13845 39.345 0.0536967 39.0897C-0.0310565 38.8344 -0.011099 38.556 0.109191 38.3154C0.229482 38.0748 0.440283 37.8918 0.695354 37.8064C0.950425 37.7211 1.22894 37.7403 1.4698 37.8601L3.50105 38.8757C3.70583 38.978 3.87003 39.1465 3.96702 39.3539C4.06401 39.5612 4.08811 39.7953 4.0354 40.018C3.98269 40.2408 3.85627 40.4392 3.67664 40.5811C3.49702 40.7231 3.27472 40.8001 3.0458 40.7998Z" fill="#E6231E"/>
<path d="M5.07913 48.0074C4.91053 48.0077 4.74451 47.9659 4.59611 47.8859C4.4477 47.8059 4.32157 47.6902 4.22913 47.5492L0.166629 41.3572C0.093429 41.2457 0.0429063 41.1209 0.0179451 40.9899C-0.00701612 40.8589 -0.00592705 40.7242 0.0211502 40.5936C0.0482274 40.463 0.100762 40.339 0.175756 40.2287C0.250749 40.1185 0.346732 40.024 0.458225 39.9508C0.569717 39.8776 0.694536 39.8271 0.825553 39.8021C0.956571 39.7772 1.09122 39.7783 1.22182 39.8053C1.35242 39.8324 1.4764 39.8849 1.5867 39.9599C1.69699 40.0349 1.79143 40.1309 1.86463 40.2424L5.92713 46.4343C6.02765 46.5874 6.08489 46.7649 6.09281 46.9478C6.10073 47.1308 6.05903 47.3125 5.97212 47.4737C5.88521 47.6349 5.75633 47.7696 5.59912 47.8636C5.44191 47.9575 5.26223 48.0072 5.07908 48.0074H5.07913Z" fill="#E6231E"/>
<path d="M1.01563 41.8154C0.88223 41.8155 0.750128 41.7893 0.626872 41.7383C0.503617 41.6873 0.391625 41.6125 0.2973 41.5181C0.202975 41.4238 0.128168 41.3118 0.077155 41.1886C0.026142 41.0653 -7.59351e-05 40.9332 1.65192e-07 40.7998V38.7686C1.65192e-07 38.4992 0.107003 38.2409 0.29747 38.0504C0.487936 37.8599 0.746265 37.7529 1.01563 37.7529C1.28499 37.7529 1.54331 37.8599 1.73378 38.0504C1.92425 38.2409 2.03125 38.4992 2.03125 38.7686V40.7998C2.03133 40.9332 2.00511 41.0653 1.9541 41.1886C1.90308 41.3118 1.82827 41.4238 1.73395 41.5181C1.63963 41.6125 1.52763 41.6873 1.40438 41.7383C1.28112 41.7893 1.14902 41.8155 1.01563 41.8154Z" fill="#E6231E"/>
<path d="M5.24183 47.9093C5.04458 47.9093 4.85159 47.8519 4.68644 47.744C4.52128 47.6362 4.3911 47.4826 4.31179 47.302C4.23248 47.1214 4.20748 46.9216 4.23983 46.727C4.27219 46.5325 4.3605 46.3515 4.49399 46.2063L6.36159 44.1751C6.45186 44.0769 6.56058 43.9974 6.68155 43.9412C6.80253 43.885 6.93338 43.8532 7.06665 43.8476C7.19992 43.842 7.33299 43.8626 7.45826 43.9085C7.58353 43.9543 7.69856 44.0243 7.79676 44.1146C7.89497 44.2048 7.97444 44.3135 8.03063 44.4345C8.08682 44.5555 8.11863 44.6864 8.12425 44.8196C8.12987 44.9529 8.10918 45.086 8.06337 45.2112C8.01756 45.3365 7.94753 45.4515 7.85727 45.5497L5.98966 47.581C5.89465 47.6846 5.77908 47.7674 5.65032 47.8239C5.52156 47.8804 5.38244 47.9095 5.24183 47.9093Z" fill="#E6231E"/>
<path d="M7.11039 45.878C6.88148 45.8782 6.65918 45.8012 6.47955 45.6593C6.29992 45.5174 6.1735 45.3189 6.12079 45.0962C6.06809 44.8734 6.09218 44.6394 6.18918 44.432C6.28617 44.2247 6.45037 44.0561 6.65514 43.9538L8.68639 42.9382C8.92725 42.8185 9.20577 42.7992 9.46084 42.8845C9.71591 42.9699 9.92671 43.1529 10.047 43.3935C10.1673 43.6341 10.1872 43.9126 10.1025 44.1678C10.0177 44.4231 9.8352 44.6343 9.59491 44.7552L7.56366 45.7708C7.42289 45.8411 7.26774 45.8778 7.11039 45.878Z" fill="#E6231E"/>
<path d="M9.14164 44.8622C8.95285 44.8624 8.76774 44.81 8.60708 44.7108C8.44643 44.6117 8.31659 44.4697 8.23214 44.3009L7.21651 42.2696C7.09679 42.0287 7.0775 41.7502 7.16286 41.4952C7.24822 41.2401 7.43126 41.0293 7.67184 40.909C7.91242 40.7887 8.19088 40.7687 8.44616 40.8535C8.70143 40.9383 8.91267 41.1208 9.03353 41.3611L10.0492 43.3923C10.1266 43.5471 10.1632 43.7191 10.1554 43.892C10.1477 44.0649 10.096 44.2329 10.005 44.3802C9.91412 44.5274 9.78708 44.649 9.63597 44.7334C9.48486 44.8178 9.3147 44.8621 9.14164 44.8622Z" fill="#E6231E"/>
<path d="M12.1875 42.8311H8.125C7.85564 42.8311 7.59731 42.7241 7.40684 42.5336C7.21638 42.3431 7.10938 42.0848 7.10938 41.8154C7.10938 41.5461 7.21638 41.2877 7.40684 41.0973C7.59731 40.9068 7.85564 40.7998 8.125 40.7998H12.1875C12.4569 40.7998 12.7152 40.9068 12.9057 41.0973C13.0961 41.2877 13.2031 41.5461 13.2031 41.8154C13.2031 42.0848 13.0961 42.3431 12.9057 42.5336C12.7152 42.7241 12.4569 42.8311 12.1875 42.8311Z" fill="#E6231E"/>
<path d="M15.2344 45.8782C15.101 45.8783 14.9689 45.8521 14.8456 45.801C14.7224 45.75 14.6105 45.675 14.5163 45.5806L11.4694 42.5337C11.2818 42.3427 11.1773 42.0853 11.1785 41.8176C11.1797 41.5498 11.2866 41.2934 11.4759 41.1041C11.6652 40.9148 11.9216 40.8079 12.1894 40.8067C12.4571 40.8054 12.7145 40.91 12.9055 41.0976L15.9524 44.1445C16.0944 44.2865 16.1911 44.4675 16.2303 44.6644C16.2694 44.8614 16.2493 45.0656 16.1725 45.2512C16.0956 45.4367 15.9655 45.5953 15.7985 45.7069C15.6315 45.8185 15.4352 45.8781 15.2344 45.8782Z" fill="#E6231E"/>
<path d="M15.2344 45.8782C15.0336 45.8781 14.8372 45.8185 14.6703 45.7069C14.5033 45.5953 14.3731 45.4367 14.2963 45.2512C14.2194 45.0656 14.1993 44.8614 14.2385 44.6644C14.2777 44.4675 14.3744 44.2865 14.5164 44.1445L16.5476 42.1132C16.7386 41.9256 16.996 41.8211 17.2637 41.8223C17.5315 41.8235 17.7879 41.9304 17.9772 42.1197C18.1665 42.309 18.2734 42.5654 18.2747 42.8332C18.2759 43.1009 18.1713 43.3583 17.9837 43.5493L15.9524 45.5806C15.8583 45.675 15.7464 45.75 15.6231 45.801C15.4999 45.8521 15.3678 45.8783 15.2344 45.8782Z" fill="#E6231E"/>
<path d="M21.329 44.8621C21.2458 44.8621 21.1628 44.8518 21.0821 44.8314L17.0196 43.8157C16.759 43.7499 16.5352 43.5834 16.3972 43.3528C16.2592 43.1222 16.2183 42.8463 16.2834 42.5856C16.3485 42.3248 16.5144 42.1006 16.7446 41.9619C16.9748 41.8233 17.2506 41.7816 17.5115 41.846L21.574 42.8616C21.8143 42.9217 22.0243 43.0675 22.1646 43.2717C22.3049 43.4759 22.3657 43.7242 22.3356 43.9701C22.3054 44.216 22.1865 44.4423 22.0011 44.6066C21.8158 44.7709 21.5767 44.8618 21.329 44.8621Z" fill="#E6231E"/>
<path d="M22.3448 46.8935C22.156 46.8937 21.9709 46.8412 21.8102 46.7421C21.6496 46.6429 21.5197 46.501 21.4353 46.3321L20.4196 44.3009C20.2999 44.06 20.2806 43.7815 20.366 43.5264C20.4513 43.2713 20.6344 43.0605 20.875 42.9402C21.1155 42.82 21.394 42.8 21.6493 42.8848C21.9046 42.9695 22.1158 43.152 22.2367 43.3923L23.2523 45.4236C23.3297 45.5784 23.3663 45.7504 23.3586 45.9232C23.3509 46.0961 23.2991 46.2642 23.2082 46.4114C23.1172 46.5587 22.9902 46.6803 22.8391 46.7646C22.688 46.849 22.5178 46.8934 22.3448 46.8935Z" fill="#E6231E"/>
<path d="M24.375 46.8936H22.3438C22.0744 46.8936 21.8161 46.7866 21.6256 46.5961C21.4351 46.4056 21.3281 46.1473 21.3281 45.8779C21.3281 45.6086 21.4351 45.3502 21.6256 45.1598C21.8161 44.9693 22.0744 44.8623 22.3438 44.8623H24.375C24.6444 44.8623 24.9027 44.9693 25.0932 45.1598C25.2836 45.3502 25.3906 45.6086 25.3906 45.8779C25.3906 46.1473 25.2836 46.4056 25.0932 46.5961C24.9027 46.7866 24.6444 46.8936 24.375 46.8936Z" fill="#E6231E"/>
<path d="M25.3905 49.9404C25.1775 49.9404 24.9698 49.8734 24.7969 49.7488C24.6241 49.6242 24.4948 49.4483 24.4275 49.2461L23.4119 46.1993C23.3693 46.0727 23.3521 45.939 23.3613 45.8058C23.3705 45.6726 23.4058 45.5425 23.4654 45.4229C23.5249 45.3034 23.6075 45.1968 23.7082 45.1092C23.809 45.0217 23.9261 44.9548 24.0528 44.9126C24.1795 44.8703 24.3132 44.8534 24.4464 44.8629C24.5796 44.8724 24.7096 44.9081 24.829 44.9679C24.9484 45.0278 25.0548 45.1105 25.1421 45.2116C25.2295 45.3126 25.296 45.4298 25.338 45.5566L26.3536 48.6034C26.4044 48.7561 26.4182 48.9186 26.3939 49.0776C26.3696 49.2366 26.3079 49.3876 26.2139 49.5181C26.1199 49.6487 25.9962 49.755 25.8531 49.8284C25.7099 49.9018 25.5514 49.9402 25.3905 49.9404Z" fill="#E6231E"/>
<path d="M28.4366 51.9714C28.2364 51.9712 28.0407 51.9119 27.8742 51.8008L24.8273 49.7695C24.6059 49.619 24.4529 49.3871 24.4016 49.1243C24.3503 48.8615 24.4049 48.5891 24.5534 48.3663C24.7019 48.1435 24.9324 47.9884 25.1947 47.9347C25.457 47.881 25.7299 47.9331 25.9541 48.0795L29.0009 50.1108C29.1824 50.2317 29.32 50.4079 29.3936 50.6132C29.4671 50.8184 29.4727 51.0419 29.4094 51.2506C29.3461 51.4592 29.2173 51.642 29.0421 51.7718C28.8669 51.9016 28.6546 51.9716 28.4366 51.9714Z" fill="#E6231E"/>
<path d="M28.4376 51.9715C28.1965 51.9715 27.9633 51.8856 27.7798 51.7294C27.5962 51.5732 27.4741 51.3568 27.4355 51.1188C27.3969 50.8809 27.4441 50.637 27.5688 50.4307C27.6935 50.2244 27.8876 50.0692 28.1162 49.9928L31.1631 48.9772C31.4183 48.8927 31.6966 48.9129 31.937 49.0334C32.1773 49.1538 32.3601 49.3647 32.4452 49.6197C32.5303 49.8747 32.5108 50.1531 32.3909 50.3937C32.271 50.6343 32.0606 50.8176 31.8058 50.9033L28.7589 51.919C28.6553 51.9537 28.5468 51.9714 28.4376 51.9715Z" fill="#E6231E"/>
<path d="M33.5147 51.9719C33.3574 51.9718 33.2022 51.9351 33.0615 51.8648L31.0302 50.8492C30.9106 50.7897 30.8038 50.7072 30.7161 50.6065C30.6284 50.5057 30.5615 50.3886 30.5191 50.2619C30.4767 50.1352 30.4597 50.0014 30.4691 49.8682C30.4785 49.7349 30.514 49.6048 30.5738 49.4853C30.6335 49.3658 30.7163 49.2593 30.8172 49.1718C30.9182 49.0844 31.0355 49.0177 31.1622 48.9756C31.289 48.9335 31.4229 48.9168 31.5561 48.9265C31.6894 48.9362 31.8194 48.9721 31.9387 49.0321L33.97 50.0478C34.1747 50.1501 34.3389 50.3186 34.4359 50.526C34.5329 50.7333 34.557 50.9674 34.5043 51.1901C34.4516 51.4129 34.3252 51.6113 34.1456 51.7532C33.9659 51.8951 33.7436 51.9722 33.5147 51.9719Z" fill="#E6231E"/>
<path d="M33.5157 51.9719C33.3148 51.9719 33.1185 51.9123 32.9515 51.8007C32.7845 51.6891 32.6544 51.5305 32.5775 51.3449C32.5007 51.1594 32.4806 50.9552 32.5197 50.7582C32.5589 50.5612 32.6556 50.3803 32.7976 50.2382L33.8132 49.2226C34.0043 49.035 34.2616 48.9304 34.5294 48.9317C34.7971 48.9329 35.0535 49.0398 35.2429 49.2291C35.4322 49.4184 35.5391 49.6748 35.5403 49.9426C35.5415 50.2103 35.4369 50.4677 35.2493 50.6587L34.2337 51.6743C34.1395 51.7688 34.0276 51.8437 33.9044 51.8948C33.7811 51.9458 33.649 51.9721 33.5157 51.9719Z" fill="#E6231E"/>
<path d="M40.625 52.9877C40.5157 52.9876 40.4072 52.9699 40.3036 52.9351L34.2099 50.9039C34.0831 50.8619 33.9659 50.7954 33.8649 50.708C33.7639 50.6207 33.6811 50.5143 33.6213 50.3949C33.5614 50.2755 33.5258 50.1455 33.5162 50.0123C33.5067 49.8791 33.5236 49.7454 33.5659 49.6187C33.6081 49.492 33.675 49.375 33.7626 49.2742C33.8501 49.1734 33.9567 49.0908 34.0763 49.0313C34.1958 48.9718 34.3259 48.9364 34.4591 48.9272C34.5923 48.918 34.726 48.9352 34.8526 48.9778L40.9463 51.009C41.175 51.0854 41.369 51.2406 41.4937 51.4469C41.6184 51.6532 41.6657 51.8971 41.6271 52.135C41.5884 52.373 41.4664 52.5894 41.2828 52.7456C41.0992 52.9018 40.866 52.9876 40.625 52.9877Z" fill="#E6231E"/>
<path d="M40.626 52.9873C40.3971 52.9876 40.1748 52.9106 39.9952 52.7686C39.8155 52.6267 39.6891 52.4283 39.6364 52.2055C39.5837 51.9828 39.6078 51.7487 39.7048 51.5414C39.8018 51.334 39.966 51.1655 40.1708 51.0632L42.202 50.0476C42.4429 49.9278 42.7214 49.9086 42.9765 49.9939C43.2315 50.0793 43.4423 50.2623 43.5626 50.5029C43.6829 50.7435 43.7029 51.0219 43.6181 51.2772C43.5334 51.5325 43.3508 51.7437 43.1105 51.8646L41.0793 52.8802C40.9385 52.9505 40.7834 52.9872 40.626 52.9873Z" fill="#E6231E"/>
<path d="M44.6875 51.9717H42.6562C42.3869 51.9717 42.1286 51.8647 41.9381 51.6742C41.7476 51.4837 41.6406 51.2254 41.6406 50.9561C41.6406 50.6867 41.7476 50.4284 41.9381 50.2379C42.1286 50.0474 42.3869 49.9404 42.6562 49.9404H44.6875C44.9569 49.9404 45.2152 50.0474 45.4057 50.2379C45.5961 50.4284 45.7031 50.6867 45.7031 50.9561C45.7031 51.2254 45.5961 51.4837 45.4057 51.6742C45.2152 51.8647 44.9569 51.9717 44.6875 51.9717Z" fill="#E6231E"/>
<path d="M44.6876 51.9717C44.5267 51.9715 44.3682 51.9331 44.2251 51.8597C44.0819 51.7863 43.9583 51.6799 43.8643 51.5494C43.7702 51.4189 43.7085 51.2679 43.6843 51.1089C43.66 50.9498 43.6738 50.7873 43.7245 50.6347L44.7402 47.5878C44.7821 47.461 44.8487 47.3438 44.936 47.2428C45.0234 47.1418 45.1298 47.059 45.2492 46.9992C45.3685 46.9394 45.4985 46.9037 45.6317 46.8942C45.7649 46.8847 45.8987 46.9015 46.0253 46.9438C46.152 46.9861 46.2691 47.0529 46.3699 47.1405C46.4707 47.2281 46.5532 47.3347 46.6128 47.4542C46.6723 47.5737 46.7077 47.7038 46.7169 47.837C46.726 47.9702 46.7088 48.104 46.6663 48.2305L45.6507 51.2774C45.5833 51.4796 45.4541 51.6554 45.2812 51.78C45.1084 51.9046 44.9007 51.9717 44.6876 51.9717Z" fill="#E6231E"/>
<path d="M47.7344 48.9248H45.7031C45.4338 48.9248 45.1754 48.8178 44.985 48.6273C44.7945 48.4369 44.6875 48.1785 44.6875 47.9092C44.6875 47.6398 44.7945 47.3815 44.985 47.191C45.1754 47.0006 45.4338 46.8936 45.7031 46.8936H47.7344C48.0037 46.8936 48.2621 47.0006 48.4525 47.191C48.643 47.3815 48.75 47.6398 48.75 47.9092C48.75 48.1785 48.643 48.4369 48.4525 48.6273C48.2621 48.8178 48.0037 48.9248 47.7344 48.9248Z" fill="#E6231E"/>
<path d="M49.7656 50.9563C49.6322 50.9564 49.5001 50.9302 49.3769 50.8791C49.2537 50.8281 49.1417 50.7532 49.0476 50.6587L47.0163 48.6274C46.8287 48.4364 46.7241 48.179 46.7254 47.9113C46.7266 47.6436 46.8335 47.3871 47.0228 47.1978C47.2121 47.0085 47.4685 46.9016 47.7363 46.9004C48.004 46.8992 48.2614 47.0038 48.4524 47.1914L50.4836 49.2226C50.6256 49.3646 50.7223 49.5456 50.7615 49.7426C50.8007 49.9396 50.7806 50.1437 50.7037 50.3293C50.6269 50.5148 50.4967 50.6734 50.3297 50.785C50.1628 50.8966 49.9664 50.9562 49.7656 50.9563Z" fill="#E6231E"/>
<path d="M51.7958 51.9717C51.6385 51.9715 51.4833 51.9349 51.3425 51.8646L49.3113 50.849C49.071 50.7281 48.8885 50.5169 48.8037 50.2616C48.7189 50.0063 48.7389 49.7278 48.8592 49.4873C48.9795 49.2467 49.1903 49.0636 49.4454 48.9783C49.7004 48.8929 49.9789 48.9122 50.2198 49.0319L52.2511 50.0476C52.4558 50.1499 52.62 50.3184 52.717 50.5258C52.814 50.7331 52.8381 50.9672 52.7854 51.1899C52.7327 51.4127 52.6063 51.6111 52.4266 51.753C52.247 51.8949 52.0247 51.972 51.7958 51.9717Z" fill="#E6231E"/>
<path d="M51.7979 51.9717C51.569 51.972 51.3467 51.8949 51.1671 51.753C50.9874 51.6111 50.861 51.4127 50.8083 51.1899C50.7556 50.9672 50.7797 50.7331 50.8767 50.5258C50.9737 50.3184 51.1379 50.1499 51.3426 50.0476L53.3739 49.0319C53.6148 48.9122 53.8933 48.8929 54.1483 48.9783C54.4034 49.0636 54.6142 49.2467 54.7345 49.4873C54.8548 49.7278 54.8747 50.0063 54.79 50.2616C54.7052 50.5169 54.5227 50.7281 54.2824 50.849L52.2512 51.8646C52.1104 51.9349 51.9552 51.9715 51.7979 51.9717Z" fill="#E6231E"/>
<path d="M53.8281 52.9873C53.6947 52.9874 53.5626 52.9612 53.4394 52.9101C53.3161 52.8591 53.2041 52.7843 53.1098 52.69C53.0155 52.5957 52.9407 52.4837 52.8897 52.3604C52.8386 52.2372 52.8124 52.1051 52.8125 51.9717V49.9404C52.8125 49.6711 52.9195 49.4127 53.11 49.2223C53.3004 49.0318 53.5588 48.9248 53.8281 48.9248C54.0975 48.9248 54.3558 49.0318 54.5463 49.2223C54.7367 49.4127 54.8438 49.6711 54.8438 49.9404V51.9717C54.8438 52.1051 54.8176 52.2372 54.7666 52.3604C54.7156 52.4837 54.6408 52.5957 54.5465 52.69C54.4521 52.7843 54.3401 52.8591 54.2169 52.9101C54.0936 52.9612 53.9615 52.9874 53.8281 52.9873Z" fill="#E6231E"/>
<path d="M52.8115 55.0679C52.6574 55.0681 52.5053 55.0328 52.3671 54.9647C52.1251 54.8466 51.94 54.6372 51.8524 54.3826C51.7648 54.1279 51.7819 53.8489 51.8999 53.6069L52.9156 51.5261C52.9741 51.4062 53.0556 51.2991 53.1555 51.2108C53.2553 51.1224 53.3717 51.0547 53.4977 51.0113C53.6238 50.9679 53.7572 50.9498 53.8903 50.958C54.0234 50.9661 54.1536 51.0005 54.2734 51.0589C54.3932 51.1174 54.5004 51.1989 54.5887 51.2988C54.677 51.3987 54.7448 51.515 54.7882 51.6411C54.8316 51.7672 54.8497 51.9006 54.8415 52.0337C54.8333 52.1668 54.799 52.2969 54.7405 52.4168L53.7249 54.4976C53.6415 54.6688 53.5116 54.8131 53.3501 54.9139C53.1885 55.0148 53.0019 55.0681 52.8115 55.0679Z" fill="#E6231E"/>
<path d="M56.874 57.0498C56.7199 57.0498 56.5679 57.0145 56.4296 56.9466L52.3671 54.9649C52.2473 54.9065 52.1402 54.825 52.0518 54.7251C51.9635 54.6252 51.8957 54.5089 51.8523 54.3828C51.809 54.2567 51.7909 54.1233 51.799 53.9902C51.8072 53.8571 51.8415 53.7269 51.9 53.6071C51.9585 53.4873 52.04 53.3802 52.1399 53.2918C52.2398 53.2035 52.3561 53.1357 52.4822 53.0923C52.6083 53.049 52.7416 53.0308 52.8747 53.039C53.0078 53.0472 53.138 53.0815 53.2578 53.14L57.3203 55.1216C57.5267 55.2224 57.6928 55.3902 57.7916 55.5975C57.8904 55.8048 57.9159 56.0395 57.8641 56.2633C57.8123 56.487 57.6862 56.6866 57.5064 56.8294C57.3266 56.9723 57.1036 57.0499 56.874 57.0498Z" fill="#E6231E"/>
<path d="M56.875 56.9843C56.7416 56.9844 56.6095 56.9582 56.4862 56.9072C56.363 56.8562 56.251 56.7814 56.1567 56.687C56.0623 56.5927 55.9875 56.4807 55.9365 56.3575C55.8855 56.2342 55.8593 56.1021 55.8594 55.9687V47.9092C55.8594 47.6398 55.9664 47.3815 56.1568 47.191C56.3473 47.0006 56.6056 46.8936 56.875 46.8936C57.1444 46.8936 57.4027 47.0006 57.5932 47.191C57.7836 47.3815 57.8906 47.6398 57.8906 47.9092V55.9687C57.8907 56.1021 57.8645 56.2342 57.8135 56.3575C57.7625 56.4807 57.6877 56.5927 57.5933 56.687C57.499 56.7814 57.387 56.8562 57.2638 56.9072C57.1405 56.9582 57.0084 56.9844 56.875 56.9843Z" fill="#E6231E"/>
<path d="M56.876 48.9251C56.6872 48.9253 56.5021 48.8729 56.3414 48.7737C56.1808 48.6746 56.0509 48.5326 55.9665 48.3638L53.9352 44.3013C53.8752 44.1819 53.8393 44.0519 53.8296 43.9187C53.8199 43.7854 53.8366 43.6516 53.8786 43.5248C53.9207 43.398 53.9874 43.2808 54.0749 43.1798C54.1624 43.0788 54.2689 42.9961 54.3884 42.9363C54.5079 42.8766 54.638 42.841 54.7712 42.8316C54.9045 42.8222 55.0383 42.8392 55.165 42.8816C55.2917 42.924 55.4088 42.991 55.5095 43.0787C55.6103 43.1664 55.6928 43.2731 55.7522 43.3927L57.7835 47.4552C57.8609 47.61 57.8975 47.782 57.8898 47.9549C57.8821 48.1278 57.8303 48.2958 57.7394 48.4431C57.6485 48.5904 57.5214 48.7119 57.3703 48.7963C57.2192 48.8807 57.049 48.925 56.876 48.9251Z" fill="#E6231E"/>
<path d="M54.8438 44.8623H52.8125C52.5431 44.8623 52.2848 44.7553 52.0943 44.5648C51.9039 44.3744 51.7969 44.116 51.7969 43.8467C51.7969 43.5773 51.9039 43.319 52.0943 43.1285C52.2848 42.9381 52.5431 42.8311 52.8125 42.8311H54.8438C55.1131 42.8311 55.3714 42.9381 55.5619 43.1285C55.7524 43.319 55.8594 43.5773 55.8594 43.8467C55.8594 44.116 55.7524 44.3744 55.5619 44.5648C55.3714 44.7553 55.1131 44.8623 54.8438 44.8623Z" fill="#E6231E"/>
<path d="M52.8136 44.862C52.6593 44.8618 52.5071 44.8265 52.3685 44.7588C52.2299 44.6911 52.1085 44.5928 52.0135 44.4712C51.9185 44.3496 51.8524 44.2081 51.8202 44.0572C51.788 43.9063 51.7906 43.7501 51.8277 43.6004L52.8433 39.5379C52.9092 39.2773 53.0757 39.0535 53.3063 38.9155C53.5369 38.7775 53.8128 38.7366 54.0735 38.8017C54.3342 38.8669 54.5585 39.0327 54.6971 39.2629C54.8358 39.4931 54.8775 39.7689 54.8131 40.0298L53.7975 44.0923C53.7429 44.312 53.6164 44.5071 53.4381 44.6466C53.2598 44.7861 53.04 44.8619 52.8136 44.862Z" fill="#E6231E"/>
<path d="M53.8291 40.7998C53.6002 40.8001 53.3779 40.7231 53.1983 40.5811C53.0187 40.4392 52.8923 40.2408 52.8395 40.018C52.7868 39.7953 52.8109 39.5612 52.9079 39.3539C53.0049 39.1465 53.1691 38.978 53.3739 38.8757L57.4364 36.8444C57.6773 36.7247 57.9558 36.7054 58.2108 36.7908C58.4659 36.8761 58.6767 37.0592 58.797 37.2998C58.9173 37.5403 58.9372 37.8188 58.8525 38.0741C58.7677 38.3294 58.5852 38.5406 58.3449 38.6615L54.2824 40.6927C54.1416 40.763 53.9865 40.7997 53.8291 40.7998Z" fill="#E6231E"/>
<path d="M57.8907 38.7685C57.7299 38.7683 57.5713 38.73 57.4282 38.6566C57.2851 38.5831 57.1614 38.4768 57.0674 38.3463C56.9734 38.2157 56.9117 38.0648 56.8874 37.9057C56.8631 37.7467 56.8769 37.5842 56.9277 37.4316L57.9433 34.3847C57.9853 34.2579 58.0518 34.1407 58.1392 34.0397C58.2265 33.9387 58.3329 33.8559 58.4523 33.7961C58.5717 33.7362 58.7017 33.7006 58.8349 33.6911C58.9681 33.6815 59.1018 33.6984 59.2285 33.7407C59.3551 33.7829 59.4722 33.8498 59.573 33.9374C59.6738 34.0249 59.7563 34.1315 59.8159 34.2511C59.8754 34.3706 59.9108 34.5007 59.92 34.6339C59.9292 34.7671 59.912 34.9008 59.8694 35.0274L58.8538 38.0743C58.7864 38.2764 58.6572 38.4523 58.4843 38.5769C58.3115 38.7015 58.1038 38.7685 57.8907 38.7685Z" fill="#E6231E"/>
<path d="M62.9687 42.8313C62.8353 42.8314 62.7032 42.8052 62.58 42.7541C62.4568 42.7031 62.3449 42.6282 62.2507 42.5337L59.2038 39.4868C59.0162 39.2958 58.9116 39.0384 58.9129 38.7707C58.9141 38.5029 59.021 38.2465 59.2103 38.0572C59.3996 37.8679 59.656 37.761 59.9238 37.7598C60.1915 37.7586 60.4489 37.8631 60.6399 38.0507L63.6868 41.0976C63.8288 41.2396 63.9255 41.4206 63.9646 41.6176C64.0038 41.8146 63.9837 42.0187 63.9068 42.2043C63.83 42.3898 63.6998 42.5484 63.5329 42.66C63.3659 42.7716 63.1696 42.8312 62.9687 42.8313Z" fill="#E6231E"/>
<path d="M59.9209 39.7838C59.6946 39.7838 59.4747 39.7079 59.2964 39.5685C59.1181 39.429 58.9916 39.2339 58.937 39.0142L57.9214 34.9517C57.857 34.6908 57.8987 34.415 58.0374 34.1848C58.176 33.9546 58.4003 33.7887 58.661 33.7236C58.9217 33.6585 59.1976 33.6994 59.4282 33.8374C59.6588 33.9754 59.8253 34.1992 59.8912 34.4597L60.9068 38.5222C60.9439 38.672 60.9465 38.8282 60.9143 38.9791C60.8821 39.1299 60.816 39.2715 60.721 39.3931C60.626 39.5146 60.5046 39.613 60.366 39.6807C60.2274 39.7484 60.0752 39.7837 59.9209 39.7838Z" fill="#E6231E"/>
<path d="M34.5312 44.8623C34.2935 44.8625 34.0633 44.7793 33.8806 44.6272C33.3688 44.1998 21.3281 34.0336 21.3281 22.5186C21.3281 19.0169 22.7192 15.6586 25.1952 13.1825C27.6713 10.7065 31.0296 9.31543 34.5312 9.31543C38.0329 9.31543 41.3912 10.7065 43.8673 13.1825C46.3433 15.6586 47.7344 19.0169 47.7344 22.5186C47.7344 34.0336 35.6937 44.1998 35.1819 44.6272C34.9992 44.7793 34.769 44.8625 34.5312 44.8623ZM34.5312 11.3467C31.5693 11.35 28.7296 12.5281 26.6352 14.6225C24.5408 16.717 23.3627 19.5566 23.3594 22.5186C23.3594 31.6324 32.0537 40.2265 34.5312 42.4899C37.0078 40.2245 45.7031 31.6195 45.7031 22.5186C45.6998 19.5566 44.5217 16.717 42.4273 14.6225C40.3329 12.5281 37.4932 11.35 34.5312 11.3467Z" fill="#E6231E"/>
<path d="M34.5313 29.6279C33.1252 29.6279 31.7506 29.211 30.5815 28.4298C29.4124 27.6486 28.5011 26.5383 27.963 25.2392C27.425 23.9401 27.2842 22.5107 27.5585 21.1316C27.8328 19.7525 28.5099 18.4857 29.5042 17.4915C30.4984 16.4972 31.7652 15.8201 33.1443 15.5458C34.5234 15.2715 35.9528 15.4123 37.2519 15.9504C38.551 16.4884 39.6613 17.3997 40.4425 18.5688C41.2237 19.7379 41.6406 21.1125 41.6406 22.5186C41.6383 24.4034 40.8886 26.2104 39.5558 27.5431C38.223 28.8759 36.4161 29.6257 34.5313 29.6279ZM34.5313 17.4404C33.5269 17.4404 32.5451 17.7383 31.71 18.2963C30.8749 18.8542 30.224 19.6473 29.8397 20.5752C29.4553 21.5031 29.3548 22.5242 29.5507 23.5093C29.7466 24.4943 30.2303 25.3991 30.9405 26.1093C31.6507 26.8195 32.5555 27.3032 33.5406 27.4991C34.5256 27.695 35.5467 27.5945 36.4746 27.2101C37.4025 26.8258 38.1956 26.1749 38.7536 25.3398C39.3116 24.5047 39.6094 23.5229 39.6094 22.5186C39.6078 21.1722 39.0723 19.8815 38.1203 18.9295C37.1683 17.9775 35.8776 17.442 34.5313 17.4404Z" fill="#E6231E"/>
</g>
<defs>
<clipPath id="clip0_139_163">
<rect width="65" height="65" fill="white" transform="translate(0 0.682617)"/>
</clipPath>
</defs>
</svg>
