<svg width="65" height="66" viewBox="0 0 65 66" fill="none" xmlns="http://www.w3.org/2000/svg">
<path d="M14.2188 49.5967V44.5186C14.2188 44.2492 14.3258 43.9909 14.5162 43.8004C14.7067 43.6099 14.965 43.5029 15.2344 43.5029C15.5037 43.5029 15.7621 43.6099 15.9525 43.8004C16.143 43.9909 16.25 44.2492 16.25 44.5186V49.5967C16.25 49.866 16.143 50.1244 15.9525 50.3148C15.7621 50.5053 15.5037 50.6123 15.2344 50.6123C14.965 50.6123 14.7067 50.5053 14.5162 50.3148C14.3258 50.1244 14.2188 49.866 14.2188 49.5967Z" fill="black"/>
<path d="M14.2188 41.4717V40.4561C14.2188 40.1867 14.3258 39.9284 14.5162 39.7379C14.7067 39.5474 14.965 39.4404 15.2344 39.4404C15.5037 39.4404 15.7621 39.5474 15.9525 39.7379C16.143 39.9284 16.25 40.1867 16.25 40.4561V41.4717C16.25 41.741 16.143 41.9994 15.9525 42.1898C15.7621 42.3803 15.5037 42.4873 15.2344 42.4873C14.965 42.4873 14.7067 42.3803 14.5162 42.1898C14.3258 41.9994 14.2188 41.741 14.2188 41.4717Z" fill="black"/>
<path d="M25.3906 22.1748V17.0967C25.3906 16.8273 25.4976 16.569 25.6881 16.3785C25.8786 16.1881 26.1369 16.0811 26.4062 16.0811C26.6756 16.0811 26.9339 16.1881 27.1244 16.3785C27.3149 16.569 27.4219 16.8273 27.4219 17.0967V22.1748C27.4219 22.4442 27.3149 22.7025 27.1244 22.893C26.9339 23.0834 26.6756 23.1904 26.4062 23.1904C26.1369 23.1904 25.8786 23.0834 25.6881 22.893C25.4976 22.7025 25.3906 22.4442 25.3906 22.1748Z" fill="black"/>
<path d="M25.3906 14.0498V13.0342C25.3906 12.7648 25.4976 12.5065 25.6881 12.316C25.8786 12.1256 26.1369 12.0186 26.4062 12.0186C26.6756 12.0186 26.9339 12.1256 27.1244 12.316C27.3149 12.5065 27.4219 12.7648 27.4219 13.0342V14.0498C27.4219 14.3192 27.3149 14.5775 27.1244 14.768C26.9339 14.9584 26.6756 15.0654 26.4062 15.0654C26.1369 15.0654 25.8786 14.9584 25.6881 14.768C25.4976 14.5775 25.3906 14.3192 25.3906 14.0498Z" fill="black"/>
<path d="M36.5625 49.5967V44.5186C36.5625 44.2492 36.6695 43.9909 36.86 43.8004C37.0504 43.6099 37.3088 43.5029 37.5781 43.5029C37.8475 43.5029 38.1058 43.6099 38.2963 43.8004C38.4867 43.9909 38.5938 44.2492 38.5938 44.5186V49.5967C38.5938 49.866 38.4867 50.1244 38.2963 50.3148C38.1058 50.5053 37.8475 50.6123 37.5781 50.6123C37.3088 50.6123 37.0504 50.5053 36.86 50.3148C36.6695 50.1244 36.5625 49.866 36.5625 49.5967Z" fill="black"/>
<path d="M36.5625 41.4717V40.4561C36.5625 40.1867 36.6695 39.9284 36.86 39.7379C37.0504 39.5474 37.3088 39.4404 37.5781 39.4404C37.8475 39.4404 38.1058 39.5474 38.2963 39.7379C38.4867 39.9284 38.5938 40.1867 38.5938 40.4561V41.4717C38.5938 41.741 38.4867 41.9994 38.2963 42.1898C38.1058 42.3803 37.8475 42.4873 37.5781 42.4873C37.3088 42.4873 37.0504 42.3803 36.86 42.1898C36.6695 41.9994 36.5625 41.741 36.5625 41.4717Z" fill="black"/>
<path d="M59.4141 4.40137H56.3672C55.9633 4.40181 55.576 4.56245 55.2904 4.84806C55.0048 5.13366 54.8442 5.5209 54.8438 5.9248V25.7295H42.5838V9.47949C42.5831 8.94099 42.3689 8.42474 41.9881 8.04395C41.6074 7.66317 41.0911 7.44894 40.5526 7.44824H24.4474C23.9089 7.44894 23.3926 7.66317 23.0119 8.04395C22.6311 8.42474 22.4169 8.94099 22.4162 9.47949V25.7295H10.1562V5.9248C10.1558 5.5209 9.99516 5.13366 9.70956 4.84806C9.42395 4.56245 9.03672 4.40181 8.63281 4.40137H5.58594C5.18203 4.40181 4.7948 4.56245 4.50919 4.84806C4.22359 5.13366 4.06294 5.5209 4.0625 5.9248V59.7529C4.06294 60.1568 4.22359 60.5441 4.50919 60.8297C4.7948 61.1153 5.18203 61.2759 5.58594 61.2764H8.63281C9.03672 61.2759 9.42395 61.1153 9.70956 60.8297C9.99516 60.5441 10.1558 60.1568 10.1562 59.7529V59.2451H54.8438V59.7529C54.8442 60.1568 55.0048 60.5441 55.2904 60.8297C55.576 61.1153 55.9633 61.2759 56.3672 61.2764H59.4141C59.818 61.2759 60.2052 61.1153 60.4908 60.8297C60.7764 60.5441 60.9371 60.1568 60.9375 59.7529V5.9248C60.9371 5.5209 60.7764 5.13366 60.4908 4.84806C60.2052 4.56245 59.818 4.40181 59.4141 4.40137ZM41.4234 36.9014H45.9203V41.1236L45.8469 41.1553C44.6561 40.639 44.8411 40.6466 43.6689 41.1553C42.4773 40.6382 42.675 40.6419 41.4938 41.1553L41.4234 41.1245V36.9014ZM40.0031 42.7214C41.6339 43.4303 41.3501 43.4318 42.5809 42.8969C43.7719 43.4138 43.5736 43.4104 44.7569 42.8969C45.9902 43.4316 45.707 43.4301 47.3397 42.7224C47.5214 42.6435 47.6762 42.5133 47.7849 42.3476C47.8937 42.182 47.9516 41.9882 47.9516 41.79V36.9014H51.7245L51.7255 53.1514H35.6193V36.9014H39.3922V41.7901C39.3921 41.988 39.4499 42.1816 39.5584 42.347C39.667 42.5125 39.8216 42.6426 40.0031 42.7214ZM51.7245 34.8701H35.6193C35.0808 34.8708 34.5645 35.085 34.1837 35.4658C33.803 35.8466 33.5887 36.3629 33.588 36.9014V53.1514H31.412V36.9014C31.4113 36.3629 31.197 35.8466 30.8163 35.4658C30.4355 35.085 29.9192 34.8708 29.3807 34.8701H13.2755C12.737 34.8708 12.2208 35.085 11.84 35.4658C11.4592 35.8466 11.245 36.3629 11.2443 36.9014V53.1514H10.1562V31.8232H54.8438V53.1514H53.7557V36.9014C53.755 36.3629 53.5408 35.8466 53.16 35.4658C52.7792 35.085 52.263 34.8708 51.7245 34.8701ZM19.0797 36.9014H23.5766V41.1236L23.5032 41.1553C22.3643 40.6616 22.5166 40.6382 21.3251 41.1553C20.1335 40.6382 20.3313 40.6419 19.1501 41.1553L19.0797 41.1245V36.9014ZM17.6594 42.7214C19.3025 43.4357 19.0081 43.431 20.2371 42.8969C21.4249 43.4124 21.2386 43.4067 22.4132 42.8969C23.6465 43.4316 23.3633 43.4301 24.9959 42.7224C25.1777 42.6435 25.3325 42.5133 25.4412 42.3476C25.5499 42.182 25.6078 41.9882 25.6079 41.79V36.9014H29.3808L29.3818 53.1514H13.2755V36.9014H17.0484V41.7901C17.0483 41.988 17.1061 42.1816 17.2147 42.347C17.3232 42.5125 17.4778 42.6426 17.6594 42.7214ZM34.7485 9.47949V13.7017L34.6751 13.7334C33.5362 13.2397 33.6885 13.2164 32.497 13.7334C31.3054 13.2163 31.5032 13.2201 30.322 13.7334L30.2515 13.7027V9.47949H34.7485ZM24.4474 9.47949H28.2203V14.3682C28.2202 14.5661 28.278 14.7597 28.3866 14.9252C28.4951 15.0907 28.6497 15.2208 28.8313 15.2995C30.4744 16.0138 30.18 16.0092 31.409 15.4751C32.5968 15.9905 32.4105 15.9848 33.5851 15.4751C34.8184 16.0097 34.5351 16.0083 36.1678 15.3005C36.3496 15.2217 36.5043 15.0914 36.6131 14.9258C36.7218 14.7601 36.7797 14.5663 36.7797 14.3682V9.47949H40.5526L40.5536 25.7295H24.4474V9.47949ZM54.8438 27.7607V29.792H10.1562V27.7607H54.8438ZM8.125 59.2451H6.09375V6.43262H8.125V59.2451ZM10.1562 57.2139V55.1826H54.8438V57.2139H10.1562ZM58.9062 59.2451H56.875V6.43262H58.9062V59.2451Z" fill="black"/>
<circle cx="12" cy="12.3389" r="10.5" stroke="black" stroke-width="3"/>
<circle cx="12" cy="12.3389" r="10.5" stroke="black" stroke-width="3"/>
<circle cx="12" cy="12.3389" r="12" fill="#1964AA"/>
<path d="M8.53008 12.8669C8.53008 12.0269 8.67474 11.2242 8.96408 10.4589C9.25341 9.6842 9.64541 9.02153 10.1401 8.47087C11.1107 7.37887 12.1794 6.68353 13.3461 6.38487L14.0041 7.60287C13.1454 7.8642 12.3941 8.30753 11.7501 8.93287C11.1154 9.5582 10.6767 10.3095 10.4341 11.1869C10.8727 10.5802 11.5447 10.2769 12.4501 10.2769C13.2154 10.2769 13.8641 10.5569 14.3961 11.1169C14.9281 11.6769 15.1941 12.3955 15.1941 13.2729C15.1941 14.2529 14.8767 15.0369 14.2421 15.6249C13.6074 16.2035 12.8701 16.4929 12.0301 16.4929C10.9661 16.4929 10.1167 16.1429 9.48208 15.4429C8.84741 14.7335 8.53008 13.8749 8.53008 12.8669ZM10.2381 12.8809C10.2381 13.4689 10.3967 13.9495 10.7141 14.3229C11.0407 14.6962 11.4841 14.8829 12.0441 14.8829C12.4641 14.8829 12.8094 14.7382 13.0801 14.4489C13.3507 14.1595 13.4861 13.8049 13.4861 13.3849C13.4861 12.9089 13.3461 12.5215 13.0661 12.2229C12.7861 11.9242 12.3987 11.7749 11.9041 11.7749C11.1481 11.7749 10.5927 12.1435 10.2381 12.8809Z" fill="white"/>
</svg>
