<svg width="65" height="66" viewBox="0 0 65 66" fill="none" xmlns="http://www.w3.org/2000/svg">
<g clip-path="url(#clip0_522_3)">
<path d="M57.7856 15.1613C58.6929 13.3022 59.3142 11.3741 59.3142 9.57839C59.3142 4.48376 55.1693 0.338867 50.0745 0.338867C46.7761 0.338867 43.8777 2.07749 42.2425 4.68511C40.4502 4.16066 38.6011 3.79605 36.7381 3.60423C36.2065 3.549 35.7296 3.93659 35.6747 4.46916C35.6199 5.0016 36.0072 5.47768 36.5397 5.53239C38.1756 5.70073 39.8004 6.00999 41.3804 6.45242C41.0281 7.42933 40.8351 8.48164 40.8351 9.57839C40.8351 16.1076 49.0401 24.3876 49.3892 24.7368C49.7626 25.1101 50.3867 25.1101 50.7599 24.7368C50.9804 24.5162 54.3334 21.1328 56.7748 17.025C58.7671 19.6823 60.2625 22.6025 61.231 25.7L47.1733 27.1798C46.9224 27.2063 46.6916 27.3295 46.5301 27.5233C46.3845 27.698 42.9458 31.8306 41.1849 34.4773C39.1931 34.6099 37.3715 35.3742 35.9215 36.5745L35.7388 35.4786L34.4896 28.0266C34.4515 27.799 34.3335 27.5927 34.1569 27.4442L26.6618 21.1552C26.5189 21.0353 26.3442 20.9592 26.159 20.9361L18.4793 19.9761C17.5357 17.278 15.3748 15.1485 12.6574 14.2472C17.8198 8.88726 24.6992 5.75888 32.1572 5.41064C32.692 5.38576 33.1051 4.93203 33.0802 4.39743C33.0553 3.86283 32.6016 3.44706 32.067 3.47448C27.8557 3.67101 23.8061 4.70047 20.0307 6.5338C16.3713 8.31089 13.1386 10.7573 10.4224 13.8049C10.2022 13.7892 9.98068 13.7783 9.75661 13.7783C4.66198 13.7783 0.51709 17.9231 0.51709 23.0178C0.51709 25.3196 1.53729 27.8387 2.87309 30.1515C2.68202 31.5467 2.58465 32.9722 2.58465 34.3896C2.58465 42.6565 5.80405 50.4285 11.6495 56.274C17.4949 62.1195 25.267 65.3389 33.5338 65.3389C41.8007 65.3389 49.5727 62.1195 55.4182 56.274C61.2638 50.4285 64.4831 42.6564 64.4831 34.3896C64.4831 27.3254 62.1671 20.679 57.7856 15.1613ZM50.0745 22.6435C48.1386 20.5431 42.7733 14.2961 42.7733 9.57839C42.7733 5.55258 46.0486 2.27719 50.0745 2.27719C54.1005 2.27719 57.3757 5.55245 57.3757 9.57839C57.3757 14.2962 52.0104 20.5432 50.0745 22.6435ZM41.8041 36.3925C45.83 36.3925 49.1054 39.6678 49.1054 43.6937C49.1054 48.4114 43.7401 54.6584 41.8041 56.7589C39.8682 54.6584 34.5029 48.4114 34.5029 43.6937C34.5029 39.6679 37.7783 36.3925 41.8041 36.3925ZM2.45528 23.0178C2.45528 18.992 5.73055 15.7166 9.75648 15.7166C13.7824 15.7166 17.0577 18.992 17.0577 23.0178C17.0577 27.7355 11.6925 33.9825 9.75648 36.0829C7.82045 33.9825 2.45528 27.7355 2.45528 23.0178ZM4.52284 34.3896C4.52284 33.8535 4.5382 33.3161 4.56753 32.7798C6.69247 35.7777 8.89384 37.999 9.07119 38.1762C9.44431 38.5495 10.0688 38.5495 10.4418 38.1762C10.6241 37.9939 12.9473 35.6497 15.1265 32.5221L18.9074 41.0291C18.9883 41.2113 19.1235 41.364 19.2945 41.4666L24.8757 44.8154L22.3693 52.4109L15.8765 57.3913C8.97763 52.0828 4.52284 43.7472 4.52284 34.3896ZM17.5237 58.5704L23.7856 53.767C23.9398 53.6486 24.055 53.4864 24.116 53.3017L26.959 44.6866C27.1011 44.2563 26.9259 43.785 26.5374 43.5519L20.5542 39.962L16.3861 30.5835C17.8447 28.1553 18.9961 25.4637 18.9961 23.0178C18.9961 22.6692 18.9749 22.3255 18.9372 21.9868L25.6349 22.824L32.6371 28.6996L33.8271 35.7981L34.2565 38.3748C33.1925 39.8799 32.5648 41.7143 32.5648 43.6939C32.5648 44.9822 32.8851 46.3387 33.4006 47.689L30.6719 55.4377L21.4127 60.7437C20.0568 60.1174 18.7573 59.3898 17.5237 58.5704ZM33.5338 63.4005C30.0766 63.4005 26.7593 62.7916 23.682 61.677L31.9481 56.9402C32.1499 56.8245 32.3032 56.6404 32.3804 56.4212L34.5705 50.2022C37.0236 54.7214 40.8818 58.615 41.1189 58.8522C41.4922 59.2254 42.1163 59.2254 42.4896 58.8522C42.7616 58.5801 47.8014 53.4944 50.0151 48.173L57.9385 50.0596C52.7714 58.0791 43.7625 63.4005 33.5338 63.4005ZM50.6551 46.333C50.9014 45.4377 51.0438 44.5505 51.0438 43.6939C51.0438 39.1627 47.7641 35.3855 43.4545 34.6048C44.9427 32.5245 47.052 29.9376 47.7696 29.0662L61.7528 27.5943C62.2769 29.7919 62.5447 32.0665 62.5447 34.3895C62.5447 39.4324 61.2503 44.1784 58.9776 48.3145L50.6551 46.333Z" fill="black"/>
<path d="M41.8041 38.5894C38.9896 38.5894 36.6997 40.8792 36.6997 43.6938C36.6997 46.5083 38.9896 48.7982 41.8041 48.7982C44.6187 48.7982 46.9085 46.5083 46.9085 43.6938C46.9085 40.8792 44.6187 38.5894 41.8041 38.5894ZM41.8041 46.8597C40.0583 46.8597 38.6382 45.4394 38.6382 43.6938C38.6382 41.9482 40.0584 40.5278 41.8041 40.5278C43.55 40.5278 44.9701 41.9482 44.9701 43.6938C44.9701 45.4394 43.55 46.8597 41.8041 46.8597Z" fill="black"/>
<path d="M50.0746 4.47412C47.2601 4.47412 44.9702 6.76397 44.9702 9.57853C44.9702 12.3931 47.2601 14.6829 50.0746 14.6829C52.8892 14.6829 55.179 12.3931 55.179 9.57853C55.179 6.76397 52.8892 4.47412 50.0746 4.47412ZM50.0746 12.7445C48.3288 12.7445 46.9087 11.3241 46.9087 9.57853C46.9087 7.83279 48.3289 6.41257 50.0746 6.41257C51.8205 6.41257 53.2406 7.83292 53.2406 9.57853C53.2407 11.3241 51.8205 12.7445 50.0746 12.7445Z" fill="black"/>
<path d="M9.7565 17.9133C6.94195 17.9133 4.6521 20.2032 4.6521 23.0177C4.6521 25.8323 6.94195 28.1221 9.7565 28.1221C12.5711 28.1221 14.8609 25.8323 14.8609 23.0177C14.8609 20.2032 12.5711 17.9133 9.7565 17.9133ZM9.7565 26.1838C8.01077 26.1838 6.59055 24.7635 6.59055 23.0179C6.59055 21.2721 8.0109 19.8519 9.7565 19.8519C11.5022 19.8519 12.9225 21.2723 12.9225 23.0179C12.9225 24.7635 11.5022 26.1838 9.7565 26.1838Z" fill="black"/>
</g>
<circle cx="12" cy="12.3389" r="10.5" stroke="black" stroke-width="3"/>
<circle cx="12" cy="12.3389" r="10.5" stroke="black" stroke-width="3"/>
<circle cx="12" cy="12.3389" r="12" fill="#1964AA"/>
<path d="M15.1101 16.3389H8.96408V15.0509C10.1307 13.9029 10.9241 13.0862 11.3441 12.6009C12.4641 11.3035 13.0241 10.2069 13.0241 9.31087C13.0241 8.90953 12.9167 8.59687 12.7021 8.37287C12.4874 8.14887 12.1794 8.03687 11.7781 8.03687C11.4327 8.03687 11.1341 8.15353 10.8821 8.38687C10.6394 8.6202 10.4667 8.9422 10.3641 9.35287L9.02008 8.75087C9.16008 8.0322 9.49141 7.46753 10.0141 7.05687C10.5461 6.63687 11.1947 6.42687 11.9601 6.42687C12.8467 6.42687 13.5327 6.67887 14.0181 7.18287C14.5034 7.67753 14.7461 8.27953 14.7461 8.98887C14.7461 10.8275 13.5141 12.7782 11.0501 14.8409H15.1101V16.3389Z" fill="white"/>
<defs>
<clipPath id="clip0_522_3">
<rect width="65" height="65" fill="white" transform="translate(0 0.338867)"/>
</clipPath>
</defs>
</svg>
