<svg width="51" height="46" viewBox="0 0 51 46" fill="none" xmlns="http://www.w3.org/2000/svg">
<path d="M4.39251 40.2449L4.40561 40.2619L4.41943 40.2784C6.69855 42.9916 9.75346 44.3389 13.4814 44.3389C16.1855 44.3389 18.5106 43.4646 20.389 41.6967L20.3903 41.6955C22.3703 39.8255 23.3703 37.4875 23.3703 34.7463C23.3703 32.0146 22.3773 29.6834 20.411 27.8167C18.5443 25.8504 16.2131 24.8574 13.4814 24.8574C12.682 24.8574 12.2432 24.6663 11.9968 24.4388C11.6939 24.0579 11.5185 23.5647 11.5185 22.8944C11.5185 19.8949 12.6048 16.8911 14.8726 13.8667C17.2781 10.6919 19.9019 8.26757 22.7367 6.56673L23.6489 6.01937L23.0462 5.1427L21.4166 2.77234L20.9268 2.05989L20.151 2.44161C13.8132 5.56024 9.01925 9.46588 5.83735 14.1874L5.83734 14.1874L5.83456 14.1916C2.75805 18.8063 1.22217 23.9884 1.22217 29.7092C1.22217 33.923 2.25211 37.4624 4.39251 40.2449ZM30.0221 40.2449L30.0352 40.2619L30.0491 40.2784C32.3282 42.9916 35.3831 44.3389 39.1111 44.3389C41.8151 44.3389 44.1402 43.4646 46.0186 41.6967L46.0199 41.6955C47.9999 39.8255 49 37.4875 49 34.7463C49 32.0147 48.0069 29.6834 46.0407 27.8167C44.1739 25.8505 41.8427 24.8574 39.1111 24.8574C38.3116 24.8574 37.8728 24.6663 37.6264 24.4388C37.3236 24.0579 37.1481 23.5647 37.1481 22.8944C37.1481 19.8948 38.2345 16.8909 40.5025 13.8664C42.9079 10.6917 45.5317 8.26751 48.3663 6.56673L49.2786 6.01937L48.6758 5.1427L47.0462 2.77234L46.5564 2.0599L45.7807 2.44161C39.4428 5.56024 34.6489 9.46588 31.467 14.1874L31.4642 14.1916C28.3877 18.8063 26.8518 23.9884 26.8518 29.7092C26.8518 33.923 27.8817 37.4624 30.0221 40.2449Z" fill="#1964AA" stroke="white" stroke-width="2"/>
</svg>
