<svg width="19" height="19" viewBox="0 0 19 19" fill="none" xmlns="http://www.w3.org/2000/svg">
<g opacity="0.4" clip-path="url(#clip0_32_72)">
<path d="M15.1945 4.22894C13.6504 2.72925 11.5781 1.89739 9.4256 1.91312C7.2731 1.92885 5.21321 2.79092 3.69112 4.31301C2.16903 5.8351 1.30697 7.89498 1.29123 10.0475C1.2755 12.2 2.10737 14.2723 3.60705 15.8164C4.65414 16.8623 5.96459 17.6055 7.39961 17.9674C8.83463 18.3293 10.3408 18.2964 11.7586 17.8721C11.961 17.8104 12.1308 17.671 12.2306 17.4844C12.3305 17.2979 12.3525 17.0794 12.2917 16.8767C12.2308 16.674 12.0922 16.5036 11.9061 16.4029C11.72 16.3022 11.5016 16.2792 11.2987 16.3392C10.6829 16.5236 10.0436 16.6171 9.4008 16.6167C5.76482 16.6167 2.80681 13.6587 2.80681 10.0227C2.80681 6.38671 5.76482 3.4287 9.4008 3.4287C13.0368 3.4287 15.9948 6.38671 15.9948 10.0227C15.9971 11.308 15.622 12.5657 14.9161 13.6398C14.8026 13.8171 14.7636 14.032 14.8075 14.2379C14.8514 14.4438 14.9747 14.6241 15.1506 14.7398C15.3266 14.8554 15.541 14.897 15.7474 14.8557C15.9538 14.8143 16.1356 14.6933 16.2534 14.5188C17.2864 12.9432 17.7451 11.0598 17.5522 9.18571C17.3594 7.31159 16.5268 5.56112 15.1945 4.22894Z" fill="black" stroke="black"/>
<path d="M8.60059 6.1175V11.207C8.60059 11.4193 8.6849 11.6228 8.83497 11.7729C8.98505 11.923 9.18859 12.0073 9.40083 12.0073C9.61306 12.0073 9.81661 11.923 9.96668 11.7729C10.1168 11.6228 10.2011 11.4193 10.2011 11.207V6.1175C10.2011 5.90526 10.1168 5.70172 9.96668 5.55165C9.81661 5.40157 9.61306 5.31726 9.40083 5.31726C9.18859 5.31726 8.98505 5.40157 8.83497 5.55165C8.6849 5.70172 8.60059 5.90526 8.60059 6.1175Z" fill="black" stroke="black"/>
<path d="M9.40083 14.7281C9.24255 14.7281 9.08784 14.6812 8.95624 14.5932C8.82464 14.5053 8.72207 14.3803 8.6615 14.2341C8.60093 14.0879 8.58509 13.927 8.61596 13.7717C8.64684 13.6165 8.72306 13.4739 8.83497 13.362C8.94689 13.2501 9.08948 13.1739 9.24471 13.143C9.39994 13.1121 9.56084 13.128 9.70707 13.1885C9.85329 13.2491 9.97827 13.3517 10.0662 13.4833C10.1541 13.6149 10.2011 13.7696 10.2011 13.9279C10.2011 14.1401 10.1168 14.3436 9.96668 14.4937C9.81661 14.6438 9.61307 14.7281 9.40083 14.7281Z" fill="black" stroke="black"/>
</g>
<defs>
<clipPath id="clip0_32_72">
<rect width="18" height="18" fill="white" transform="translate(0.576172 0.838867)"/>
</clipPath>
</defs>
</svg>
