<svg width="49" height="49" viewBox="0 0 49 49" fill="none" xmlns="http://www.w3.org/2000/svg">
<path d="M45.1526 24.3308C45.1229 23.1235 45.0337 21.8964 44.7661 20.7188C44.3301 18.8187 43.2996 17.2552 41.3375 16.6317C39.1872 15.9489 37.2648 16.5922 35.5306 17.9281C35.4414 17.9974 35.3622 18.1359 35.3622 18.2349C35.3523 19.5609 35.3523 20.8771 35.3523 22.1933C35.9865 22.0646 36.5513 21.8964 37.126 21.8469C37.899 21.7776 38.6223 21.936 39.0683 22.6683C39.5142 23.3907 39.7916 24.1923 39.8016 25.0334C39.8313 28.2694 39.8313 31.5054 39.8016 34.7315C39.7916 36.1565 39.0385 37.1065 37.7107 37.5617C37.6017 37.6013 37.4431 37.7596 37.4431 37.8586C37.4332 39.4518 37.453 41.0451 37.463 42.6383C37.463 42.9055 37.572 43.0243 37.8692 43.0243C40.6934 43.054 43.5275 41.1045 44.5085 38.4227C45.1823 36.582 45.2616 34.6622 45.2517 32.7325C45.2319 29.9517 45.2319 27.1413 45.1526 24.3308ZM39.5637 9.8728C40.9411 9.72436 42.3284 9.56602 43.7058 9.41758C43.9338 9.39779 44.0527 9.33842 44.0527 9.08112C44.0428 7.47797 44.0527 5.86493 44.0527 4.18262C41.8032 4.43991 39.6331 4.67742 37.4729 4.93471C34.9955 5.22169 32.5677 5.52847 30.0904 5.79566C30.0111 6.81494 29.9318 7.88371 29.8625 8.92278C29.8228 9.57592 29.7931 10.2291 29.7634 10.9218C31.1408 10.7733 32.4587 10.6348 33.7767 10.4962C35.709 10.2884 37.6413 10.0806 39.5637 9.8728ZM34.0739 26.3298C34.1433 23.5688 34.2028 20.8078 34.282 18.0568C34.3217 16.4833 34.3911 14.9098 34.4307 13.3265C34.4406 12.8614 34.4307 12.3963 34.4307 11.9114C34.2028 11.9114 34.0442 11.9015 33.8956 11.9114C32.6668 11.9707 31.4381 12.0598 30.1994 12.0895C29.7634 12.0994 29.6643 12.2676 29.6544 12.6437C29.6346 13.5145 29.5949 14.3755 29.5652 15.2463C29.4364 18.6604 29.3076 22.0844 29.1886 25.4985C29.1688 25.9537 29.1886 26.409 29.1886 26.9433C30.7543 26.8939 32.2506 26.8444 33.7569 26.7949C34.0739 26.785 34.064 26.5673 34.0739 26.3298ZM35.9865 37.5122C34.8072 37.3836 34.1929 36.2455 34.1532 35.1372C34.1037 33.8012 34.0739 32.4554 34.0541 31.1194C34.0541 30.783 33.955 30.6444 33.5884 30.6543C32.2804 30.6939 30.9624 30.7236 29.6445 30.7335C29.2877 30.7335 29.2283 30.8819 29.2382 31.1887C29.258 32.0398 29.2481 32.8908 29.2778 33.7419C29.3175 35.0481 29.2679 36.3742 29.476 37.6607C29.7436 39.3034 30.5462 40.7581 31.9434 41.718C33.1821 42.5691 34.6388 42.9055 36.2342 43.0936C36.2342 41.2727 36.2342 39.531 36.2243 37.7794C36.2342 37.6904 36.0855 37.5221 35.9865 37.5122ZM10.1825 33.7419C8.27991 33.6627 7.71508 33.059 7.67544 31.1491C7.64571 29.6944 7.67544 28.2397 7.64571 26.785C7.6358 26.1715 7.56644 25.548 7.51689 24.9246H3.29551C3.29551 27.1808 3.18651 29.3481 3.31533 31.5054C3.59279 35.9289 5.96112 38.4128 10.1231 38.9175C10.7077 38.9867 10.9257 38.8284 10.9059 38.2445C10.8762 36.9877 10.8861 35.7211 10.9059 34.4643C10.9158 33.92 10.7077 33.7617 10.1825 33.7419ZM3.26578 23.2521H7.53671C7.53671 21.9855 7.51689 20.7782 7.53671 19.5708C7.58626 17.1067 8.27991 16.3448 10.7077 16.0479C10.7572 16.038 10.7969 15.9885 10.896 15.9291V11.9015C8.00245 11.5749 4.82155 13.6036 3.78107 16.4239C2.94868 18.6505 3.38469 20.9563 3.26578 23.2521ZM20.7855 18.0667C20.7954 18.9672 20.7954 19.8776 20.8053 20.7782C20.8053 21.3917 20.8053 22.0052 20.8053 22.6089H25.6609C25.6609 20.5209 25.7501 18.5417 25.6312 16.5823C25.5321 14.8307 24.6799 13.3958 23.1638 12.426C21.608 11.4265 19.8739 11.278 18.0902 11.4265C17.9217 11.4364 17.6542 11.7036 17.6442 11.8619C17.6046 13.1385 17.6244 14.4249 17.6244 15.7411C18.001 15.7609 18.2685 15.7807 18.5361 15.7906C20.1612 15.85 20.7657 16.4536 20.7855 18.0667ZM11.7878 43.1826H16.6038V7.10193C14.9489 7.28005 13.3733 7.44829 11.7878 7.61652V43.1826ZM25.7006 24.3308C24.2835 24.3308 22.9755 24.3506 21.6674 24.3209C21.0531 24.3011 20.8549 24.5188 20.8549 25.1324C20.8747 26.8642 20.8152 28.5861 20.8251 30.3179C20.8351 32.5247 19.9829 33.7221 17.8722 33.9299C17.8028 33.9398 17.7334 33.9992 17.674 34.0288V38.5414C21.826 38.769 24.4817 36.5622 25.324 33.3658C26.1267 30.397 25.5222 27.3788 25.7006 24.3308Z" fill="white"/>
</svg>
