<svg width="39" height="39" viewBox="0 0 39 39" fill="none" xmlns="http://www.w3.org/2000/svg">
<path d="M37.8373 30.6184L33.6247 27.8097L29.8797 25.3136C29.157 24.8327 28.1857 24.9904 27.6522 25.6752L25.3349 28.6543C24.8371 29.3007 23.9416 29.4865 23.2278 29.0913C21.6554 28.2166 19.7961 27.3931 15.6935 23.2852C11.5909 19.1773 10.7621 17.3232 9.88743 15.7508C9.49222 15.037 9.67798 14.1416 10.3244 13.6439L13.3034 11.3265C13.9882 10.7931 14.146 9.82178 13.6651 9.09897L11.2456 5.46935L8.36025 1.14126C7.86915 0.404572 6.88607 0.183402 6.12682 0.638729L2.7992 2.63504C1.8999 3.16488 1.23885 4.02047 0.95296 5.02441C0.0429778 8.34217 -0.140488 15.661 11.5889 27.3904C23.3182 39.1198 30.6364 38.9357 33.9541 38.0257C34.9581 37.7399 35.8136 37.0788 36.3435 36.1794L38.3398 32.8519C38.7952 32.0926 38.574 31.1095 37.8373 30.6184Z" fill="white"/>
<path d="M21.1764 6.60233C26.807 6.60858 31.3701 11.1716 31.3764 16.8023C31.3764 17.1337 31.645 17.4023 31.9764 17.4023C32.3077 17.4023 32.5764 17.1337 32.5764 16.8023C32.5695 10.5092 27.4696 5.40928 21.1764 5.40234C20.8451 5.40234 20.5764 5.67096 20.5764 6.00237C20.5763 6.33365 20.845 6.60233 21.1764 6.60233Z" fill="white"/>
<path d="M21.2193 9.68811C25.1228 9.6927 28.2861 12.856 28.2907 16.7595C28.2907 17.1145 28.5785 17.4023 28.9335 17.4023C29.2886 17.4023 29.5764 17.1145 29.5764 16.7595C29.5711 12.1462 25.8327 8.40766 21.2193 8.40234C20.8643 8.40234 20.5764 8.69014 20.5764 9.04523C20.5764 9.40031 20.8642 9.68811 21.2193 9.68811Z" fill="white"/>
<path d="M22.4631 13.1357C23.8431 13.1374 24.9615 14.2557 24.9631 15.6357C24.9631 15.9118 25.1869 16.1357 25.4631 16.1357C25.7392 16.1357 25.9631 15.9119 25.9631 15.6357C25.9609 13.7037 24.3952 12.138 22.4632 12.1357C22.187 12.1357 21.9631 12.3596 21.9631 12.6358C21.9631 12.9119 22.1869 13.1357 22.4631 13.1357Z" fill="white"/>
</svg>
