<svg width="100" height="101" viewBox="0 0 100 101" fill="none" xmlns="http://www.w3.org/2000/svg">
<g clip-path="url(#clip0_116_169)">
<path d="M45.3302 28.0936C45.5956 28.3184 45.9314 28.4407 46.2769 28.4407C46.3183 28.4407 46.3601 28.4389 46.4017 28.4354C46.79 28.4022 47.1491 28.2157 47.3995 27.9169L56.7452 16.7657C57.265 16.1456 57.1835 15.2218 56.5634 14.7022C55.9437 14.1823 55.0197 14.2637 54.4999 14.8841L46.0997 24.9065L42.2572 21.6522C41.64 21.1292 40.7154 21.2059 40.1927 21.8233C39.6698 22.4407 39.7466 23.3651 40.364 23.8878L45.3302 28.0936Z" fill="#E6231E"/>
<path d="M49.0365 41.4719C54.0363 41.4719 59.0358 39.5696 62.842 35.7649C66.5276 32.0811 68.5572 27.1817 68.5572 21.9694C68.5572 16.7573 66.5278 11.8567 62.842 8.16958C58.8455 4.17466 53.324 2.10708 47.6957 2.50122C42.0426 2.89556 36.8492 5.70747 33.4477 10.2161C32.9606 10.862 33.0891 11.7803 33.7348 12.2676C34.3811 12.7551 35.2992 12.6264 35.7865 11.9805C38.6774 8.14888 43.0924 5.75903 47.8998 5.42388C52.6817 5.09126 57.3744 6.84634 60.7705 10.2413C63.9027 13.3745 65.6276 17.5397 65.6276 21.9694C65.6276 26.3989 63.9028 30.5625 60.7711 33.693C54.3006 40.1608 43.7731 40.1604 37.3026 33.693C33.0613 29.4534 31.4397 23.2299 33.0705 17.4508C33.2903 16.6723 32.8373 15.8629 32.0586 15.6432C31.2813 15.4237 30.4707 15.8766 30.251 16.6551C28.3322 23.454 30.2406 30.7764 35.2315 35.7649C39.0375 39.5698 44.0371 41.4719 49.0365 41.4719Z" fill="#E6231E"/>
<path d="M94.043 75.0976C93.5566 74.8203 93.0547 74.5351 92.5391 74.2265L88.709 71.9296C90.4902 70.0371 91.8242 67.7382 92.3496 65.4355C92.5098 64.7402 92.5918 64.0566 92.5918 63.4062V53.7109C92.5918 49.3007 89.2734 45.3203 84.1348 43.5722C79.6426 42.0449 75.1836 42.7539 72.7832 45.3164C70.3223 45.75 66.8711 47.7011 66.9883 55.2578C66.9902 55.3242 66.9902 55.3789 66.9902 55.4218V63.4062C66.9902 64.0566 67.0723 64.7402 67.2324 65.4296C67.7559 67.7343 69.0879 70.0371 70.873 71.9316L67.1074 74.1894C67.0801 74.2031 67.0527 74.2207 67.0254 74.2363C66.5176 74.541 66.0195 74.8242 65.5391 75.0976C64.0996 75.916 62.6973 76.7109 61.6152 77.8242L58.916 76.205C60.6992 74.3105 62.0332 72.0117 62.5586 69.7109C62.7148 69.0254 62.7949 68.3418 62.7949 67.6797V63.3711C62.7949 63.3701 62.7951 63.3691 62.7951 63.3681V57.9836C62.7951 53.5752 59.4783 49.597 54.3449 47.849C49.8535 46.3193 45.3926 47.0269 42.9922 49.5884C40.5297 50.0209 37.0775 51.9718 37.1971 59.5277C37.1982 59.5959 37.1992 59.6517 37.1992 59.6937V61.5527V64.1984V67.6797C37.1992 68.3105 37.2773 68.9902 37.4355 69.7109C37.9609 72.0117 39.2949 74.3105 41.0801 76.205L38.3848 77.8242C37.3008 76.7109 35.8984 75.914 34.457 75.0957C33.9707 74.8183 33.4688 74.5351 32.9551 74.2265L32.916 74.2031C32.9121 74.2009 32.9084 74.1984 32.9045 74.1963L29.1242 71.9314C30.9076 70.0379 32.2412 67.739 32.7666 65.4357C32.9238 64.7552 33.0035 64.0726 33.0035 63.407V59.0904V57.4466V53.7113C33.0035 49.3021 29.6863 45.3232 24.5523 43.5746C20.06 42.0443 15.5973 42.7527 13.1951 45.3162C10.7344 45.7488 7.28574 47.7 7.40547 55.255C7.40664 55.3234 7.40762 55.3793 7.40762 55.4213V57.2752V59.9205V63.407C7.40762 64.0726 7.4873 64.755 7.64355 65.4318C8.16953 67.7371 9.50332 70.0367 11.2863 71.9304L7.45449 74.2263C6.9416 74.5339 6.44023 74.8189 5.95508 75.0945C2.89277 76.8347 0 78.4785 0 83.2691V91.8746C0 92.1664 0 93.0545 0.641211 93.6843C1.17773 94.2113 1.8332 94.2687 2.33086 94.2687C2.40469 94.2687 2.475 94.2675 2.54082 94.2664C2.61055 94.2652 2.68359 94.2636 2.76016 94.2636H17.2086C17.2096 94.2636 17.2105 94.2638 17.2115 94.2638C17.2125 94.2638 17.2135 94.2636 17.2145 94.2636H20.2041H20.2049H23.1857C23.1865 94.2636 23.1873 94.2638 23.1881 94.2638C23.1889 94.2638 23.1896 94.2636 23.1904 94.2636H29.7906V96.1464C29.7906 96.4394 29.7906 97.33 30.4352 97.9609C30.9723 98.4882 31.6266 98.5468 32.1246 98.5468C32.1988 98.5468 32.2691 98.5449 32.3355 98.5449C32.4039 98.5429 32.4762 98.541 32.5523 98.541H34.2398C35.0484 98.541 35.7047 97.8847 35.7047 97.0761C35.7047 96.2675 35.0484 95.6113 34.2398 95.6113H32.7203V94.2636V91.3339V87.541C32.7203 84.5781 34.0133 83.7265 37.1988 81.9199C37.2477 81.8925 37.2965 81.8632 37.3473 81.8359C37.5504 81.7207 37.7555 81.6015 37.9664 81.4804L40.4098 83.0625L42.9273 84.6933C42.9488 84.705 42.9703 84.7187 42.9918 84.7304C43.1676 84.832 43.3219 84.9394 43.4723 85.041C43.7789 85.25 44.3648 85.6504 45.0738 85.6504C45.3668 85.6504 45.6813 85.582 46.0055 85.4043L46.2066 86.1933L43.3512 92.3789C43.3492 92.3828 43.3473 92.3886 43.3453 92.3925C43.1012 92.8965 43.1402 93.4531 43.443 93.9121L44.441 95.6113H41.0055C40.1969 95.6113 39.5406 96.2675 39.5406 97.0761C39.5406 97.8847 40.1969 98.541 41.0055 98.541H46.9996H47.0035H67.443C67.5191 98.541 67.5914 98.5429 67.6598 98.5449C67.7262 98.5449 67.7965 98.5468 67.8707 98.5468C68.3707 98.5468 69.027 98.4882 69.566 97.9609C70.2086 97.33 70.2086 96.4394 70.2086 96.1464V94.2636H82.7711H82.775H97.2398C97.3141 94.2636 97.3883 94.2656 97.4566 94.2656C97.523 94.2675 97.5934 94.2695 97.6676 94.2695C98.1656 94.2695 98.8199 94.2109 99.357 93.6836C99.9996 93.0527 99.9996 92.166 99.9996 91.875V83.2695C100 78.4804 97.1074 76.8359 94.043 75.0976ZM29.4324 75.5298L25.7084 77.9382C25.5547 78.0293 25.418 78.1175 25.2967 78.1988L24.4961 77.3507C24.4826 77.3353 24.468 77.3209 24.4539 77.306L23.1193 75.8923C23.2633 75.8441 23.409 75.7925 23.5572 75.7371C24.6904 75.315 25.7908 74.7066 26.8172 73.9629L29.4324 75.5298ZM14.0725 48.1531C14.4803 48.1171 14.8545 47.9123 15.1043 47.588C16.5912 45.6588 20.0879 45.1488 23.608 46.3476C26.5906 47.3636 30.0738 49.9017 30.0738 53.7113V57.4468V57.6257H29.457C28.0133 57.6257 27.0809 56.8211 25.6791 55.5082C24.1012 54.0304 22.1375 52.1912 18.7273 52.1912H16.1031C12.9164 52.1912 12.3842 54.7808 12.0664 56.3281C11.7008 58.1072 11.5275 58.456 10.3617 58.456H10.3373V57.2755V55.4216C10.3373 55.3679 10.3363 55.2964 10.3348 55.2089C10.2645 50.7513 11.5217 48.3775 14.0725 48.1531ZM10.4992 64.7763C10.3918 64.3117 10.3375 63.8509 10.3375 63.407V61.3853H10.3619C14.0182 61.3853 14.6152 58.4789 14.9361 56.9175C15.3055 55.1207 15.4586 55.1207 16.1033 55.1207H18.7277C20.9801 55.1207 22.2299 56.291 23.6768 57.6463C25.1326 59.0097 26.7826 60.5552 29.4574 60.5552H30.0742V63.407C30.0742 63.8509 30.0199 64.3117 29.9115 64.7802C29.135 68.1845 25.9637 71.7148 22.533 72.9925C21.6529 73.3218 20.9135 73.4752 20.2061 73.4752C19.4986 73.4752 18.7592 73.3218 17.8771 72.9918C14.448 71.7148 11.2766 68.1847 10.4992 64.7763ZM21.7752 78.7365L21.2994 80.5976H19.1018L18.6291 78.7439L20.2057 77.074L21.7752 78.7365ZM13.5939 73.9632C14.6199 74.7068 15.7197 75.3148 16.8521 75.7367C17.001 75.7923 17.1475 75.8441 17.292 75.8927L15.1152 78.1984C14.9934 78.1171 14.8559 78.0287 14.7014 77.9377L10.9789 75.5302L13.5939 73.9632ZM13.6324 89.6107L14.6475 91.3339H2.92969V83.2691C2.92969 80.3017 4.2209 79.4498 7.40273 77.6418C7.6541 77.4988 7.90996 77.3535 8.1709 77.2029L13.1371 80.4148C13.1562 80.4271 13.1754 80.4388 13.1949 80.4504C13.3705 80.5527 13.5252 80.6588 13.6748 80.7613C14.0082 80.9898 14.5869 81.3863 15.2855 81.3863C15.5775 81.3863 15.8906 81.316 16.2154 81.1361L16.4154 81.9207L13.5611 88.105C13.316 88.5939 13.3432 89.1486 13.6324 89.6107ZM22.3525 91.3339H20.2064C20.2062 91.3339 20.2061 91.3339 20.2057 91.3339H18.0477L16.5059 88.7164L18.9008 83.5275H21.4998L23.8947 88.7164L22.3525 91.3339ZM29.791 87.541V91.3339H25.7527L26.768 89.6109C27.0568 89.1496 27.0842 88.5955 26.8395 88.106L23.985 81.9214L24.1869 81.1314C24.515 81.315 24.8314 81.3869 25.1266 81.3869C25.8279 81.3869 26.4092 80.9877 26.7437 80.7578C26.8922 80.656 27.0455 80.5505 27.2191 80.4488C27.2377 80.438 27.2559 80.4267 27.2738 80.4152L32.2402 77.2033C32.5014 77.3539 32.757 77.4994 33.0076 77.6429C34.158 78.2972 35.0604 78.8246 35.7459 79.3754C32.6836 81.1132 29.791 82.7578 29.791 87.541ZM89.0156 75.5312L85.2988 77.9375C85.1426 78.0293 85.0039 78.1191 84.8809 78.2011L84.0801 77.3515C84.0645 77.3339 84.0449 77.3144 84.0273 77.2968L82.7031 75.8925C82.8477 75.8457 82.9922 75.7929 83.1406 75.7382C84.2734 75.3144 85.373 74.707 86.4004 73.9629L89.0156 75.5312ZM73.6602 48.1523C74.0684 48.1171 74.4434 47.9121 74.6934 47.5879C76.1777 45.6601 79.6719 45.1484 83.1914 46.3457C86.1758 47.3632 89.6621 49.9004 89.6621 53.7109V57.625H89.041C87.5977 57.625 86.666 56.8222 85.2656 55.5097C83.6875 54.0312 81.7246 52.1914 78.3105 52.1914H75.6855C72.498 52.1914 71.9668 54.7812 71.6504 56.33C71.2852 58.1074 71.1133 58.455 69.9512 58.455H69.9199V55.4218C69.9199 55.3691 69.9199 55.2968 69.918 55.2109C69.8496 50.7519 71.1074 48.3769 73.6602 48.1523ZM70.0879 64.7773C69.9766 64.2968 69.9199 63.8359 69.9199 63.4062V61.3847H69.9512C73.6035 61.3847 74.1992 58.4785 74.5195 56.9179C74.8887 55.1211 75.041 55.1211 75.6855 55.1211H78.3105C80.5664 55.1211 81.8164 56.291 83.2617 57.6464C84.7168 59.0097 86.3652 60.5546 89.041 60.5546H89.6621V63.4062C89.6621 63.8359 89.6055 64.2968 89.4941 64.7812C88.7188 68.1855 85.5469 71.7148 82.1133 72.9941C81.2402 73.3222 80.502 73.4746 79.7891 73.4746C79.0801 73.4746 78.3438 73.3222 77.4648 72.9921C74.0312 71.7129 70.8594 68.1836 70.0879 64.7773ZM81.3594 78.7382L80.8867 80.5976H78.6855L78.2129 78.7441L79.7891 77.0742L81.3594 78.7382ZM73.1797 73.9648C74.2051 74.707 75.3047 75.3144 76.4375 75.7363C76.5859 75.791 76.7324 75.8437 76.877 75.8925L74.6992 78.1972C74.5762 78.1172 74.4395 78.0293 74.2852 77.9375L70.5664 75.5293L73.1797 73.9648ZM59.2266 79.8066L55.5098 82.2148C55.3535 82.3046 55.2148 82.3945 55.0918 82.4746L52.9121 80.1699C53.0566 80.1211 53.2012 80.0703 53.3496 80.0156C54.4844 79.5918 55.584 78.9824 56.6113 78.2363L59.2266 79.8066ZM43.8691 52.4255C44.2771 52.3896 44.6516 52.1847 44.9014 51.8603C46.3865 49.933 49.8809 49.424 53.4006 50.6224C56.3828 51.638 59.8654 54.1752 59.8654 57.9838V61.716C59.8654 61.717 59.8652 61.7179 59.8652 61.7187V61.9035H59.2486C57.8057 61.9035 56.8744 61.0994 55.4742 59.7873C53.8965 58.3089 51.933 56.4689 48.5191 56.4689H45.8949C42.7072 56.4689 42.1758 59.0597 41.8584 60.6076C41.4938 62.3851 41.3211 62.7336 40.1592 62.7336H40.1291V61.5527V59.6937C40.1291 59.64 40.1281 59.5685 40.1266 59.4814C40.0559 55.0238 41.315 52.65 43.8691 52.4255ZM40.2949 69.0703C40.1855 68.5683 40.1289 68.1015 40.1289 67.6797V65.6632H40.159C43.8121 65.6632 44.408 62.7574 44.7283 61.1961C45.0969 59.3984 45.2502 59.3984 45.8949 59.3984H48.5191C50.775 59.3984 52.0244 60.5691 53.4711 61.9248C54.9258 63.2879 56.5746 64.833 59.2488 64.833H59.8654V67.6795C59.8654 68.1228 59.8107 68.5857 59.7033 69.0564C58.926 72.4568 55.7541 75.988 52.3283 77.2693C51.4377 77.5994 50.6975 77.7537 49.9982 77.7537C49.3029 77.7537 48.5607 77.5994 47.6701 77.2693C44.2402 75.9882 41.0684 72.457 40.2949 69.0703ZM51.5684 83.0117L51.0957 84.8711H48.8926L48.4219 83.0175L49.998 81.3496L51.5684 83.0117ZM44.9043 82.4726C44.7832 82.3925 44.6465 82.3046 44.4902 82.2148L40.7734 79.8066L43.3848 78.2363C44.4141 78.9824 45.5156 79.5918 46.6504 80.0175C46.7969 80.0703 46.9414 80.1211 47.084 80.1679L44.9043 82.4726ZM52.1445 95.6113H47.8398L46.2988 92.9882L48.6914 87.8007H51.2969L53.6875 92.9921L52.1445 95.6113ZM67.2793 95.6113H55.5449L56.5605 93.8886C56.8438 93.4316 56.875 92.8808 56.6367 92.3925C56.6348 92.3886 56.6328 92.3828 56.6309 92.3789L53.7812 86.1933L53.9824 85.4082C54.3086 85.5898 54.625 85.6621 54.918 85.6621C55.6152 85.6621 56.1934 85.2675 56.5273 85.041C56.6777 84.9375 56.832 84.832 57.0078 84.7304C57.0293 84.7187 57.0508 84.705 57.0723 84.6933L62.0332 81.4804C62.2402 81.6015 62.4473 81.7187 62.6484 81.834C62.7012 81.8632 62.7539 81.8945 62.8066 81.9238C65.9883 83.7304 67.2793 84.582 67.2793 87.541V95.6113ZM73.2344 89.6347L74.2344 91.3339H70.209V87.541C70.209 82.7578 67.3164 81.1152 64.2539 79.375C64.2539 79.375 64.252 79.375 64.252 79.373C64.9355 78.8242 65.8379 78.2949 66.9863 77.6445C67.2383 77.5 67.4961 77.3554 67.7578 77.2031L72.7207 80.414C72.7383 80.4277 72.7578 80.4394 72.7773 80.4511C72.9531 80.5527 73.1074 80.6582 73.2578 80.7597C73.5664 80.9707 74.1562 81.375 74.8711 81.375C75.1621 81.375 75.4746 81.3066 75.7969 81.1308L75.998 81.9199L73.1445 88.1054C73.1426 88.1074 73.1426 88.1074 73.1426 88.1093C72.8926 88.6132 72.9277 89.1718 73.2344 89.6347ZM81.9355 91.3339H77.6328L76.0918 88.7129L78.4844 83.5273H81.0879L83.4805 88.7109L81.9355 91.3339ZM97.0703 91.3339H85.3359L86.3496 89.6113C86.623 89.1777 86.666 88.6679 86.4668 88.1953C86.4551 88.166 86.4414 88.1347 86.4277 88.1054L83.5723 81.9199L83.7734 81.1328C84.0996 81.3144 84.416 81.3867 84.7109 81.3867C85.4102 81.3867 85.9922 80.9882 86.3262 80.7597C86.4746 80.6582 86.6289 80.5527 86.8047 80.4511C86.8242 80.4394 86.8438 80.4277 86.8633 80.414L91.8242 77.2031C92.0859 77.3554 92.3438 77.5 92.5957 77.6445C95.7793 79.4511 97.0703 80.3027 97.0703 83.2695V91.3339Z" fill="#1964AA"/>
</g>
<defs>
<clipPath id="clip0_116_169">
<rect width="100" height="100" fill="white" transform="translate(0 0.5)"/>
</clipPath>
</defs>
</svg>
