<svg width="100" height="100" viewBox="0 0 100 100" fill="none" xmlns="http://www.w3.org/2000/svg">
<g clip-path="url(#clip0_116_106)">
<path d="M94.7683 38.0311C98.9016 32.9768 100.709 26.4129 99.7467 19.9551C97.8788 7.20879 86.0317 -1.61006 73.2852 0.257885C67.5385 1.10012 62.3124 4.05584 58.6298 8.54712C55.7229 12.2601 50.904 13.916 46.3288 12.7741C42.4817 11.7053 38.4594 11.4175 34.4992 11.9277C21.1103 13.7355 10.5448 24.2046 8.61412 37.5762C7.78542 43.5457 8.78573 49.6263 11.4832 55.0156C5.04901 55.1085 -0.0916478 60.3998 0.00123922 66.8337C0.0847543 72.6238 4.40796 77.4739 10.1503 78.2199L11.9481 96.659C11.9481 98.4995 13.4399 99.9913 15.2803 99.9913H25.0022C25.975 99.9905 26.8991 99.5644 27.5314 98.825C28.1895 98.0392 28.4588 96.9989 28.2645 95.9926L23.8093 78.3315H24.6423C26.4851 78.3415 28.3253 78.474 30.1506 78.7281C36.1306 91.6923 49.1048 99.994 63.3817 99.9913C64.4813 99.9913 65.592 99.9419 66.7139 99.843C84.3898 98.0979 98.3186 84.0158 99.87 66.322C100.523 58.4702 98.6096 50.6183 94.4168 43.9475C93.2532 42.1041 93.3946 39.7238 94.7683 38.0311ZM10.007 74.8327C5.49803 73.9171 2.58521 69.5198 3.50075 65.0108C4.16637 61.7325 6.72868 59.1701 10.007 58.5045V74.8327ZM25.0022 96.659L15.272 96.4924L13.5059 78.3315H20.3687L25.0022 96.659ZM13.3393 74.9993V58.3379H16.6716V74.9993H13.3393ZM24.6373 74.9993H20.0038V58.3379H24.6373C29.4727 58.3396 34.2764 57.5598 38.8628 56.0286L46.662 53.4295V79.9077L38.8628 77.3085C34.2764 75.7776 29.4727 74.9976 24.6373 74.9993ZM96.5378 66.0538C95.0659 84.369 79.0256 98.0232 60.7104 96.5516C49.5823 95.6573 39.6446 89.2414 34.2493 79.4678C35.4456 79.7527 36.6352 80.0777 37.8098 80.4675L56.1373 86.5756C56.3054 86.6318 56.4816 86.661 56.6588 86.6622C57.5789 86.6622 58.3249 85.9162 58.3249 84.9961V76.6654C62.0056 76.6654 64.9895 73.6816 64.9895 70.0009V63.3363C64.9895 59.6556 62.0056 56.6718 58.3249 56.6718V48.3411C58.3251 47.421 57.5793 46.6748 56.6592 46.6745C56.4801 46.6745 56.3022 46.7033 56.1323 46.7599L37.8048 52.868C33.5593 54.2842 29.113 55.0061 24.6373 55.0056H15.2803C12.2848 49.8783 11.1 43.8929 11.9164 38.0111C13.9299 23.4359 27.3777 13.2525 41.9529 15.2658C43.1262 15.4278 44.2875 15.6682 45.4291 15.9847C51.277 17.4845 57.4596 15.3989 61.204 10.6631C68.1795 2.11104 80.7669 0.83291 89.3192 7.80819C97.8715 14.7835 99.1496 27.3711 92.1741 35.9234C89.9001 38.7231 89.6622 42.6604 91.5827 45.7136C95.3931 51.7783 97.1319 58.9161 96.5378 66.0538ZM49.9943 81.019V52.3182L54.9927 50.652V82.6852L49.9943 81.019ZM58.3249 73.3331V60.004C60.1654 60.004 61.6572 61.4959 61.6572 63.3363V70.0009C61.6572 71.8413 60.1652 73.3331 58.3249 73.3331Z" fill="#1964AA"/>
<path d="M30.0007 68.335H23.3362V71.6672H30.0007V68.335Z" fill="#E6231E"/>
<path d="M30.0007 61.6704H23.3362V65.0027H30.0007V61.6704Z" fill="#E6231E"/>
<path d="M84.7036 22.4249C84.5816 22.242 84.4248 22.085 84.2417 21.963L74.2449 15.2984C73.4795 14.7877 72.4448 14.9941 71.9342 15.7597C71.7515 16.0336 71.6541 16.3554 71.6541 16.6846V30.0137C71.6538 30.6283 71.9919 31.1931 72.5338 31.4833C73.0759 31.7734 73.7336 31.7413 74.2449 31.3999L84.2417 24.7354C85.0073 24.2249 85.2141 23.1905 84.7036 22.4249ZM74.9863 26.8997V19.7986L80.318 23.3492L74.9863 26.8997Z" fill="#E6231E"/>
<path d="M76.6524 8.354C68.3709 8.354 61.6572 15.0675 61.6572 23.3492C61.6664 31.627 68.3747 38.3353 76.6524 38.3444C84.9342 38.3444 91.6477 31.6308 91.6477 23.3492C91.6477 15.0677 84.934 8.354 76.6524 8.354ZM76.6524 35.0122C70.2112 35.0122 64.9895 29.7905 64.9895 23.3492C64.9968 16.9111 70.2143 11.6936 76.6524 11.6863C83.0937 11.6863 88.3154 16.9079 88.3154 23.3492C88.3154 29.7905 83.0937 35.0122 76.6524 35.0122Z" fill="#E6231E"/>
<path d="M43.3297 30.0135H41.6635C40.7434 30.0135 39.9974 29.2675 39.9974 28.3474V23.349C39.9974 20.5884 37.7596 18.3506 34.999 18.3506C32.2384 18.3506 30.0006 20.5884 30.0006 23.349V28.3474C30.0006 29.2675 29.2546 30.0135 28.3345 30.0135C28.3345 29.0934 27.5884 28.3474 26.6683 28.3474H20.0038C19.0837 28.3474 18.3376 29.0934 18.3376 30.0135V48.341C18.3376 49.2611 19.0837 50.0072 20.0038 50.0072H26.6683C27.5884 50.0072 28.3345 49.2611 28.3345 48.341H43.3297C46.0903 48.341 48.3281 46.1032 48.3281 43.3426V35.0119C48.3281 32.2516 46.0903 30.0135 43.3297 30.0135ZM25.0022 46.6749H21.6699V31.6797H25.0022V46.6749ZM44.9958 43.3426C44.9958 44.2627 44.2498 45.0088 43.3297 45.0088H28.3345V33.3458C31.095 33.3458 33.3329 31.108 33.3329 28.3474V23.349C33.3329 22.4289 34.0789 21.6829 34.999 21.6829C35.9191 21.6829 36.6651 22.4289 36.6651 23.349V28.3474C36.6651 31.108 38.903 33.3458 41.6635 33.3458H43.3297C44.2498 33.3458 44.9958 34.0918 44.9958 35.0119V43.3426Z" fill="#E6231E"/>
<path d="M91.8475 60.5073L91.1377 59.7942C89.4495 58.117 86.8151 57.8567 84.8314 59.171L83.0303 60.3723L81.2292 59.171C79.2457 57.8554 76.6105 58.1157 74.9229 59.7942L74.2098 60.5073C72.2585 62.4591 72.2585 65.6231 74.2098 67.575L81.8507 75.2142C82.5013 75.8647 83.556 75.8647 84.2066 75.2142L91.8475 67.575C93.7987 65.6231 93.7987 62.4591 91.8475 60.5073ZM89.4945 65.2178C89.4941 65.2183 89.4936 65.2187 89.4932 65.2191L83.0303 71.6804L76.569 65.2258C75.9186 64.5751 75.9186 63.5205 76.569 62.8698L77.2805 62.1584C77.8422 61.5965 78.7223 61.5094 79.3831 61.9501L82.1073 63.7662C82.6671 64.1399 83.3968 64.1399 83.9567 63.7662L86.6825 61.9501C87.3427 61.5099 88.2218 61.5963 88.7835 62.1567V62.1501L89.4932 62.8615C90.1443 63.5119 90.1449 64.5668 89.4945 65.2178Z" fill="#E6231E"/>
<path d="M65.0434 44.6064L63.3755 51.2705L66.6065 52.0792L68.2744 45.4151L65.0434 44.6064Z" fill="#E6231E"/>
<path d="M74.2393 50.1831L67.5752 53.5151L69.0654 56.4955L75.7295 53.1635L74.2393 50.1831Z" fill="#E6231E"/>
<path d="M66.5977 82.9252L63.3667 83.7329L65.0325 90.397L68.2636 89.5893L66.5977 82.9252Z" fill="#E6231E"/>
<path d="M69.0644 78.5059L67.5742 81.4863L74.2384 84.8184L75.7285 81.838L69.0644 78.5059Z" fill="#E6231E"/>
<path d="M1.67627 45.0092H5.00854C5.00854 22.3998 18.4159 8.35424 39.9974 8.35424V5.02197C16.3599 5.02197 1.67627 20.3504 1.67627 45.0092Z" fill="#E6231E"/>
</g>
<defs>
<clipPath id="clip0_116_106">
<rect width="100" height="100" fill="white"/>
</clipPath>
</defs>
</svg>
