<svg width="100" height="100" viewBox="0 0 100 100" fill="none" xmlns="http://www.w3.org/2000/svg">
<g clip-path="url(#clip0_116_158)">
<path d="M50 60.7085C50.8295 60.7085 51.502 60.036 51.502 59.2065C51.502 58.377 50.8295 57.7046 50 57.7046C49.1705 57.7046 48.498 58.377 48.498 59.2065C48.498 60.036 49.1705 60.7085 50 60.7085Z" fill="#E6231E"/>
<path d="M22.5315 76.4497C18.0083 76.4497 14.3284 80.1296 14.3284 84.6528C14.3284 89.1772 18.0083 92.8581 22.5315 92.8581C27.0559 92.8581 30.7366 89.1772 30.7366 84.6528C30.7366 80.1296 27.0557 76.4497 22.5315 76.4497ZM22.5315 89.9284C19.6237 89.9284 17.2581 87.5618 17.2581 84.6528C17.2581 81.745 19.6237 79.3794 22.5315 79.3794C25.4405 79.3794 27.8069 81.745 27.8069 84.6528C27.8069 87.5618 25.4403 89.9284 22.5315 89.9284Z" fill="#E6231E"/>
<path d="M77.4687 76.4497C72.9445 76.4497 69.2637 80.1296 69.2637 84.6528C69.2637 89.1772 72.9445 92.8581 77.4687 92.8581C81.992 92.8581 85.6719 89.1772 85.6719 84.6528C85.6719 80.1296 81.992 76.4497 77.4687 76.4497ZM77.4687 89.9284C74.5598 89.9284 72.1934 87.5618 72.1934 84.6528C72.1934 81.745 74.5598 79.3794 77.4687 79.3794C80.3766 79.3794 82.7422 81.745 82.7422 84.6528C82.7422 87.5618 80.3764 89.9284 77.4687 89.9284Z" fill="#E6231E"/>
<path d="M98.3438 39.5583C88.8247 40.6201 59.9355 45.2169 50.8572 45.0015L44.1227 32.9049C50.5512 33.2687 57.6373 33.015 64.2087 32.1384L98.7262 27.5935C99.5281 27.4881 100.093 26.7521 99.9871 25.95C99.8815 25.148 99.1475 24.5822 98.3436 24.6891L70.6868 28.3305C70.7021 26.9971 70.5763 25.6646 70.3034 24.3512L69.0255 18.1965C68.8128 17.1803 68.0126 16.4209 66.9869 16.2621C65.9615 16.1032 64.9703 16.5846 64.4566 17.495L57.5687 29.8662C52.5328 30.226 47.4649 30.226 42.4301 29.8644L35.5397 17.4877C35.03 16.5844 34.0382 16.1026 33.013 16.2621C31.987 16.4211 31.1868 17.1807 30.9741 18.1989C30.4751 20.885 29.213 25.5367 29.3087 28.3299L1.65626 24.6893C0.854115 24.584 0.118376 25.1484 0.0127126 25.9502C-0.0929511 26.7523 0.471695 27.4883 1.27384 27.5937L29.5853 31.3215C29.8587 32.8732 30.33 34.3961 31.003 35.8605L41.5077 58.7157L33.16 73.7113C32.9753 73.9287 32.7997 74.1607 32.264 73.8748C29.4478 71.3285 25.8011 70.0028 21.9984 70.1401C18.2845 70.2737 14.7939 71.8229 12.1697 74.5029C9.54627 77.182 8.06893 80.7041 8.01014 84.4211C7.9492 88.3462 9.43143 92.0472 12.1834 94.8421C14.9351 97.6368 18.6101 99.1759 22.5314 99.1759C30.4159 99.1759 36.8532 92.8601 37.0501 85.022C37.3696 84.4421 44.2223 72.4516 44.3756 72.1846C46.0533 69.3979 54.7873 70.0639 55.6244 72.1844C55.7873 72.4682 62.5388 84.2753 62.95 85.0214C63.1463 92.8603 69.5837 99.1759 77.4687 99.1759C84.0475 99.1759 89.8198 94.7392 91.5063 88.3871C91.7137 87.605 91.2483 86.8029 90.4665 86.5953C89.6834 86.3882 88.8823 86.8533 88.6747 87.6351C87.3286 92.7052 82.7208 96.2462 77.4687 96.2462C71.0761 96.2462 65.8752 91.0452 65.8752 84.6525C65.8752 84.2201 65.8752 84.2201 64.1488 81.183C63.4023 79.8699 62.473 78.2433 61.5701 76.666L63.858 74.3781L64.281 75.1371C64.8068 76.0812 65.7207 76.7238 66.788 76.9002C67.847 77.0754 68.908 76.7646 69.7013 76.0478C71.9488 74.0156 74.8644 72.9596 77.8966 73.0676C82.8481 73.2455 87.2594 76.7158 88.6243 81.5062C88.846 82.2841 89.6569 82.7351 90.4344 82.5136C91.2125 82.292 91.6635 81.4816 91.4418 80.7035C90.6186 77.814 88.8608 75.1824 86.4921 73.2936C84.0448 71.342 81.1089 70.2514 78.0022 70.1399C74.1989 70.0035 70.5527 71.3283 67.7367 73.8744C67.5628 74.0316 67.3667 74.0264 67.2658 74.0098C67.1591 73.9922 66.9621 73.9299 66.8402 73.7109L58.4928 58.7161L63.8543 47.0509C64.3666 46.9921 98.2502 42.522 98.7262 42.4622C99.5281 42.3568 100.093 41.6208 99.9871 40.8187C99.8817 40.0171 99.1477 39.4527 98.3438 39.5583ZM66.4099 20.0096L67.4351 24.9473C67.6937 26.1914 67.7976 27.4551 67.749 28.7176C67.749 28.7176 62.0064 29.4615 61.0939 29.5576L66.4099 20.0096ZM35.9503 81.0093C34.1249 84.2193 34.1249 84.2193 34.1249 84.6527C34.1249 91.0454 28.9239 96.2464 22.5312 96.2464C19.4011 96.2464 16.4675 95.0177 14.2707 92.7866C12.0738 90.5554 10.8906 87.6005 10.9392 84.4669C10.9861 81.5039 12.1664 78.6931 14.2627 76.5525C16.3589 74.4117 19.1435 73.1742 22.1038 73.0678C24.8765 72.9377 28.1226 74.0244 30.2989 76.0482C31.0917 76.7648 32.1536 77.0756 33.2116 76.9004C34.279 76.7242 35.1928 76.0814 35.7192 75.1367L36.3671 73.973L38.6585 76.2654C37.7253 77.8963 36.7436 79.6142 35.9503 81.0093ZM41.8868 70.6387C41.875 70.6572 41.8637 70.6758 41.8528 70.6947C41.8528 70.6947 41.1471 71.9232 40.1678 73.6314L37.8489 71.3115L43.0239 62.0153L45.183 66.7133C45.3694 67.1178 45.5985 67.4963 45.8606 67.8477C44.2358 68.217 42.7879 69.2209 41.8868 70.6387ZM58.1133 70.6387C57.0478 68.9625 55.3019 67.8973 53.3227 67.7156C51.4424 67.5576 48.8059 67.6528 47.8447 65.4885L33.6651 34.6373C31.1876 29.6215 32.5975 24.5516 33.5905 20.0096L62.3757 71.7174L60.0609 74.0322C58.965 72.1195 58.1474 70.6955 58.1474 70.6955C58.1363 70.6762 58.1252 70.6572 58.1133 70.6387ZM56.7267 55.5442L52.4746 47.9066C55.1383 47.8458 57.8056 47.689 60.4545 47.4339L56.7267 55.5442Z" fill="#1964AA"/>
<path d="M29.9199 46.2219C30.644 46.2219 31.2735 45.6852 31.3705 44.9482C31.4762 44.1461 30.9115 43.4102 30.1094 43.3047L1.65627 39.5582C0.854119 39.4521 0.118377 40.0174 0.0127126 40.8191C-0.0929514 41.6213 0.471697 42.3572 1.27385 42.4627L29.727 46.2092C29.7918 46.2176 29.8563 46.2219 29.9199 46.2219Z" fill="#E6231E"/>
<path d="M37.8646 7.84531C38.1505 8.13125 38.5255 8.27422 38.9003 8.27422C39.2751 8.27422 39.6501 8.13125 39.9361 7.84531L41.1605 6.6209L42.3849 7.84531C42.6708 8.13125 43.0458 8.27422 43.4207 8.27422C43.7955 8.27422 44.1705 8.13125 44.4564 7.84531C45.0285 7.27305 45.0285 6.3457 44.4564 5.77363L43.232 4.54922L44.4564 3.3248C45.0285 2.75254 45.0285 1.8252 44.4564 1.25313C43.8843 0.68125 42.9568 0.68125 42.3849 1.25313L41.1605 2.47754L39.9361 1.25313C39.364 0.68125 38.4365 0.68125 37.8646 1.25313C37.2925 1.82539 37.2925 2.75273 37.8646 3.3248L39.089 4.54922L37.8646 5.77363C37.2925 6.3457 37.2925 7.27305 37.8646 7.84531Z" fill="#E6231E"/>
<path d="M54.7305 15.5898C55.56 15.5898 56.2324 14.9174 56.2324 14.0879C56.2324 13.2584 55.56 12.5859 54.7305 12.5859C53.901 12.5859 53.2285 13.2584 53.2285 14.0879C53.2285 14.9174 53.901 15.5898 54.7305 15.5898Z" fill="#E6231E"/>
</g>
<defs>
<clipPath id="clip0_116_158">
<rect width="100" height="100" fill="white"/>
</clipPath>
</defs>
</svg>
