<svg width="255" height="32" viewBox="0 0 255 32" fill="none" xmlns="http://www.w3.org/2000/svg">
<path d="M37.1538 0.101587H1.55314e-05C-0.00460499 2.70748 1.02188 5.20939 2.8554 7.06113C4.68891 8.91287 7.18054 9.96406 9.78636 9.98522H48.9374L43.0485 16.0001H7.92066C7.9214 17.2879 8.17618 18.563 8.6704 19.7522C9.16463 20.9415 9.88858 22.0215 10.8008 22.9306C11.7131 23.8396 12.7956 24.5598 13.9866 25.0498C15.1776 25.5399 16.4535 25.7902 17.7413 25.7864H33.4624L29.4563 29.8956C31.5792 31.0758 33.9444 31.7539 36.3701 31.8779C38.7959 32.0018 41.2178 31.5683 43.45 30.6106C45.6821 29.653 47.6652 28.1966 49.2469 26.3532C50.8287 24.5099 51.967 22.3287 52.5746 19.977C53.1822 17.6252 53.2428 15.1656 52.7519 12.7868C52.261 10.408 51.2315 8.17328 49.7426 6.25423C48.2537 4.33518 46.3448 2.7828 44.1626 1.71625C41.9803 0.649706 39.5827 0.0973511 37.1538 0.101587Z" fill="url(#paint0_linear_7_27)"/>
<path d="M70.2669 6.87758H68.9277V4.58838H77.2604C78.2276 4.58838 78.6397 5.02333 78.6397 5.99052V8.21104H76.2303V7.3297C76.2366 7.26878 76.2292 7.20723 76.2087 7.14952C76.1882 7.09181 76.1551 7.0394 76.1118 6.9961C76.0685 6.9528 76.0161 6.91969 75.9583 6.89919C75.9006 6.87869 75.8391 6.8713 75.7782 6.87758H72.9567V11.0153H77.6267V13.3045H72.9567V19.1992H70.2669V6.87758Z" fill="#1961AC"/>
<path d="M87.2759 4.34807C88.2638 4.32579 89.2462 4.50225 90.1646 4.86695C91.0831 5.23165 91.9189 5.77717 92.6224 6.47111C93.326 7.16506 93.8829 7.99328 94.2602 8.90663C94.6375 9.81997 94.8275 10.7998 94.8188 11.788C94.8466 12.7964 94.6719 13.8001 94.3052 14.7399C93.9385 15.6797 93.3871 16.5364 92.6837 17.2595C91.9803 17.9826 91.139 18.5573 90.2097 18.9498C89.2804 19.3422 88.2818 19.5444 87.273 19.5444C86.2642 19.5444 85.2657 19.3422 84.3363 18.9498C83.407 18.5573 82.5658 17.9826 81.8623 17.2595C81.1589 16.5364 80.6075 15.6797 80.2408 14.7399C79.8741 13.8001 79.6995 12.7964 79.7272 11.788C79.7193 10.7995 79.91 9.81957 80.2879 8.9062C80.6658 7.99284 81.2233 7.16466 81.9273 6.4708C82.6313 5.77693 83.4675 5.23151 84.3863 4.86687C85.305 4.50224 86.2877 4.32581 87.2759 4.34807ZM87.2759 16.9387C89.9085 16.9387 92.026 14.7124 92.026 11.788C92.0576 11.1446 91.9581 10.5014 91.7337 9.89763C91.5092 9.29382 91.1644 8.7419 90.7202 8.27536C90.276 7.80882 89.7417 7.43738 89.1496 7.18358C88.5575 6.92978 87.9201 6.79891 87.2759 6.79891C86.6317 6.79891 85.9942 6.92978 85.4021 7.18358C84.8101 7.43738 84.2757 7.80882 83.8315 8.27536C83.3873 8.7419 83.0425 9.29382 82.8181 9.89763C82.5936 10.5014 82.4942 11.1446 82.5258 11.788C82.5258 14.7124 84.6433 16.9387 87.2759 16.9387Z" fill="#1961AC"/>
<path d="M97.3713 6.87758H96.0378V4.58838H102.596C105.246 4.58838 107.14 6.2366 107.14 8.98937C107.14 11.622 105.309 12.715 104.691 12.8352V12.881C105.004 13.0439 105.257 13.3026 105.412 13.6193L106.854 16.435C107.06 16.8699 107.427 16.91 107.862 16.91H108.131V19.1992H106.728C105.641 19.1992 105.166 19.0332 104.691 18.1061L102.802 14.4091C102.493 13.8368 102.23 13.7337 101.423 13.7337H100.067V19.182H97.3713V6.87758ZM102.207 11.456C103.581 11.456 104.365 10.6147 104.365 9.16678C104.365 7.71886 103.581 6.87758 102.247 6.87758H100.067V11.456H102.207Z" fill="#1961AC"/>
<path d="M113.499 6.87764H111.255C111.194 6.86908 111.131 6.87487 111.073 6.89456C111.014 6.91426 110.96 6.94731 110.917 6.99113C110.873 7.03495 110.84 7.08834 110.82 7.1471C110.8 7.20586 110.794 7.26838 110.803 7.32976V8.21682H108.439V5.92762C108.439 4.96615 108.766 4.61133 109.733 4.61133H119.931C120.898 4.61133 121.248 4.96615 121.248 5.92762V8.21682H118.867V7.32976C118.874 7.26861 118.868 7.20658 118.847 7.14837C118.827 7.09015 118.794 7.03727 118.751 6.99372C118.707 6.95017 118.654 6.91709 118.596 6.89698C118.538 6.87687 118.476 6.87025 118.415 6.87764H116.177V19.1993H113.487L113.499 6.87764Z" fill="#1961AC"/>
<path d="M123.308 7.3297C123.314 7.26878 123.307 7.20723 123.286 7.14952C123.266 7.09181 123.233 7.0394 123.189 6.9961C123.146 6.9528 123.094 6.91969 123.036 6.89919C122.978 6.87869 122.917 6.8713 122.856 6.87758H121.969V4.58838H124.601C125.569 4.58838 126.003 5.02333 126.003 5.99052V13.9112C125.971 14.3165 126.026 14.7242 126.167 15.106C126.307 15.4878 126.528 15.8346 126.816 16.1224C127.103 16.4103 127.449 16.6323 127.831 16.7732C128.212 16.9142 128.62 16.9706 129.025 16.9386C130.857 16.9386 132.087 15.8284 132.087 13.894V5.99624C132.087 5.02905 132.499 4.5941 133.466 4.5941H136.122V6.8833H135.235C135.174 6.87703 135.112 6.88441 135.055 6.90491C134.997 6.92541 134.944 6.95852 134.901 7.00182C134.858 7.04513 134.825 7.09754 134.804 7.15525C134.784 7.21295 134.776 7.2745 134.783 7.33542V13.997C134.783 17.2248 132.493 19.4453 129.06 19.4453C125.626 19.4453 123.337 17.2248 123.337 13.997L123.308 7.3297Z" fill="#1961AC"/>
<path d="M137.192 16.9157H138.073C138.134 16.922 138.196 16.9146 138.253 16.8941C138.311 16.8736 138.364 16.8405 138.407 16.7972C138.45 16.7539 138.483 16.7015 138.504 16.6438C138.524 16.5861 138.532 16.5245 138.525 16.4636V4.59412H140.952L146.509 12.6922C147.081 13.5335 147.722 14.7467 147.722 14.7467H147.762C147.762 14.7467 147.619 13.5335 147.619 12.6922V5.99625C147.619 5.02906 148.031 4.59412 149.016 4.59412H151.648V6.88332H150.744C150.683 6.87704 150.622 6.88442 150.564 6.90493C150.506 6.92543 150.454 6.95853 150.41 7.00184C150.367 7.04514 150.334 7.09755 150.313 7.15526C150.293 7.21297 150.286 7.27452 150.292 7.33544V19.1992H147.882L142.331 11.1355C141.889 10.4734 141.484 9.78749 141.118 9.08095H141.078C141.078 9.08095 141.221 10.2942 141.221 11.1355V17.7971C141.221 18.7872 140.809 19.1992 139.824 19.1992H137.192V16.9157Z" fill="#1961AC"/>
<path d="M152.346 16.9157H152.696C153.045 16.9157 153.188 16.8356 153.314 16.4636L157.652 4.59412H160.473L164.788 16.4636C164.817 16.6064 164.9 16.7328 165.019 16.8168C165.138 16.9008 165.285 16.9362 165.429 16.9157H165.755V19.205H164.153C163.123 19.205 162.751 18.936 162.436 18.0088L161.509 15.4621H156.593L155.666 18.0031C155.357 18.9302 154.99 19.1992 153.949 19.1992H152.346V16.9157ZM160.931 13.2359L159.672 9.57313C159.409 8.77191 159.1 7.39267 159.1 7.39267H159.06C159.06 7.39267 158.75 8.77191 158.487 9.57313L157.222 13.2645L160.931 13.2359Z" fill="#1961AC"/>
<path d="M173.407 6.87758H172.068V4.58838H180.893C181.877 4.58838 182.289 5.02333 182.289 5.99052V8.21104H179.863V7.3297C179.869 7.26878 179.861 7.20723 179.841 7.14952C179.82 7.09181 179.787 7.0394 179.744 6.9961C179.701 6.9528 179.648 6.91969 179.591 6.89919C179.533 6.87869 179.471 6.8713 179.41 6.87758H176.097V10.7063H180.847V12.9955H176.097V16.4693C176.091 16.5303 176.098 16.5918 176.118 16.6495C176.139 16.7072 176.172 16.7596 176.215 16.8029C176.259 16.8462 176.311 16.8793 176.369 16.8999C176.427 16.9204 176.488 16.9277 176.549 16.9215H179.943C180.004 16.9277 180.065 16.9204 180.123 16.8999C180.181 16.8793 180.233 16.8462 180.276 16.8029C180.32 16.7596 180.353 16.7072 180.373 16.6495C180.394 16.5918 180.401 16.5303 180.395 16.4693V15.5537H182.821V17.7742C182.821 18.7643 182.415 19.1763 181.425 19.1763H174.786C173.819 19.1763 173.39 18.7643 173.39 17.7742L173.407 6.87758Z" fill="#E52322"/>
<path d="M188.132 11.7937L185.425 7.37555C185.359 7.2071 185.237 7.06617 185.08 6.97575C184.923 6.88533 184.74 6.85075 184.561 6.87765H183.949V4.58845H185.614C186.003 4.53155 186.4 4.60587 186.742 4.79968C187.084 4.99349 187.352 5.29573 187.503 5.65865L188.859 8.11382C189.329 8.96083 189.763 9.88223 189.763 9.88223H189.804C189.804 9.88223 190.216 8.96083 190.708 8.11382L192.127 5.68727C192.266 5.3155 192.53 5.00341 192.873 4.80411C193.216 4.60482 193.618 4.53063 194.01 4.59417H195.675V6.88338H195.057C194.628 6.88338 194.485 6.94633 194.193 7.38128L191.457 11.7994L195.984 19.205H192.98L190.691 15.3591C190.221 14.495 189.786 13.6422 189.786 13.6422H189.746C189.746 13.6422 189.334 14.5064 188.865 15.3591L186.576 19.205H183.577L188.132 11.7937Z" fill="#E52322"/>
<path d="M198.09 6.87758H196.751V4.58838H203.436C206.171 4.58838 208.083 6.50559 208.083 9.3442C208.083 12.1828 206.171 14.1515 203.436 14.1515H200.78V19.1935H198.09V6.87758ZM202.944 11.8566C204.466 11.8566 205.324 10.8665 205.324 9.34992C205.324 7.83332 204.466 6.87758 202.984 6.87758H200.78V11.8566H202.944Z" fill="#E52322"/>
<path d="M210.389 6.87758H209.05V4.58838H215.609C218.264 4.58838 220.153 6.2366 220.153 8.98937C220.153 11.622 218.327 12.715 217.709 12.8352V12.881C218.019 13.0473 218.271 13.3051 218.43 13.6193L219.867 16.435C220.073 16.8699 220.439 16.91 220.874 16.91H221.143V19.1992H219.764C218.67 19.1992 218.201 19.0332 217.726 18.1061L215.815 14.4091C215.506 13.8368 215.242 13.7337 214.441 13.7337H213.079V19.182H210.389V6.87758ZM215.219 11.456C216.599 11.456 217.377 10.6147 217.377 9.16678C217.377 7.71886 216.599 6.87758 215.26 6.87758H213.079V11.456H215.219Z" fill="#E52322"/>
<path d="M223.449 6.87758H222.11V4.58838H230.935C231.919 4.58838 232.331 5.02333 232.331 5.99052V8.21104H229.905V7.3297C229.911 7.26878 229.903 7.20723 229.883 7.14952C229.862 7.09181 229.829 7.0394 229.786 6.9961C229.743 6.9528 229.69 6.91969 229.633 6.89919C229.575 6.87869 229.513 6.8713 229.452 6.87758H226.139V10.7063H230.889V12.9955H226.139V16.4693C226.133 16.5303 226.14 16.5918 226.16 16.6495C226.181 16.7072 226.214 16.7596 226.257 16.8029C226.301 16.8462 226.353 16.8793 226.411 16.8999C226.469 16.9204 226.53 16.9277 226.591 16.9215H229.985C230.046 16.9277 230.107 16.9204 230.165 16.8999C230.223 16.8793 230.275 16.8462 230.318 16.8029C230.362 16.7596 230.395 16.7072 230.415 16.6495C230.436 16.5918 230.443 16.5303 230.437 16.4693V15.5537H232.863V17.7742C232.863 18.7643 232.457 19.1763 231.467 19.1763H224.845C223.878 19.1763 223.449 18.7643 223.449 17.7742V6.87758Z" fill="#E52322"/>
<path d="M235.582 15.2904C235.582 15.2904 237.064 17.0073 239.119 17.0073C240.229 17.0073 241.196 16.435 241.196 15.2904C241.196 12.8009 234.328 13.0298 234.328 8.46286C234.328 6.09926 236.406 4.34802 239.199 4.34802C240.916 4.34802 243.56 5.14924 243.56 7.20953V8.5716H241.116V7.93062C241.116 7.24959 240.166 6.78602 239.182 6.78602C237.945 6.78602 237.041 7.42128 237.041 8.3484C237.041 10.815 243.909 10.3228 243.909 15.1359C243.909 17.4594 242.1 19.4339 239.056 19.4339C238.103 19.4339 237.162 19.2324 236.293 18.8428C235.424 18.4533 234.647 17.8843 234.014 17.1733L235.582 15.2904Z" fill="#E52322"/>
<path d="M246.662 15.2904C246.662 15.2904 248.144 17.0073 250.204 17.0073C251.314 17.0073 252.282 16.435 252.282 15.2904C252.282 12.8009 245.414 13.0298 245.414 8.46286C245.414 6.09926 247.491 4.34802 250.29 4.34802C252.007 4.34802 254.651 5.14924 254.651 7.20953V8.5716H252.201V7.93062C252.201 7.24959 251.257 6.78602 250.267 6.78602C249.037 6.78602 248.132 7.42128 248.132 8.3484C248.132 10.815 255 10.3228 255 15.1359C255 17.4594 253.191 19.4339 250.147 19.4339C249.195 19.4334 248.255 19.2318 247.387 18.8422C246.519 18.4526 245.743 17.8838 245.111 17.1733L246.662 15.2904Z" fill="#E52322"/>
<defs>
<linearGradient id="paint0_linear_7_27" x1="1.49944" y1="-2.50238" x2="50.0248" y2="25.5117" gradientUnits="userSpaceOnUse">
<stop offset="0.31" stop-color="#E52322"/>
<stop offset="0.32" stop-color="#DA262A"/>
<stop offset="0.39" stop-color="#A03851"/>
<stop offset="0.47" stop-color="#704771"/>
<stop offset="0.53" stop-color="#4A528B"/>
<stop offset="0.6" stop-color="#2F5A9D"/>
<stop offset="0.65" stop-color="#1F5FA8"/>
<stop offset="0.69" stop-color="#1961AC"/>
</linearGradient>
</defs>
</svg>
