<svg width="142" height="143" viewBox="0 0 142 143" fill="none" xmlns="http://www.w3.org/2000/svg">
<g clip-path="url(#clip0_138_113)">
<path d="M135.359 113.878C134.497 111.657 132.768 109.882 130.569 108.961C128.416 108.046 125.983 108.046 123.83 108.961L108.224 115.587C108.266 115.299 108.292 115.009 108.304 114.718C108.304 110.066 104.532 106.294 99.8796 106.294H81.2095C79.3216 106.291 77.4602 105.852 75.77 105.012C67.9583 101.118 59.3513 99.0862 50.6231 99.0739H49.3355C48.0063 99.0739 46.9286 100.152 46.9286 101.481C46.9286 102.81 48.0063 103.888 49.3355 103.888H50.6231C58.6046 103.898 66.4753 105.756 73.6183 109.317C75.9764 110.493 78.5749 111.105 81.2095 111.108H99.8796C101.873 111.12 103.481 112.745 103.469 114.74C103.459 116.41 102.304 117.857 100.676 118.235C100.361 118.264 100.05 118.329 99.7303 118.329H70.9972C69.668 118.329 68.5904 119.406 68.5904 120.736C68.5904 122.065 69.668 123.142 70.9972 123.142H99.7303H99.8507H99.8796C99.9277 123.142 99.9734 123.128 100.024 123.128C101.934 123.097 103.82 122.698 105.579 121.953L125.7 113.409C126.66 112.998 127.747 112.998 128.707 113.409C129.704 113.83 130.486 114.639 130.873 115.65C131.284 116.682 131.261 117.837 130.808 118.851C130.384 119.833 129.581 120.602 128.581 120.984L91.4002 135.16C82.6633 138.506 72.9805 138.401 64.3182 134.866L44.5217 126.637V99.0739C44.5217 97.7447 43.4441 96.667 42.1149 96.667H22.86C21.5308 96.667 20.4531 97.7447 20.4531 99.0739H8.41882C7.08964 99.0739 6.01196 100.152 6.01196 101.481C6.01196 102.81 7.08964 103.888 8.41882 103.888H20.4531V115.922C20.4531 117.251 21.5308 118.329 22.86 118.329C24.1892 118.329 25.2669 117.251 25.2669 115.922V101.481H39.708V130.363H25.2669V125.549C25.2669 124.22 24.1892 123.142 22.86 123.142C21.5308 123.142 20.4531 124.22 20.4531 125.549V127.956H8.41882C7.08964 127.956 6.01196 129.034 6.01196 130.363C6.01196 131.692 7.08964 132.77 8.41882 132.77H20.4531C20.4531 134.099 21.5308 135.177 22.86 135.177H42.1149C43.4441 135.177 44.5217 134.099 44.5217 132.77V131.853L62.4914 139.314C72.2882 143.312 83.2388 143.432 93.1211 139.651L130.3 125.475C132.503 124.638 134.276 122.949 135.217 120.789C136.193 118.598 136.244 116.107 135.359 113.878Z" fill="white"/>
<path d="M133.472 19.0025C133.472 18.9736 133.472 18.9471 133.472 18.9183C133.379 18.6418 133.235 18.3845 133.049 18.1601C132.993 18.0903 132.928 18.0397 132.868 17.9772C132.729 17.837 132.573 17.7142 132.404 17.6113C132.315 17.5596 132.223 17.5129 132.129 17.4717C132.059 17.4317 131.987 17.3956 131.913 17.3634L78.9616 0.515391C78.4872 0.364661 77.9775 0.364661 77.5031 0.515391L24.5521 17.3634C23.5509 17.6748 22.8661 18.5987 22.8601 19.6475V77.4122C22.861 78.4625 23.5431 79.3909 24.5449 79.7059L77.4959 96.554C77.9703 96.7047 78.48 96.7047 78.9544 96.554L131.905 79.7059C132.901 79.3858 133.577 78.4586 133.576 77.4122V19.6475C133.571 19.4288 133.536 19.2119 133.472 19.0025ZM78.2179 5.32671L123.226 19.6475L113.916 22.6104L68.9106 8.28715L78.2179 5.32671ZM60.9703 10.8144L105.979 25.1352L96.6713 28.098L51.663 13.7772L60.9703 10.8144ZM128.762 75.6504L80.6248 90.9676V82.2259C80.6248 80.8967 79.5471 79.8191 78.2179 79.8191C76.8887 79.8191 75.8111 80.8967 75.8111 82.2259V90.9676L27.6738 75.6528V21.4069L43.7204 16.302L88.7287 30.6252L78.2179 33.9684L38.0233 21.1831C36.7564 20.7803 35.4032 21.4807 35.0003 22.7476C34.5975 24.0145 35.2979 25.3677 36.5648 25.7706L75.8111 38.255V72.5985C75.8111 73.9277 76.8887 75.0053 78.2179 75.0053C79.5471 75.0053 80.6248 73.9277 80.6248 72.5985V38.255L94.2645 33.9226V49.8897C94.2645 51.2189 95.3421 52.2966 96.6713 52.2966C96.9162 52.2951 97.1596 52.2569 97.3934 52.1835L103.009 50.3928C104.275 49.9899 104.976 48.6367 104.573 47.3698C104.17 46.1029 102.817 45.4025 101.55 45.8053L99.071 46.5947V32.3943L111.505 28.4374V42.6379L108.771 43.5068C107.504 43.9096 106.803 45.2629 107.206 46.5298C107.523 47.5265 108.447 48.2043 109.493 48.2073C109.738 48.2076 109.982 48.1694 110.215 48.0942L114.629 46.691C115.631 46.376 116.313 45.4476 116.314 44.3973V26.897L128.762 22.9401V75.6504Z" fill="white"/>
<path d="M34.8944 60.5645C33.5652 60.5645 32.4875 61.6421 32.4875 62.9713V70.1919C32.4875 71.5211 33.5652 72.5988 34.8944 72.5988C36.2236 72.5988 37.3013 71.5211 37.3013 70.1919V62.9713C37.3013 61.6421 36.2236 60.5645 34.8944 60.5645Z" fill="white"/>
<path d="M44.5219 62.9707C43.1927 62.9707 42.115 64.0484 42.115 65.3776V72.5981C42.115 73.9273 43.1927 75.005 44.5219 75.005C45.851 75.005 46.9287 73.9273 46.9287 72.5981V65.3776C46.9287 64.0484 45.851 62.9707 44.5219 62.9707Z" fill="white"/>
</g>
<defs>
<clipPath id="clip0_138_113">
<rect width="142" height="142" fill="white" transform="translate(0 0.402344)"/>
</clipPath>
</defs>
</svg>
