<svg width="143" height="143" viewBox="0 0 143 143" fill="none" xmlns="http://www.w3.org/2000/svg">
<g clip-path="url(#clip0_138_58)">
<path d="M33.5572 93.8857C25.7258 93.8857 19.3572 100.254 19.3572 108.086C19.3572 115.917 25.7258 122.286 33.5572 122.286C41.3885 122.286 47.7572 115.917 47.7572 108.086C47.7572 100.254 41.3883 93.8857 33.5572 93.8857ZM33.5572 117.552C28.3362 117.552 24.0906 113.306 24.0906 108.086C24.0906 102.865 28.3365 98.6192 33.5572 98.6192C38.7779 98.6192 43.0238 102.865 43.0238 108.086C43.0238 113.306 38.7779 117.552 33.5572 117.552Z" fill="white"/>
<path d="M114.024 93.8857C106.192 93.8857 99.8237 100.254 99.8237 108.086C99.8237 115.917 106.192 122.286 114.024 122.286C121.855 122.286 128.224 115.917 128.224 108.086C128.224 100.254 121.855 93.8857 114.024 93.8857ZM114.024 117.552C108.803 117.552 104.557 113.306 104.557 108.086C104.557 102.865 108.803 98.6192 114.024 98.6192C119.245 98.6192 123.49 102.865 123.49 108.086C123.49 113.306 119.245 117.552 114.024 117.552Z" fill="white"/>
<path d="M142.047 80.7725L120.747 47.6391C120.312 46.9621 119.562 46.5527 118.757 46.5527H92.7237C91.415 46.5527 90.3572 47.613 90.3572 48.9193V108.086C90.3572 109.395 91.415 110.452 92.7237 110.452H102.19V105.719H95.0903V51.2862H117.465L137.69 82.7486V105.72H125.857V110.453H140.057C141.366 110.453 142.423 109.395 142.423 108.086V82.0527C142.424 81.6007 142.294 81.1533 142.047 80.7725Z" fill="white"/>
<path d="M104.557 77.3186V60.752H123.491V56.0186H102.191C100.882 56.0186 99.8242 57.0788 99.8242 58.3851V79.6851C99.8242 80.9939 100.882 82.0517 102.191 82.0517H137.691V77.3183H104.557V77.3186Z" fill="white"/>
<path d="M92.7238 29.9854H2.7904C1.48411 29.9854 0.423828 31.0456 0.423828 32.3519V108.085C0.423828 109.394 1.48411 110.452 2.7904 110.452H21.7238V105.719H5.15725V34.7185H90.3573V105.719H45.3904V110.452H92.7238C94.0326 110.452 95.0904 109.394 95.0904 108.085V32.3519C95.0904 31.0456 94.0326 29.9854 92.7238 29.9854Z" fill="white"/>
<path d="M16.9903 96.252H2.79028V100.985H16.9903V96.252Z" fill="white"/>
<path d="M90.3572 96.252H50.1238V100.985H90.3572V96.252Z" fill="white"/>
<path d="M140.057 96.252H130.59V100.985H140.057V96.252Z" fill="white"/>
<path d="M92.7238 39.4521H9.89038V44.1856H92.7238V39.4521Z" fill="white"/>
<path d="M35.9239 105.719H31.1904V110.452H35.9239V105.719Z" fill="white"/>
<path d="M116.391 105.719H111.657V110.452H116.391V105.719Z" fill="white"/>
<path d="M43.0238 20.5186H9.89038V25.252H43.0238V20.5186Z" fill="white"/>
<path d="M5.15725 20.5186H0.423828V25.252H5.15725V20.5186Z" fill="white"/>
</g>
<defs>
<clipPath id="clip0_138_58">
<rect width="142" height="142" fill="white" transform="translate(0.423828 0.402344)"/>
</clipPath>
</defs>
</svg>
