<?xml version="1.0" standalone="no"?>
<!DOCTYPE svg PUBLIC "-//W3C//DTD SVG 20010904//EN"
 "http://www.w3.org/TR/2001/REC-SVG-20010904/DTD/svg10.dtd">
<svg version="1.0" xmlns="http://www.w3.org/2000/svg"
 width="512.000000pt" height="512.000000pt" viewBox="0 0 512.000000 512.000000"
 preserveAspectRatio="xMidYMid meet">
<metadata>
Created by potrace 1.14, written by Peter Selinger 2001-2017
</metadata>
<g transform="translate(0.000000,512.000000) scale(0.100000,-0.100000)"
fill="#000000" stroke="none">
<path d="M4 3980 c36 -426 368 -783 784 -843 62 -10 551 -12 1962 -12 1034 0
1880 -3 1880 -6 0 -6 -119 -130 -396 -410 l-154 -157 -743 0 c-408 0 -1157 -1
-1665 -1 l-923 -1 6 -74 c21 -266 168 -523 390 -681 84 -60 199 -112 313 -142
l97 -26 806 -1 807 -1 -22 -25 c-11 -14 -93 -99 -181 -188 -88 -90 -161 -167
-163 -172 -9 -26 294 -143 428 -165 19 -3 62 -10 94 -16 70 -12 297 -15 376
-5 500 67 915 350 1153 786 71 130 145 349 163 485 3 27 8 61 10 75 4 33 4
255 0 300 -19 184 -68 354 -151 520 -57 116 -61 122 -137 225 -228 307 -531
501 -922 587 l-101 23 -1859 3 -1858 2 6 -80z"/>
</g>
</svg>
