<svg width="250" height="368" viewBox="0 0 250 368" fill="none" xmlns="http://www.w3.org/2000/svg">
<path opacity="0.3" d="M29.8553 362.566C29.8553 364.04 29.6083 365.184 29.1143 365.998C28.6289 366.813 27.9009 367.22 26.9303 367.22C25.9509 367.22 25.2056 366.804 24.6943 365.972C24.2003 365.132 23.9533 363.996 23.9533 362.566C23.9533 361.145 24.1959 360.014 24.6813 359.173C25.1753 358.333 25.9163 357.912 26.9043 357.912C27.9009 357.912 28.6376 358.333 29.1143 359.173C29.6083 360.005 29.8553 361.136 29.8553 362.566ZM26.9303 366.245C27.5629 366.245 28.0223 365.942 28.3083 365.335C28.6029 364.729 28.7503 363.806 28.7503 362.566C28.7503 361.336 28.5986 360.417 28.2953 359.81C28.0006 359.195 27.5369 358.887 26.9043 358.887C25.6736 358.887 25.0583 360.114 25.0583 362.566C25.0583 365.019 25.6823 366.245 26.9303 366.245Z" fill="black"/>
<path opacity="0.3" d="M22.5188 307.93H16.9678V307.085C18.1465 305.932 19.0131 305.013 19.5678 304.329C20.5471 303.098 21.0368 302.067 21.0368 301.235C21.0368 300.801 20.9025 300.45 20.6338 300.182C20.3738 299.904 20.0141 299.766 19.5548 299.766C19.1561 299.766 18.8051 299.896 18.5018 300.156C18.2071 300.407 18.0165 300.762 17.9298 301.222L17.0458 300.858C17.1498 300.208 17.4401 299.692 17.9168 299.311C18.4021 298.921 18.9785 298.726 19.6458 298.726C20.4431 298.726 21.0585 298.955 21.4918 299.415C21.9251 299.874 22.1418 300.411 22.1418 301.027C22.1418 302.197 21.5828 303.44 20.4648 304.758C19.9621 305.347 19.5591 305.789 19.2558 306.084C18.9958 306.344 18.6838 306.634 18.3198 306.955H22.5188V307.93ZM29.8553 303.38C29.8553 304.853 29.6083 305.997 29.1143 306.812C28.6289 307.626 27.9009 308.034 26.9303 308.034C25.9509 308.034 25.2056 307.618 24.6943 306.786C24.2003 305.945 23.9533 304.81 23.9533 303.38C23.9533 301.958 24.1959 300.827 24.6813 299.987C25.1753 299.146 25.9163 298.726 26.9043 298.726C27.9009 298.726 28.6376 299.146 29.1143 299.987C29.6083 300.819 29.8553 301.95 29.8553 303.38ZM26.9303 307.059C27.5629 307.059 28.0223 306.755 28.3083 306.149C28.6029 305.542 28.7503 304.619 28.7503 303.38C28.7503 302.149 28.5986 301.23 28.2953 300.624C28.0006 300.008 27.5369 299.701 26.9043 299.701C25.6736 299.701 25.0583 300.927 25.0583 303.38C25.0583 305.832 25.6823 307.059 26.9303 307.059Z" fill="black"/>
<path opacity="0.3" d="M21.5898 248.744H20.5498V246.469H16.3508V245.728L20.1208 239.644H21.3168L17.7158 245.429H20.5498V242.894H21.5898V245.429H22.8508V246.469H21.5898V248.744ZM29.8553 244.194C29.8553 245.667 29.6083 246.811 29.1143 247.626C28.6289 248.441 27.9009 248.848 26.9303 248.848C25.9509 248.848 25.2056 248.432 24.6943 247.6C24.2003 246.759 23.9533 245.624 23.9533 244.194C23.9533 242.773 24.1959 241.642 24.6813 240.801C25.1753 239.96 25.9163 239.54 26.9043 239.54C27.9009 239.54 28.6376 239.96 29.1143 240.801C29.6083 241.633 29.8553 242.764 29.8553 244.194ZM26.9303 247.873C27.5629 247.873 28.0223 247.57 28.3083 246.963C28.6029 246.356 28.7503 245.433 28.7503 244.194C28.7503 242.963 28.5986 242.045 28.2953 241.438C28.0006 240.823 27.5369 240.515 26.9043 240.515C25.6736 240.515 25.0583 241.741 25.0583 244.194C25.0583 246.647 25.6823 247.873 26.9303 247.873Z" fill="black"/>
<path opacity="0.3" d="M16.69 186.334C16.69 185.554 16.82 184.804 17.08 184.085C17.3487 183.366 17.704 182.755 18.146 182.252C19.056 181.221 20.044 180.579 21.11 180.328L21.539 181.121C20.681 181.338 19.9054 181.801 19.212 182.512C18.5447 183.205 18.1114 184.089 17.912 185.164C18.3454 184.358 19.0604 183.955 20.057 183.955C20.811 183.955 21.4307 184.215 21.916 184.735C22.41 185.255 22.657 185.927 22.657 186.75C22.657 187.599 22.3754 188.306 21.812 188.869C21.2574 189.415 20.603 189.688 19.849 189.688C18.8697 189.688 18.0984 189.367 17.535 188.726C16.9717 188.067 16.69 187.27 16.69 186.334ZM17.795 186.334C17.795 186.984 17.9727 187.534 18.328 187.985C18.6834 188.427 19.186 188.648 19.836 188.648C20.3214 188.648 20.7287 188.47 21.058 188.115C21.3874 187.742 21.552 187.313 21.552 186.828C21.552 186.265 21.3874 185.81 21.058 185.463C20.7374 185.108 20.2867 184.93 19.706 184.93C19.2467 184.93 18.8437 185.064 18.497 185.333C18.159 185.602 17.925 185.935 17.795 186.334ZM29.8553 185.008C29.8553 186.481 29.6083 187.625 29.1143 188.44C28.6289 189.255 27.9009 189.662 26.9303 189.662C25.9509 189.662 25.2056 189.246 24.6943 188.414C24.2003 187.573 23.9533 186.438 23.9533 185.008C23.9533 183.587 24.1959 182.456 24.6813 181.615C25.1753 180.774 25.9163 180.354 26.9043 180.354C27.9009 180.354 28.6376 180.774 29.1143 181.615C29.6083 182.447 29.8553 183.578 29.8553 185.008ZM26.9303 188.687C27.5629 188.687 28.0223 188.384 28.3083 187.777C28.6029 187.17 28.7503 186.247 28.7503 185.008C28.7503 183.777 28.5986 182.859 28.2953 182.252C28.0006 181.637 27.5369 181.329 26.9043 181.329C25.6736 181.329 25.0583 182.555 25.0583 185.008C25.0583 187.461 25.6823 188.687 26.9303 188.687Z" fill="black"/>
<path opacity="0.3" d="M19.2118 125.172H19.5498C19.9398 125.172 20.2778 125.025 20.5638 124.73C20.8585 124.435 21.0058 124.084 21.0058 123.677C21.0058 123.226 20.8498 122.867 20.5378 122.598C20.2258 122.321 19.8315 122.182 19.3548 122.182C18.8868 122.182 18.5012 122.321 18.1978 122.598C17.8945 122.875 17.7428 123.235 17.7428 123.677C17.7428 124.084 17.8902 124.435 18.1848 124.73C18.4795 125.025 18.8218 125.172 19.2118 125.172ZM19.5368 126.212H19.2508C18.7568 126.212 18.3322 126.364 17.9768 126.667C17.6302 126.962 17.4568 127.347 17.4568 127.824C17.4568 128.301 17.6345 128.695 17.9898 129.007C18.3538 129.31 18.8132 129.462 19.3678 129.462C19.9485 129.462 20.4122 129.315 20.7588 129.02C21.1142 128.717 21.2918 128.318 21.2918 127.824C21.2832 127.339 21.1142 126.949 20.7848 126.654C20.4555 126.359 20.0395 126.212 19.5368 126.212ZM16.3518 128.019C16.3518 127.473 16.5078 126.992 16.8198 126.576C17.1318 126.151 17.5478 125.865 18.0678 125.718V125.679C17.6518 125.54 17.3095 125.272 17.0408 124.873C16.7722 124.466 16.6378 124.015 16.6378 123.521C16.6378 122.819 16.8978 122.247 17.4178 121.805C17.9465 121.363 18.5965 121.142 19.3678 121.142C20.1392 121.142 20.7892 121.363 21.3178 121.805C21.8465 122.247 22.1108 122.819 22.1108 123.521C22.1108 123.98 21.9722 124.409 21.6948 124.808C21.4262 125.198 21.0665 125.484 20.6158 125.666V125.705C21.1358 125.792 21.5605 126.043 21.8898 126.459C22.2278 126.866 22.3968 127.36 22.3968 127.941C22.3968 128.738 22.1065 129.362 21.5258 129.813C20.9365 130.272 20.2215 130.502 19.3808 130.502C18.5228 130.502 17.8035 130.277 17.2228 129.826C16.6422 129.375 16.3518 128.773 16.3518 128.019ZM29.8553 125.822C29.8553 127.295 29.6083 128.439 29.1143 129.254C28.6289 130.069 27.9009 130.476 26.9303 130.476C25.9509 130.476 25.2056 130.06 24.6943 129.228C24.2003 128.387 23.9533 127.252 23.9533 125.822C23.9533 124.401 24.1959 123.27 24.6813 122.429C25.1753 121.588 25.9163 121.168 26.9043 121.168C27.9009 121.168 28.6376 121.588 29.1143 122.429C29.6083 123.261 29.8553 124.392 29.8553 125.822ZM26.9303 129.501C27.5629 129.501 28.0223 129.198 28.3083 128.591C28.6029 127.984 28.7503 127.061 28.7503 125.822C28.7503 124.591 28.5986 123.673 28.2953 123.066C28.0006 122.451 27.5369 122.143 26.9043 122.143C25.6736 122.143 25.0583 123.369 25.0583 125.822C25.0583 128.275 25.6823 129.501 26.9303 129.501Z" fill="black"/>
<path opacity="0.3" d="M11.9756 64.569L11.4296 63.724L13.6136 62.034H14.3416V71.186H13.3016V63.529L11.9756 64.569ZM22.5174 66.636C22.5174 68.1094 22.2704 69.2534 21.7764 70.068C21.2911 70.8827 20.5631 71.29 19.5924 71.29C18.6131 71.29 17.8677 70.874 17.3564 70.042C16.8624 69.2014 16.6154 68.066 16.6154 66.636C16.6154 65.2147 16.8581 64.0837 17.3434 63.243C17.8374 62.4024 18.5784 61.982 19.5664 61.982C20.5631 61.982 21.2997 62.4024 21.7764 63.243C22.2704 64.075 22.5174 65.206 22.5174 66.636ZM19.5924 70.315C20.2251 70.315 20.6844 70.0117 20.9704 69.405C21.2651 68.7984 21.4124 67.8754 21.4124 66.636C21.4124 65.4054 21.2607 64.4867 20.9574 63.88C20.6627 63.2647 20.1991 62.957 19.5664 62.957C18.3357 62.957 17.7204 64.1834 17.7204 66.636C17.7204 69.0887 18.3444 70.315 19.5924 70.315ZM29.8553 66.636C29.8553 68.1094 29.6083 69.2534 29.1143 70.068C28.6289 70.8827 27.9009 71.29 26.9303 71.29C25.9509 71.29 25.2056 70.874 24.6943 70.042C24.2003 69.2014 23.9533 68.066 23.9533 66.636C23.9533 65.2147 24.1959 64.0837 24.6813 63.243C25.1753 62.4024 25.9163 61.982 26.9043 61.982C27.9009 61.982 28.6376 62.4024 29.1143 63.243C29.6083 64.075 29.8553 65.206 29.8553 66.636ZM26.9303 70.315C27.5629 70.315 28.0223 70.0117 28.3083 69.405C28.6029 68.7984 28.7503 67.8754 28.7503 66.636C28.7503 65.4054 28.5986 64.4867 28.2953 63.88C28.0006 63.2647 27.5369 62.957 26.9043 62.957C25.6736 62.957 25.0583 64.1834 25.0583 66.636C25.0583 69.0887 25.6823 70.315 26.9303 70.315Z" fill="black"/>
<path opacity="0.3" d="M12.458 5.383L11.912 4.538L14.096 2.848H14.824V12H13.784V4.343L12.458 5.383ZM22.5188 12H16.9678V11.155C18.1465 10.0023 19.0131 9.08367 19.5678 8.399C20.5471 7.16833 21.0368 6.137 21.0368 5.305C21.0368 4.87167 20.9025 4.52067 20.6338 4.252C20.3738 3.97467 20.0141 3.836 19.5548 3.836C19.1561 3.836 18.8051 3.966 18.5018 4.226C18.2071 4.47733 18.0165 4.83267 17.9298 5.292L17.0458 4.928C17.1498 4.278 17.4401 3.76233 17.9168 3.381C18.4021 2.991 18.9785 2.796 19.6458 2.796C20.4431 2.796 21.0585 3.02567 21.4918 3.485C21.9251 3.94433 22.1418 4.48167 22.1418 5.097C22.1418 6.267 21.5828 7.51067 20.4648 8.828C19.9621 9.41733 19.5591 9.85933 19.2558 10.154C18.9958 10.414 18.6838 10.7043 18.3198 11.025H22.5188V12ZM29.8553 7.45C29.8553 8.92333 29.6083 10.0673 29.1143 10.882C28.6289 11.6967 27.9009 12.104 26.9303 12.104C25.9509 12.104 25.2056 11.688 24.6943 10.856C24.2003 10.0153 23.9533 8.88 23.9533 7.45C23.9533 6.02867 24.1959 4.89767 24.6813 4.057C25.1753 3.21633 25.9163 2.796 26.9043 2.796C27.9009 2.796 28.6376 3.21633 29.1143 4.057C29.6083 4.889 29.8553 6.02 29.8553 7.45ZM26.9303 11.129C27.5629 11.129 28.0223 10.8257 28.3083 10.219C28.6029 9.61233 28.7503 8.68933 28.7503 7.45C28.7503 6.21933 28.5986 5.30067 28.2953 4.694C28.0006 4.07867 27.5369 3.771 26.9043 3.771C25.6736 3.771 25.0583 4.99733 25.0583 7.45C25.0583 9.90267 25.6823 11.129 26.9303 11.129Z" fill="black"/>
<line opacity="0.3" x1="39.0762" y1="11.2734" x2="39.0762" y2="366.389" stroke="black"/>
<line opacity="0.3" x1="249.241" y1="366.89" x2="38.5762" y2="366.89" stroke="black"/>
<line opacity="0.3" x1="249.241" y1="307.703" x2="38.5762" y2="307.703" stroke="black"/>
<line opacity="0.3" x1="249.241" y1="248.518" x2="38.5762" y2="248.518" stroke="black"/>
<line opacity="0.3" x1="249.241" y1="189.332" x2="38.5762" y2="189.332" stroke="black"/>
<line opacity="0.3" x1="249.241" y1="130.146" x2="38.5762" y2="130.146" stroke="black"/>
<line opacity="0.3" x1="249.241" y1="70.9595" x2="38.5762" y2="70.9595" stroke="black"/>
<line opacity="0.3" x1="249.241" y1="11.7734" x2="38.5762" y2="11.7734" stroke="black"/>
<rect x="58.4033" y="63.6333" width="40.2974" height="302.756" fill="#4C9CE7"/>
<rect x="118.528" y="299.518" width="40.2974" height="66.8725" fill="#FF827F"/>
<rect x="178.653" y="355.116" width="40.2974" height="11.2736" fill="#8E94ED"/>
</svg>
