<svg width="65" height="66" viewBox="0 0 65 66" fill="none" xmlns="http://www.w3.org/2000/svg">
<g clip-path="url(#clip0_34_227)">
<path d="M50.4517 30.6603C49.6685 29.2002 48.8004 27.7641 47.8716 26.3917C47.477 25.8089 46.6847 25.6562 46.1018 26.0506C45.5189 26.4452 45.3661 27.2375 45.7606 27.8205C46.6408 29.1209 47.4633 30.4817 48.2055 31.8651C48.4354 32.2937 48.8752 32.5374 49.3298 32.5374C49.533 32.5374 49.7395 32.4887 49.931 32.3857C50.5513 32.0532 50.7844 31.2806 50.4517 30.6603Z" fill="white"/>
<path d="M64.3557 51.7152C63.744 51.3672 62.9657 51.5809 62.6177 52.1928L61.2569 54.5848L58.7487 42.3348L61.0527 41.6473C61.7272 41.4461 62.1109 40.7362 61.9095 40.0615C61.7082 39.3869 60.9983 39.0033 60.3238 39.2047L58.1891 39.8418C56.2758 32.1157 52.7094 24.751 47.8255 18.4669C46.2938 16.4959 44.6163 14.6074 42.8394 12.8538C40.372 10.4187 37.1923 8.9586 33.7747 8.66711V7.25959C33.7747 6.55563 33.2041 5.98511 32.5003 5.98511C31.7963 5.98511 31.2258 6.55576 31.2258 7.25959V8.66673C27.8102 8.95758 24.6293 10.4178 22.1608 12.8538C20.384 14.6074 18.7065 16.4959 17.1748 18.4667C12.2908 24.7509 8.7244 32.1154 6.8111 39.8415L4.67638 39.2045C4.0015 39.003 3.29184 39.3869 3.09062 40.0613C2.8894 40.7358 3.27305 41.4458 3.94742 41.6471L6.25136 42.3345L3.74328 54.5846L2.38247 52.1927C2.03437 51.5807 1.25627 51.3668 0.644487 51.7151C0.0327014 52.0632 -0.181087 52.8413 0.166891 53.453L3.20398 58.7919C3.20868 58.8002 3.21465 58.8073 3.2196 58.8157C3.23813 58.8465 3.25807 58.8763 3.27927 58.9057C3.29044 58.9212 3.30123 58.9372 3.31291 58.952C3.31685 58.9571 3.32015 58.9625 3.32421 58.9675C3.34389 58.9916 3.36547 59.0135 3.3868 59.0359C3.39771 59.0475 3.40787 59.0603 3.41917 59.0713C3.4551 59.1065 3.49293 59.1393 3.53241 59.1697C3.54828 59.1819 3.56517 59.1925 3.58154 59.2039C3.60782 59.2223 3.6341 59.2403 3.6614 59.2567C3.6798 59.2676 3.69872 59.2774 3.71764 59.2873C3.74493 59.3016 3.77261 59.3153 3.80079 59.3277C3.81996 59.336 3.839 59.3439 3.85855 59.3513C3.88839 59.3626 3.91873 59.3726 3.94932 59.3817C3.96824 59.3873 3.98678 59.3932 4.00582 59.398C4.03908 59.4062 4.07285 59.4123 4.10687 59.4179C4.12401 59.4207 4.14102 59.4245 4.15854 59.4266C4.20285 59.4319 4.24779 59.4346 4.29286 59.4353C4.29959 59.4354 4.30619 59.4366 4.31304 59.4366C4.31431 59.4366 4.31571 59.4363 4.31698 59.4363H12.3393C12.3418 59.4363 12.3442 59.4366 12.3468 59.4366C12.3483 59.4366 12.3498 59.4363 12.3513 59.4363H32.3597C32.4071 59.4363 32.4538 59.4333 32.4999 59.4283C32.546 59.4334 32.5927 59.4363 32.64 59.4363H52.6483C52.6498 59.4363 52.6514 59.4366 52.6529 59.4366C52.6554 59.4366 52.6578 59.4363 52.6604 59.4363H60.6827C60.6839 59.4363 60.6853 59.4366 60.6866 59.4366C60.6933 59.4366 60.6999 59.4354 60.7067 59.4353C60.7517 59.4347 60.7967 59.432 60.841 59.4266C60.8584 59.4244 60.8751 59.4207 60.8924 59.4179C60.9265 59.4123 60.9604 59.4062 60.9938 59.3979C61.0127 59.3932 61.0312 59.3875 61.0498 59.382C61.0808 59.3729 61.1114 59.3627 61.1415 59.3513C61.1606 59.344 61.1796 59.3363 61.1983 59.328C61.227 59.3156 61.255 59.3016 61.2826 59.2872C61.3013 59.2774 61.3198 59.2677 61.338 59.2571C61.3659 59.2404 61.3926 59.2222 61.4191 59.2035C61.435 59.1923 61.4516 59.182 61.4671 59.1701C61.5067 59.1395 61.5447 59.1068 61.5809 59.0713C61.5919 59.0606 61.6018 59.0481 61.6125 59.0368C61.6339 59.0141 61.6558 58.992 61.6757 58.9676C61.6798 58.9625 61.6831 58.9571 61.6871 58.952C61.6988 58.9373 61.7095 58.9214 61.7205 58.9061C61.7417 58.8766 61.7618 58.8466 61.7803 58.8158C61.7851 58.8077 61.7912 58.8006 61.7959 58.7922L64.833 53.4533C65.1812 52.8414 64.9675 52.0633 64.3557 51.7152ZM55.1998 38.5281L33.7746 24.113V20.5232H46.1899V20.5234C50.2614 25.8894 53.3389 32.0495 55.1998 38.5281ZM41.663 32.4924L45.0722 51.5482H32.6404V51.5484C32.5931 51.5484 32.5464 51.5514 32.5003 51.5564C32.4542 51.5513 32.4075 51.5484 32.3601 51.5484H19.9296L23.3388 32.4916L32.5004 26.3277L41.663 32.4924ZM23.9514 14.6679C26.2431 12.4064 29.2774 11.1607 32.5003 11.1607C32.5012 11.1607 32.5019 11.1606 32.5028 11.1606C32.5037 11.1606 32.5045 11.1607 32.5053 11.1607C35.7231 11.1607 38.7573 12.4061 41.0491 14.6679C42.1182 15.7229 43.1495 16.8294 44.1323 17.9743H20.8682C21.851 16.8294 22.8822 15.723 23.9514 14.6679ZM18.8103 20.5234H31.2255V24.1131L9.80058 38.528C11.6615 32.0496 14.7391 25.8893 18.8103 20.5234ZM5.87393 56.8872L7.92003 46.8938L9.65624 53.1933C9.65725 53.1967 9.65802 53.2003 9.65916 53.2037L10.6744 56.8872H5.87393V56.8872ZM11.8469 51.5484L9.21381 41.9949L20.3949 34.4722L17.3401 51.5484H11.8469V51.5484ZM51.6817 56.8872H32.6404C32.5931 56.8872 32.5464 56.8903 32.5003 56.8952C32.4542 56.8902 32.4075 56.8872 32.3601 56.8872H13.3184L12.5495 54.0973H18.4039C18.4053 54.0973 18.4067 54.0975 18.4081 54.0975C18.4095 54.0975 18.4109 54.0973 18.4123 54.0973H32.3599C32.4072 54.0973 32.4539 54.0943 32.5 54.0893C32.5461 54.0944 32.5928 54.0973 32.6402 54.0973H46.589C46.5904 54.0973 46.5918 54.0975 46.5932 54.0975C46.5946 54.0975 46.596 54.0973 46.5974 54.0973H52.4505L51.6817 56.8872ZM47.6615 51.5485L44.6066 34.4731L55.7865 41.9949L53.1533 51.5485H47.6615ZM54.3259 56.8871L55.3411 53.2037C55.3421 53.2003 55.3429 53.1967 55.344 53.1933L57.0803 46.8938L59.1264 56.8871H54.3259Z" fill="white"/>
<path d="M44.4813 25.3601C45.1961 25.3601 45.7756 24.7806 45.7756 24.0658C45.7756 23.351 45.1961 22.7715 44.4813 22.7715C43.7665 22.7715 43.187 23.351 43.187 24.0658C43.187 24.7806 43.7665 25.3601 44.4813 25.3601Z" fill="white"/>
</g>
<defs>
<clipPath id="clip0_34_227">
<rect width="65" height="65" fill="white" transform="translate(0 0.210938)"/>
</clipPath>
</defs>
</svg>
