<svg width="65" height="66" viewBox="0 0 65 66" fill="none" xmlns="http://www.w3.org/2000/svg">
<path d="M61.9532 24.5891V18.6201C61.9532 18.0592 61.4984 17.6045 60.9376 17.6045H48.7501V17.5479C48.7619 14.0823 46.8022 10.9115 43.6973 9.37209L36.304 5.6756L35.4397 3.94713C35.3071 3.68193 35.0653 3.48794 34.7776 3.41609L30.7151 2.40046C30.6345 2.38053 30.5518 2.37063 30.4688 2.37088V2.37012H20.3126C20.2295 2.36987 20.1469 2.3799 20.0663 2.39983L16.0038 3.41545C15.7161 3.48731 15.4742 3.68129 15.3417 3.9465L14.4774 5.67497L7.08404 9.37222C3.97914 10.9117 2.0195 14.0824 2.0313 17.548V31.8232C2.0313 32.3841 2.48605 32.8389 3.04693 32.8389H10.1563V52.1357C10.1563 52.6966 10.611 53.1514 11.1719 53.1514H34.5313V62.292C34.5313 62.8529 34.9861 63.3076 35.5469 63.3076H45.7032C46.2173 63.3076 46.6504 62.9235 46.7116 62.413L48.7501 45.4256L50.7885 62.413C50.8497 62.9235 51.2828 63.3076 51.7969 63.3076H61.9532C62.5141 63.3076 62.9688 62.8529 62.9688 62.292V28.7764C62.9688 28.6933 62.9586 28.6106 62.9385 28.5301L61.9532 24.5891ZM37.5782 23.6982V19.6357H39.6094V23.6982H37.5782ZM41.6407 19.6357H43.6719V23.6982H41.6407V19.6357ZM45.7032 19.6357H47.7344V23.6982H45.7032V19.6357ZM49.7657 19.6357H51.7969V23.6982H49.7657V19.6357ZM53.8282 19.6357H55.8594V23.6982H53.8282V19.6357ZM57.8907 19.6357H59.9219V23.6982H57.8907V19.6357ZM31.2491 9.114C31.4011 8.93144 31.4844 8.7014 31.4844 8.46387V4.68651L33.8318 5.27341L35.9349 9.4795H33.5157C32.9548 9.4795 32.5001 9.93424 32.5001 10.4951V13.93L26.4063 16.9768V14.9258L31.2491 9.114ZM29.4532 6.43262H21.3282V4.40137H29.4532V6.43262ZM29.1467 8.46387L25.3907 12.9707L21.6346 8.46387H29.1467ZM16.9496 5.27341L19.2969 4.68651V8.46387C19.2969 8.7014 19.3802 8.93144 19.5323 9.114L24.3751 14.9258V16.9773L18.2813 13.9305V10.4951C18.2813 9.93424 17.8266 9.4795 17.2657 9.4795H14.8465L16.9496 5.27341ZM4.06255 30.8076V28.7764H10.1563V30.8076H4.06255ZM12.1876 25.7295H18.2813V27.7607H12.1876V25.7295ZM12.1876 31.8232V29.792H18.2813V33.8545H12.1876V31.8232ZM12.1876 35.8857H19.2969C19.8578 35.8857 20.3126 35.431 20.3126 34.8701V24.7139C20.3126 24.153 19.8578 23.6982 19.2969 23.6982H12.1876V20.6514C12.1876 20.0905 11.7328 19.6357 11.1719 19.6357C10.611 19.6357 10.1563 20.0905 10.1563 20.6514V26.7451H4.06255V17.5479C4.05354 14.8525 5.57774 12.3865 7.99251 11.189L12.9635 8.70356L12.2948 10.0409C12.044 10.5426 12.2473 11.1526 12.7489 11.4035C12.89 11.4741 13.0455 11.5107 13.2032 11.5107H16.2501V14.5576C16.2501 14.9423 16.4674 15.2939 16.8114 15.466L24.3751 19.2478V51.1201H12.1876V35.8857ZM26.4063 51.1201V19.2478L33.9699 15.466C34.314 15.2939 34.5313 14.9423 34.5313 14.5576V11.5107H37.5782C38.1391 11.5107 38.5938 11.056 38.5938 10.4951C38.5938 10.3374 38.5571 10.1819 38.4865 10.0409L37.818 8.70356L42.7888 11.189C45.2036 12.3865 46.7278 14.8525 46.7188 17.5479V17.6045H36.5626C36.0017 17.6045 35.5469 18.0592 35.5469 18.6201V24.5891L34.5616 28.5301C34.5415 28.6106 34.5313 28.6933 34.5313 28.7764V51.1201H26.4063ZM36.5626 61.2764V59.2451H45.0458L44.8021 61.2764H36.5626ZM49.7584 36.7804C49.6915 36.2234 49.1859 35.8262 48.6291 35.893C48.164 35.9488 47.7975 36.3154 47.7417 36.7804L45.2896 57.2139H36.5626V28.9014L37.3555 25.7295H60.1446L60.9376 28.9014V57.2139H52.2105L49.7584 36.7804ZM52.6983 61.2764L52.4545 59.2451H60.9376V61.2764H52.6983Z" fill="white"/>
</svg>
