<svg width="65" height="66" viewBox="0 0 65 66" fill="none" xmlns="http://www.w3.org/2000/svg">
<g clip-path="url(#clip0_34_312)">
<path d="M63.6735 29.5225H39.7959V1.6654C39.7959 0.932888 39.202 0.338867 38.4694 0.338867H1.32653C0.593888 0.338867 0 0.932888 0 1.6654V64.0123C0 64.7448 0.593888 65.3389 1.32653 65.3389H36.4796C37.2122 65.3389 37.8061 64.7448 37.8061 64.0123V60.0327H53.7245V64.0123C53.7245 64.7448 54.3184 65.3389 55.051 65.3389H59.6939C60.4265 65.3389 61.0204 64.7448 61.0204 64.0123V60.0327H61.6837C62.4163 60.0327 63.0102 59.4387 63.0102 58.7062V36.8185H63.6735C64.4061 36.8185 65 36.2244 65 35.4919V30.8491C65 30.1166 64.4061 29.5225 63.6735 29.5225ZM18.5714 62.6858H2.65306V51.4103H18.5714V62.6858ZM18.5714 48.7572H2.65306V2.99193H18.5714V48.7572ZM30.5102 62.6858H21.2245V2.99193H37.1429V29.5225H27.1939C26.4612 29.5225 25.8673 30.1166 25.8673 30.8491V35.4919C25.8673 36.2244 26.4612 36.8185 27.1939 36.8185H28.5204V58.7062C28.5204 59.4387 29.1143 60.0327 29.8469 60.0327H30.5102V62.6858ZM35.1531 62.6858H33.1633V60.0327H35.1531V62.6858ZM58.3673 62.6858H56.3775V60.0327H58.3673V62.6858ZM60.3571 57.3797H31.1735V48.094H60.3571V57.3797ZM60.3571 45.4409H31.1735V36.8185H60.3571V45.4409ZM62.3469 34.1654H28.5204V32.1756H62.3469V34.1654Z" fill="white"/>
<path d="M47.755 39.4714H43.7754V42.1245H47.755V39.4714Z" fill="white"/>
<path d="M47.755 50.7471H43.7754V53.4001H47.755V50.7471Z" fill="white"/>
<path d="M26.5305 21.5635H23.8774V26.8696H26.5305V21.5635Z" fill="white"/>
<path d="M15.9184 21.5635H13.2654V26.8696H15.9184V21.5635Z" fill="white"/>
<path d="M12.6022 55.3899H8.62256V58.043H12.6022V55.3899Z" fill="white"/>
</g>
<defs>
<clipPath id="clip0_34_312">
<rect width="65" height="65" fill="white" transform="translate(0 0.338867)"/>
</clipPath>
</defs>
</svg>
