<svg width="65" height="66" viewBox="0 0 65 66" fill="none" xmlns="http://www.w3.org/2000/svg">
<g clip-path="url(#clip0_34_206)">
<path d="M32.505 13.7881C26.3162 13.7881 21.2983 18.8054 21.2983 24.9948C21.2983 31.1842 26.3162 36.2015 32.505 36.2015C38.6944 36.2015 43.7117 31.1842 43.7117 24.9948C43.7051 18.8087 38.6917 13.7952 32.505 13.7881V13.7881ZM32.505 33.9601C27.5539 33.9601 23.5397 29.9464 23.5397 24.9948C23.5397 20.0437 27.5539 16.0294 32.505 16.0294C37.4567 16.0294 41.4704 20.0437 41.4704 24.9948C41.4649 29.9442 37.4545 33.9546 32.505 33.9601Z" fill="white"/>
<path d="M48.1944 24.9948C48.1944 16.3298 41.1705 9.30542 32.505 9.30542C23.8401 9.30542 16.8157 16.3298 16.8157 24.9948C16.8157 33.6597 23.8401 40.6841 32.505 40.6841C41.1667 40.6748 48.1851 33.6559 48.1944 24.9948ZM32.505 38.4428C25.0779 38.4428 19.057 32.4219 19.057 24.9948C19.057 17.5676 25.0779 11.5468 32.505 11.5468C39.9322 11.5468 45.9531 17.5676 45.9531 24.9948C45.9454 32.4187 39.9289 38.4351 32.505 38.4428Z" fill="white"/>
<path d="M51.5563 45.1667H46.6583C47.7882 44.3716 48.8493 43.483 49.8304 42.5095C49.8709 42.475 49.9081 42.4378 49.9426 42.3979C52.173 40.1478 53.9525 37.4928 55.1864 34.5756C55.2362 34.4886 55.274 34.3956 55.2986 34.2988C56.509 31.3712 57.141 28.2374 57.1596 25.0697V25.062C57.1596 25.0396 57.1596 25.0171 57.1596 24.9947C57.1618 21.7843 56.5331 18.6045 55.3095 15.6359L55.3019 15.6146C54.0718 12.6444 52.2753 9.94173 50.0121 7.65825C49.9853 7.62652 49.9563 7.59642 49.9262 7.56851C42.9045 0.529314 32.3369 -1.59328 23.1417 2.18898H23.1319C20.1551 3.41854 17.4476 5.21719 15.1608 7.48424C15.1302 7.50942 15.1012 7.53678 15.0744 7.56632C8.04446 14.5557 5.91748 25.0915 9.68497 34.2605C9.71014 34.354 9.74789 34.4438 9.79714 34.5275C11.0125 37.4216 12.7657 40.0597 14.9633 42.301C15.0366 42.3984 15.1252 42.4833 15.2254 42.5522C16.1945 43.5087 17.2413 44.3831 18.3543 45.1667H13.4535C10.3608 45.1706 7.85403 47.6773 7.8502 50.7701V59.7354C7.85403 62.8288 10.3608 65.3349 13.4535 65.3388H51.5563C54.6496 65.3349 57.1563 62.8288 57.1596 59.7354V50.7701C57.1563 47.6773 54.6496 45.1706 51.5563 45.1667V45.1667ZM10.0915 54.1321H54.9183V55.2527H10.0915V54.1321ZM18.0385 42.0931L18.5989 41.907C19.1866 41.7112 19.505 41.0758 19.3091 40.4882C19.1138 39.8999 18.4785 39.582 17.8903 39.7773L16.1994 40.3377C14.7723 38.8159 13.563 37.1032 12.6065 35.2487L13.186 35.2892H13.2664C13.8853 35.3111 14.4046 34.8268 14.4265 34.2079C14.4484 33.589 13.9641 33.0697 13.3452 33.0479L11.5679 32.9215C10.8226 30.9679 10.3558 28.9203 10.1802 26.8371L10.7148 27.1052C11.2686 27.3816 11.9422 27.1567 12.2191 26.6029C12.4954 26.0491 12.2705 25.3755 11.7167 25.0992L10.1266 24.3222C10.1824 22.2319 10.5315 20.1596 11.1641 18.1667L11.5575 18.6203C11.9635 19.0882 12.6716 19.138 13.1394 18.732C13.6068 18.3259 13.6571 17.6179 13.2511 17.15L12.0855 15.8055C12.9436 13.904 14.062 12.1311 15.4092 10.5382L15.5931 11.0908C15.789 11.6785 16.4243 11.9965 17.0125 11.8006C17.6002 11.6047 17.9182 10.9694 17.7223 10.3811L17.1619 8.70615C18.681 7.27193 20.3926 6.05714 22.2465 5.09516L22.2049 5.67684C22.1612 6.29353 22.6257 6.82924 23.243 6.87357H23.3234C23.9128 6.87521 24.4025 6.41994 24.4441 5.83224L24.5699 4.06205C26.5196 3.31676 28.5645 2.84999 30.645 2.67544L30.3812 3.2013C30.1049 3.75507 30.3298 4.42867 30.8836 4.70501C31.4373 4.98189 32.1109 4.75699 32.3873 4.20322L33.1774 2.61634C35.2677 2.67161 37.34 3.02127 39.3334 3.65383L38.8853 4.04727C38.4508 4.45931 38.4174 5.14003 38.8092 5.59312C39.201 6.04565 39.8795 6.11077 40.3496 5.74086L41.6946 4.57532C43.5961 5.43333 45.3691 6.55181 46.962 7.89902L46.4104 8.08288C45.8222 8.27823 45.5042 8.91353 45.7001 9.50178C45.8955 10.0895 46.5308 10.4074 47.1185 10.212L48.7929 9.65171C50.2277 11.1702 51.4436 12.8818 52.405 14.7363L51.8233 14.6947C51.4091 14.6389 50.9987 14.8178 50.7574 15.1593C50.5166 15.5007 50.486 15.9478 50.6775 16.3188C50.8684 16.6904 51.2509 16.924 51.6685 16.9262L53.4392 17.0515C54.1845 19.0034 54.6507 21.0505 54.8242 23.132L54.2989 22.8688C53.7451 22.5925 53.0715 22.8168 52.7946 23.3711C52.5183 23.9249 52.7432 24.5985 53.2969 24.8749L54.8937 25.6727C54.8296 27.7581 54.4729 29.8237 53.8337 31.8095L53.4529 31.3701C53.0469 30.9028 52.3388 30.8525 51.8715 31.2585C51.4036 31.664 51.3538 32.3721 51.7593 32.8394L52.9292 34.1844C52.069 36.087 50.95 37.8616 49.6044 39.4583L49.4173 38.898C49.2214 38.3097 48.5861 37.9918 47.9978 38.1877C47.4096 38.3836 47.0922 39.0195 47.2881 39.6072L47.8484 41.2986C46.2046 42.8641 44.331 44.1686 42.2922 45.1667H22.7286C21.0416 44.3443 19.4656 43.3117 18.0385 42.0931V42.0931ZM13.4535 47.4081H15.0027L14.6919 48.028C14.4155 48.5818 14.6404 49.2554 15.1942 49.5318C15.748 49.8086 16.4216 49.5837 16.6979 49.03L17.5083 47.4081H20.606L20.2952 48.028C20.0189 48.5818 20.2438 49.2554 20.7975 49.5318C21.3513 49.8086 22.0249 49.5837 22.3012 49.03L23.1116 47.4081H26.2094L25.8985 48.028C25.6222 48.5818 25.8471 49.2554 26.4009 49.5318C26.9546 49.8086 27.6283 49.5837 27.9046 49.03L28.715 47.4081H31.8127L31.5019 48.028C31.2256 48.5818 31.4505 49.2554 32.0042 49.5318C32.558 49.8086 33.2316 49.5837 33.5079 49.03L34.3183 47.4081H37.416L37.1052 48.028C36.8289 48.5818 37.0538 49.2554 37.6076 49.5318C38.1613 49.8086 38.8349 49.5837 39.1113 49.03L39.9217 47.4081H43.0194L42.7086 48.028C42.4322 48.5818 42.6571 49.2554 43.2109 49.5318C43.7647 49.8086 44.4383 49.5837 44.7146 49.03L45.525 47.4081H48.6227L48.3119 48.028C48.0356 48.5818 48.2605 49.2554 48.8143 49.5318C49.368 49.8086 50.0416 49.5837 50.318 49.03L51.1284 47.4081H51.5563C53.4135 47.4081 54.9183 48.9134 54.9183 50.7701V51.8907H10.0915V50.7701C10.0915 48.9134 11.5969 47.4081 13.4535 47.4081V47.4081ZM51.5563 63.0974H51.1284L50.324 61.4761C50.0471 60.9218 49.374 60.6974 48.8197 60.9737C48.266 61.2506 48.0411 61.9237 48.3179 62.478L48.6282 63.0974H45.525L44.7206 61.4761C44.4438 60.9218 43.7707 60.6974 43.2164 60.9737C42.6626 61.2506 42.4377 61.9237 42.7146 62.478L43.0249 63.0974H39.9217L39.1173 61.4761C38.8404 60.9218 38.1674 60.6974 37.613 60.9737C37.0593 61.2506 36.8344 61.9237 37.1113 62.478L37.4215 63.0974H34.3183L33.5139 61.4761C33.2371 60.9218 32.564 60.6974 32.0097 60.9737C31.4559 61.2506 31.231 61.9237 31.5079 62.478L31.8182 63.0974H28.715L27.9106 61.4761C27.6337 60.9218 26.9607 60.6974 26.4063 60.9737C25.8526 61.2506 25.6277 61.9237 25.9046 62.478L26.2148 63.0974H23.1116L22.3073 61.4761C22.0304 60.9218 21.3573 60.6974 20.803 60.9737C20.2492 61.2506 20.0243 61.9237 20.3012 62.478L20.6115 63.0974H17.5083L16.7039 61.4761C16.427 60.9218 15.754 60.6974 15.1997 60.9737C14.6459 61.2506 14.421 61.9237 14.6979 62.478L15.0081 63.0974H13.4535C11.5969 63.0974 10.0915 61.5921 10.0915 59.7354V57.4941H54.9183V59.7354C54.9183 61.5921 53.4135 63.0974 51.5563 63.0974V63.0974Z" fill="white"/>
</g>
<defs>
<clipPath id="clip0_34_206">
<rect width="65" height="65" fill="white" transform="translate(0 0.338867)"/>
</clipPath>
</defs>
</svg>
