<svg width="100" height="101" viewBox="0 0 100 101" fill="none" xmlns="http://www.w3.org/2000/svg">
<g clip-path="url(#clip0_116_90)">
<path d="M98.5352 85.1901H95.9434V32.5639C95.9434 28.7094 92.8066 25.5737 88.9512 25.5737H85.5103C85.8865 24.7865 86.0939 23.9135 86.0939 23.0063C86.0939 20.7973 84.8816 18.7824 82.9299 17.7479L63.7756 7.60139C63.0607 7.22249 62.174 7.49514 61.7955 8.21018C61.4168 8.92502 61.6895 9.81155 62.4043 10.1903L81.5582 20.3365C82.5639 20.8696 83.1643 21.8676 83.1643 23.0063C83.1643 24.1449 82.5639 25.1428 81.5586 25.6756L62.9391 35.5393L51.1016 22.0405C50.5682 21.4321 49.6426 21.3715 49.0344 21.9049C48.4262 22.4383 48.3654 23.3639 48.8988 23.9721L60.2785 36.9488L53.2332 40.6811C51.2088 41.752 48.7918 41.752 46.768 40.6815L18.4418 25.676C17.4363 25.143 16.8357 24.1449 16.8357 23.0065C16.8357 21.868 17.4361 20.8699 18.4414 20.3369L46.767 5.33147C48.7914 4.26038 51.2084 4.26038 53.232 5.33108L57.2867 7.47952C58.0016 7.85842 58.8883 7.58596 59.267 6.87112C59.6457 6.15627 59.3732 5.26956 58.6586 4.89084L54.6031 2.74202C51.7207 1.21682 48.2789 1.21682 45.3963 2.74221L17.0697 17.7483C15.1184 18.7826 13.9062 20.7975 13.9062 23.0065C13.9062 23.9137 14.1137 24.7865 14.4898 25.5739H11.0488C7.19336 25.5739 4.05664 28.7096 4.05664 32.5641V85.1903H1.46484C0.655859 85.1903 0 85.8461 0 86.6551V89.9018C0 95.1403 4.26172 99.4022 9.5002 99.4022H90.4996C95.7381 99.4022 100 95.1404 100 89.9018V86.6551C100 85.8459 99.3441 85.1901 98.5352 85.1901ZM62.6008 59.7768L64.5107 63.085C64.9055 63.7688 64.6422 64.3725 64.5107 64.6002C64.3793 64.8279 63.9881 65.3578 63.1984 65.3578H62.0029C61.2133 65.3578 60.8223 64.8279 60.6906 64.6002C60.559 64.3723 60.2959 63.7688 60.6906 63.085L62.6008 59.7768ZM64.0656 38.258L70.127 35.0471V40.8641C70.127 45.0418 67.766 48.7871 64.0656 50.5656V38.258ZM49.9998 44.4145C51.5809 44.4145 53.1623 44.033 54.6037 43.2705L61.1359 39.8102V51.699C53.1324 54.3502 44.2775 54.0526 36.4656 50.8057C32.4607 49.1412 29.873 45.2389 29.873 40.8643V35.0469L45.3971 43.2707C46.8381 44.0334 48.4187 44.4145 49.9998 44.4145ZM6.98633 32.5639C6.98633 30.3248 8.80879 28.5033 11.0488 28.5033H17.5209L24.8945 32.4096H12.3574C11.5484 32.4096 10.8926 33.0655 10.8926 33.8744V79.8197C10.8926 80.6287 11.5484 81.2846 12.3574 81.2846H20.0898C20.8988 81.2846 21.5547 80.6287 21.5547 79.8197C21.5547 79.0108 20.8988 78.3549 20.0898 78.3549H13.8223V35.3393H26.9434V40.8641C26.9434 46.4264 30.2396 51.3904 35.3414 53.511C39.9992 55.4469 44.9996 56.4149 50.0002 56.4149C53.7607 56.4149 57.5211 55.867 61.1361 54.7721V56.4545L58.1537 61.6201C57.3502 63.0117 57.3502 64.6735 58.1537 66.0651C58.9572 67.4567 60.3961 68.2875 62.0031 68.2875H63.1986C64.8057 68.2875 66.2445 67.4567 67.048 66.0651C67.8516 64.6735 67.8516 63.0117 67.048 61.6201L64.0656 56.4545V53.7487C64.2637 53.6703 64.4619 53.5928 64.6588 53.511C69.7604 51.3904 73.0566 46.4264 73.0566 40.8641V35.3393H86.1777V78.3549H25.9492C25.1402 78.3549 24.4844 79.0108 24.4844 79.8197C24.4844 80.6287 25.1402 81.2846 25.9492 81.2846H87.6426C88.4516 81.2846 89.1074 80.6287 89.1074 79.8197V33.8744C89.1074 33.0655 88.4516 32.4096 87.6426 32.4096H75.1053L82.4789 28.5033H88.951C91.191 28.5033 93.0135 30.3248 93.0135 32.5639V85.1901H6.98633V32.5639ZM59.0586 88.1205C58.5174 89.6957 57.0207 90.8311 55.2643 90.8311H44.7359C42.9793 90.8311 41.4828 89.6957 40.9414 88.1205H59.0586ZM97.0703 89.9016C97.0703 93.5246 94.1227 96.4723 90.4996 96.4723H9.5002C5.87715 96.4723 2.92969 93.5246 2.92969 89.9016V88.1197H5.50645C5.51152 88.1197 5.51641 88.1205 5.52148 88.1205H37.9193C38.5299 91.3279 41.3533 93.7608 44.7359 93.7608H55.2643C58.6467 93.7608 61.4701 91.3278 62.0807 88.1205H94.4785C94.4836 88.1205 94.4885 88.1197 94.4936 88.1197H97.0703V89.9016Z" fill="#1964AA"/>
<path d="M50.4429 72.9839C50.4429 72.1749 49.787 71.519 48.978 71.519H19.6528C18.8438 71.519 18.188 72.1749 18.188 72.9839C18.188 73.7929 18.8438 74.4487 19.6528 74.4487H48.9782C49.787 74.4487 50.4429 73.7929 50.4429 72.9839Z" fill="#E6231E"/>
<path d="M19.6528 68.2876H39.2603C40.0692 68.2876 40.7251 67.6317 40.7251 66.8228C40.7251 66.0138 40.0692 65.3579 39.2603 65.3579H19.6528C18.8438 65.3579 18.188 66.0138 18.188 66.8228C18.188 67.6317 18.8437 68.2876 19.6528 68.2876Z" fill="#E6231E"/>
</g>
<defs>
<clipPath id="clip0_116_90">
<rect width="100" height="100" fill="white" transform="translate(0 0.5)"/>
</clipPath>
</defs>
</svg>
