<svg width="101" height="101" viewBox="0 0 101 101" fill="none" xmlns="http://www.w3.org/2000/svg">
<g clip-path="url(#clip0_116_95)">
<path d="M91.014 0.5H73.852C73.0428 0.5 72.3871 1.15588 72.3871 1.96488C72.3871 2.77389 73.0428 3.42977 73.852 3.42977H91.014C92.6398 3.42977 93.9627 4.75246 93.9627 6.37829C93.9627 8.00411 92.64 9.3268 91.014 9.3268H79.9885C76.6398 9.3268 73.9155 12.0511 73.9155 15.3998C73.9155 18.7485 76.6398 21.4728 79.9885 21.4728H84.5402C86.4361 21.4728 87.9786 23.0151 87.9786 24.911C87.9786 26.807 86.4363 28.3494 84.5402 28.3494H71.9627C71.1535 28.3494 70.4978 29.0053 70.4978 29.8143C70.4978 30.6233 71.1535 31.2792 71.9627 31.2792H84.5402C88.0516 31.2792 90.9083 28.4224 90.9083 24.911C90.9083 21.3996 88.0516 18.5431 84.5402 18.5431H79.9885C78.2552 18.5431 76.8452 17.1331 76.8452 15.3998C76.8452 13.6666 78.2552 12.2566 79.9885 12.2566H91.014C94.2555 12.2566 96.8925 9.61959 96.8925 6.37829C96.8925 3.13699 94.2553 0.5 91.014 0.5V0.5Z" fill="#E6231E"/>
<path d="M25.57 20.4859C25.57 21.2949 26.2258 21.9508 27.0349 21.9508C27.8439 21.9508 28.4997 21.2949 28.4997 20.4859C28.4997 16.3811 25.1602 13.0416 21.0554 13.0416H11.9958C9.3457 13.0416 7.18978 10.8856 7.18978 8.23556C7.18978 5.58569 9.3457 3.42977 11.9958 3.42977H68.4737C69.2829 3.42977 69.9386 2.77389 69.9386 1.96488C69.9386 1.15588 69.2829 0.5 68.4737 0.5H11.9958C7.73022 0.5 4.26001 3.97021 4.26001 8.23556C4.26001 12.5011 7.73022 15.9713 11.9958 15.9713H21.0552C23.5445 15.9713 25.57 17.9966 25.57 20.4859Z" fill="#E6231E"/>
<path d="M73.9142 71.388C73.5138 70.6944 73.7523 69.8044 74.4459 69.4038L79.2722 66.6174C83.0971 64.4089 84.4122 59.5004 82.2041 55.6755L75.853 44.6754L76.3335 44.398C77.3471 43.8128 78.0724 42.8679 78.3753 41.737C78.6782 40.6063 78.5228 39.4254 77.9374 38.4119C77.3522 37.3982 76.4073 36.673 75.2766 36.3701C74.1461 36.0671 72.965 36.2226 71.9515 36.8078L71.471 37.0851L57.8119 13.4276C57.1167 12.2235 55.9944 11.3621 54.6514 11.0024C53.3082 10.6424 51.9054 10.8274 50.7017 11.5225L45.7512 14.3806C43.8654 15.4693 42.9702 17.6908 43.5745 19.7827L44.8291 24.1266C44.9271 24.4662 44.7463 24.6539 44.5773 24.7514C44.4084 24.849 44.1552 24.9119 43.9101 24.657L40.7756 21.3987C39.266 19.8294 36.8945 19.494 35.0087 20.5827L20.9024 28.7269C18.417 30.1619 17.5623 33.3514 18.9973 35.837L32.6561 59.4947L32.1756 59.7721C30.083 60.9803 29.3636 63.6657 30.5717 65.7582C31.3824 67.1625 32.8584 67.9483 34.3741 67.9483C35.1171 67.9483 35.8696 67.7594 36.5579 67.3621L37.0384 67.0848L43.3894 78.0851C44.4591 79.938 46.1863 81.2633 48.2532 81.8172C50.3197 82.3709 52.4785 82.0867 54.3313 81.017L59.1576 78.2306C59.8514 77.8302 60.7412 78.0687 61.1416 78.7622L71.564 96.8145C72.9283 99.1776 75.4119 100.5 77.9628 100.5C79.2128 100.5 80.4793 100.182 81.6375 99.5136C85.1589 97.4805 86.3699 92.9616 84.3366 89.4401L73.9142 71.388ZM21.5347 34.3723C20.9075 33.2858 21.281 31.8914 22.3675 31.2641L36.4738 23.1199C37.1902 22.706 38.0912 22.8337 38.6645 23.4299L41.7989 26.6881C42.9273 27.861 44.6326 28.1022 46.0424 27.2886C47.452 26.4747 48.0956 24.8774 47.6438 23.3134L46.3895 18.9694C46.16 18.1748 46.4998 17.3311 47.2162 16.9176L52.167 14.0593C52.6934 13.7554 53.3066 13.6747 53.8934 13.8319C54.4805 13.9892 54.9711 14.3655 55.2749 14.8919L68.9338 38.5496L63.6253 41.6145L59.4541 34.3897C59.0494 33.6889 58.1533 33.4491 57.4531 33.8536C56.7524 34.2581 56.5124 35.154 56.9169 35.8546L61.0881 43.0794L56.7634 45.5764L52.592 38.3516C52.1875 37.6508 51.2912 37.4109 50.591 37.8154C49.8903 38.2199 49.6503 39.1158 50.0548 39.8164L54.2262 47.0412L49.9015 49.5382L45.7301 42.3134C45.3256 41.6126 44.4298 41.3725 43.729 41.7772C43.0284 42.1817 42.7884 43.0777 43.1929 43.7783L47.3643 51.0031L43.0396 53.5L38.8682 46.2752C38.4637 45.5744 37.5677 45.3344 36.8671 45.7391C36.1665 46.1436 35.9265 47.0395 36.331 47.7401L40.5022 54.9649L35.1937 58.0298L21.5347 34.3723ZM33.109 64.2935C32.7086 63.5999 32.9471 62.7098 33.6407 62.3094L71.6665 40.3551C71.6667 40.3551 71.6669 40.3549 71.6671 40.3549C71.6673 40.3549 71.6675 40.3547 71.6677 40.3545L73.4162 39.3449C73.6443 39.2133 73.8935 39.1506 74.1398 39.1506C74.6422 39.1506 75.1315 39.411 75.4002 39.8766C75.5942 40.2125 75.6457 40.604 75.5451 40.9786C75.4448 41.3534 75.2045 41.6665 74.8684 41.8606L36.8427 63.8149C36.8425 63.8149 36.8423 63.8151 36.8421 63.8151C36.8419 63.8151 36.8417 63.8153 36.8416 63.8155L35.0929 64.8251C34.3997 65.2253 33.5096 64.987 33.109 64.2935ZM80.1728 96.9764C78.0505 98.2018 75.3268 97.4719 74.1014 95.3496L63.679 77.2971C62.471 75.2049 59.7853 74.4848 57.6929 75.6932L52.8666 78.4796C51.6916 79.1579 50.3228 79.3384 49.0116 78.987C47.7008 78.6359 46.6053 77.7952 45.927 76.62L45.5185 75.9127L65.3621 64.456C66.0627 64.0515 66.3027 63.1556 65.8982 62.4549C65.4939 61.7543 64.5974 61.5143 63.8972 61.9188L44.0537 73.3756L39.576 65.6199L73.316 46.14L77.7938 53.8959L68.7604 59.1115C68.0598 59.516 67.8197 60.4119 68.2242 61.1125C68.6286 61.8133 69.5249 62.0534 70.2253 61.6487L79.2587 56.4331L79.6671 57.1403C81.0678 59.5664 80.2334 62.6796 77.8075 64.0802L72.9812 66.8666C70.8888 68.0748 70.1692 70.7601 71.3773 72.8527L81.7998 90.9049C83.0248 93.0275 82.2951 95.751 80.1728 96.9764Z" fill="#1964AA"/>
<path d="M48.5948 63.8918L47.7312 64.3904C47.0306 64.7949 46.7905 65.6908 47.195 66.3916C47.4663 66.8615 47.9587 67.1242 48.4649 67.1242C48.7134 67.1242 48.9653 67.0609 49.196 66.9277L50.0597 66.4291C50.7603 66.0246 51.0003 65.1287 50.5958 64.4279C50.1911 63.7274 49.2952 63.4873 48.5948 63.8918Z" fill="#1964AA"/>
<path d="M68.7741 55.624L69.6378 55.1254C70.3384 54.7209 70.5784 53.825 70.1739 53.1242C69.7694 52.4236 68.8732 52.1836 68.173 52.5881L67.3093 53.0867C66.6087 53.4912 66.3687 54.3871 66.7732 55.0879C67.0446 55.5578 67.5368 55.8205 68.0431 55.8205C68.2917 55.8205 68.5437 55.7572 68.7741 55.624Z" fill="#1964AA"/>
</g>
<defs>
<clipPath id="clip0_116_95">
<rect width="100" height="100" fill="white" transform="translate(0.576172 0.5)"/>
</clipPath>
</defs>
</svg>
