<svg width="94" height="57" viewBox="0 0 94 57" fill="none" xmlns="http://www.w3.org/2000/svg">
<path d="M65.6927 0.18266H0.258572C0.250435 4.77209 2.05826 9.17837 5.28739 12.4396C8.51652 15.7008 12.9047 17.5522 17.494 17.5894H86.4458L76.0743 28.1827H14.2082C14.2095 30.4508 14.6582 32.6963 15.5286 34.7908C16.399 36.8852 17.674 38.7874 19.2806 40.3884C20.8872 41.9894 22.7939 43.2577 24.8914 44.1208C26.9888 44.9839 29.236 45.4247 31.5041 45.4181H59.1916L52.1362 52.6549C55.875 54.7335 60.0404 55.9278 64.3126 56.1461C68.5847 56.3644 72.8502 55.601 76.7814 53.9143C80.7126 52.2277 84.2051 49.6627 86.9908 46.4163C89.7765 43.1699 91.7813 39.3284 92.8514 35.1866C93.9214 31.0448 94.0283 26.7129 93.1637 22.5235C92.2991 18.334 90.4861 14.3983 87.8638 11.0185C85.2415 7.63874 81.8797 4.90474 78.0364 3.02636C74.193 1.14799 69.9705 0.1752 65.6927 0.18266Z" fill="white"/>
</svg>
