<svg width="249" height="368" viewBox="0 0 249 368" fill="none" xmlns="http://www.w3.org/2000/svg">
<line opacity="0.3" x1="248.665" y1="366.89" x2="38" y2="366.89" stroke="black"/>
<line opacity="0.3" x1="38.5" y1="11.2734" x2="38.5" y2="366.389" stroke="black"/>
<path opacity="0.3" d="M29.2791 362.566C29.2791 364.04 29.0321 365.184 28.5381 365.998C28.0528 366.813 27.3248 367.22 26.3541 367.22C25.3748 367.22 24.6294 366.804 24.1181 365.972C23.6241 365.132 23.3771 363.996 23.3771 362.566C23.3771 361.145 23.6198 360.014 24.1051 359.173C24.5991 358.333 25.3401 357.912 26.3281 357.912C27.3248 357.912 28.0614 358.333 28.5381 359.173C29.0321 360.005 29.2791 361.136 29.2791 362.566ZM26.3541 366.245C26.9868 366.245 27.4461 365.942 27.7321 365.335C28.0268 364.729 28.1741 363.806 28.1741 362.566C28.1741 361.336 28.0224 360.417 27.7191 359.81C27.4244 359.195 26.9608 358.887 26.3281 358.887C25.0974 358.887 24.4821 360.114 24.4821 362.566C24.4821 365.019 25.1061 366.245 26.3541 366.245Z" fill="black"/>
<path opacity="0.3" d="M4.06155 301.313L3.51555 300.468L5.69955 298.778H6.42755V307.93H5.38755V300.273L4.06155 301.313ZM14.6033 303.38C14.6033 304.853 14.3563 305.997 13.8623 306.812C13.377 307.626 12.649 308.034 11.6783 308.034C10.699 308.034 9.95366 307.618 9.44233 306.786C8.94833 305.945 8.70133 304.81 8.70133 303.38C8.70133 301.958 8.94399 300.827 9.42933 299.987C9.92333 299.146 10.6643 298.726 11.6523 298.726C12.649 298.726 13.3857 299.146 13.8623 299.987C14.3563 300.819 14.6033 301.95 14.6033 303.38ZM11.6783 307.059C12.311 307.059 12.7703 306.755 13.0563 306.149C13.351 305.542 13.4983 304.619 13.4983 303.38C13.4983 302.149 13.3467 301.23 13.0433 300.624C12.7487 300.008 12.285 299.701 11.6523 299.701C10.4217 299.701 9.80633 300.927 9.80633 303.38C9.80633 305.832 10.4303 307.059 11.6783 307.059ZM21.9412 303.38C21.9412 304.853 21.6942 305.997 21.2002 306.812C20.7149 307.626 19.9869 308.034 19.0162 308.034C18.0369 308.034 17.2916 307.618 16.7802 306.786C16.2862 305.945 16.0392 304.81 16.0392 303.38C16.0392 301.958 16.2819 300.827 16.7672 299.987C17.2612 299.146 18.0022 298.726 18.9902 298.726C19.9869 298.726 20.7236 299.146 21.2002 299.987C21.6942 300.819 21.9412 301.95 21.9412 303.38ZM19.0162 307.059C19.6489 307.059 20.1082 306.755 20.3942 306.149C20.6889 305.542 20.8362 304.619 20.8362 303.38C20.8362 302.149 20.6846 301.23 20.3812 300.624C20.0866 300.008 19.6229 299.701 18.9902 299.701C17.7596 299.701 17.1442 300.927 17.1442 303.38C17.1442 305.832 17.7682 307.059 19.0162 307.059ZM29.2791 303.38C29.2791 304.853 29.0321 305.997 28.5381 306.812C28.0528 307.626 27.3248 308.034 26.3541 308.034C25.3748 308.034 24.6294 307.618 24.1181 306.786C23.6241 305.945 23.3771 304.81 23.3771 303.38C23.3771 301.958 23.6198 300.827 24.1051 299.987C24.5991 299.146 25.3401 298.726 26.3281 298.726C27.3248 298.726 28.0614 299.146 28.5381 299.987C29.0321 300.819 29.2791 301.95 29.2791 303.38ZM26.3541 307.059C26.9868 307.059 27.4461 306.755 27.7321 306.149C28.0268 305.542 28.1741 304.619 28.1741 303.38C28.1741 302.149 28.0224 301.23 27.7191 300.624C27.4244 300.008 26.9608 299.701 26.3281 299.701C25.0974 299.701 24.4821 300.927 24.4821 303.38C24.4821 305.832 25.1061 307.059 26.3541 307.059Z" fill="black"/>
<path opacity="0.3" d="M7.26686 248.744H1.71586V247.899C2.89453 246.746 3.76119 245.828 4.31586 245.143C5.29519 243.912 5.78486 242.881 5.78486 242.049C5.78486 241.616 5.65053 241.265 5.38186 240.996C5.12186 240.719 4.76219 240.58 4.30286 240.58C3.90419 240.58 3.55319 240.71 3.24986 240.97C2.95519 241.221 2.76453 241.577 2.67786 242.036L1.79386 241.672C1.89786 241.022 2.18819 240.506 2.66486 240.125C3.15019 239.735 3.72653 239.54 4.39386 239.54C5.19119 239.54 5.80653 239.77 6.23986 240.229C6.67319 240.688 6.88986 241.226 6.88986 241.841C6.88986 243.011 6.33086 244.255 5.21286 245.572C4.71019 246.161 4.30719 246.603 4.00386 246.898C3.74386 247.158 3.43186 247.448 3.06786 247.769H7.26686V248.744ZM14.6033 244.194C14.6033 245.667 14.3563 246.811 13.8623 247.626C13.377 248.441 12.649 248.848 11.6783 248.848C10.699 248.848 9.95366 248.432 9.44233 247.6C8.94833 246.759 8.70133 245.624 8.70133 244.194C8.70133 242.773 8.94399 241.642 9.42933 240.801C9.92333 239.96 10.6643 239.54 11.6523 239.54C12.649 239.54 13.3857 239.96 13.8623 240.801C14.3563 241.633 14.6033 242.764 14.6033 244.194ZM11.6783 247.873C12.311 247.873 12.7703 247.57 13.0563 246.963C13.351 246.356 13.4983 245.433 13.4983 244.194C13.4983 242.963 13.3467 242.045 13.0433 241.438C12.7487 240.823 12.285 240.515 11.6523 240.515C10.4217 240.515 9.80633 241.741 9.80633 244.194C9.80633 246.647 10.4303 247.873 11.6783 247.873ZM21.9412 244.194C21.9412 245.667 21.6942 246.811 21.2002 247.626C20.7149 248.441 19.9869 248.848 19.0162 248.848C18.0369 248.848 17.2916 248.432 16.7802 247.6C16.2862 246.759 16.0392 245.624 16.0392 244.194C16.0392 242.773 16.2819 241.642 16.7672 240.801C17.2612 239.96 18.0022 239.54 18.9902 239.54C19.9869 239.54 20.7236 239.96 21.2002 240.801C21.6942 241.633 21.9412 242.764 21.9412 244.194ZM19.0162 247.873C19.6489 247.873 20.1082 247.57 20.3942 246.963C20.6889 246.356 20.8362 245.433 20.8362 244.194C20.8362 242.963 20.6846 242.045 20.3812 241.438C20.0866 240.823 19.6229 240.515 18.9902 240.515C17.7596 240.515 17.1442 241.741 17.1442 244.194C17.1442 246.647 17.7682 247.873 19.0162 247.873ZM29.2791 244.194C29.2791 245.667 29.0321 246.811 28.5381 247.626C28.0528 248.441 27.3248 248.848 26.3541 248.848C25.3748 248.848 24.6294 248.432 24.1181 247.6C23.6241 246.759 23.3771 245.624 23.3771 244.194C23.3771 242.773 23.6198 241.642 24.1051 240.801C24.5991 239.96 25.3401 239.54 26.3281 239.54C27.3248 239.54 28.0614 239.96 28.5381 240.801C29.0321 241.633 29.2791 242.764 29.2791 244.194ZM26.3541 247.873C26.9868 247.873 27.4461 247.57 27.7321 246.963C28.0268 246.356 28.1741 245.433 28.1741 244.194C28.1741 242.963 28.0224 242.045 27.7191 241.438C27.4244 240.823 26.9608 240.515 26.3281 240.515C25.0974 240.515 24.4821 241.741 24.4821 244.194C24.4821 246.647 25.1061 247.873 26.3541 247.873Z" fill="black"/>
<path opacity="0.3" d="M4.27838 189.688C3.63705 189.688 3.07372 189.554 2.58838 189.285C2.11172 189.016 1.75638 188.631 1.52238 188.128L2.12038 187.387C2.32838 187.786 2.62305 188.098 3.00438 188.323C3.38572 188.54 3.79738 188.648 4.23938 188.648C4.78538 188.648 5.21872 188.496 5.53938 188.193C5.86872 187.89 6.03338 187.495 6.03338 187.01C6.03338 186.525 5.86005 186.139 5.51338 185.853C5.17538 185.567 4.72905 185.424 4.17438 185.424H3.45938V184.384H4.10938C4.53405 184.384 4.89805 184.237 5.20138 183.942C5.52205 183.647 5.68238 183.27 5.68238 182.811C5.68238 182.36 5.54805 182.009 5.27938 181.758C5.01938 181.498 4.65972 181.368 4.20038 181.368C3.37705 181.368 2.75305 181.745 2.32838 182.499L1.74338 181.784C1.95138 181.325 2.27638 180.969 2.71838 180.718C3.16905 180.458 3.68905 180.328 4.27838 180.328C5.04105 180.328 5.64772 180.536 6.09838 180.952C6.55772 181.368 6.78738 181.927 6.78738 182.629C6.78738 183.132 6.66605 183.574 6.42338 183.955C6.18072 184.336 5.82972 184.622 5.37038 184.813V184.852C5.90772 184.939 6.33672 185.186 6.65738 185.593C6.97805 186 7.13838 186.486 7.13838 187.049C7.13838 187.846 6.86972 188.488 6.33238 188.973C5.80372 189.45 5.11905 189.688 4.27838 189.688ZM14.6033 185.008C14.6033 186.481 14.3563 187.625 13.8623 188.44C13.377 189.255 12.649 189.662 11.6783 189.662C10.699 189.662 9.95366 189.246 9.44233 188.414C8.94833 187.573 8.70133 186.438 8.70133 185.008C8.70133 183.587 8.94399 182.456 9.42933 181.615C9.92333 180.774 10.6643 180.354 11.6523 180.354C12.649 180.354 13.3857 180.774 13.8623 181.615C14.3563 182.447 14.6033 183.578 14.6033 185.008ZM11.6783 188.687C12.311 188.687 12.7703 188.384 13.0563 187.777C13.351 187.17 13.4983 186.247 13.4983 185.008C13.4983 183.777 13.3467 182.859 13.0433 182.252C12.7487 181.637 12.285 181.329 11.6523 181.329C10.4217 181.329 9.80633 182.555 9.80633 185.008C9.80633 187.461 10.4303 188.687 11.6783 188.687ZM21.9412 185.008C21.9412 186.481 21.6942 187.625 21.2002 188.44C20.7149 189.255 19.9869 189.662 19.0162 189.662C18.0369 189.662 17.2916 189.246 16.7802 188.414C16.2862 187.573 16.0392 186.438 16.0392 185.008C16.0392 183.587 16.2819 182.456 16.7672 181.615C17.2612 180.774 18.0022 180.354 18.9902 180.354C19.9869 180.354 20.7236 180.774 21.2002 181.615C21.6942 182.447 21.9412 183.578 21.9412 185.008ZM19.0162 188.687C19.6489 188.687 20.1082 188.384 20.3942 187.777C20.6889 187.17 20.8362 186.247 20.8362 185.008C20.8362 183.777 20.6846 182.859 20.3812 182.252C20.0866 181.637 19.6229 181.329 18.9902 181.329C17.7596 181.329 17.1442 182.555 17.1442 185.008C17.1442 187.461 17.7682 188.687 19.0162 188.687ZM29.2791 185.008C29.2791 186.481 29.0321 187.625 28.5381 188.44C28.0528 189.255 27.3248 189.662 26.3541 189.662C25.3748 189.662 24.6294 189.246 24.1181 188.414C23.6241 187.573 23.3771 186.438 23.3771 185.008C23.3771 183.587 23.6198 182.456 24.1051 181.615C24.5991 180.774 25.3401 180.354 26.3281 180.354C27.3248 180.354 28.0614 180.774 28.5381 181.615C29.0321 182.447 29.2791 183.578 29.2791 185.008ZM26.3541 188.687C26.9868 188.687 27.4461 188.384 27.7321 187.777C28.0268 187.17 28.1741 186.247 28.1741 185.008C28.1741 183.777 28.0224 182.859 27.7191 182.252C27.4244 181.637 26.9608 181.329 26.3281 181.329C25.0974 181.329 24.4821 182.555 24.4821 185.008C24.4821 187.461 25.1061 188.687 26.3541 188.687Z" fill="black"/>
<path opacity="0.3" d="M6.33787 130.372H5.29787V128.097H1.09887V127.356L4.86887 121.272H6.06487L2.46387 127.057H5.29787V124.522H6.33787V127.057H7.59887V128.097H6.33787V130.372ZM14.6033 125.822C14.6033 127.295 14.3563 128.439 13.8623 129.254C13.377 130.069 12.649 130.476 11.6783 130.476C10.699 130.476 9.95366 130.06 9.44233 129.228C8.94833 128.387 8.70133 127.252 8.70133 125.822C8.70133 124.401 8.94399 123.27 9.42933 122.429C9.92333 121.588 10.6643 121.168 11.6523 121.168C12.649 121.168 13.3857 121.588 13.8623 122.429C14.3563 123.261 14.6033 124.392 14.6033 125.822ZM11.6783 129.501C12.311 129.501 12.7703 129.198 13.0563 128.591C13.351 127.984 13.4983 127.061 13.4983 125.822C13.4983 124.591 13.3467 123.673 13.0433 123.066C12.7487 122.451 12.285 122.143 11.6523 122.143C10.4217 122.143 9.80633 123.369 9.80633 125.822C9.80633 128.275 10.4303 129.501 11.6783 129.501ZM21.9412 125.822C21.9412 127.295 21.6942 128.439 21.2002 129.254C20.7149 130.069 19.9869 130.476 19.0162 130.476C18.0369 130.476 17.2916 130.06 16.7802 129.228C16.2862 128.387 16.0392 127.252 16.0392 125.822C16.0392 124.401 16.2819 123.27 16.7672 122.429C17.2612 121.588 18.0022 121.168 18.9902 121.168C19.9869 121.168 20.7236 121.588 21.2002 122.429C21.6942 123.261 21.9412 124.392 21.9412 125.822ZM19.0162 129.501C19.6489 129.501 20.1082 129.198 20.3942 128.591C20.6889 127.984 20.8362 127.061 20.8362 125.822C20.8362 124.591 20.6846 123.673 20.3812 123.066C20.0866 122.451 19.6229 122.143 18.9902 122.143C17.7596 122.143 17.1442 123.369 17.1442 125.822C17.1442 128.275 17.7682 129.501 19.0162 129.501ZM29.2791 125.822C29.2791 127.295 29.0321 128.439 28.5381 129.254C28.0528 130.069 27.3248 130.476 26.3541 130.476C25.3748 130.476 24.6294 130.06 24.1181 129.228C23.6241 128.387 23.3771 127.252 23.3771 125.822C23.3771 124.401 23.6198 123.27 24.1051 122.429C24.5991 121.588 25.3401 121.168 26.3281 121.168C27.3248 121.168 28.0614 121.588 28.5381 122.429C29.0321 123.261 29.2791 124.392 29.2791 125.822ZM26.3541 129.501C26.9868 129.501 27.4461 129.198 27.7321 128.591C28.0268 127.984 28.1741 127.061 28.1741 125.822C28.1741 124.591 28.0224 123.673 27.7191 123.066C27.4244 122.451 26.9608 122.143 26.3281 122.143C25.0974 122.143 24.4821 123.369 24.4821 125.822C24.4821 128.275 25.1061 129.501 26.3541 129.501Z" fill="black"/>
<path opacity="0.3" d="M2.5702 66.662L3.1422 62.086H7.2502V63.126H4.0522L3.7142 65.583C3.9222 65.5224 4.16487 65.492 4.4422 65.492C5.28287 65.492 5.97187 65.752 6.5092 66.272C7.04654 66.7834 7.3152 67.4637 7.3152 68.313C7.3152 69.223 7.0292 69.951 6.4572 70.497C5.8852 71.043 5.1832 71.316 4.3512 71.316C3.81387 71.316 3.30687 71.1947 2.8302 70.952C2.35354 70.7094 1.98954 70.3714 1.7382 69.938L2.3362 69.171C2.5442 69.509 2.83454 69.7777 3.2072 69.977C3.58854 70.1764 3.97854 70.276 4.3772 70.276C4.8972 70.276 5.33054 70.094 5.6772 69.73C6.03254 69.3574 6.2102 68.898 6.2102 68.352C6.2102 67.7974 6.00654 67.338 5.5992 66.974C5.20054 66.61 4.66754 66.428 4.0002 66.428C3.4542 66.428 2.97754 66.506 2.5702 66.662ZM14.6033 66.636C14.6033 68.1094 14.3563 69.2534 13.8623 70.068C13.377 70.8827 12.649 71.29 11.6783 71.29C10.699 71.29 9.95366 70.874 9.44233 70.042C8.94833 69.2014 8.70133 68.066 8.70133 66.636C8.70133 65.2147 8.94399 64.0837 9.42933 63.243C9.92333 62.4024 10.6643 61.982 11.6523 61.982C12.649 61.982 13.3857 62.4024 13.8623 63.243C14.3563 64.075 14.6033 65.206 14.6033 66.636ZM11.6783 70.315C12.311 70.315 12.7703 70.0117 13.0563 69.405C13.351 68.7984 13.4983 67.8754 13.4983 66.636C13.4983 65.4054 13.3467 64.4867 13.0433 63.88C12.7487 63.2647 12.285 62.957 11.6523 62.957C10.4217 62.957 9.80633 64.1834 9.80633 66.636C9.80633 69.0887 10.4303 70.315 11.6783 70.315ZM21.9412 66.636C21.9412 68.1094 21.6942 69.2534 21.2002 70.068C20.7149 70.8827 19.9869 71.29 19.0162 71.29C18.0369 71.29 17.2916 70.874 16.7802 70.042C16.2862 69.2014 16.0392 68.066 16.0392 66.636C16.0392 65.2147 16.2819 64.0837 16.7672 63.243C17.2612 62.4024 18.0022 61.982 18.9902 61.982C19.9869 61.982 20.7236 62.4024 21.2002 63.243C21.6942 64.075 21.9412 65.206 21.9412 66.636ZM19.0162 70.315C19.6489 70.315 20.1082 70.0117 20.3942 69.405C20.6889 68.7984 20.8362 67.8754 20.8362 66.636C20.8362 65.4054 20.6846 64.4867 20.3812 63.88C20.0866 63.2647 19.6229 62.957 18.9902 62.957C17.7596 62.957 17.1442 64.1834 17.1442 66.636C17.1442 69.0887 17.7682 70.315 19.0162 70.315ZM29.2791 66.636C29.2791 68.1094 29.0321 69.2534 28.5381 70.068C28.0528 70.8827 27.3248 71.29 26.3541 71.29C25.3748 71.29 24.6294 70.874 24.1181 70.042C23.6241 69.2014 23.3771 68.066 23.3771 66.636C23.3771 65.2147 23.6198 64.0837 24.1051 63.243C24.5991 62.4024 25.3401 61.982 26.3281 61.982C27.3248 61.982 28.0614 62.4024 28.5381 63.243C29.0321 64.075 29.2791 65.206 29.2791 66.636ZM26.3541 70.315C26.9868 70.315 27.4461 70.0117 27.7321 69.405C28.0268 68.7984 28.1741 67.8754 28.1741 66.636C28.1741 65.4054 28.0224 64.4867 27.7191 63.88C27.4244 63.2647 26.9608 62.957 26.3281 62.957C25.0974 62.957 24.4821 64.1834 24.4821 66.636C24.4821 69.0887 25.1061 70.315 26.3541 70.315Z" fill="black"/>
<path opacity="0.3" d="M1.43809 8.776C1.43809 7.996 1.56809 7.24633 1.82809 6.527C2.09675 5.80767 2.45209 5.19667 2.89409 4.694C3.80409 3.66267 4.79209 3.02133 5.85809 2.77L6.28709 3.563C5.42909 3.77967 4.65342 4.24333 3.96009 4.954C3.29275 5.64733 2.85942 6.53133 2.66009 7.606C3.09342 6.8 3.80842 6.397 4.80509 6.397C5.55909 6.397 6.17875 6.657 6.66409 7.177C7.15809 7.697 7.40509 8.36867 7.40509 9.192C7.40509 10.0413 7.12342 10.7477 6.56009 11.311C6.00542 11.857 5.35109 12.13 4.59709 12.13C3.61775 12.13 2.84642 11.8093 2.28309 11.168C1.71975 10.5093 1.43809 9.712 1.43809 8.776ZM2.54309 8.776C2.54309 9.426 2.72075 9.97633 3.07609 10.427C3.43142 10.869 3.93409 11.09 4.58409 11.09C5.06942 11.09 5.47675 10.9123 5.80609 10.557C6.13542 10.1843 6.30009 9.75533 6.30009 9.27C6.30009 8.70667 6.13542 8.25167 5.80609 7.905C5.48542 7.54967 5.03475 7.372 4.45409 7.372C3.99475 7.372 3.59175 7.50633 3.24509 7.775C2.90709 8.04367 2.67309 8.37733 2.54309 8.776ZM14.6033 7.45C14.6033 8.92333 14.3563 10.0673 13.8623 10.882C13.377 11.6967 12.649 12.104 11.6783 12.104C10.699 12.104 9.95366 11.688 9.44233 10.856C8.94833 10.0153 8.70133 8.88 8.70133 7.45C8.70133 6.02867 8.94399 4.89767 9.42933 4.057C9.92333 3.21633 10.6643 2.796 11.6523 2.796C12.649 2.796 13.3857 3.21633 13.8623 4.057C14.3563 4.889 14.6033 6.02 14.6033 7.45ZM11.6783 11.129C12.311 11.129 12.7703 10.8257 13.0563 10.219C13.351 9.61233 13.4983 8.68933 13.4983 7.45C13.4983 6.21933 13.3467 5.30067 13.0433 4.694C12.7487 4.07867 12.285 3.771 11.6523 3.771C10.4217 3.771 9.80633 4.99733 9.80633 7.45C9.80633 9.90267 10.4303 11.129 11.6783 11.129ZM21.9412 7.45C21.9412 8.92333 21.6942 10.0673 21.2002 10.882C20.7149 11.6967 19.9869 12.104 19.0162 12.104C18.0369 12.104 17.2916 11.688 16.7802 10.856C16.2862 10.0153 16.0392 8.88 16.0392 7.45C16.0392 6.02867 16.2819 4.89767 16.7672 4.057C17.2612 3.21633 18.0022 2.796 18.9902 2.796C19.9869 2.796 20.7236 3.21633 21.2002 4.057C21.6942 4.889 21.9412 6.02 21.9412 7.45ZM19.0162 11.129C19.6489 11.129 20.1082 10.8257 20.3942 10.219C20.6889 9.61233 20.8362 8.68933 20.8362 7.45C20.8362 6.21933 20.6846 5.30067 20.3812 4.694C20.0866 4.07867 19.6229 3.771 18.9902 3.771C17.7596 3.771 17.1442 4.99733 17.1442 7.45C17.1442 9.90267 17.7682 11.129 19.0162 11.129ZM29.2791 7.45C29.2791 8.92333 29.0321 10.0673 28.5381 10.882C28.0528 11.6967 27.3248 12.104 26.3541 12.104C25.3748 12.104 24.6294 11.688 24.1181 10.856C23.6241 10.0153 23.3771 8.88 23.3771 7.45C23.3771 6.02867 23.6198 4.89767 24.1051 4.057C24.5991 3.21633 25.3401 2.796 26.3281 2.796C27.3248 2.796 28.0614 3.21633 28.5381 4.057C29.0321 4.889 29.2791 6.02 29.2791 7.45ZM26.3541 11.129C26.9868 11.129 27.4461 10.8257 27.7321 10.219C28.0268 9.61233 28.1741 8.68933 28.1741 7.45C28.1741 6.21933 28.0224 5.30067 27.7191 4.694C27.4244 4.07867 26.9608 3.771 26.3281 3.771C25.0974 3.771 24.4821 4.99733 24.4821 7.45C24.4821 9.90267 25.1061 11.129 26.3541 11.129Z" fill="black"/>
<line opacity="0.3" x1="248.665" y1="307.703" x2="38" y2="307.703" stroke="black"/>
<line opacity="0.3" x1="248.665" y1="248.518" x2="38" y2="248.518" stroke="black"/>
<line opacity="0.3" x1="248.665" y1="189.332" x2="38" y2="189.332" stroke="black"/>
<line opacity="0.3" x1="248.665" y1="130.146" x2="38" y2="130.146" stroke="black"/>
<line opacity="0.3" x1="248.665" y1="70.9595" x2="38" y2="70.9595" stroke="black"/>
<line opacity="0.3" x1="248.665" y1="11.7734" x2="38" y2="11.7734" stroke="black"/>
<rect x="57.8271" y="51.6211" width="40.2974" height="314.769" fill="#1964AA"/>
<rect x="117.952" y="286.521" width="40.2974" height="79.869" fill="#E6231E"/>
<rect x="178.077" y="299.518" width="40.2974" height="66.8725" fill="#5A5FA0"/>
</svg>
