<svg width="65" height="66" viewBox="0 0 65 66" fill="none" xmlns="http://www.w3.org/2000/svg">
<path d="M62.9688 23.6973H58.9062C58.6369 23.6973 58.3786 23.8043 58.1881 23.9947C57.9976 24.1852 57.8906 24.4435 57.8906 24.7129V29.791H55.8594V26.7441C55.8578 25.3978 55.3222 24.1071 54.3702 23.1551C53.4183 22.2032 52.1276 21.6676 50.7812 21.666H40.625V17.6035H47.7344C48.5425 17.6035 49.3174 17.2825 49.8888 16.7111C50.4602 16.1397 50.7812 15.3647 50.7812 14.5566V12.5254C50.7812 11.7173 50.4602 10.9423 49.8888 10.3709C49.3174 9.79952 48.5425 9.47852 47.7344 9.47852H17.2656C16.4575 9.47852 15.6826 9.79952 15.1112 10.3709C14.5398 10.9423 14.2188 11.7173 14.2188 12.5254V14.5566C14.2188 15.3647 14.5398 16.1397 15.1112 16.7111C15.6826 17.2825 16.4575 17.6035 17.2656 17.6035H24.375V21.666H16.25C14.9037 21.6676 13.613 22.2032 12.661 23.1551C11.709 24.1071 11.1735 25.3978 11.1719 26.7441V29.791H9.14062V26.7441C9.14062 25.9361 8.81962 25.1611 8.24822 24.5897C7.67682 24.0183 6.90183 23.6973 6.09375 23.6973H4.0625C3.25442 23.6973 2.47943 24.0183 1.90803 24.5897C1.33663 25.1611 1.01563 25.9361 1.01562 26.7441V42.9941C1.01563 43.8022 1.33663 44.5772 1.90803 45.1486C2.47943 45.72 3.25442 46.041 4.0625 46.041H6.09375C6.90183 46.041 7.67682 45.72 8.24822 45.1486C8.81962 44.5772 9.14062 43.8022 9.14062 42.9941V39.9473H11.1719V42.9941C11.1735 44.3404 11.709 45.6312 12.661 46.5831C13.613 47.5351 14.9037 48.0707 16.25 48.0723H23.3594V51.1191C23.361 52.4654 23.8965 53.7562 24.8485 54.7081C25.8005 55.6601 27.0912 56.1957 28.4375 56.1973H50.7812C52.1276 56.1957 53.4183 55.6601 54.3702 54.7081C55.3222 53.7562 55.8578 52.4654 55.8594 51.1191V39.9473H57.8906V45.0254C57.8906 45.2948 57.9976 45.5531 58.1881 45.7435C58.3786 45.934 58.6369 46.041 58.9062 46.041H62.9688C63.2381 46.041 63.4964 45.934 63.6869 45.7435C63.8774 45.5531 63.9844 45.2948 63.9844 45.0254V24.7129C63.9844 24.4435 63.8774 24.1852 63.6869 23.9947C63.4964 23.8043 63.2381 23.6973 62.9688 23.6973ZM7.10938 42.9941C7.10938 43.2635 7.00237 43.5218 6.81191 43.7123C6.62144 43.9028 6.36311 44.0098 6.09375 44.0098H4.0625C3.79314 44.0098 3.53481 43.9028 3.34434 43.7123C3.15388 43.5218 3.04688 43.2635 3.04688 42.9941V26.7441C3.04688 26.4748 3.15388 26.2165 3.34434 26.026C3.53481 25.8355 3.79314 25.7285 4.0625 25.7285H6.09375C6.36311 25.7285 6.62144 25.8355 6.81191 26.026C7.00237 26.2165 7.10938 26.4748 7.10938 26.7441V42.9941ZM9.14062 37.916V31.8223H11.1719V37.916H9.14062ZM16.25 14.5566V12.5254C16.25 12.256 16.357 11.9977 16.5475 11.8072C16.7379 11.6168 16.9963 11.5098 17.2656 11.5098H47.7344C48.0037 11.5098 48.2621 11.6168 48.4525 11.8072C48.643 11.9977 48.75 12.256 48.75 12.5254V14.5566C48.75 14.826 48.643 15.0843 48.4525 15.2748C48.2621 15.4653 48.0037 15.5723 47.7344 15.5723H17.2656C16.9963 15.5723 16.7379 15.4653 16.5475 15.2748C16.357 15.0843 16.25 14.826 16.25 14.5566ZM26.4062 17.6035H38.5938V21.666H26.4062V17.6035ZM53.8281 51.1191C53.8281 51.9272 53.5071 52.7022 52.9357 53.2736C52.3643 53.845 51.5893 54.166 50.7812 54.166H28.4375C27.6294 54.166 26.8544 53.845 26.283 53.2736C25.7116 52.7022 25.3906 51.9272 25.3906 51.1191V47.0566C25.3906 46.7873 25.2836 46.529 25.0932 46.3385C24.9027 46.148 24.6444 46.041 24.375 46.041H16.25C15.4419 46.041 14.6669 45.72 14.0955 45.1486C13.5241 44.5772 13.2031 43.8022 13.2031 42.9941V26.7441C13.2031 25.9361 13.5241 25.1611 14.0955 24.5897C14.6669 24.0183 15.4419 23.6973 16.25 23.6973H50.7812C51.5893 23.6973 52.3643 24.0183 52.9357 24.5897C53.5071 25.1611 53.8281 25.9361 53.8281 26.7441V51.1191ZM55.8594 37.916V31.8223H57.8906V37.916H55.8594ZM61.9531 44.0098H59.9219V25.7285H61.9531V44.0098Z" fill="white"/>
<path d="M27.4219 29.791C26.4175 29.791 25.4357 30.0888 24.6006 30.6468C23.7655 31.2048 23.1147 31.9979 22.7303 32.9258C22.346 33.8537 22.2454 34.8748 22.4413 35.8598C22.6373 36.8449 23.1209 37.7497 23.8311 38.4599C24.5413 39.1701 25.4461 39.6538 26.4312 39.8497C27.4162 40.0456 28.4373 39.9451 29.3652 39.5607C30.2931 39.1764 31.0862 38.5255 31.6442 37.6904C32.2022 36.8553 32.5 35.8735 32.5 34.8691C32.4984 33.5228 31.9629 32.2321 31.0109 31.2801C30.0589 30.3282 28.7682 29.7926 27.4219 29.791V29.791ZM27.4219 37.916C26.8193 37.916 26.2302 37.7373 25.7291 37.4025C25.2281 37.0677 24.8375 36.5919 24.6069 36.0351C24.3763 35.4784 24.316 34.8658 24.4335 34.2747C24.5511 33.6837 24.8413 33.1408 25.2674 32.7147C25.6935 32.2886 26.2364 31.9984 26.8275 31.8808C27.4185 31.7632 28.0311 31.8236 28.5879 32.0542C29.1446 32.2848 29.6205 32.6753 29.9553 33.1764C30.2901 33.6774 30.4688 34.2665 30.4688 34.8691C30.4688 35.6772 30.1477 36.4522 29.5763 37.0236C29.0049 37.595 28.23 37.916 27.4219 37.916Z" fill="white"/>
<path d="M48.3093 42.2589L35.7267 31.0748C35.0288 29.5186 33.9112 28.1877 32.4992 27.2311C31.0872 26.2746 29.4366 25.7304 27.7326 25.6595C26.0285 25.5887 24.3385 25.9939 22.8519 26.8299C21.3653 27.6658 20.141 28.8994 19.3163 30.3923C18.4917 31.8851 18.0992 33.5782 18.183 35.2817C18.2667 36.9851 18.8234 38.6315 19.7906 40.0363C20.7577 41.441 22.0971 42.5485 23.6586 43.2346C25.22 43.9207 26.9417 44.1582 28.6305 43.9204L42.9508 50.4306C43.4671 51.0115 44.1103 51.4657 44.8304 51.7579C45.5505 52.0502 46.3283 52.1726 47.1034 52.1158C47.8784 52.059 48.63 51.8245 49.2999 51.4304C49.9697 51.0363 50.5398 50.4932 50.9659 49.8433C51.392 49.1933 51.6627 48.454 51.757 47.6826C51.8513 46.9111 51.7666 46.1284 51.5096 45.3949C51.2526 44.6615 50.8302 43.9971 50.275 43.4532C49.7198 42.9094 49.0468 42.5007 48.3082 42.2589H48.3093ZM20.3125 34.8692C20.3125 33.4631 20.7295 32.0886 21.5107 30.9194C22.2919 29.7503 23.4022 28.8391 24.7013 28.301C26.0003 27.7629 27.4298 27.6221 28.8089 27.8964C30.188 28.1707 31.4547 28.8478 32.449 29.8421C33.4433 30.8364 34.1204 32.1031 34.3947 33.4822C34.669 34.8613 34.5282 36.2908 33.9901 37.5898C33.452 38.8889 32.5408 39.9992 31.3717 40.7804C30.2025 41.5616 28.828 41.9786 27.4219 41.9786C25.5371 41.9764 23.73 41.2267 22.3972 39.8939C21.0644 38.5611 20.3147 36.7541 20.3125 34.8692V34.8692ZM31.5474 43.0145C33.0541 42.2525 34.3202 41.088 35.2055 39.6502C36.0907 38.2125 36.5604 36.5576 36.5625 34.8692C36.5625 34.7514 36.5493 34.6366 36.5453 34.5198L45.2197 42.2305C44.0657 42.5301 43.0651 43.2496 42.4138 44.2483C41.7626 45.2469 41.5075 46.4527 41.6986 47.6295L31.5474 43.0145ZM46.7188 50.1036C46.1162 50.1036 45.5271 49.9249 45.026 49.5901C44.525 49.2553 44.1345 48.7794 43.9038 48.2227C43.6732 47.6659 43.6129 47.0533 43.7305 46.4623C43.848 45.8712 44.1382 45.3283 44.5643 44.9022C44.9904 44.4761 45.5333 44.1859 46.1244 44.0684C46.7154 43.9508 47.328 44.0111 47.8848 44.2418C48.4415 44.4724 48.9174 44.8629 49.2522 45.3639C49.587 45.865 49.7657 46.4541 49.7657 47.0567C49.7657 47.8648 49.4447 48.6398 48.8733 49.2112C48.3019 49.7826 47.5269 50.1036 46.7188 50.1036Z" fill="white"/>
</svg>
