<svg width="65" height="66" viewBox="0 0 65 66" fill="none" xmlns="http://www.w3.org/2000/svg">
<g clip-path="url(#clip0_34_210)">
<path d="M28.8818 19C29.4428 19 29.8975 18.5453 29.8975 17.9844C29.8975 17.4235 29.4428 16.9688 28.8818 16.9688C28.3209 16.9688 27.8662 17.4235 27.8662 17.9844C27.8662 18.5453 28.3209 19 28.8818 19Z" fill="white"/>
<path d="M15.1709 19C15.7318 19 16.1865 18.5453 16.1865 17.9844C16.1865 17.4235 15.7318 16.9688 15.1709 16.9688C14.61 16.9688 14.1553 17.4235 14.1553 17.9844C14.1553 18.5453 14.61 19 15.1709 19Z" fill="white"/>
<path d="M15.3269 25.5168C14.8594 25.8266 14.7316 26.4569 15.0415 26.9244C16.6001 29.2759 19.2113 30.6797 22.0264 30.6797C24.8416 30.6797 27.4528 29.2759 29.0113 26.9244C29.3213 26.4569 29.1935 25.8266 28.7259 25.5168C28.2582 25.2068 27.628 25.3348 27.3183 25.8022C26.3273 27.2972 24.775 28.2839 23.0421 28.5641V24.6875C23.2102 24.6205 23.3737 24.5376 23.529 24.436L25.0997 23.409C25.878 22.9002 26.3428 22.041 26.3428 21.111C26.3428 19.597 25.1111 18.3652 23.5971 18.3652H20.4558C18.9417 18.3652 17.71 19.597 17.71 21.111C17.71 22.041 18.1748 22.9002 18.9531 23.409L20.5239 24.4362C20.6793 24.5377 20.8427 24.6205 21.0108 24.6875V28.5641C19.2779 28.2839 17.7255 27.2972 16.7346 25.8022C16.4247 25.3346 15.7947 25.2067 15.3269 25.5168V25.5168ZM20.0647 21.7089C19.8622 21.5765 19.7413 21.353 19.7413 21.111C19.7413 20.717 20.0618 20.3965 20.4558 20.3965H23.5971C23.9911 20.3965 24.3116 20.717 24.3116 21.111C24.3116 21.353 24.1907 21.5765 23.9881 21.7089V21.709L22.4176 22.7359C22.1798 22.8912 21.8729 22.8913 21.6354 22.7361L20.0647 21.7089Z" fill="white"/>
<path d="M49.1262 50.8652H45.7886C45.2277 50.8652 44.7729 51.32 44.7729 51.8809C44.7729 52.4417 45.2277 52.8965 45.7886 52.8965H49.1262C49.6871 52.8965 50.1418 52.4417 50.1418 51.8809C50.1418 51.32 49.6871 50.8652 49.1262 50.8652Z" fill="white"/>
<path d="M54.5353 56.1594C52.9599 56.1594 51.6782 57.4411 51.6782 59.0165C51.6782 60.5917 52.9599 61.8734 54.5353 61.8734C56.1107 61.8734 57.3924 60.5917 57.3924 59.0165C57.3924 57.4411 56.1107 56.1594 54.5353 56.1594ZM54.5353 59.8422C54.0799 59.8422 53.7095 59.4717 53.7095 59.0165C53.7095 58.5611 54.0799 58.1907 54.5353 58.1907C54.9907 58.1907 55.3611 58.5611 55.3611 59.0165C55.3611 59.4717 54.9907 59.8422 54.5353 59.8422Z" fill="white"/>
<path d="M35.4462 56.1594C33.8708 56.1594 32.5891 57.4411 32.5891 59.0165C32.5891 60.5917 33.8708 61.8734 35.4462 61.8734C37.0214 61.8734 38.3031 60.5917 38.3031 59.0165C38.3031 57.4411 37.0214 56.1594 35.4462 56.1594ZM35.4462 59.8422C34.9908 59.8422 34.6204 59.4717 34.6204 59.0165C34.6204 58.5611 34.9908 58.1907 35.4462 58.1907C35.9014 58.1907 36.2719 58.5611 36.2719 59.0165C36.2719 59.4717 35.9014 59.8422 35.4462 59.8422Z" fill="white"/>
<path d="M43.5449 31.3749C45.1837 31.3749 46.517 30.0416 46.517 28.4028C46.517 26.7639 45.1837 25.4307 43.5449 25.4307C41.906 25.4307 40.5728 26.7639 40.5728 28.4028C40.5728 30.0416 41.906 31.3749 43.5449 31.3749ZM43.5449 27.4619C44.0637 27.4619 44.4857 27.8839 44.4857 28.4028C44.4857 28.9216 44.0637 29.3436 43.5449 29.3436C43.026 29.3436 42.604 28.9216 42.604 28.4028C42.604 27.8839 43.026 27.4619 43.5449 27.4619Z" fill="white"/>
<path d="M36.4094 31.3749C38.0482 31.3749 39.3816 30.0416 39.3816 28.4028C39.3816 26.7639 38.0482 25.4307 36.4094 25.4307C34.7705 25.4307 33.4373 26.7639 33.4373 28.4028C33.4373 30.0416 34.7705 31.3749 36.4094 31.3749ZM36.4094 27.4619C36.9282 27.4619 37.3504 27.8839 37.3504 28.4028C37.3504 28.9216 36.9282 29.3436 36.4094 29.3436C35.8905 29.3436 35.4685 28.9216 35.4685 28.4028C35.4685 27.8839 35.8905 27.4619 36.4094 27.4619Z" fill="white"/>
<path d="M44.8135 46.3772H51.79C52.2827 46.3772 52.7479 46.1379 53.0344 45.7372C53.321 45.3365 53.3969 44.819 53.2379 44.3531L51.8987 40.4311C51.6869 39.8119 51.1052 39.396 50.451 39.396H44.8135C43.9699 39.396 43.2837 40.0822 43.2837 40.9258V44.8474C43.2837 45.691 43.9699 46.3772 44.8135 46.3772V46.3772ZM45.3149 41.4272H50.0923L51.089 44.3459H45.3149V41.4272Z" fill="white"/>
<path d="M33.0658 46.3772H39.9218C40.7653 46.3772 41.4515 45.691 41.4515 44.8474V40.9258C41.4515 40.0822 40.7653 39.396 39.9218 39.396H34.4049C33.7504 39.396 33.1686 39.8122 32.9572 40.4315L31.6183 44.353C31.4589 44.819 31.5349 45.3365 31.8216 45.7372C32.1081 46.1379 32.5733 46.3772 33.0658 46.3772V46.3772ZM34.7637 41.4272H39.4203V44.3459H33.767L34.7637 41.4272Z" fill="white"/>
<path d="M62.8563 49.2911L58.7578 47.8186L56.1304 41.3223C56.8911 40.7344 57.6233 40.0925 58.3207 39.3951C67.2123 30.5034 67.2123 16.0358 58.3207 7.14414C52.7526 1.57618 44.9986 -0.50212 37.7961 0.903539C37.0143 0.620064 36.1715 0.464844 35.293 0.464844C32.2493 0.464844 29.6334 2.32218 28.5134 4.96213C26.5201 4.11065 24.3274 3.63867 22.0264 3.63867C19.7254 3.63867 17.5327 4.11065 15.5393 4.96213C14.4194 2.32218 11.8034 0.464844 8.75978 0.464844C4.69964 0.464844 1.3965 3.76798 1.3965 7.82812C1.3965 11.0514 3.47914 13.7956 6.3689 14.7905C5.77998 16.4883 5.459 18.3103 5.459 20.2061C5.459 24.0404 6.76878 27.5744 8.96385 30.385C3.86838 33.531 0.431956 39.0524 0.110234 44.998C0.0324999 46.4337 0.479439 47.86 1.36873 49.0141C2.09103 49.9516 3.045 50.6375 4.11375 51.0242C3.35651 52.4283 2.91994 54.0668 2.91994 55.8164C2.91994 60.9966 6.7356 65.2109 11.4258 65.2109C14.0114 65.2109 16.3296 63.9285 17.8909 61.9112C19.185 62.4791 20.5769 62.789 22.0264 62.789C23.4334 62.789 24.7859 62.4964 26.0476 61.9597C27.6084 63.9489 29.9098 65.2109 32.4746 65.2109C33.0116 65.2109 33.5369 65.1552 34.0465 65.0495C34.4966 65.1539 34.9647 65.2109 35.4461 65.2109C38.556 65.2109 41.137 62.9072 41.5744 59.9168H48.4068C48.8443 62.9072 51.4255 65.2109 54.5353 65.2109C57.6452 65.2109 60.2262 62.9072 60.6637 59.9168H61.8262C63.5062 59.9168 64.8731 58.55 64.8731 56.87V52.1586C64.8731 50.8768 64.0626 49.7244 62.8563 49.2911V49.2911ZM36.4094 24.2395C37.4811 24.2395 38.4995 24.6469 39.2773 25.3867C39.6695 25.7596 40.2852 25.7598 40.6772 25.3866C41.4548 24.6469 42.4733 24.2395 43.5449 24.2395C45.8406 24.2395 47.7082 26.1071 47.7082 28.4028C47.7082 30.6985 45.8406 32.5661 43.5449 32.5661C43.0684 32.5661 42.6016 32.4864 42.1578 32.3292C41.8467 32.2191 41.5018 32.267 41.2325 32.4572C40.9632 32.6475 40.803 32.9568 40.803 33.2866V35.7887H39.1514V33.2866C39.1514 32.9568 38.9912 32.6475 38.722 32.4572C38.4528 32.267 38.1075 32.2191 37.7968 32.3292C37.3528 32.4864 36.886 32.5661 36.4094 32.5661C34.1137 32.5661 32.2461 30.6985 32.2461 28.4028C32.2461 26.1071 34.1137 24.2395 36.4094 24.2395ZM32.3966 33.1163C33.4785 34.0388 34.8796 34.5974 36.4094 34.5974C36.6481 34.5974 36.8852 34.5839 37.1202 34.557V35.7887H31.6008C31.1526 35.7887 30.7164 35.8657 30.305 36.0055C30.0037 35.6711 29.6892 35.3549 29.3625 35.0577C30.446 34.5203 31.4628 33.8679 32.3966 33.1163V33.1163ZM29.6984 39.1394C29.9936 38.3502 30.7581 37.8199 31.6008 37.8199H38.1358H41.8187H51.1532C51.9852 37.8199 52.7245 38.3183 53.0364 39.0895L56.5421 47.7579H26.4741L29.6984 39.1394ZM59.9212 12.436C64.8088 20.4331 63.7974 31.0456 56.8843 37.9587C56.3869 38.4561 55.8686 38.9196 55.3351 39.3557L54.9194 38.3279C54.2955 36.7853 52.8172 35.7887 51.1532 35.7887H49.5441C50.622 35.017 51.6371 34.1605 52.5813 33.2164C57.8461 27.9513 60.4511 20.4917 59.9212 12.436ZM57.6825 10.4804C58.8069 18.7448 56.4386 26.4863 51.1449 31.78C49.5302 33.3946 47.6983 34.7351 45.6959 35.7887H42.8343V34.557C43.0692 34.5839 43.3063 34.5974 43.5449 34.5974C46.9606 34.5974 49.7395 31.8185 49.7395 28.4028C49.7395 27.0946 49.3308 25.8807 48.6359 24.8796C51.7727 21.3393 54.4046 17.3594 56.4766 13.0111L57.6825 10.4804ZM54.6429 12.1373C52.6753 16.2663 50.1836 20.049 47.2177 23.4184C46.1893 22.6585 44.9189 22.2083 43.5449 22.2083C42.2543 22.2083 41.0158 22.605 39.9772 23.3393C39.4984 23.0008 38.9768 22.7351 38.4275 22.5458C38.5006 22.0317 38.5504 21.5103 38.5749 20.9822C38.8814 20.6571 39.1917 20.3356 39.5077 20.0196C43.4058 16.1214 47.95 12.9214 53.0139 10.5083L56.1259 9.02525L54.6429 12.1373ZM52.1401 8.67464C47.0381 11.1057 42.4434 14.3076 38.4711 18.1919C38.3279 17.016 38.061 15.8778 37.6839 14.7905C40.3949 13.8571 42.3943 11.384 42.6314 8.42018C46.3346 7.23657 50.4334 6.89191 54.6708 7.46865L52.1401 8.67464ZM42.1952 2.50576C45.7476 2.50576 49.2993 3.41009 52.4734 5.21598C48.9916 5.01386 45.6262 5.40163 42.5036 6.33395C42.2029 4.88068 41.4719 3.58347 40.4511 2.58003C41.0314 2.53124 41.6132 2.50576 42.1952 2.50576ZM35.293 2.49609C38.2331 2.49609 40.625 4.88799 40.625 7.82812C40.625 10.2088 39.0563 12.2284 36.8986 12.9113C35.4503 9.97058 33.1556 7.51896 30.3338 5.87669C31.1141 3.89946 33.0417 2.49609 35.293 2.49609V2.49609ZM3.42775 7.82812C3.42775 4.88799 5.81965 2.49609 8.75978 2.49609C11.0111 2.49609 12.9386 3.89946 13.719 5.87669C10.8972 7.51896 8.60246 9.97058 7.15418 12.9113C4.9965 12.2284 3.42775 10.2088 3.42775 7.82812V7.82812ZM22.0264 5.66992C30.0417 5.66992 36.5625 12.1908 36.5625 20.2061C36.5625 20.8855 36.5144 21.5538 36.4235 22.2086C36.4188 22.2085 36.4141 22.2083 36.4094 22.2083C32.9937 22.2083 30.2149 24.9871 30.2149 28.4028C30.2149 29.5574 30.5333 30.6386 31.0855 31.5649C28.5992 33.5521 25.4494 34.7422 22.0264 34.7422C14.0111 34.7422 7.49025 28.2213 7.49025 20.2061C7.49025 12.1908 14.0111 5.66992 22.0264 5.66992V5.66992ZM2.97771 47.7743C2.3851 47.0052 2.08706 46.0582 2.13851 45.1078C2.43085 39.7061 5.62261 34.694 10.3305 31.9287C11.5981 33.1934 13.0694 34.2537 14.6897 35.0574C11.7786 37.7071 9.83278 41.8883 9.63503 46.6332C7.96992 47.0289 6.48517 47.9644 5.33738 49.2654C4.41186 49.0684 3.5758 48.5506 2.97771 47.7743V47.7743ZM11.4258 63.1797C7.85574 63.1797 4.95119 59.8766 4.95119 55.8164C4.95119 51.7563 7.85574 48.4531 11.4258 48.4531C14.9959 48.4531 17.9004 51.7563 17.9004 55.8164C17.9004 59.8766 14.9959 63.1797 11.4258 63.1797V63.1797ZM22.0264 60.7578C20.9601 60.7578 19.9312 60.5496 18.9623 60.1642C19.5801 58.8631 19.9317 57.3846 19.9317 55.8164C19.9317 50.7294 16.2513 46.5767 11.6773 46.4289C11.9383 41.9497 13.9327 38.0825 16.7987 35.9276C18.4428 36.4758 20.2004 36.7734 22.0264 36.7734C23.8516 36.7734 25.6083 36.4758 27.2517 35.9281C27.7237 36.2827 28.1728 36.6817 28.5936 37.1244C28.253 37.4982 27.979 37.9379 27.7958 38.4278L24.0585 48.4177C24.0564 48.4232 24.0553 48.429 24.0533 48.4347C24.0438 48.4615 24.0355 48.4888 24.0282 48.5166C24.0255 48.5271 24.0225 48.5376 24.0201 48.5481C24.0136 48.5769 24.0086 48.6061 24.0046 48.6356C24.0034 48.6445 24.0015 48.6533 24.0005 48.6622C23.9965 48.6987 23.9942 48.7358 23.9942 48.7735V48.778V48.7785V55.1015C23.978 55.3376 23.9687 55.5758 23.9687 55.8164C23.9687 56.0488 23.9791 56.2784 23.9942 56.5066V56.87C23.9942 57.2504 24.0649 57.6145 24.1928 57.9506C24.3614 58.7488 24.6212 59.5084 24.9615 60.2145C24.0304 60.5677 23.0454 60.7578 22.0264 60.7578V60.7578ZM27.1026 59.9168H29.3176C29.4787 61.0179 29.931 62.0251 30.5929 62.8591C29.1535 62.3607 27.9256 61.3065 27.1026 59.9168ZM35.4461 63.1797C33.1504 63.1797 31.2827 61.3121 31.2827 59.0164C31.2827 56.7207 33.1504 54.853 35.4461 54.853C37.7418 54.853 39.6094 56.7207 39.6094 59.0164C39.6094 61.3121 37.7418 63.1797 35.4461 63.1797ZM54.5353 63.1797C52.2396 63.1797 50.3719 61.3121 50.3719 59.0164C50.3719 56.7207 52.2396 54.853 54.5353 54.853C56.831 54.853 58.6986 56.7207 58.6986 59.0164C58.6986 61.3121 56.831 63.1797 54.5353 63.1797ZM62.8418 56.87C62.8418 57.43 62.3862 57.8856 61.8262 57.8856H60.6246C60.0914 55.0083 57.5647 52.8217 54.5353 52.8217C51.5059 52.8217 48.9791 55.0083 48.4459 57.8856H41.5354C41.0022 55.0083 38.4755 52.8217 35.4461 52.8217C32.4167 52.8217 29.8899 55.0083 29.3567 57.8856H27.041C26.481 57.8856 26.0254 57.43 26.0254 56.87V49.7891H58.0485H58.2346L62.1696 51.2028C62.5717 51.3473 62.8418 51.7313 62.8418 52.1586V56.87Z" fill="white"/>
</g>
<defs>
<clipPath id="clip0_34_210">
<rect width="65" height="65" fill="white" transform="translate(0 0.337891)"/>
</clipPath>
</defs>
</svg>
