<svg width="65" height="66" viewBox="0 0 65 66" fill="none" xmlns="http://www.w3.org/2000/svg">
<g clip-path="url(#clip0_34_267)">
<path d="M37.6295 20.5945C38.2023 20.5945 38.6667 20.1301 38.6667 19.5572C38.6667 18.9844 38.2023 18.52 37.6295 18.52H37.5428V14.0676C37.5428 12.5515 36.3093 11.3179 34.793 11.3179H3.87372C2.35756 11.3179 1.12395 12.5513 1.12395 14.0676V18.52H1.03723C0.464404 18.52 0 18.9844 0 19.5572C0 20.1301 0.464404 20.5945 1.03723 20.5945H3.58883V23.0724L2.31621 23.8012C1.01732 24.545 0 26.3946 0 28.0122V60.8766C0 63.3371 2.00172 65.3388 4.46232 65.3388H34.2045C36.6651 65.3388 38.6668 63.3371 38.6668 60.8765V28.0122C38.6668 26.3947 37.6495 24.545 36.3505 23.8012L35.0779 23.0725V20.5946H37.6295V20.5945ZM36.5922 60.8765C36.5922 62.1932 35.5211 63.2644 34.2044 63.2644H4.46232C3.14558 63.2644 2.07447 62.1932 2.07447 60.8765V58.4886H36.5922V60.8765V60.8765ZM36.5922 56.4143H2.07447V36.3366H36.5922V56.4143V56.4143ZM35.3196 25.6013C35.9857 25.9827 36.5922 27.1317 36.5922 28.0121V34.2622H2.07447V28.0122C2.07447 27.1318 2.68104 25.9828 3.34709 25.6014L5.14164 24.5739C5.46429 24.3891 5.66344 24.0457 5.66344 23.6738V20.5945H33.0035V23.6738C33.0035 24.0457 33.2026 24.3891 33.5253 24.5739L35.3196 25.6013ZM3.19841 18.52V14.0676C3.19841 13.7016 3.50765 13.3923 3.87372 13.3923H7.99279V15.4083C7.99279 15.9811 8.45719 16.4455 9.03002 16.4455C9.60285 16.4455 10.0673 15.9811 10.0673 15.4083V13.3923H14.8616V15.4083C14.8616 15.9811 15.326 16.4455 15.8989 16.4455C16.4717 16.4455 16.9361 15.9811 16.9361 15.4083V13.3923H21.7305V15.4083C21.7305 15.9811 22.1949 16.4455 22.7677 16.4455C23.3405 16.4455 23.8049 15.9811 23.8049 15.4083V13.3923H28.5993V15.4083C28.5993 15.9811 29.0637 16.4455 29.6365 16.4455C30.2094 16.4455 30.6738 15.9811 30.6738 15.4083V13.3923H34.793C35.1591 13.3923 35.4683 13.7016 35.4683 14.0676V18.52H3.19841Z" fill="white"/>
<path d="M13.1281 52.6642H25.5384C29.006 52.6642 31.827 49.8432 31.827 46.3757C31.827 42.9082 29.006 40.0872 25.5384 40.0872H13.1281C9.6606 40.0872 6.8396 42.9082 6.8396 46.3757C6.8396 49.8432 9.6606 52.6642 13.1281 52.6642ZM20.3705 42.1616H25.5384C27.8621 42.1616 29.7525 44.052 29.7525 46.3757C29.7525 48.6994 27.8621 50.5898 25.5384 50.5898H20.3705V42.1616ZM13.1281 42.1616H18.2961V50.5898H13.1281C10.8045 50.5898 8.91407 48.6994 8.91407 46.3757C8.91407 44.052 10.8045 42.1616 13.1281 42.1616Z" fill="white"/>
<path d="M29.8917 22.6365H17.0729C16.5 22.6365 16.0356 23.1009 16.0356 23.6737C16.0356 24.2465 16.5 24.7109 17.0729 24.7109H29.8917C30.4645 24.7109 30.9289 24.2465 30.9289 23.6737C30.9289 23.1009 30.4645 22.6365 29.8917 22.6365Z" fill="white"/>
<path d="M12.924 22.6365H8.77503C8.2022 22.6365 7.73779 23.1009 7.73779 23.6737C7.73779 24.2465 8.2022 24.7109 8.77503 24.7109H12.924C13.4968 24.7109 13.9612 24.2465 13.9612 23.6737C13.9612 23.1009 13.4968 22.6365 12.924 22.6365Z" fill="white"/>
<path d="M42.3279 60.1527C42.3279 60.7256 42.7923 61.19 43.3651 61.19C43.9379 61.19 44.4023 60.7256 44.4023 60.1527V51.8549C44.4023 51.282 43.9379 50.8176 43.3651 50.8176C42.7923 50.8176 42.3279 51.282 42.3279 51.8549V60.1527Z" fill="white"/>
<path d="M43.3651 48.7431C43.9379 48.7431 44.4023 48.2787 44.4023 47.7059V5.52503C44.4023 4.9522 43.9379 4.48779 43.3651 4.48779C42.7923 4.48779 42.3279 4.9522 42.3279 5.52503V47.7059C42.3279 48.2787 42.7923 48.7431 43.3651 48.7431Z" fill="white"/>
<path d="M57.1862 0.338867H29.5443C25.2358 0.338867 21.7305 3.84417 21.7305 8.1527C21.7305 8.72553 22.1949 9.18993 22.7677 9.18993C23.3405 9.18993 23.8049 8.72553 23.8049 8.1527C23.8049 4.98803 26.3796 2.41334 29.5443 2.41334H57.1862C60.3508 2.41334 62.9255 4.98803 62.9255 8.1527V57.525C62.9255 60.6897 60.3508 63.2644 57.1862 63.2644H40.9734C40.4005 63.2644 39.9361 63.7288 39.9361 64.3016C39.9361 64.8745 40.4005 65.3389 40.9734 65.3389H57.1862C61.4947 65.3389 65 61.8336 65 57.525V8.1527C65 3.84417 61.4947 0.338867 57.1862 0.338867Z" fill="white"/>
<path d="M53.6641 16.609C56.456 16.609 58.7276 14.3376 58.7276 11.5455C58.7276 8.75358 56.4562 6.48218 53.6641 6.48218C50.872 6.48218 48.6006 8.75358 48.6006 11.5455C48.6006 14.3376 50.8721 16.609 53.6641 16.609ZM53.6641 8.55665C55.3122 8.55665 56.6531 9.89744 56.6531 11.5455C56.6531 13.1936 55.3123 14.5346 53.6641 14.5346C52.0159 14.5346 50.6751 13.1938 50.6751 11.5455C50.6751 9.89744 52.016 8.55665 53.6641 8.55665V8.55665Z" fill="white"/>
<path d="M53.6641 30.8046C56.456 30.8046 58.7276 28.5332 58.7276 25.7411C58.7276 22.9491 56.4562 20.6777 53.6641 20.6777C50.872 20.6777 48.6006 22.9491 48.6006 25.7411C48.6006 28.5332 50.8721 30.8046 53.6641 30.8046ZM53.6641 22.7522C55.3122 22.7522 56.6531 24.093 56.6531 25.7411C56.6531 27.3892 55.3123 28.7301 53.6641 28.7301C52.0159 28.7301 50.6751 27.3893 50.6751 25.7411C50.6751 24.093 52.016 22.7522 53.6641 22.7522Z" fill="white"/>
<path d="M53.6641 45.0002C56.456 45.0002 58.7276 42.7287 58.7276 39.9368C58.7276 37.1448 56.4562 34.8733 53.6641 34.8733C50.872 34.8733 48.6006 37.1447 48.6006 39.9368C48.6006 42.7287 50.8721 45.0002 53.6641 45.0002ZM53.6641 36.9478C55.3122 36.9478 56.6531 38.2886 56.6531 39.9368C56.6531 41.5849 55.3123 42.9257 53.6641 42.9257C52.0159 42.9257 50.6751 41.5849 50.6751 39.9368C50.6751 38.2886 52.016 36.9478 53.6641 36.9478Z" fill="white"/>
<path d="M53.6641 59.1957C56.456 59.1957 58.7276 56.9243 58.7276 54.1323C58.7276 51.3404 56.4562 49.0688 53.6641 49.0688C50.872 49.0688 48.6006 51.3402 48.6006 54.1323C48.6006 56.9243 50.8721 59.1957 53.6641 59.1957ZM53.6641 51.1433C55.3122 51.1433 56.6531 52.4841 56.6531 54.1323C56.6531 55.7804 55.3123 57.1212 53.6641 57.1212C52.0159 57.1212 50.6751 55.7804 50.6751 54.1323C50.6751 52.4841 52.016 51.1433 53.6641 51.1433Z" fill="white"/>
<path d="M31.3967 9.06589C31.8903 8.73259 32.4677 8.55654 33.0665 8.55654C33.6777 8.55654 34.265 8.73937 34.7648 9.08539C34.9449 9.21 35.1505 9.26974 35.3541 9.26974C35.683 9.26974 36.0066 9.11374 36.208 8.82276C36.5339 8.35172 36.4164 7.70559 35.9453 7.37949C35.097 6.79227 34.1014 6.48193 33.0665 6.48193C32.0524 6.48193 31.0737 6.78093 30.236 7.34643C29.7612 7.66701 29.6362 8.31161 29.9568 8.78653C30.2773 9.26144 30.9221 9.38647 31.3967 9.06589Z" fill="white"/>
</g>
<defs>
<clipPath id="clip0_34_267">
<rect width="65" height="65" fill="white" transform="translate(0 0.338867)"/>
</clipPath>
</defs>
</svg>
