<svg width="65" height="66" viewBox="0 0 65 66" fill="none" xmlns="http://www.w3.org/2000/svg">
<g clip-path="url(#clip0_34_260)">
<path d="M61.75 31.7557H58.3007C58.6007 30.9472 58.5609 30.0517 58.1904 29.2731C57.8198 28.4944 57.15 27.8988 56.3334 27.6217V18.5563C57.169 18.267 57.8489 17.6467 58.2136 16.8412C58.5783 16.0356 58.5957 15.1155 58.2617 14.2967C59.6757 13.9159 60.6605 12.6366 60.6667 11.1724V4.67236C60.6667 2.8775 59.2116 1.42236 57.4167 1.42236H3.25C1.45514 1.42224 0 2.87737 0 4.67224V11.1722C0 12.9671 1.45514 14.4222 3.25 14.4222H4.36147C1.42365 16.6061 -0.208711 20.1289 0.0247559 23.7821C0.258223 27.4353 2.32553 30.7217 5.51738 32.5139C4.77014 33.1257 4.3357 34.0398 4.33329 35.0057V45.8389C4.33685 46.2089 4.40426 46.5753 4.53261 46.9222H3.25C1.45514 46.9222 0 48.3774 0 50.1722V61.0055C0 62.8004 1.45514 64.2555 3.25 64.2555H57.4167C59.2116 64.2555 60.6667 62.8004 60.6667 61.0055V50.1722C60.6632 49.8023 60.5957 49.4359 60.4674 49.0889H61.75C63.5449 49.0889 65 47.6338 65 45.8389V35.0057C65 33.2107 63.545 31.7557 61.75 31.7557ZM48.75 46.9222H16.25V33.9222H53.0833V46.9222H48.75ZM47.6667 49.0889V62.0889H13V49.0889H47.6667ZM10.8333 27.4222C8.4401 27.4222 6.5 25.4821 6.5 23.0889C6.5 20.6958 8.4401 18.7557 10.8333 18.7557H54.1666V27.4224H10.8333V27.4222ZM58.5 4.67224V11.1722C58.5 11.7706 58.015 12.2555 57.4167 12.2555H52V3.58895H57.4167C58.015 3.58895 58.5 4.07403 58.5 4.67224ZM49.8333 3.58895V12.2557H47.6666V3.58895H49.8333ZM15.1667 12.2557V3.58895H45.5V12.2557H15.1667ZM13 3.58895V12.2557H10.8333V3.58895H13ZM2.16671 11.1722V4.67224C2.16671 4.07391 2.6518 3.58895 3.25 3.58895H8.66671V12.2557H3.25C2.65167 12.2557 2.16671 11.7706 2.16671 11.1722V11.1722ZM2.16671 23.0889C2.17204 18.3047 6.04919 14.4277 10.8334 14.4222H55.25C55.8483 14.4222 56.3333 14.9073 56.3333 15.5055C56.3333 16.1039 55.8482 16.5888 55.25 16.5888H10.8333C7.24344 16.5888 4.33329 19.499 4.33329 23.0888C4.33329 26.6787 7.24344 29.5888 10.8333 29.5888H55.25C55.8483 29.5888 56.3333 30.0739 56.3333 30.6721C56.3333 31.2704 55.8482 31.7554 55.25 31.7554H10.8333C6.04906 31.7502 2.17204 27.8732 2.16671 23.0889V23.0889ZM6.5 45.8389V35.0057C6.5 34.4073 6.98509 33.9224 7.58329 33.9224H14.0833V46.9224H7.58329C6.98509 46.9222 6.5 46.4373 6.5 45.8389V45.8389ZM2.16671 61.0057V50.1724C2.16671 49.574 2.6518 49.0891 3.25 49.0891H6.5V62.0891H3.25C2.65167 62.0889 2.16671 61.604 2.16671 61.0057ZM8.66671 62.0889V49.0889H10.8334V62.0889H8.66671ZM49.8333 62.0889V49.0889H52V62.0889H49.8333ZM58.5 50.1722V61.0055C58.5 61.6039 58.015 62.0888 57.4167 62.0888H54.1667V49.0889H57.4167C58.015 49.0889 58.5 49.574 58.5 50.1722V50.1722ZM62.8333 45.8389C62.8333 46.4373 62.3483 46.9222 61.75 46.9222H55.25V33.9222H61.75C62.3483 33.9222 62.8333 34.4072 62.8333 35.0055V45.8389Z" fill="white"/>
<path d="M47.6668 36.0889H21.6668C21.0685 36.0889 20.5835 36.574 20.5835 37.1722V43.6722C20.5835 44.2705 21.0686 44.7554 21.6668 44.7554H47.6668C48.2651 44.7554 48.7501 44.2704 48.7501 43.6722V37.1722C48.7501 36.574 48.2651 36.0889 47.6668 36.0889ZM46.5834 42.5889H22.7501V38.2556H46.5834V42.5889Z" fill="white"/>
<path d="M30.3333 59.9222C35.5507 59.9222 41.1666 58.5658 41.1666 55.5889C41.1666 52.6119 35.5506 51.2556 30.3333 51.2556C25.116 51.2556 19.5 52.6119 19.5 55.5889C19.5 58.566 25.116 59.9222 30.3333 59.9222V59.9222ZM30.3333 53.4222C36.0208 53.4222 39 55.0321 39 55.5889C39 56.1457 36.0208 57.7556 30.3333 57.7556C24.6458 57.7556 21.6666 56.1457 21.6666 55.5889C21.6667 55.0321 24.6458 53.4222 30.3333 53.4222Z" fill="white"/>
</g>
<defs>
<clipPath id="clip0_34_260">
<rect width="65" height="65" fill="white" transform="translate(0 0.338867)"/>
</clipPath>
</defs>
</svg>
