<svg width="65" height="66" viewBox="0 0 65 66" fill="none" xmlns="http://www.w3.org/2000/svg">
<g clip-path="url(#clip0_34_200)">
<path d="M63.9844 40.9639C63.715 40.9639 63.4567 41.0709 63.2662 41.2613C63.0758 41.4518 62.9688 41.7101 62.9688 41.9795C62.9688 42.2489 62.8617 42.5072 62.6713 42.6976C62.4808 42.8881 62.2225 42.9951 61.9531 42.9951H47.7344C47.465 42.9951 47.2067 42.8881 47.0162 42.6976C46.8258 42.5072 46.7188 42.2489 46.7188 41.9795V35.8857C46.7188 35.6164 46.8258 35.3581 47.0162 35.1676C47.2067 34.9771 47.465 34.8701 47.7344 34.8701C48.0037 34.8701 48.2621 34.7631 48.4525 34.5726C48.643 34.3822 48.75 34.1239 48.75 33.8545C48.75 33.5851 48.643 33.3268 48.4525 33.1363C48.2621 32.9459 48.0037 32.8389 47.7344 32.8389C46.9824 32.8415 46.2583 33.1239 45.7031 33.6311C45.1479 33.1239 44.4238 32.8415 43.6719 32.8389H12.1875C11.9181 32.8389 11.6598 32.7319 11.4693 32.5414C11.2789 32.3509 11.1719 32.0926 11.1719 31.8232V25.7295C11.1719 25.4601 11.2789 25.2018 11.4693 25.0113C11.6598 24.8209 11.9181 24.7139 12.1875 24.7139H29.4531C29.7225 24.7139 29.9808 24.6069 30.1713 24.4164C30.3617 24.2259 30.4688 23.9676 30.4688 23.6982C30.4688 23.4289 30.3617 23.1706 30.1713 22.9801C29.9808 22.7896 29.7225 22.6826 29.4531 22.6826H21.3281C21.0588 22.6826 20.8004 22.5756 20.61 22.3851C20.4195 22.1947 20.3125 21.9364 20.3125 21.667V15.5732C20.3125 15.3039 20.4195 15.0456 20.61 14.8551C20.8004 14.6646 21.0588 14.5576 21.3281 14.5576H23.3594C23.6287 14.5576 23.8871 14.4506 24.0775 14.2601C24.268 14.0697 24.375 13.8114 24.375 13.542C24.375 13.2726 24.268 13.0143 24.0775 12.8238C23.8871 12.6334 23.6287 12.5264 23.3594 12.5264H21.3281C20.5762 12.529 19.8521 12.8114 19.2969 13.3186C18.7417 12.8114 18.0176 12.529 17.2656 12.5264H3.04688C2.23879 12.5264 1.46381 12.8474 0.892409 13.4188C0.321009 13.9902 0 14.7652 0 15.5732L0 21.667C0.00264434 22.419 0.285033 23.143 0.792187 23.6982C0.285033 24.2535 0.00264434 24.9775 0 25.7295L0 31.8232C0.00264434 32.5752 0.285033 33.2993 0.792187 33.8545C0.285033 34.4097 0.00264434 35.1338 0 35.8857L0 41.9795C0.00264434 42.7315 0.285033 43.4555 0.792187 44.0107C0.285033 44.566 0.00264434 45.29 0 46.042L0 52.1357C0.00264434 52.8877 0.285033 53.6118 0.792187 54.167C0.285033 54.7222 0.00264434 55.4463 0 56.1982L0 62.292C0 63.1001 0.321009 63.8751 0.892409 64.4465C1.46381 65.0179 2.23879 65.3389 3.04688 65.3389H17.2656C18.0176 65.3362 18.7417 65.0538 19.2969 64.5467C19.8521 65.0538 20.5762 65.3362 21.3281 65.3389H43.6719C44.4238 65.3362 45.1479 65.0538 45.7031 64.5467C46.2583 65.0538 46.9824 65.3362 47.7344 65.3389H61.9531C62.7612 65.3389 63.5362 65.0179 64.1076 64.4465C64.679 63.8751 65 63.1001 65 62.292V56.1982C64.9974 55.4463 64.715 54.7222 64.2078 54.167C64.715 53.6118 64.9974 52.8877 65 52.1357V46.042C64.9974 45.29 64.715 44.566 64.2078 44.0107C64.715 43.4555 64.9974 42.7315 65 41.9795C65 41.7101 64.893 41.4518 64.7025 41.2613C64.5121 41.0709 64.2537 40.9639 63.9844 40.9639ZM61.9531 45.0264C62.2225 45.0264 62.4808 45.1334 62.6713 45.3238C62.8617 45.5143 62.9688 45.7726 62.9688 46.042V52.1357C62.9688 52.4051 62.8617 52.6634 62.6713 52.8539C62.4808 53.0444 62.2225 53.1514 61.9531 53.1514H56.875C56.6056 53.1514 56.3473 53.0444 56.1568 52.8539C55.9664 52.6634 55.8594 52.4051 55.8594 52.1357V46.042C55.8594 45.7726 55.9664 45.5143 56.1568 45.3238C56.3473 45.1334 56.6056 45.0264 56.875 45.0264H61.9531ZM52.8125 45.0264C53.0819 45.0264 53.3402 45.1334 53.5307 45.3238C53.7211 45.5143 53.8281 45.7726 53.8281 46.042V52.1357C53.8281 52.4051 53.7211 52.6634 53.5307 52.8539C53.3402 53.0444 53.0819 53.1514 52.8125 53.1514H38.5938C38.3244 53.1514 38.0661 53.0444 37.8756 52.8539C37.6851 52.6634 37.5781 52.4051 37.5781 52.1357V46.042C37.5781 45.7726 37.6851 45.5143 37.8756 45.3238C38.0661 45.1334 38.3244 45.0264 38.5938 45.0264H52.8125ZM43.6719 34.8701C43.9412 34.8701 44.1996 34.9771 44.39 35.1676C44.5805 35.3581 44.6875 35.6164 44.6875 35.8857V41.9795C44.6875 42.2489 44.5805 42.5072 44.39 42.6976C44.1996 42.8881 43.9412 42.9951 43.6719 42.9951H29.4531C29.1838 42.9951 28.9254 43.1021 28.735 43.2926C28.5445 43.4831 28.4375 43.7414 28.4375 44.0107C28.4375 44.2801 28.5445 44.5384 28.735 44.7289C28.9254 44.9194 29.1838 45.0264 29.4531 45.0264H34.5312C34.8006 45.0264 35.0589 45.1334 35.2494 45.3238C35.4399 45.5143 35.5469 45.7726 35.5469 46.042V52.1357C35.5469 52.4051 35.4399 52.6634 35.2494 52.8539C35.0589 53.0444 34.8006 53.1514 34.5312 53.1514H12.1875C11.9181 53.1514 11.6598 53.0444 11.4693 52.8539C11.2789 52.6634 11.1719 52.4051 11.1719 52.1357V46.042C11.1719 45.7726 11.2789 45.5143 11.4693 45.3238C11.6598 45.1334 11.9181 45.0264 12.1875 45.0264H25.3906C25.66 45.0264 25.9183 44.9194 26.1088 44.7289C26.2992 44.5384 26.4062 44.2801 26.4062 44.0107C26.4062 43.7414 26.2992 43.4831 26.1088 43.2926C25.9183 43.1021 25.66 42.9951 25.3906 42.9951H21.3281C21.0588 42.9951 20.8004 42.8881 20.61 42.6976C20.4195 42.5072 20.3125 42.2489 20.3125 41.9795V35.8857C20.3125 35.6164 20.4195 35.3581 20.61 35.1676C20.8004 34.9771 21.0588 34.8701 21.3281 34.8701H43.6719ZM2.03125 52.1357V46.042C2.03125 45.7726 2.13825 45.5143 2.32872 45.3238C2.51919 45.1334 2.77751 45.0264 3.04688 45.0264H8.125C8.39436 45.0264 8.65269 45.1334 8.84316 45.3238C9.03362 45.5143 9.14062 45.7726 9.14062 46.042V52.1357C9.14062 52.4051 9.03362 52.6634 8.84316 52.8539C8.65269 53.0444 8.39436 53.1514 8.125 53.1514H3.04688C2.77751 53.1514 2.51919 53.0444 2.32872 52.8539C2.13825 52.6634 2.03125 52.4051 2.03125 52.1357V52.1357ZM17.2656 34.8701C17.535 34.8701 17.7933 34.9771 17.9838 35.1676C18.1742 35.3581 18.2812 35.6164 18.2812 35.8857V41.9795C18.2812 42.2489 18.1742 42.5072 17.9838 42.6976C17.7933 42.8881 17.535 42.9951 17.2656 42.9951H3.04688C2.77751 42.9951 2.51919 42.8881 2.32872 42.6976C2.13825 42.5072 2.03125 42.2489 2.03125 41.9795V35.8857C2.03125 35.6164 2.13825 35.3581 2.32872 35.1676C2.51919 34.9771 2.77751 34.8701 3.04688 34.8701H17.2656ZM2.03125 31.8232V25.7295C2.03125 25.4601 2.13825 25.2018 2.32872 25.0113C2.51919 24.8209 2.77751 24.7139 3.04688 24.7139H8.125C8.39436 24.7139 8.65269 24.8209 8.84316 25.0113C9.03362 25.2018 9.14062 25.4601 9.14062 25.7295V31.8232C9.14062 32.0926 9.03362 32.3509 8.84316 32.5414C8.65269 32.7319 8.39436 32.8389 8.125 32.8389H3.04688C2.77751 32.8389 2.51919 32.7319 2.32872 32.5414C2.13825 32.3509 2.03125 32.0926 2.03125 31.8232V31.8232ZM2.03125 15.5732C2.03125 15.3039 2.13825 15.0456 2.32872 14.8551C2.51919 14.6646 2.77751 14.5576 3.04688 14.5576H17.2656C17.535 14.5576 17.7933 14.6646 17.9838 14.8551C18.1742 15.0456 18.2812 15.3039 18.2812 15.5732V21.667C18.2812 21.9364 18.1742 22.1947 17.9838 22.3851C17.7933 22.5756 17.535 22.6826 17.2656 22.6826H3.04688C2.77751 22.6826 2.51919 22.5756 2.32872 22.3851C2.13825 22.1947 2.03125 21.9364 2.03125 21.667V15.5732ZM17.2656 63.3076H3.04688C2.77751 63.3076 2.51919 63.2006 2.32872 63.0101C2.13825 62.8197 2.03125 62.5614 2.03125 62.292V56.1982C2.03125 55.9289 2.13825 55.6706 2.32872 55.4801C2.51919 55.2896 2.77751 55.1826 3.04688 55.1826H17.2656C17.535 55.1826 17.7933 55.2896 17.9838 55.4801C18.1742 55.6706 18.2812 55.9289 18.2812 56.1982V62.292C18.2812 62.5614 18.1742 62.8197 17.9838 63.0101C17.7933 63.2006 17.535 63.3076 17.2656 63.3076ZM43.6719 63.3076H21.3281C21.0588 63.3076 20.8004 63.2006 20.61 63.0101C20.4195 62.8197 20.3125 62.5614 20.3125 62.292V56.1982C20.3125 55.9289 20.4195 55.6706 20.61 55.4801C20.8004 55.2896 21.0588 55.1826 21.3281 55.1826H43.6719C43.9412 55.1826 44.1996 55.2896 44.39 55.4801C44.5805 55.6706 44.6875 55.9289 44.6875 56.1982V62.292C44.6875 62.5614 44.5805 62.8197 44.39 63.0101C44.1996 63.2006 43.9412 63.3076 43.6719 63.3076ZM62.9688 62.292C62.9688 62.5614 62.8617 62.8197 62.6713 63.0101C62.4808 63.2006 62.2225 63.3076 61.9531 63.3076H47.7344C47.465 63.3076 47.2067 63.2006 47.0162 63.0101C46.8258 62.8197 46.7188 62.5614 46.7188 62.292V56.1982C46.7188 55.9289 46.8258 55.6706 47.0162 55.4801C47.2067 55.2896 47.465 55.1826 47.7344 55.1826H61.9531C62.2225 55.1826 62.4808 55.2896 62.6713 55.4801C62.8617 55.6706 62.9688 55.9289 62.9688 56.1982V62.292Z" fill="white"/>
<path d="M34.328 29.4202C34.6789 30.1728 35.2077 30.8286 35.8688 31.3309C36.5299 31.8333 37.3034 32.1671 38.1224 32.3036C38.4222 32.356 38.726 32.3825 39.0304 32.3828C39.7051 32.382 40.3729 32.2473 40.9953 31.9867C41.6177 31.7261 42.1822 31.3447 42.6561 30.8645L46.5876 26.933L49.5634 29.9077L48.8108 30.6603C48.6204 30.8508 48.5135 31.1091 48.5135 31.3784C48.5135 31.6477 48.6204 31.906 48.8108 32.0964L56.164 39.4485C57.1347 40.4193 58.4514 40.9647 59.8243 40.9647C61.1971 40.9647 62.5138 40.4193 63.4846 39.4485C64.4554 38.4777 65.0007 37.1611 65.0007 35.7882C65.0007 34.4153 64.4554 33.0987 63.4846 32.1279L56.1325 24.7758C55.942 24.5854 55.6837 24.4784 55.4144 24.4784C55.1451 24.4784 54.8868 24.5854 54.6964 24.7758L53.9438 25.5284L50.969 22.5526L54.9005 18.6201C55.4842 18.0331 55.9187 17.3148 56.1677 16.5254C56.4166 15.7359 56.4727 14.8983 56.3312 14.0827C56.1898 13.2671 55.855 12.4973 55.3547 11.8377C54.8545 11.1782 54.2035 10.6481 53.4563 10.292L45.1221 6.34219C45.0011 6.28154 44.8693 6.24567 44.7343 6.23667C44.5993 6.22768 44.4639 6.24575 44.336 6.28981C44.2081 6.33388 44.0902 6.40306 43.9894 6.49329C43.8886 6.58352 43.8069 6.69299 43.7489 6.81525C43.691 6.93752 43.6581 7.07013 43.6521 7.20529C43.6462 7.34045 43.6673 7.47544 43.7142 7.60233C43.7611 7.72923 43.833 7.84546 43.9254 7.94422C44.0179 8.04298 44.1292 8.12227 44.2527 8.17743L52.5869 12.1252C53.0412 12.3416 53.437 12.6639 53.7411 13.0649C54.0452 13.4658 54.2488 13.9339 54.3347 14.4297C54.4207 14.9256 54.3865 15.4348 54.2351 15.9147C54.0836 16.3947 53.8194 16.8313 53.4644 17.1881L49.5329 21.1195L47.3107 18.8973C46.721 18.3347 45.9372 18.0208 45.1221 18.0208C44.307 18.0208 43.5232 18.3347 42.9334 18.8973C42.6459 19.1848 42.4178 19.5261 42.2622 19.9017C42.1066 20.2773 42.0265 20.6799 42.0265 21.0865C42.0265 21.4931 42.1066 21.8957 42.2622 22.2713C42.4178 22.647 42.6459 22.9882 42.9334 23.2757L45.1556 25.4979L41.2241 29.4284C40.8674 29.7833 40.4307 30.0476 39.9508 30.199C39.4709 30.3504 38.9616 30.3846 38.4658 30.2987C37.9699 30.2127 37.5019 30.0092 37.1009 29.7051C36.6999 29.401 36.3777 29.0052 36.1612 28.5509L26.7108 8.59586C26.4342 8.0098 26.3451 7.35265 26.4558 6.7141C26.5665 6.07555 26.8716 5.48672 27.3293 5.02797L29.0661 3.29126C29.5244 2.83348 30.113 2.52854 30.7513 2.41819C31.3897 2.30783 32.0465 2.39745 32.6319 2.67477L40.1902 6.25485C40.3111 6.3155 40.443 6.35137 40.578 6.36037C40.713 6.36936 40.8484 6.3513 40.9763 6.30723C41.1042 6.26316 41.222 6.19398 41.3228 6.10375C41.4237 6.01352 41.5054 5.90405 41.5633 5.78179C41.6213 5.65952 41.6542 5.52691 41.6601 5.39175C41.6661 5.25659 41.645 5.1216 41.5981 4.99471C41.5511 4.86782 41.4793 4.75158 41.3869 4.65282C41.2944 4.55406 41.1831 4.47478 41.0596 4.41961L33.5013 0.837505C32.5369 0.381318 31.4551 0.234054 30.4039 0.415838C29.3526 0.597622 28.3832 1.09958 27.6279 1.85313L25.8912 3.58883C25.1377 4.34405 24.6357 5.31353 24.4539 6.36479C24.2721 7.41604 24.4194 8.49779 24.8756 9.46219L34.328 29.4202ZM62.0546 33.567C62.3743 33.8524 62.6324 34.1999 62.8131 34.5885C62.9937 34.977 63.0932 35.3984 63.1054 35.8267C63.1175 36.255 63.0421 36.6813 62.8838 37.0795C62.7254 37.4777 62.4875 37.8393 62.1845 38.1423C61.8815 38.4453 61.5198 38.6833 61.1216 38.8416C60.7235 39 60.2972 39.0754 59.8688 39.0632C59.4405 39.0511 59.0192 38.9516 58.6306 38.7709C58.2421 38.5902 57.8945 38.3321 57.6092 38.0124L50.9751 31.3784L55.4205 26.933L62.0546 33.567ZM44.0577 21.086C44.0574 20.8755 44.1197 20.6697 44.2365 20.4945C44.3533 20.3194 44.5195 20.1829 44.7139 20.1023C44.9084 20.0217 45.1224 20.0007 45.3289 20.0418C45.5353 20.083 45.7249 20.1845 45.8736 20.3334L52.5077 26.9675L51.0036 28.4716L44.3695 21.8376C44.2704 21.7392 44.1918 21.6221 44.1382 21.4931C44.0847 21.364 44.0573 21.2257 44.0577 21.086V21.086Z" fill="white"/>
</g>
<defs>
<clipPath id="clip0_34_200">
<rect width="65" height="65" fill="white" transform="translate(0 0.338867)"/>
</clipPath>
</defs>
</svg>
