<svg width="65" height="66" viewBox="0 0 65 66" fill="none" xmlns="http://www.w3.org/2000/svg">
<g clip-path="url(#clip0_34_252)">
<path d="M36.2914 59.7101H34.325V57.7437H36.2914V59.7101ZM32.3585 59.7101H30.3921V57.7437H32.3585V59.7101ZM28.4257 59.7101H26.4592V57.7437H28.4257V59.7101Z" fill="white"/>
<path d="M18.7262 40.9889L19.486 40.8944L19.5805 40.1345C19.6032 39.9517 20.1086 35.6306 17.6378 33.1597C15.1668 30.689 10.8458 31.1942 10.6632 31.2172L9.90334 31.3117L9.80882 32.0715C9.78614 32.2544 9.28076 36.5754 11.7515 39.0463C13.479 40.7736 16.1104 41.0464 17.6002 41.0464C18.2414 41.0464 18.6711 40.9958 18.7262 40.9889V40.9889ZM11.7191 33.1306C11.735 33.1305 11.751 33.1305 11.7673 33.1305C12.9357 33.1305 15.0176 33.3207 16.2473 34.5504C17.5035 35.8066 17.6783 37.9193 17.6701 39.0755C17.6542 39.0757 17.6382 39.0757 17.622 39.0757C16.4535 39.0757 14.3716 38.8856 13.1419 37.6558C11.8858 36.3995 11.7109 34.2868 11.7191 33.1306V33.1306Z" fill="white"/>
<path d="M54.2575 50.6567C54.8988 50.6565 55.3286 50.6061 55.3836 50.5992L56.1435 50.5047L56.238 49.7449C56.2608 49.5621 56.7663 45.241 54.2954 42.7701C51.8244 40.2993 47.5038 40.8046 47.3207 40.8275L46.5609 40.922L46.4664 41.6819C46.4436 41.8646 45.9381 46.1858 48.409 48.6567C50.1364 50.3839 52.7679 50.6567 54.2575 50.6567V50.6567ZM52.9048 44.1606C54.1621 45.4177 54.3362 47.5332 54.3277 48.6887C53.17 48.6942 51.0566 48.5229 49.7995 47.2659C48.5423 46.0088 48.3682 43.8933 48.3767 42.7378C49.5353 42.7318 51.6478 42.9037 52.9048 44.1606Z" fill="white"/>
<path d="M60.7011 63.3724V31.5982C60.7011 29.1097 58.8423 27.0488 56.4405 26.7271V19.1933H55.1295V14.4738H50.8689V10.2952H53.4908V3.12727H53.8709C55.8747 3.12727 57.8591 2.81972 59.7687 2.21314L59.1734 0.338867C57.4564 0.884224 55.6724 1.16084 53.8709 1.16084H53.4908H46.9226H46.297V1.16857C40.5989 1.29835 36.8003 3.15663 36.6359 3.23857L37.5124 4.99892C37.5486 4.98096 41.0554 3.26584 46.2971 3.13592V10.2953H48.9026V14.474H44.642V19.1934H43.3311V26.7272C40.9293 27.0488 39.0705 29.1099 39.0705 31.5983V43.7083H27.0284L28.3574 17.9705C28.3972 16.9806 28.0413 16.0421 27.3551 15.3278C26.669 14.6135 25.7457 14.22 24.7551 14.22H4.63459C3.64404 14.22 2.7206 14.6135 2.03458 15.3278C1.34856 16.0421 0.992501 16.9806 1.03288 17.9816L1.29822 23.1196L3.26203 23.0182L3.11231 20.1193H26.2771L25.0591 43.7084H21.8477C19.8598 43.7084 18.2426 45.3257 18.2426 47.3135V53.7714H5.71194L4.78771 52.5672L3.36389 24.9928L1.40008 25.0941L2.8555 53.279L4.26097 55.1104L4.68756 63.3724H1.90479V65.3389H63.9704V63.3724H60.7011ZM48.2634 3.12727H51.5244V8.32887H48.2634V3.12727ZM12.9987 16.1863H16.2761V18.1528H12.9987V16.1863ZM11.0323 18.1528H7.75493V16.1863H11.0323V18.1528ZM18.2426 16.1863H21.5199V18.1528H18.2426V16.1863ZM2.99721 17.8911C2.97899 17.4412 3.14076 17.0146 3.45277 16.6899C3.76464 16.3652 4.18441 16.1863 4.63459 16.1863H5.7885V18.1528H3.01072L2.99721 17.8911ZM23.4864 18.1528V16.1863H24.755C25.2053 16.1863 25.6249 16.3652 25.9368 16.6899C26.2487 17.0147 26.4105 17.4412 26.3929 17.8801L26.3789 18.1528H23.4864ZM45.2974 21.1597H54.4741V26.6821H45.2974V21.1597ZM46.6083 16.4403H53.1631V19.1933H46.6083V16.4403ZM41.0368 37.0864H53.032V35.1199H41.0368V31.5983C41.0368 29.9719 42.3601 28.6487 43.9864 28.6487H55.785C57.4114 28.6487 58.7347 29.9719 58.7347 31.5983V35.1199H54.9984V37.0864H58.7347V55.5068H45.1089V54.5892V47.3134C45.1089 45.3256 43.4915 43.7083 41.5037 43.7083H41.0367V37.0864H41.0368ZM6.65661 63.3724L6.26241 55.7376H18.2426V57.4814H14.3752C12.3873 57.4814 10.7701 59.0987 10.7701 61.0865V63.3726H6.65661V63.3724ZM12.7366 63.3724V61.0864C12.7366 60.1828 13.4716 59.4477 14.3752 59.4477H18.2426V63.3724H12.7366ZM20.209 63.3724V57.4813V54.5889H33.3677V52.6225H20.209V47.3131C20.209 46.4095 20.944 45.6744 21.8477 45.6744H41.5039C42.4075 45.6744 43.1426 46.4095 43.1426 47.3131V52.6225H35.3341V54.5889H43.1426V63.3723H20.209V63.3724ZM45.1089 63.3724V57.4731H58.7347V63.3724H45.1089Z" fill="white"/>
</g>
<defs>
<clipPath id="clip0_34_252">
<rect width="65" height="65" fill="white" transform="translate(0 0.338867)"/>
</clipPath>
</defs>
</svg>
