<svg width="65" height="66" viewBox="0 0 65 66" fill="none" xmlns="http://www.w3.org/2000/svg">
<path d="M50.4384 25.1898C48.7435 25.1898 47.1154 25.4808 45.6013 26.0153L39.7453 13.9158H44.8459C45.4844 13.9158 46.0038 14.4348 46.0038 15.0726C46.0038 15.7104 45.4844 16.2292 44.8459 16.2292C44.1449 16.2292 43.5764 16.7977 43.5764 17.4988C43.5764 18.1998 44.1449 18.7683 44.8459 18.7683H44.8622C44.8699 18.7683 44.8776 18.7682 44.8853 18.768C46.9056 18.7468 48.5429 17.0972 48.5429 15.0724C48.5429 13.0346 46.8845 11.3767 44.8461 11.3767H37.7207C37.2837 11.3767 36.8772 11.6015 36.645 11.9719C36.4128 12.3422 36.3876 12.8059 36.578 13.1994L41.0747 22.4904H29.6055L29.5579 20.2625C29.5133 18.2477 27.837 16.6086 25.8211 16.6086H19.7482C18.7341 16.6086 17.785 17.0078 17.0758 17.7326C16.3672 18.4571 15.989 19.4141 16.0113 20.4264L16.0829 23.787C16.0977 24.4774 16.6617 25.0295 17.3522 25.0295H21.2456L20.4341 26.4265C18.637 25.6318 16.65 25.19 14.5616 25.19C6.53237 25.1898 0 31.7194 0 39.7453C0 47.7711 6.53237 54.3007 14.5616 54.3007C20.8956 54.3007 26.298 50.2374 28.297 44.5817C29.0728 45.3715 30.071 45.9422 31.1892 46.1912V47.425H30.5026C29.8016 47.425 29.2331 47.9935 29.2331 48.6946C29.2331 49.3956 29.8016 49.9641 30.5026 49.9641H32.4587C33.1598 49.9641 33.7283 49.3956 33.7283 48.6946V46.1912C34.8758 45.9356 35.897 45.3415 36.6811 44.5193C38.6623 50.2076 44.081 54.3008 50.4384 54.3008C58.4676 54.3008 65 47.7713 65 39.7454C65 31.7196 58.4676 25.1898 50.4384 25.1898ZM43.2897 27.0676C43.0752 27.189 42.8639 27.3157 42.6561 27.4475L43.0388 26.549L43.2897 27.0676ZM18.5498 20.3713C18.5425 20.0468 18.6636 19.7403 18.8909 19.5081C19.1183 19.2756 19.4227 19.1475 19.7481 19.1475H25.821C26.4674 19.1475 27.005 19.6728 27.0192 20.3175L27.0655 22.4903H18.5948L18.5498 20.3713ZM24.1819 25.0294H40.9264L37.5121 33.047C37.512 33.0474 37.5119 33.0477 37.5117 33.0481C37.0062 34.0191 36.6071 35.0538 36.3297 36.1369C35.2989 35.2217 33.9427 34.6652 32.459 34.6652C31.0072 34.6652 29.6776 35.1981 28.6555 36.0782C27.7469 32.5916 25.5743 29.6096 22.6582 27.6526L24.1819 25.0294ZM23.5638 38.4782C23.2144 35.9858 21.8496 33.8144 19.9024 32.3965L21.3799 29.8528C24.1936 31.7961 26.1417 34.9065 26.5178 38.478H23.5638V38.4782ZM13.0636 40.3809C13.2902 40.7746 13.7098 41.0172 14.1639 41.0172H20.9887C20.3946 44.0209 17.7387 46.2929 14.5616 46.2929C10.9493 46.2929 8.01049 43.3557 8.01049 39.7454C8.01049 36.1351 10.9492 33.1979 14.5616 33.1979C15.1835 33.1979 15.7854 33.285 16.3556 33.4475L13.0663 39.1103C12.838 39.5027 12.8371 39.9874 13.0636 40.3809V40.3809ZM16.3696 38.4782L18.6181 34.6074C19.8203 35.5575 20.6826 36.9194 20.9895 38.4782H16.3696ZM14.5616 51.7618C7.93228 51.7618 2.53906 46.3712 2.53906 39.7453C2.53906 33.1193 7.93228 27.7289 14.5616 27.7289C16.1854 27.7289 17.735 28.0524 19.1494 28.638L17.6598 31.2022C16.6924 30.8506 15.649 30.6587 14.5616 30.6587C9.54941 30.6587 5.47143 34.7349 5.47143 39.7453C5.47143 44.7556 9.54929 48.8318 14.5616 48.8318C19.1422 48.8318 22.9423 45.4276 23.563 41.0171H26.5173C25.8798 47.0474 20.7613 51.7618 14.5616 51.7618V51.7618ZM33.7284 43.5371V40.4977C33.7284 39.7967 33.1599 39.2282 32.4589 39.2282C31.7578 39.2282 31.1893 39.7967 31.1893 40.4977V43.5371C30.0004 43.0393 29.1632 41.8645 29.1632 40.4977C29.1632 38.6817 30.6417 37.2043 32.4589 37.2043C34.2761 37.2043 35.7546 38.6818 35.7546 40.4977C35.7546 41.8645 34.9172 43.0393 33.7284 43.5371ZM50.4384 51.7618C43.809 51.7618 38.4158 46.3712 38.4158 39.7454C38.4158 35.3185 40.8233 31.443 44.3984 29.3582L45.6799 32.0058C43.0828 33.6072 41.3483 36.4776 41.3483 39.7454C41.3483 44.7557 45.4261 48.8319 50.4385 48.8319C55.4508 48.8319 59.5287 44.7557 59.5287 39.7454C59.5287 34.7351 55.4508 30.6589 50.4385 30.6589C49.5972 30.6589 48.7821 30.7737 48.0083 30.9886L46.7161 28.3185C47.8886 27.936 49.1399 27.729 50.4385 27.729C57.0678 27.729 62.4611 33.1196 62.4611 39.7454C62.4611 46.3712 57.0677 51.7618 50.4384 51.7618V51.7618ZM51.9788 39.1923L49.1401 33.327C49.5598 33.2424 49.994 33.1979 50.4385 33.1979C54.0508 33.1979 56.9896 36.1351 56.9896 39.7454C56.9896 43.3557 54.0509 46.2929 50.4385 46.2929C46.826 46.2929 43.8873 43.3557 43.8873 39.7454C43.8873 37.4822 45.0421 35.4836 46.7938 34.3071L49.6935 40.2984C49.9128 40.7512 50.3656 41.0152 50.8371 41.0152C51.0227 41.0152 51.2111 40.9744 51.3894 40.8881C52.0203 40.5825 52.2842 39.8233 51.9788 39.1923V39.1923Z" fill="white"/>
</svg>
