<svg width="65" height="66" viewBox="0 0 65 66" fill="none" xmlns="http://www.w3.org/2000/svg">
<g clip-path="url(#clip0_34_281)">
<path d="M61.0727 37.5272C60.5395 37.5272 60.1073 37.9595 60.1073 38.4926V63.4082H36.5571C36.5563 63.4082 36.5555 63.408 36.5547 63.408H29.2179V30.0624H60.1072V35.2748C60.1072 35.8079 60.5393 36.2402 61.0725 36.2402C61.6058 36.2402 62.0379 35.8079 62.0379 35.2748V23.1121C62.0379 22.579 61.6058 22.1467 61.0725 22.1467H37.5201V1.30422C37.5201 0.771143 37.0879 0.338867 36.5547 0.338867H3.92727C3.39406 0.338867 2.96191 0.771143 2.96191 1.30422V5.8009C2.96191 6.33397 3.39406 6.76625 3.92727 6.76625C4.46047 6.76625 4.89262 6.33397 4.89262 5.8009V2.26957H35.5893V22.1467H28.2524C27.7192 22.1467 27.287 22.579 27.287 23.1121V31.6068H4.89262V9.01878C4.89262 8.4857 4.46047 8.05343 3.92727 8.05343C3.39406 8.05343 2.96191 8.4857 2.96191 9.01878V64.3734C2.96191 64.9065 3.39406 65.3387 3.92727 65.3387L61.0727 65.3389C61.6059 65.3389 62.038 64.9066 62.038 64.3735V38.4926C62.038 37.9595 61.6059 37.5272 61.0727 37.5272ZM40.9945 24.0775H60.1072V28.1317H40.9945V24.0775ZM29.2179 24.0775H39.0638V28.1317H29.2179V24.0775ZM27.2871 63.408H4.89262V33.5374H27.287V63.408H27.2871Z" fill="white"/>
<path d="M8.36745 15.3899C7.83425 15.3899 7.4021 15.8222 7.4021 16.3552V28.1318C7.4021 28.6649 7.83425 29.0971 8.36745 29.0971C8.90065 29.0971 9.3328 28.6649 9.3328 28.1318V16.3552C9.3328 15.822 8.90078 15.3899 8.36745 15.3899Z" fill="white"/>
<path d="M8.36745 36.0469C7.83425 36.0469 7.4021 36.4792 7.4021 37.0122V48.7889C7.4021 49.322 7.83425 49.7543 8.36745 49.7543C8.90065 49.7543 9.3328 49.322 9.3328 48.7889V37.0122C9.3328 36.479 8.90065 36.0469 8.36745 36.0469Z" fill="white"/>
<path d="M44.6625 33.7302C37.743 33.7302 32.1138 39.3597 32.1138 46.2792C32.1138 47.6816 32.3437 49.0591 32.7972 50.3733C32.9711 50.8771 33.5198 51.1449 34.0245 50.971C34.5284 50.797 34.796 50.2476 34.6222 49.7436C34.2388 48.6324 34.0446 47.4668 34.0446 46.2792C34.0446 40.4243 38.8079 35.6609 44.6627 35.6609C50.5175 35.6609 55.2808 40.4242 55.2808 46.2792C55.2808 52.1341 50.5175 56.8974 44.6627 56.8974C41.3303 56.8974 38.2556 55.3779 36.2271 52.7286C35.9028 52.3052 35.2969 52.2248 34.8735 52.5491C34.4501 52.8732 34.3699 53.4792 34.6938 53.9024C37.0908 57.0327 40.7244 58.8281 44.6625 58.8281C51.5819 58.8281 57.2113 53.1987 57.2113 46.2792C57.2113 39.3597 51.5819 33.7302 44.6625 33.7302Z" fill="white"/>
<path d="M49.9944 50.8384C48.6918 49.6805 47.9447 48.0189 47.9447 46.2797C47.9447 44.5404 48.6917 42.8785 49.9944 41.7204C50.2005 41.5372 50.3185 41.2747 50.3185 40.9989C50.3185 40.7232 50.2005 40.4606 49.9945 40.2774C48.5236 38.97 46.6301 38.25 44.6627 38.25C40.2353 38.25 36.6333 41.8519 36.6333 46.2794C36.6333 50.7069 40.2352 54.3088 44.6627 54.3088C46.6301 54.3088 48.5236 53.5887 49.9945 52.2814C50.2005 52.0982 50.3185 51.8356 50.3185 51.5599C50.3185 51.2842 50.2005 51.0215 49.9944 50.8384ZM47.9 51.4468C46.9354 52.0521 45.8158 52.3777 44.6626 52.3777C41.2998 52.3777 38.5639 49.6419 38.5639 46.279C38.5639 42.9162 41.2998 40.1803 44.6626 40.1803C45.8157 40.1803 46.9354 40.5061 47.9 41.1113C46.6907 42.5497 46.014 44.3789 46.014 46.2788C46.014 48.1789 46.6907 50.0085 47.9 51.4468Z" fill="white"/>
</g>
<defs>
<clipPath id="clip0_34_281">
<rect width="65" height="65" fill="white" transform="translate(0 0.338867)"/>
</clipPath>
</defs>
</svg>
