<svg width="65" height="66" viewBox="0 0 65 66" fill="none" xmlns="http://www.w3.org/2000/svg">
<g clip-path="url(#clip0_522_5)">
<path d="M61.8548 21.3066H60.8065V8.72596H10.4839V0.338867H5.24194C2.3517 0.338867 0 2.69057 0 5.5808V45.4195C0 48.3097 2.3517 50.6615 5.24194 50.6615H33.5484V62.1937C33.5484 63.9275 34.9597 65.3389 36.6936 65.3389H61.8548C63.5887 65.3389 65 63.9275 65 62.1937V24.4518C65 22.7179 63.5887 21.3066 61.8548 21.3066ZM2.09677 5.5808C2.09677 3.84697 3.5081 2.43564 5.24194 2.43564H8.3871V40.1776H5.24194C4.0625 40.1776 2.97316 40.5697 2.09677 41.228V5.5808ZM5.24194 48.5647C3.5081 48.5647 2.09677 47.1533 2.09677 45.4195C2.09677 43.6857 3.5081 42.2744 5.24194 42.2744H10.4839V10.8227H58.7097V21.3066H37.0186C35.2582 16.3298 30.502 12.9195 25.1613 12.9195C18.2239 12.9195 12.5806 18.5628 12.5806 25.5002C12.5806 32.4375 18.2239 38.0808 25.1613 38.0808C28.2855 38.0808 31.2627 36.9075 33.5484 34.8635V48.5647H5.24194ZM33.5484 24.4518H26.2097V15.0752C30.1611 15.4744 33.5852 18.0985 34.9807 21.8206C34.1197 22.3821 33.5484 23.3501 33.5484 24.4518ZM24.1129 35.9308C18.8228 35.403 14.6774 30.9264 14.6774 25.5002C14.6774 20.0739 18.8228 15.5973 24.1129 15.0695V35.9308ZM26.2097 26.5485H33.5484V31.7674C31.7828 34.1253 29.1158 35.6267 26.2097 35.92V26.5485ZM62.9032 62.1937C62.9032 62.7711 62.4323 63.2421 61.8548 63.2421H36.6936C36.1161 63.2421 35.6452 62.7711 35.6452 62.1937V24.4518C35.6452 23.8743 36.1161 23.4034 36.6936 23.4034H61.8548C62.4323 23.4034 62.9032 23.8743 62.9032 24.4518V62.1937Z" fill="black"/>
<path d="M37.7419 35.9841H60.8065V25.5002H37.7419V35.9841ZM39.8387 27.597H58.7097V33.8873H39.8387V27.597Z" fill="black"/>
<path d="M54.5161 61.1453H60.8064V54.855H54.5161V61.1453ZM56.6129 56.9518H58.7097V59.0485H56.6129V56.9518Z" fill="black"/>
<path d="M46.1292 61.1453H52.4195V54.855H46.1292V61.1453ZM48.2259 56.9518H50.3227V59.0485H48.2259V56.9518Z" fill="black"/>
<path d="M37.7419 61.1453H44.0323V54.855H37.7419V61.1453ZM39.8387 56.9518H41.9355V59.0485H39.8387V56.9518Z" fill="black"/>
<path d="M54.5161 52.7583H60.8064V46.468H54.5161V52.7583ZM56.6129 48.5648H58.7097V50.6616H56.6129V48.5648Z" fill="black"/>
<path d="M46.1292 52.7583H52.4195V46.468H46.1292V52.7583ZM48.2259 48.5648H50.3227V50.6616H48.2259V48.5648Z" fill="black"/>
<path d="M37.7419 52.7583H44.0323V46.468H37.7419V52.7583ZM39.8387 48.5648H41.9355V50.6616H39.8387V48.5648Z" fill="black"/>
<path d="M54.5161 44.3711H60.8064V38.0808H54.5161V44.3711ZM56.6129 40.1776H58.7097V42.2744H56.6129V40.1776Z" fill="black"/>
<path d="M46.1292 44.3711H52.4195V38.0808H46.1292V44.3711ZM48.2259 40.1776H50.3227V42.2744H48.2259V40.1776Z" fill="black"/>
<path d="M37.7419 44.3711H44.0323V38.0808H37.7419V44.3711ZM39.8387 40.1776H41.9355V42.2744H39.8387V40.1776Z" fill="black"/>
<path d="M41.9355 12.9194H56.613V15.0162H41.9355V12.9194Z" fill="black"/>
<path d="M39.8386 17.113H56.6128V19.2098H39.8386V17.113Z" fill="black"/>
</g>
<circle cx="12" cy="12.3389" r="10.5" stroke="black" stroke-width="3"/>
<circle cx="12" cy="12.3389" r="10.5" stroke="black" stroke-width="3"/>
<circle cx="12" cy="12.3389" r="12" fill="#1964AA"/>
<path d="M9.59408 11.7469L10.2381 6.53887H14.8721V8.14887H11.6521L11.3721 10.0949C11.5587 10.0575 11.7454 10.0389 11.9321 10.0389C12.8281 10.0389 13.5607 10.3235 14.1301 10.8929C14.7181 11.4622 15.0121 12.2182 15.0121 13.1609C15.0121 14.1782 14.6901 14.9902 14.0461 15.5969C13.4114 16.1942 12.6087 16.4929 11.6381 16.4929C11.1061 16.4929 10.5601 16.3715 10.0001 16.1289C9.47741 15.8862 9.06674 15.5409 8.76808 15.0929L9.69208 13.8749C9.88808 14.1735 10.1727 14.4162 10.5461 14.6029C10.9287 14.7895 11.3067 14.8829 11.6801 14.8829C12.1467 14.8829 12.5294 14.7289 12.8281 14.4209C13.1361 14.1129 13.2901 13.7162 13.2901 13.2309C13.2901 12.7175 13.0987 12.3022 12.7161 11.9849C12.3427 11.6582 11.8387 11.4949 11.2041 11.4949C10.5227 11.4949 9.98608 11.5789 9.59408 11.7469Z" fill="white"/>
<defs>
<clipPath id="clip0_522_5">
<rect width="65" height="65" fill="white" transform="translate(0 0.338867)"/>
</clipPath>
</defs>
</svg>
