<svg width="65" height="66" viewBox="0 0 65 66" fill="none" xmlns="http://www.w3.org/2000/svg">
<path d="M9.31836 57.9882C9.31836 58.4009 9.44074 58.8043 9.67002 59.1475C9.89929 59.4906 10.2252 59.7581 10.6065 59.916C10.9877 60.0739 11.4073 60.1152 11.812 60.0347C12.2168 59.9542 12.5886 59.7555 12.8804 59.4637C13.1722 59.1718 13.371 58.8001 13.4515 58.3953C13.532 57.9905 13.4907 57.571 13.3327 57.1897C13.1748 56.8084 12.9074 56.4825 12.5642 56.2533C12.2211 56.024 11.8177 55.9016 11.405 55.9016C10.8517 55.9022 10.3214 56.1222 9.93018 56.5134C9.539 56.9046 9.31896 57.435 9.31836 57.9882ZM11.9681 57.9882C11.9681 58.0996 11.9351 58.2085 11.8732 58.3011C11.8113 58.3937 11.7234 58.4659 11.6205 58.5085C11.5176 58.5511 11.4043 58.5623 11.2951 58.5406C11.1859 58.5188 11.0855 58.4652 11.0067 58.3864C10.928 58.3077 10.8743 58.2073 10.8526 58.0981C10.8309 57.9888 10.842 57.8756 10.8847 57.7727C10.9273 57.6698 10.9995 57.5818 11.0921 57.52C11.1847 57.4581 11.2936 57.425 11.405 57.425C11.5542 57.4254 11.6971 57.4848 11.8026 57.5904C11.908 57.696 11.9673 57.839 11.9675 57.9882H11.9681Z" fill="black"/>
<path d="M57.3605 4.18708C57.2974 4.06025 57.1999 3.95364 57.0793 3.87933C56.9587 3.80502 56.8196 3.76597 56.6779 3.76661H22.4652C22.3235 3.76597 22.1845 3.80502 22.0638 3.87933C21.9432 3.95364 21.8457 4.06025 21.7826 4.18708L17.3318 13.1764C17.2076 13.3168 17.139 13.4977 17.1388 13.6852V40.6737C16.4621 41.082 15.8931 41.6464 15.4793 42.3198C15.0656 42.9931 14.8191 43.7558 14.7607 44.544C14.3347 44.8688 13.8549 45.1162 13.3432 45.2748L13.3408 45.256C13.2653 45.0071 13.1121 44.7888 12.9035 44.6333C12.695 44.4777 12.4421 44.393 12.182 44.3916H4.22584C4.03837 44.3924 3.85361 44.4364 3.68593 44.5203C3.51826 44.6041 3.37218 44.7255 3.25906 44.875C3.14595 45.0245 3.06884 45.1981 3.03375 45.3822C2.99866 45.5664 3.00652 45.7561 3.05673 45.9368L7.2604 61.0256C7.33224 61.2805 7.48534 61.5049 7.69641 61.6647C7.90749 61.8246 8.165 61.9111 8.42977 61.9111H16.848C17.0374 61.9119 17.2244 61.8681 17.3937 61.7834C17.5631 61.6986 17.7102 61.5752 17.8232 61.4232C17.9361 61.2712 18.0118 61.0947 18.044 60.9081C18.0763 60.7215 18.0643 60.5299 18.0089 60.3487L16.913 56.756L20.8816 54.2476C21.3928 53.9663 21.9917 53.8894 22.5574 54.0326C22.5802 54.0383 22.6033 54.0431 22.6266 54.0466L29.6336 55.1302C31.6468 55.4419 33.7046 55.0091 35.4216 53.9127L49.1455 45.1533H61.2264C61.4192 45.1533 61.604 45.0768 61.7403 44.9405C61.8766 44.8041 61.9532 44.6193 61.9532 44.4265V13.9362C62.0118 13.7496 61.996 13.5475 61.9092 13.3723L57.3605 4.18708ZM40.3712 5.29005H56.205L59.979 12.9072H40.3712V5.29005ZM39.5714 14.4719C39.655 14.4718 39.738 14.4578 39.817 14.4307H44.9415V19.8897H34.6583V14.4307H39.3258C39.4049 14.4578 39.4878 14.4718 39.5714 14.4719ZM8.66488 60.3877L4.63387 45.915H11.9337L16.377 60.3877H8.66488ZM34.602 52.6542C33.1958 53.5471 31.5122 53.8966 29.8667 53.6372L22.8926 52.5523C21.9543 52.3236 20.9642 52.4588 20.1215 52.9305C20.1097 52.9372 20.0979 52.9432 20.0863 52.9498L16.448 55.249L13.7952 46.7149C14.6157 46.4546 15.3722 46.0246 16.0155 45.4527C16.0951 45.3869 16.1593 45.3043 16.2034 45.2109C16.2475 45.1175 16.2705 45.0154 16.2706 44.9121C16.2717 44.4582 16.3624 44.009 16.5375 43.5902C16.7125 43.1714 16.9685 42.7913 17.2908 42.4717C17.6131 42.1521 17.9953 41.8992 18.4155 41.7276C18.8357 41.556 19.2856 41.469 19.7395 41.4717H19.9774C20.7201 41.4677 21.4525 41.2982 22.1214 40.9757C22.7904 40.6531 23.3791 40.1856 23.8447 39.607L26.8625 35.8929C27.1534 35.5311 27.5696 35.2918 28.0286 35.2224C28.4876 35.1529 28.9559 35.2584 29.3409 35.5178L29.3916 35.5482C29.7846 35.8112 30.0684 36.2083 30.1899 36.6653C30.3114 37.1223 30.2623 37.6079 30.0518 38.0314C28.8457 40.4289 27.0523 43.9982 27.0523 43.9982C26.994 44.1188 26.9664 44.2521 26.972 44.386C26.9777 44.5199 27.0164 44.6503 27.0846 44.7656C27.1515 44.8794 27.2459 44.9745 27.3591 45.0423C27.4724 45.11 27.6009 45.1482 27.7327 45.1533H46.3961L34.602 52.6542ZM35.0391 43.6299V36.3555L35.543 36.8826C35.6138 36.9568 35.6988 37.016 35.7929 37.0568C35.8871 37.0975 35.9884 37.119 36.091 37.1199C36.1933 37.1201 36.2947 37.1 36.3893 37.0608C36.4839 37.0216 36.5698 36.964 36.6419 36.8913L37.9705 35.5374L39.2818 36.8887C39.3528 36.9619 39.4378 37.0201 39.5317 37.0598C39.6256 37.0995 39.7265 37.12 39.8285 37.12C39.9305 37.12 40.0314 37.0995 40.1253 37.0598C40.2193 37.0201 40.3042 36.9619 40.3752 36.8887L41.6864 35.5376L43.0146 36.8916C43.0864 36.9644 43.1721 37.0221 43.2666 37.0614C43.361 37.1006 43.4624 37.1206 43.5647 37.1201C43.6632 37.119 43.7604 37.0973 43.85 37.0565C43.9396 37.0156 44.0198 36.9565 44.0852 36.8828L44.5606 36.3555V43.6299H35.0391ZM60.4298 43.6299H46.0841V34.4464C46.0898 34.296 46.0492 34.1475 45.9678 34.0209C45.8865 33.8944 45.7682 33.7958 45.629 33.7386C45.4898 33.6814 45.3364 33.6684 45.1896 33.7011C45.0427 33.7339 44.9095 33.811 44.8078 33.9219L43.5431 35.2608L42.2247 33.9345C42.1533 33.8652 42.0686 33.8111 41.9756 33.7755C41.8827 33.74 41.7835 33.7236 41.6841 33.7275H41.6821C41.5818 33.7238 41.4819 33.7404 41.3882 33.7765C41.2946 33.8125 41.2093 33.8672 41.1375 33.9373L39.8298 35.2747L38.5222 33.9427C38.4507 33.8719 38.3656 33.8163 38.272 33.7793C38.1784 33.7424 38.0782 33.7247 37.9776 33.7275H37.9756C37.8757 33.7236 37.776 33.7399 37.6826 33.7755C37.5891 33.8111 37.5038 33.8651 37.4318 33.9345L36.1096 35.2715L34.8387 33.9272C34.7339 33.8158 34.5982 33.7382 34.4489 33.7046C34.2997 33.6711 34.1438 33.683 34.0014 33.7389C33.859 33.7947 33.7366 33.892 33.6501 34.0181C33.5635 34.1442 33.5167 34.2934 33.5157 34.4464V43.6299H28.9679C29.5941 42.3604 30.6279 40.3005 31.4125 38.7402C31.789 37.9828 31.8778 37.1146 31.6624 36.2967C31.447 35.4789 30.942 34.767 30.2413 34.2934L30.1905 34.253C29.4923 33.7785 28.6413 33.5837 27.8062 33.707C26.971 33.8304 26.2127 34.2629 25.6814 34.919L22.6638 38.6457C22.3407 39.0485 21.932 39.3744 21.4674 39.5997C21.0027 39.825 20.4938 39.9441 19.9774 39.9482H19.7395C19.3773 39.9485 19.0161 39.9877 18.6622 40.0652V14.4307H23.3595C23.5615 14.4307 23.7552 14.3504 23.8981 14.2076C24.0409 14.0647 24.1212 13.871 24.1212 13.669C24.1212 13.4669 24.0409 13.2732 23.8981 13.1303C23.7552 12.9875 23.5615 12.9072 23.3595 12.9072H19.1642L22.9381 5.29005H38.8477V12.9072H28.4376C28.2356 12.9072 28.0418 12.9875 27.899 13.1303C27.7561 13.2732 27.6759 13.4669 27.6759 13.669C27.6759 13.871 27.7561 14.0647 27.899 14.2076C28.0418 14.3504 28.2356 14.4307 28.4376 14.4307H33.1348V20.624C33.1333 20.8286 33.2119 21.0257 33.3538 21.1732C33.4956 21.3207 33.6896 21.4068 33.8941 21.4131H45.7633C46.1838 21.4131 46.4649 21.0449 46.4649 20.624V14.4307H60.4298V43.6299Z" fill="black"/>
<path d="M22.3438 17.3206C22.1417 17.3206 21.948 17.4008 21.8051 17.5437C21.6623 17.6865 21.582 17.8803 21.582 18.0823V18.8821C21.582 19.0841 21.6623 19.2778 21.8051 19.4207C21.948 19.5635 22.1417 19.6438 22.3438 19.6438C22.5458 19.6438 22.7395 19.5635 22.8824 19.4207C23.0252 19.2778 23.1055 19.0841 23.1055 18.8821V18.0823C23.1055 17.8803 23.0252 17.6865 22.8824 17.5437C22.7395 17.4008 22.5458 17.3206 22.3438 17.3206Z" fill="black"/>
<path d="M22.3438 20.5317C22.1417 20.5317 21.948 20.612 21.8051 20.7548C21.6623 20.8977 21.582 21.0914 21.582 21.2935V29.6724C21.582 29.8744 21.6623 30.0681 21.8051 30.211C21.948 30.3538 22.1417 30.4341 22.3438 30.4341C22.5458 30.4341 22.7395 30.3538 22.8824 30.211C23.0252 30.0681 23.1055 29.8744 23.1055 29.6724V21.2935C23.1055 21.0914 23.0252 20.8977 22.8824 20.7548C22.7395 20.612 22.5458 20.5317 22.3438 20.5317Z" fill="black"/>
<circle cx="12" cy="12.3389" r="10.5" stroke="black" stroke-width="3"/>
<circle cx="12" cy="12.3389" r="10.5" stroke="black" stroke-width="3"/>
<circle cx="12" cy="12.3389" r="12" fill="#1964AA"/>
<path d="M11.9181 16.4929C11.1994 16.4929 10.5647 16.3482 10.0141 16.0589C9.47274 15.7602 9.07141 15.3542 8.81008 14.8409L9.72008 13.6649C10.2707 14.4769 10.9707 14.8829 11.8201 14.8829C12.3147 14.8829 12.7021 14.7569 12.9821 14.5049C13.2621 14.2529 13.4021 13.9262 13.4021 13.5249C13.4021 13.0769 13.2387 12.7362 12.9121 12.5029C12.5947 12.2602 12.1514 12.1389 11.5821 12.1389H10.8821V10.5289H11.5121C11.9414 10.5289 12.3007 10.4029 12.5901 10.1509C12.8794 9.89887 13.0241 9.57687 13.0241 9.18487C13.0241 8.81153 12.9167 8.5222 12.7021 8.31687C12.4874 8.1022 12.1794 7.99487 11.7781 7.99487C11.0221 7.99487 10.4061 8.34487 9.93008 9.04487L9.03408 7.91087C9.57541 6.89353 10.5414 6.38487 11.9321 6.38487C12.7814 6.38487 13.4627 6.61353 13.9761 7.07087C14.4894 7.51887 14.7461 8.12087 14.7461 8.87687C14.7461 9.98753 14.2467 10.7622 13.2481 11.2009V11.2429C13.8361 11.3455 14.2934 11.6115 14.6201 12.0409C14.9561 12.4609 15.1241 12.9742 15.1241 13.5809C15.1241 14.4675 14.8207 15.1769 14.2141 15.7089C13.6074 16.2315 12.8421 16.4929 11.9181 16.4929Z" fill="white"/>
</svg>
