<svg width="65" height="66" viewBox="0 0 65 66" fill="none" xmlns="http://www.w3.org/2000/svg">
<path d="M62.3533 25.8118L48.75 19.9821V8.46387C48.7499 8.19453 48.6429 7.93624 48.4524 7.74582L43.3743 2.6677C43.1839 2.47722 42.9256 2.37017 42.6562 2.37012H5.07812C4.27004 2.37012 3.49506 2.69113 2.92366 3.26253C2.35226 3.83393 2.03125 4.60891 2.03125 5.41699V60.2607C2.03125 61.0688 2.35226 61.8438 2.92366 62.4152C3.49506 62.9866 4.27004 63.3076 5.07812 63.3076H45.7031C46.5112 63.3076 47.2862 62.9866 47.8576 62.4152C48.429 61.8438 48.75 61.0688 48.75 60.2607V57.7359L54.0373 53.9639C56.7981 51.988 59.0483 49.3828 60.6015 46.364C62.1547 43.3452 62.9662 39.9997 62.9688 36.6048V26.7451C62.9687 26.5464 62.9104 26.352 62.801 26.1861C62.6916 26.0202 62.5359 25.8901 62.3533 25.8118ZM46.7188 8.88434V9.47949H41.6406V4.40137H42.2358L46.7188 8.88434ZM45.7031 61.2764H5.07812C4.80876 61.2764 4.55044 61.1694 4.35997 60.9789C4.1695 60.7884 4.0625 60.5301 4.0625 60.2607V5.41699C4.0625 5.14763 4.1695 4.8893 4.35997 4.69884C4.55044 4.50837 4.80876 4.40137 5.07812 4.40137H39.6094V10.4951C39.6094 10.7645 39.7164 11.0228 39.9068 11.2133C40.0973 11.4037 40.3556 11.5107 40.625 11.5107H46.7188V19.9821L33.1155 25.8118C32.9328 25.8901 32.7771 26.0202 32.6677 26.1861C32.5583 26.352 32.5 26.5464 32.5 26.7451V36.6048C32.5026 39.9997 33.3141 43.3452 34.8673 46.364C36.4205 49.3828 38.6707 51.988 41.4314 53.9639L46.7188 57.7359V60.2607C46.7188 60.5301 46.6117 60.7884 46.4213 60.9789C46.2308 61.1694 45.9725 61.2764 45.7031 61.2764ZM60.9375 36.6048C60.9342 39.6757 60.1996 42.7017 58.7945 45.4324C57.3894 48.163 55.3541 50.5197 52.8572 52.3074L47.7344 55.9657L42.6116 52.3094C40.1143 50.5215 38.0789 48.1645 36.6738 45.4335C35.2686 42.7025 34.5342 39.6761 34.5312 36.6048V27.4144L47.7344 21.7564L60.9375 27.4144V36.6048Z" fill="black"/>
<path d="M47.7344 24.6357L37.2013 28.8486C37.0127 28.9239 36.851 29.0541 36.7371 29.2223C36.6233 29.3905 36.5624 29.589 36.5625 29.7921V36.2007C36.5624 38.79 37.1448 41.3462 38.2664 43.68C39.3881 46.0139 41.0203 48.0655 43.0422 49.6831L47.7344 53.1514L52.4266 49.6831C54.4485 48.0655 56.0807 46.0139 57.2023 43.68C58.324 41.3462 58.9063 38.79 58.9062 36.2007V29.7921C58.9063 29.589 58.8455 29.3905 58.7316 29.2223C58.6177 29.0541 58.456 28.9239 58.2674 28.8486L47.7344 24.6357ZM56.875 30.4796V36.2007C56.8805 38.4862 56.3691 40.7434 55.3789 42.8033C54.3887 44.8632 52.9454 46.6725 51.157 48.0957L47.7344 50.8358L44.3117 48.0936C42.5236 46.6706 41.0805 44.8617 40.0903 42.8022C39.1001 40.7426 38.5885 38.4859 38.5938 36.2007V30.4796L47.7344 26.8234L56.875 30.4796Z" fill="black"/>
<path d="M6.09375 14.5576H18.2812V16.5889H6.09375V14.5576Z" fill="black"/>
<path d="M20.3125 14.5576H40.625V16.5889H20.3125V14.5576Z" fill="black"/>
<path d="M6.09375 10.4951H24.375V12.5264H6.09375V10.4951Z" fill="black"/>
<path d="M26.4062 10.4951H37.5781V12.5264H26.4062V10.4951Z" fill="black"/>
<path d="M6.09375 22.6826H18.2812V24.7139H6.09375V22.6826Z" fill="black"/>
<path d="M20.3125 22.6826H31.4844V24.7139H20.3125V22.6826Z" fill="black"/>
<path d="M6.09375 18.6201H24.375V20.6514H6.09375V18.6201Z" fill="black"/>
<path d="M26.4062 18.6201H40.625V20.6514H26.4062V18.6201Z" fill="black"/>
<path d="M6.09375 6.43262H16.25V8.46387H6.09375V6.43262Z" fill="black"/>
<path d="M18.2812 6.43262H37.5781V8.46387H18.2812V6.43262Z" fill="black"/>
<path d="M29.4531 45.0264H7.10938C6.84001 45.0264 6.58169 45.1334 6.39122 45.3238C6.20075 45.5143 6.09375 45.7726 6.09375 46.042V58.2295C6.09375 58.4989 6.20075 58.7572 6.39122 58.9476C6.58169 59.1381 6.84001 59.2451 7.10938 59.2451H29.4531C29.7225 59.2451 29.9808 59.1381 30.1713 58.9476C30.3617 58.7572 30.4688 58.4989 30.4688 58.2295V46.042C30.4688 45.7726 30.3617 45.5143 30.1713 45.3238C29.9808 45.1334 29.7225 45.0264 29.4531 45.0264ZM28.4375 57.2139H8.125V47.0576H28.4375V57.2139Z" fill="black"/>
<path d="M29.4531 26.7451H7.10938C6.84001 26.7451 6.58169 26.8521 6.39122 27.0426C6.20075 27.2331 6.09375 27.4914 6.09375 27.7607V41.9795C6.09375 42.2489 6.20075 42.5072 6.39122 42.6976C6.58169 42.8881 6.84001 42.9951 7.10938 42.9951H29.4531C29.7225 42.9951 29.9808 42.8881 30.1713 42.6976C30.3617 42.5072 30.4688 42.2489 30.4688 41.9795V27.7607C30.4688 27.4914 30.3617 27.2331 30.1713 27.0426C29.9808 26.8521 29.7225 26.7451 29.4531 26.7451ZM28.4375 40.9639H8.125V28.7764H28.4375V40.9639Z" fill="black"/>
<path d="M43.3743 38.2146L41.9382 39.6507L44.9851 42.6976C45.1755 42.8881 45.4338 42.9951 45.7032 42.9951H45.7367C45.8758 42.9906 46.0125 42.9575 46.1383 42.8979C46.2641 42.8384 46.3763 42.7536 46.4679 42.6488L53.5773 34.5238L52.0478 33.1873L45.6493 40.4998L43.3743 38.2146Z" fill="black"/>
<path d="M24.375 30.8076H26.4062V32.8389H24.375V30.8076Z" fill="black"/>
<path d="M24.375 49.0889H26.4062V51.1201H24.375V49.0889Z" fill="black"/>
<circle cx="12" cy="12.3389" r="10.5" stroke="black" stroke-width="3"/>
<circle cx="12" cy="12.3389" r="10.5" stroke="black" stroke-width="3"/>
<circle cx="12" cy="12.3389" r="12" fill="#1964AA"/>
<path d="M14.4101 16.3389H12.8001V14.0709H8.30608V12.8809L12.0861 6.53887H13.9341L10.3921 12.4609H12.8001V10.0389H14.4101V12.4609H15.6561V14.0709H14.4101V16.3389Z" fill="white"/>
</svg>
