<svg width="65" height="66" viewBox="0 0 65 66" fill="none" xmlns="http://www.w3.org/2000/svg">
<path d="M13.2031 50.1045H11.1719V24.7139H53.8281V42.9951H51.7969V26.7451H13.2031V50.1045Z" fill="black"/>
<path d="M53.8281 34.8701H11.1719V24.7139H53.8281V34.8701ZM13.2031 32.8389H51.7969V26.7451H13.2031V32.8389Z" fill="black"/>
<path d="M11.1719 28.7764H53.8281V30.8076H11.1719V28.7764Z" fill="black"/>
<path d="M49.7656 22.6826H15.2344V14.5576H49.7656V22.6826ZM17.2656 20.6514H47.7344V16.5889H17.2656V20.6514Z" fill="black"/>
<path d="M1.01562 62.292H63.9844V64.3232H1.01562V62.292Z" fill="black"/>
<path d="M23.3594 64.3232H7.10938V48.0732H23.3594V64.3232ZM9.14062 62.292H21.3281V50.1045H9.14062V62.292Z" fill="black"/>
<path d="M18.2812 59.2451H19.2969V60.2607H18.2812V59.2451Z" fill="black"/>
<path d="M16.25 59.2451H17.2656V60.2607H16.25V59.2451Z" fill="black"/>
<path d="M56.875 64.3232C56.0715 64.3232 55.2861 64.085 54.618 63.6386C53.9499 63.1922 53.4292 62.5577 53.1217 61.8154C52.8143 61.0731 52.7338 60.2562 52.8906 59.4682C53.0473 58.6801 53.4342 57.9563 54.0024 57.3881C54.5705 56.82 55.2944 56.4331 56.0824 56.2763C56.8705 56.1196 57.6873 56.2 58.4297 56.5075C59.172 56.815 59.8065 57.3357 60.2528 58.0037C60.6992 58.6718 60.9375 59.4573 60.9375 60.2607C60.9375 61.3382 60.5095 62.3715 59.7476 63.1334C58.9858 63.8952 57.9524 64.3232 56.875 64.3232ZM56.875 58.2295C56.4733 58.2295 56.0805 58.3486 55.7465 58.5718C55.4125 58.795 55.1521 59.1123 54.9984 59.4834C54.8446 59.8546 54.8044 60.263 54.8828 60.657C54.9612 61.051 55.1546 61.413 55.4387 61.6971C55.7228 61.9811 56.0847 62.1746 56.4787 62.253C56.8727 62.3313 57.2812 62.2911 57.6523 62.1374C58.0235 61.9836 58.3407 61.7233 58.5639 61.3892C58.7871 61.0552 58.9063 60.6625 58.9063 60.2607C58.9063 59.722 58.6922 59.2054 58.3113 58.8244C57.9304 58.4435 57.4137 58.2295 56.875 58.2295Z" fill="black"/>
<path d="M37.5781 64.3232C36.7746 64.3232 35.9892 64.085 35.3211 63.6386C34.653 63.1922 34.1323 62.5577 33.8249 61.8154C33.5174 61.0731 33.4369 60.2562 33.5937 59.4682C33.7504 58.6801 34.1374 57.9563 34.7055 57.3881C35.2737 56.82 35.9975 56.4331 36.7856 56.2763C37.5736 56.1196 38.3905 56.2 39.1328 56.5075C39.8751 56.815 40.5096 57.3357 40.956 58.0037C41.4024 58.6718 41.6406 59.4573 41.6406 60.2607C41.6406 61.3382 41.2126 62.3715 40.4507 63.1334C39.6889 63.8952 38.6556 64.3232 37.5781 64.3232ZM37.5781 58.2295C37.1764 58.2295 36.7837 58.3486 36.4496 58.5718C36.1156 58.795 35.8552 59.1123 35.7015 59.4834C35.5478 59.8546 35.5075 60.263 35.5859 60.657C35.6643 61.051 35.8577 61.413 36.1418 61.6971C36.4259 61.9811 36.7878 62.1746 37.1818 62.253C37.5759 62.3313 37.9843 62.2911 38.3555 62.1374C38.7266 61.9836 39.0439 61.7233 39.2671 61.3892C39.4902 61.0552 39.6094 60.6625 39.6094 60.2607C39.6094 59.722 39.3954 59.2054 39.0144 58.8244C38.6335 58.4435 38.1168 58.2295 37.5781 58.2295Z" fill="black"/>
<path d="M49.7656 54.167H33.5156V37.917H49.7656V54.167ZM35.5469 52.1357H47.7344V39.9482H35.5469V52.1357Z" fill="black"/>
<path d="M44.6875 49.0889H45.7031V50.1045H44.6875V49.0889Z" fill="black"/>
<path d="M42.6562 49.0889H43.6719V50.1045H42.6562V49.0889Z" fill="black"/>
<path d="M18.2812 55.1826H12.1875V48.0732H18.2812V55.1826ZM14.2188 53.1514H16.25V50.1045H14.2188V53.1514Z" fill="black"/>
<path d="M44.6875 45.0264H38.5938V37.917H44.6875V45.0264ZM40.625 42.9951H42.6562V39.9482H40.625V42.9951Z" fill="black"/>
<path d="M61.5773 53.1514H54.8438C54.5744 53.1514 54.3161 53.0444 54.1256 52.8539C53.9351 52.6634 53.8281 52.4051 53.8281 52.1357V48.0732C53.8281 47.8039 53.9351 47.5456 54.1256 47.3551C54.3161 47.1646 54.5744 47.0576 54.8438 47.0576H60.0539C60.2607 47.0574 60.4626 47.1203 60.6326 47.2379C60.8027 47.3555 60.9328 47.5222 61.0055 47.7157L62.529 51.7782C62.5868 51.932 62.6065 52.0975 62.5863 52.2605C62.5661 52.4235 62.5067 52.5792 62.4131 52.7143C62.3195 52.8493 62.1946 52.9596 62.049 53.0357C61.9035 53.1118 61.7416 53.1515 61.5773 53.1514ZM55.8594 51.1201H60.1118L59.3501 49.0889H55.8594V51.1201Z" fill="black"/>
<path d="M62.9688 61.2764H59.9219V59.2451H60.9375V53.3362L58.2024 46.042H52.8125V54.167H32.5V59.2451H34.5312V61.2764H30.4688V52.1357H50.7812V44.0107H59.6101L62.9688 52.9665V61.2764Z" fill="black"/>
<path d="M40.625 59.2451H53.8281V61.2764H40.625V59.2451Z" fill="black"/>
<path d="M37.5781 61.2764C38.139 61.2764 38.5938 60.8217 38.5938 60.2607C38.5938 59.6998 38.139 59.2451 37.5781 59.2451C37.0172 59.2451 36.5625 59.6998 36.5625 60.2607C36.5625 60.8217 37.0172 61.2764 37.5781 61.2764Z" fill="black"/>
<path d="M56.875 61.2764C57.4359 61.2764 57.8906 60.8217 57.8906 60.2607C57.8906 59.6998 57.4359 59.2451 56.875 59.2451C56.3141 59.2451 55.8594 59.6998 55.8594 60.2607C55.8594 60.8217 56.3141 61.2764 56.875 61.2764Z" fill="black"/>
<path d="M57.8906 42.9951V16.2009L32.4919 3.50151L6.09375 16.211V63.3076C6.09375 63.577 5.98675 63.8353 5.79628 64.0258C5.60581 64.2162 5.34749 64.3232 5.07812 64.3232C4.80876 64.3232 4.55044 64.2162 4.35997 64.0258C4.1695 63.8353 4.0625 63.577 4.0625 63.3076V15.5732C4.06267 15.3822 4.1167 15.1952 4.21838 15.0335C4.32006 14.8718 4.46527 14.7421 4.63734 14.6592L32.0592 1.45604C32.199 1.38882 32.3523 1.35451 32.5074 1.35574C32.6625 1.35698 32.8153 1.39372 32.954 1.46315L59.3602 14.6663C59.5288 14.7505 59.6705 14.8799 59.7697 15.0401C59.8689 15.2002 59.9216 15.3848 59.9219 15.5732V42.9951H57.8906Z" fill="black"/>
<circle cx="12" cy="12.3389" r="10.5" stroke="black" stroke-width="3"/>
<circle cx="12" cy="12.3389" r="10.5" stroke="black" stroke-width="3"/>
<circle cx="12" cy="12.3389" r="12" fill="#1964AA"/>
<path d="M10.3081 9.71687L9.46808 8.38687L11.9741 6.51087H13.1221V16.3389H11.5121V8.80687L10.3081 9.71687Z" fill="white"/>
</svg>
