<svg width="65" height="66" viewBox="0 0 65 66" fill="none" xmlns="http://www.w3.org/2000/svg">
<g clip-path="url(#clip0_522_7)">
<path d="M57.8601 13.2633C54.9002 9.38815 52.3697 7.76053 48.1862 10.9462L45.1746 13.2396C44.45 13.7892 41.7959 13.9724 39.2278 14.1507C39.0282 14.1637 38.8278 14.1801 38.6274 14.1932L37.8308 13.8562C34.7212 12.5321 33.3071 11.9309 29.7157 12.2253C28.9911 12.2891 28.1781 12.375 27.3218 12.4641C24.9876 12.7111 20.8719 13.1372 19.4243 12.9753C19.3768 12.9115 19.3302 12.8436 19.2624 12.788L16.996 11.0166C12.8592 7.77448 10.3032 9.36773 7.28768 13.2061L2.58067 19.2086C1.11106 21.0815 -0.213921 23.0935 0.0289058 25.1203C0.203873 26.5393 1.07253 27.8177 1.92393 28.4817L5.1619 31.0172C5.82684 31.5456 6.28158 32.0944 6.60635 32.7111L5.20863 34.1866C4.19117 35.2548 3.89271 36.8432 4.42509 38.3309C4.93633 39.7754 6.16714 40.9416 7.63689 41.3809C8.05886 41.5035 8.48499 41.564 8.89804 41.564C9.10248 41.564 9.298 41.5345 9.49425 41.5092C9.43861 42.1137 9.50733 42.7442 9.72414 43.3626C10.2394 44.8013 11.4704 45.97 12.9359 46.4083C13.3579 46.5318 13.7833 46.5915 14.2013 46.5915C14.4017 46.5915 14.6012 46.562 14.7934 46.5367C14.7387 47.1411 14.8065 47.7726 15.0233 48.3941C15.5395 49.8344 16.7703 50.9974 18.24 51.4349C18.662 51.5593 19.0832 51.6181 19.5012 51.6181C19.7572 51.6181 20.0124 51.5944 20.2594 51.5469C20.2978 51.8438 20.3616 52.1431 20.4729 52.436C20.9456 53.7364 22.0613 54.7931 23.3781 55.1931C23.778 55.3166 24.1787 55.3771 24.5755 55.3771C25.5382 55.3771 26.4452 55.0148 27.088 54.3335H27.0929V54.3294L27.4676 53.9368L30.0448 55.948C30.3425 56.1828 31.0802 56.4207 31.8416 56.4207C32.4043 56.4207 32.9875 56.289 33.5413 56.0241C34.7893 55.4287 35.7398 54.219 36.0163 52.8728C36.0457 52.7189 36.0677 52.5612 36.0801 52.4041C36.3574 52.4637 36.6337 52.5023 36.9233 52.5023C37.5368 52.5023 38.1632 52.3657 38.7635 52.0884C40.1523 51.4414 41.2 50.1075 41.4896 48.6083C41.5534 48.2762 41.5747 47.9474 41.5665 47.6243C41.9549 47.7511 42.3671 47.8157 42.7851 47.8157C43.3985 47.8157 44.0291 47.6791 44.6293 47.4026C46.0133 46.759 47.0576 45.4216 47.3553 43.9217C47.4068 43.6616 47.4281 43.4024 47.4323 43.1472C47.9819 43.4286 48.5912 43.5758 49.2177 43.5758C49.8352 43.5758 50.4618 43.4392 51.058 43.1627C52.4419 42.5207 53.4904 41.1868 53.7889 39.6834C54.0449 38.3715 53.7038 37.08 52.8982 36.1672C55.2708 35.1285 57.8735 33.6465 60.0335 30.8943L62.1633 29.2683C63.88 27.9597 64.7707 26.6952 64.9621 25.2852C65.2181 23.3722 64.1614 21.5237 62.4912 19.3343L57.8601 13.2633ZM8.62574 14.257C11.5734 10.4996 13.0807 10.1087 15.9483 12.3522L17.5203 13.5832L5.39668 29.0388L3.16063 27.2919C2.49973 26.7726 1.83163 25.8507 1.72035 24.9151C1.57975 23.7733 2.21851 22.423 3.91887 20.2588L8.62574 14.257ZM6.02653 37.7583C5.71168 36.8766 5.86954 35.9564 6.44044 35.3553L9.28593 32.357C9.57548 32.0586 10.4923 31.8491 11.3993 32.1174C12.3578 32.4036 13.1545 33.1601 13.4866 34.1033C13.8023 34.9899 13.6436 35.914 13.0777 36.5062V36.5111L10.224 39.5094C9.94267 39.8079 9.02254 40.0125 8.11953 39.7482C7.16015 39.4627 6.35936 38.7037 6.02653 37.7583ZM11.3264 42.7933C11.0156 41.9033 11.1726 40.9776 11.7395 40.3781L14.3085 37.6815C14.8794 37.0811 15.7913 36.8809 16.6984 37.1499C17.6569 37.4312 18.4535 38.1895 18.7905 39.1307C19.1062 40.0165 18.9444 40.9357 18.3775 41.541L15.8126 44.2376C15.2417 44.8338 14.3265 45.0424 13.4187 44.7741C12.4641 44.4894 11.6626 43.7265 11.3264 42.7933ZM16.6255 47.8207C16.3139 46.9292 16.4758 46.0099 17.0426 45.4096L19.6074 42.713V42.7073C20.1783 42.1118 21.0936 41.9042 22.0013 42.1765C22.9516 42.4578 23.7565 43.2201 24.0894 44.1573C24.4043 45.0431 24.2464 45.9681 23.6805 46.5668L21.1033 49.2691C20.5373 49.8612 19.6245 50.0648 18.7225 49.8014C17.7673 49.5155 16.9625 48.7572 16.6255 47.8207ZM22.0702 51.8504C21.9427 51.5094 21.9164 51.1733 21.9507 50.8494L22.3392 50.4405C22.3392 50.4356 22.3432 50.4356 22.3432 50.4356V50.4307L24.7078 47.9526C25.0275 47.9011 25.3637 47.91 25.717 48.0164C26.5349 48.2683 27.2294 48.9275 27.5278 49.7331C27.7961 50.4774 27.6766 51.2462 27.2212 51.7312L25.8578 53.1569C25.3973 53.6435 24.6399 53.8054 23.8768 53.5657C23.0549 53.3154 22.3605 52.6587 22.066 51.8499H22.07V51.8504H22.0702ZM50.3421 41.613C49.4859 42.0139 48.5527 41.9418 48.2246 41.6867L41.6389 36.5364C41.2684 36.2469 40.7359 36.3147 40.4465 36.6812C40.157 37.0517 40.2208 37.5882 40.5913 37.8786L44.9236 41.2696C45.5755 41.7808 45.869 42.6666 45.6908 43.5867C45.4953 44.5665 44.8132 45.4352 43.9144 45.8571C43.0539 46.2522 42.1167 46.1851 41.4697 45.674L37.1325 42.283C36.762 41.9935 36.2295 42.0613 35.94 42.4286C35.6505 42.7976 35.7184 43.3357 36.0848 43.6211L39.0669 45.9595C39.7139 46.4707 40.0041 47.3565 39.8251 48.2766C39.6338 49.2506 38.9524 50.1217 38.0487 50.543C37.1883 50.9388 36.251 50.8702 35.6041 50.359C35.5992 50.359 35.5992 50.359 35.5992 50.359L32.6302 48.0288C32.2597 47.7392 31.7232 47.8071 31.4327 48.1735C31.1432 48.544 31.211 49.0765 31.5784 49.3668L34.3216 51.5137C34.4034 51.8335 34.4239 52.1697 34.3518 52.5214C34.1769 53.3613 33.5887 54.1155 32.8134 54.486C32.0936 54.827 31.3232 54.7845 30.7899 54.3707L28.63 52.6801C29.384 51.7305 29.5795 50.4097 29.1239 49.1444C28.6422 47.8456 27.5307 46.7922 26.2179 46.3873C26.0641 46.3408 25.9113 46.3121 25.7574 46.2818C26.0257 45.4386 26.0135 44.4972 25.6896 43.5853C25.1743 42.1459 23.9475 40.9779 22.486 40.5435C21.8594 40.3562 21.2255 40.3187 20.6253 40.4029C20.6768 39.8026 20.6082 39.172 20.3905 38.5627C19.8793 37.1142 18.6485 35.948 17.1787 35.5169C16.5563 35.3296 15.9265 35.2912 15.3214 35.3763C15.3761 34.7759 15.3083 34.1495 15.0866 33.5361C14.5804 32.0876 13.3486 30.9254 11.8788 30.4903C10.3837 30.0429 8.84614 30.4085 7.82782 31.4276C7.53007 30.9638 7.15958 30.5271 6.70814 30.1157L18.8821 14.5965C20.2071 14.8395 22.8056 14.6439 27.5002 14.1532C28.3476 14.0681 29.1564 13.9832 29.8648 13.9153C32.2367 13.7182 33.4127 13.9193 35.168 14.5925C34.5931 14.7029 34.0386 14.8304 33.5364 15.0095L25.8474 17.7912C25.5113 17.8426 25.2005 17.8845 24.9191 17.9229C23.002 18.1871 21.8472 18.3448 21.2386 19.8784C20.8085 20.9859 21.1315 22.3623 22.0949 23.4698C23.6922 25.3149 26.4437 25.9962 29.3668 25.31L33.7073 24.7555C35.4797 24.5225 37.0042 25.7533 38.4789 26.9361L51.3557 37.028C52.0076 37.5359 52.3012 38.4265 52.1229 39.3451C51.9272 40.3273 51.2459 41.1958 50.3421 41.613ZM51.4503 34.9332L51.4454 34.9373L39.5435 25.6141C37.9584 24.3357 35.9743 22.7588 33.4904 23.0713L29.0689 23.6422C25.538 24.4641 23.8213 22.8668 23.3781 22.3597C22.8415 21.7381 22.624 21.0102 22.8244 20.5024C23.0419 19.9528 23.2587 19.8718 25.1504 19.6076C25.4653 19.565 25.8063 19.5184 26.1859 19.4628C26.2407 19.4497 26.2963 19.4406 26.347 19.4194L34.1169 16.6124C35.5146 16.1094 37.4613 15.9736 39.3441 15.8453C41.8362 15.6743 44.397 15.4903 46.2372 14.4819L58.3395 30.2515C56.2555 32.7094 53.8051 33.9674 51.4503 34.9332ZM61.1318 27.9101L59.5851 29.0894L47.6243 13.5079L49.2134 12.3015C52.1144 10.0907 53.6178 10.5047 56.5057 14.2996L61.1366 20.3609C62.8108 22.5553 63.4283 23.9139 63.2746 25.0507C63.147 25.988 62.4656 26.8951 61.1318 27.9101Z" fill="black"/>
</g>
<circle cx="12" cy="12.3389" r="10.5" stroke="black" stroke-width="3"/>
<circle cx="12" cy="12.3389" r="10.5" stroke="black" stroke-width="3"/>
<circle cx="12" cy="12.3389" r="12" fill="#1964AA"/>
<path d="M13.2621 8.14887H9.03408V6.53887H15.1941V7.61687L11.7361 16.3389H9.97208L13.2621 8.14887Z" fill="white"/>
<defs>
<clipPath id="clip0_522_7">
<rect width="65" height="65" fill="white" transform="translate(0 0.338867)"/>
</clipPath>
</defs>
</svg>
